<?xml version="1.0" encoding="UTF-8"?>
<svg xmlns="http://www.w3.org/2000/svg" xmlns:xlink="http://www.w3.org/1999/xlink" width="160.000mm" height="160.000mm" viewBox="-181.830551 19.650372 159.999985 160.000000">
    <path transform="matrix(-1.333333,0,0,1.333333,-181.955292,19.525146)" style="stroke:#000000;stroke-width:0.05mm;fill:none" d="M-74.867378,28.593063L-74.867378,40.665459"/>
    <path transform="matrix(-1.333333,0,0,1.333333,-181.955292,19.525146)" style="stroke:#000000;stroke-width:0.05mm;fill:none" d="M-84.363258,28.593063L-84.363258,40.665459"/>
    <path transform="matrix(-1.333333,0,0,1.333333,-181.955292,19.525146)" style="stroke:#000000;stroke-width:0.05mm;fill:none" d="M-93.157745,40.665459L-63.193974,40.665459"/>
    <path transform="matrix(-1.333333,0,0,1.333333,-181.955292,19.525146)" style="stroke:#000000;stroke-width:0.05mm;fill:none" d="M-63.193974,36.646973L-63.193974,40.665459"/>
    <rect transform="matrix(-0.352777,0,0,0.352777,-90.03862,60.272114)" style="stroke:#000000;stroke-width:0.05mm;fill:none" x="-18.165001" y="-2.422" width="36.330002" height="4.844"/>
    <rect transform="matrix(-0.352777,0,0,0.352777,-90.03862,63.233673)" style="stroke:#000000;stroke-width:0.05mm;fill:none" x="-18.165001" y="-2.422" width="36.330002" height="4.844"/>
    <rect transform="matrix(-0.352777,0,0,0.352777,-90.03862,66.195251)" style="stroke:#000000;stroke-width:0.05mm;fill:none" x="-18.165001" y="-2.422" width="36.330002" height="4.844"/>
    <rect transform="matrix(-0.352777,0,0,0.352777,-90.03862,68.916916)" style="stroke:#000000;stroke-width:0.05mm;fill:none" x="-18.165001" y="-2.422" width="36.330002" height="4.844"/>
    <rect transform="matrix(-0.352777,0,0,0.352777,-61.764931,60.232952)" style="stroke:#000000;stroke-width:0.05mm;fill:none" x="-18.165001" y="-2.422" width="36.330002" height="4.844"/>
    <rect transform="matrix(-0.352777,0,0,0.352777,-61.764931,63.194508)" style="stroke:#000000;stroke-width:0.05mm;fill:none" x="-18.165001" y="-2.422" width="36.330002" height="4.844"/>
    <rect transform="matrix(-0.352777,0,0,0.352777,-61.764931,71.719376)" style="stroke:#000000;stroke-width:0.05mm;fill:none" x="-18.165001" y="-2.422" width="36.330002" height="4.844"/>
    <rect transform="matrix(-0.352777,0,0,0.352777,-123.25473,43.597736)" style="stroke:#000000;stroke-width:0.05mm;fill:none" x="-2.835" y="-2.835" width="5.67" height="5.67"/>
    <rect transform="matrix(-0.352777,0,0,0.352777,-120.205673,43.597736)" style="stroke:#000000;stroke-width:0.05mm;fill:none" x="-2.835" y="-2.835" width="5.67" height="5.67"/>
    <rect transform="matrix(-0.352777,0,0,0.352777,-116.922028,43.597736)" style="stroke:#000000;stroke-width:0.05mm;fill:none" x="-2.835" y="-2.835" width="5.67" height="5.67"/>
    <rect transform="matrix(-0.352777,0,0,0.352777,-113.726196,43.597736)" style="stroke:#000000;stroke-width:0.05mm;fill:none" x="-2.835" y="-2.835" width="5.67" height="5.67"/>
    <rect transform="matrix(-0.352777,0,0,0.352777,-110.62072,43.597736)" style="stroke:#000000;stroke-width:0.05mm;fill:none" x="-2.835" y="-2.835" width="5.67" height="5.67"/>
    <rect transform="matrix(-0.352777,0,0,0.352777,-116.906494,46.675716)" style="stroke:#000000;stroke-width:0.05mm;fill:none" x="-2.835" y="-2.835" width="5.67" height="5.67"/>
    <rect transform="matrix(-0.352777,0,0,0.352777,-123.239197,49.627403)" style="stroke:#000000;stroke-width:0.05mm;fill:none" x="-2.835" y="-2.835" width="5.67" height="5.67"/>
    <rect transform="matrix(-0.352777,0,0,0.352777,-113.710693,49.627403)" style="stroke:#000000;stroke-width:0.05mm;fill:none" x="-2.835" y="-2.835" width="5.67" height="5.67"/>
    <rect transform="matrix(-0.352777,0,0,0.352777,-110.605186,49.627403)" style="stroke:#000000;stroke-width:0.05mm;fill:none" x="-2.835" y="-2.835" width="5.67" height="5.67"/>
    <rect transform="matrix(-0.352777,0,0,0.352777,-120.174263,52.579094)" style="stroke:#000000;stroke-width:0.05mm;fill:none" x="-2.835" y="-2.835" width="5.67" height="5.67"/>
    <rect transform="matrix(-0.352777,0,0,0.352777,-116.89061,52.579094)" style="stroke:#000000;stroke-width:0.05mm;fill:none" x="-2.835" y="-2.835" width="5.67" height="5.67"/>
    <rect transform="matrix(-0.352777,0,0,0.352777,-113.694801,52.579094)" style="stroke:#000000;stroke-width:0.05mm;fill:none" x="-2.835" y="-2.835" width="5.67" height="5.67"/>
    <rect transform="matrix(-0.352777,0,0,0.352777,-123.25473,55.559704)" style="stroke:#000000;stroke-width:0.05mm;fill:none" x="-2.835" y="-2.835" width="5.67" height="5.67"/>
    <rect transform="matrix(-0.352777,0,0,0.352777,-110.62072,55.559704)" style="stroke:#000000;stroke-width:0.05mm;fill:none" x="-2.835" y="-2.835" width="5.67" height="5.67"/>
    <rect transform="matrix(-0.352777,0,0,0.352777,-116.906494,58.637676)" style="stroke:#000000;stroke-width:0.05mm;fill:none" x="-2.835" y="-2.835" width="5.67" height="5.67"/>
    <rect transform="matrix(-0.352777,0,0,0.352777,-110.605186,58.637676)" style="stroke:#000000;stroke-width:0.05mm;fill:none" x="-2.835" y="-2.835" width="5.67" height="5.67"/>
    <rect transform="matrix(-0.352777,0,0,0.352777,-123.239197,61.589375)" style="stroke:#000000;stroke-width:0.05mm;fill:none" x="-2.835" y="-2.835" width="5.67" height="5.67"/>
    <rect transform="matrix(-0.352777,0,0,0.352777,-110.605186,61.589375)" style="stroke:#000000;stroke-width:0.05mm;fill:none" x="-2.835" y="-2.835" width="5.67" height="5.67"/>
    <rect transform="matrix(-0.352777,0,0,0.352777,-123.223663,64.541061)" style="stroke:#000000;stroke-width:0.05mm;fill:none" x="-2.835" y="-2.835" width="5.67" height="5.67"/>
    <rect transform="matrix(-0.352777,0,0,0.352777,-120.174263,64.541061)" style="stroke:#000000;stroke-width:0.05mm;fill:none" x="-2.835" y="-2.835" width="5.67" height="5.67"/>
    <rect transform="matrix(-0.352777,0,0,0.352777,-113.694801,64.541061)" style="stroke:#000000;stroke-width:0.05mm;fill:none" x="-2.835" y="-2.835" width="5.67" height="5.67"/>
    <rect transform="matrix(-0.352777,0,0,0.352777,-110.58931,64.541061)" style="stroke:#000000;stroke-width:0.05mm;fill:none" x="-2.835" y="-2.835" width="5.67" height="5.67"/>
    <rect transform="matrix(-0.352777,0,0,0.352777,-116.922028,67.906906)" style="stroke:#000000;stroke-width:0.05mm;fill:none" x="-2.835" y="-2.835" width="5.67" height="5.67"/>
    <rect transform="matrix(-0.352777,0,0,0.352777,-113.726196,67.906906)" style="stroke:#000000;stroke-width:0.05mm;fill:none" x="-2.835" y="-2.835" width="5.67" height="5.67"/>
    <rect transform="matrix(-0.352777,0,0,0.352777,-116.906494,70.984535)" style="stroke:#000000;stroke-width:0.05mm;fill:none" x="-2.835" y="-2.835" width="5.67" height="5.67"/>
    <rect transform="matrix(-0.352777,0,0,0.352777,-123.239197,73.936218)" style="stroke:#000000;stroke-width:0.05mm;fill:none" x="-2.835" y="-2.835" width="5.67" height="5.67"/>
    <rect transform="matrix(-0.352777,0,0,0.352777,-123.223663,76.887924)" style="stroke:#000000;stroke-width:0.05mm;fill:none" x="-2.835" y="-2.835" width="5.67" height="5.67"/>
    <path transform="matrix(-1.333333,0,0,1.333333,-181.955292,19.525146)" style="stroke:#000000;stroke-width:0.05mm;fill:none" d="M-55.060421,35.778877L-55.060421,45.471611"/>
    <path transform="matrix(-1.333333,0,0,1.333333,-181.955292,19.525146)" style="stroke:#000000;stroke-width:0.05mm;fill:none" d="M-43.815907,16.197346L-53.500969,16.197346"/>
    <path transform="matrix(-1.333333,0,0,1.333333,-181.955292,19.525146)" style="stroke:#000000;stroke-width:0.05mm;fill:none" d="M-52.409561,11.130499L-51.171314,11.130499"/>
    <path transform="matrix(-1.333333,0,0,1.333333,-181.955292,19.525146)" style="stroke:#000000;stroke-width:0.05mm;fill:none" d="M-46.538464,11.130499L-45.009174,11.130499"/>
    <path transform="matrix(-1.333333,0,0,1.333333,-181.955292,19.525146)" style="stroke:#000000;stroke-width:0.05mm;fill:none" d="M-51.171314,11.130499L-48.848541,8.920172L-48.824463,8.919378L-46.538464,11.130499"/>
    <path transform="matrix(-1.333333,0,0,1.333333,-181.955292,19.525146)" style="stroke:#000000;stroke-width:0.05mm;fill:none" d="M-47.280357,16.197344L-47.280357,11.522691"/>
    <path transform="matrix(-1.333333,0,0,1.333333,-181.955292,19.525146)" style="stroke:#000000;stroke-width:0.05mm;fill:none" d="M-48.863781,9.845529L-47.280617,11.522346"/>
    <path transform="matrix(-1.333333,0,0,1.333333,-181.955292,19.525146)" style="stroke:#000000;stroke-width:0.05mm;fill:none" d="M-50.499008,16.095745L-50.499008,11.52269"/>
    <path transform="matrix(-1.333333,0,0,1.333333,-181.955292,19.525146)" style="stroke:#000000;stroke-width:0.05mm;fill:none" d="M-81.812149,40.665459L-81.812149,25.635288L-77.355515,25.635288L-77.355515,40.665459"/>
    <rect transform="matrix(-0.352777,0,0,0.352777,-90.03862,71.75853)" style="stroke:#000000;stroke-width:0.05mm;fill:none" x="-18.165001" y="-2.422" width="36.330002" height="4.844"/>
    <rect transform="matrix(-0.352777,0,0,0.352777,-61.764931,66.156075)" style="stroke:#000000;stroke-width:0.05mm;fill:none" x="-18.165001" y="-2.422" width="36.330002" height="4.844"/>
    <rect transform="matrix(-0.352777,0,0,0.352777,-61.764931,68.877762)" style="stroke:#000000;stroke-width:0.05mm;fill:none" x="-18.165001" y="-2.422" width="36.330002" height="4.844"/>
    <rect transform="matrix(-0.352777,0,0,0.352777,-123.239197,46.675716)" style="stroke:#000000;stroke-width:0.05mm;fill:none" x="-2.835" y="-2.835" width="5.67" height="5.67"/>
    <rect transform="matrix(-0.352777,0,0,0.352777,-120.190147,46.675716)" style="stroke:#000000;stroke-width:0.05mm;fill:none" x="-2.835" y="-2.835" width="5.67" height="5.67"/>
    <rect transform="matrix(-0.352777,0,0,0.352777,-113.710693,46.675716)" style="stroke:#000000;stroke-width:0.05mm;fill:none" x="-2.835" y="-2.835" width="5.67" height="5.67"/>
    <rect transform="matrix(-0.352777,0,0,0.352777,-110.605186,46.675716)" style="stroke:#000000;stroke-width:0.05mm;fill:none" x="-2.835" y="-2.835" width="5.67" height="5.67"/>
    <rect transform="matrix(-0.352777,0,0,0.352777,-120.190147,49.627403)" style="stroke:#000000;stroke-width:0.05mm;fill:none" x="-2.835" y="-2.835" width="5.67" height="5.67"/>
    <rect transform="matrix(-0.352777,0,0,0.352777,-116.906494,49.627403)" style="stroke:#000000;stroke-width:0.05mm;fill:none" x="-2.835" y="-2.835" width="5.67" height="5.67"/>
    <rect transform="matrix(-0.352777,0,0,0.352777,-123.223663,52.579094)" style="stroke:#000000;stroke-width:0.05mm;fill:none" x="-2.835" y="-2.835" width="5.67" height="5.67"/>
    <rect transform="matrix(-0.352777,0,0,0.352777,-110.58931,52.579094)" style="stroke:#000000;stroke-width:0.05mm;fill:none" x="-2.835" y="-2.835" width="5.67" height="5.67"/>
    <rect transform="matrix(-0.352777,0,0,0.352777,-120.205673,55.559704)" style="stroke:#000000;stroke-width:0.05mm;fill:none" x="-2.835" y="-2.835" width="5.67" height="5.67"/>
    <rect transform="matrix(-0.352777,0,0,0.352777,-116.922028,55.559704)" style="stroke:#000000;stroke-width:0.05mm;fill:none" x="-2.835" y="-2.835" width="5.67" height="5.67"/>
    <rect transform="matrix(-0.352777,0,0,0.352777,-113.726196,55.559704)" style="stroke:#000000;stroke-width:0.05mm;fill:none" x="-2.835" y="-2.835" width="5.67" height="5.67"/>
    <rect transform="matrix(-0.352777,0,0,0.352777,-123.239197,58.637676)" style="stroke:#000000;stroke-width:0.05mm;fill:none" x="-2.835" y="-2.835" width="5.67" height="5.67"/>
    <rect transform="matrix(-0.352777,0,0,0.352777,-120.190147,58.637676)" style="stroke:#000000;stroke-width:0.05mm;fill:none" x="-2.835" y="-2.835" width="5.67" height="5.67"/>
    <rect transform="matrix(-0.352777,0,0,0.352777,-113.710693,58.637676)" style="stroke:#000000;stroke-width:0.05mm;fill:none" x="-2.835" y="-2.835" width="5.67" height="5.67"/>
    <rect transform="matrix(-0.352777,0,0,0.352777,-120.190147,61.589375)" style="stroke:#000000;stroke-width:0.05mm;fill:none" x="-2.835" y="-2.835" width="5.67" height="5.67"/>
    <rect transform="matrix(-0.352777,0,0,0.352777,-116.906494,61.589375)" style="stroke:#000000;stroke-width:0.05mm;fill:none" x="-2.835" y="-2.835" width="5.67" height="5.67"/>
    <rect transform="matrix(-0.352777,0,0,0.352777,-113.710693,61.589375)" style="stroke:#000000;stroke-width:0.05mm;fill:none" x="-2.835" y="-2.835" width="5.67" height="5.67"/>
    <rect transform="matrix(-0.352777,0,0,0.352777,-116.89061,64.541061)" style="stroke:#000000;stroke-width:0.05mm;fill:none" x="-2.835" y="-2.835" width="5.67" height="5.67"/>
    <rect transform="matrix(-0.352777,0,0,0.352777,-123.25473,67.906906)" style="stroke:#000000;stroke-width:0.05mm;fill:none" x="-2.835" y="-2.835" width="5.67" height="5.67"/>
    <rect transform="matrix(-0.352777,0,0,0.352777,-120.205673,67.906906)" style="stroke:#000000;stroke-width:0.05mm;fill:none" x="-2.835" y="-2.835" width="5.67" height="5.67"/>
    <rect transform="matrix(-0.352777,0,0,0.352777,-110.62072,67.906906)" style="stroke:#000000;stroke-width:0.05mm;fill:none" x="-2.835" y="-2.835" width="5.67" height="5.67"/>
    <rect transform="matrix(-0.352777,0,0,0.352777,-123.239197,70.984535)" style="stroke:#000000;stroke-width:0.05mm;fill:none" x="-2.835" y="-2.835" width="5.67" height="5.67"/>
    <rect transform="matrix(-0.352777,0,0,0.352777,-120.190147,70.984535)" style="stroke:#000000;stroke-width:0.05mm;fill:none" x="-2.835" y="-2.835" width="5.67" height="5.67"/>
    <rect transform="matrix(-0.352777,0,0,0.352777,-113.710693,70.984535)" style="stroke:#000000;stroke-width:0.05mm;fill:none" x="-2.835" y="-2.835" width="5.67" height="5.67"/>
    <rect transform="matrix(-0.352777,0,0,0.352777,-110.605186,70.984535)" style="stroke:#000000;stroke-width:0.05mm;fill:none" x="-2.835" y="-2.835" width="5.67" height="5.67"/>
    <rect transform="matrix(-0.352777,0,0,0.352777,-120.190147,73.936218)" style="stroke:#000000;stroke-width:0.05mm;fill:none" x="-2.835" y="-2.835" width="5.67" height="5.67"/>
    <rect transform="matrix(-0.352777,0,0,0.352777,-116.906494,73.936218)" style="stroke:#000000;stroke-width:0.05mm;fill:none" x="-2.835" y="-2.835" width="5.67" height="5.67"/>
    <rect transform="matrix(-0.352777,0,0,0.352777,-113.710693,73.936218)" style="stroke:#000000;stroke-width:0.05mm;fill:none" x="-2.835" y="-2.835" width="5.67" height="5.67"/>
    <rect transform="matrix(-0.352777,0,0,0.352777,-110.605186,73.936218)" style="stroke:#000000;stroke-width:0.05mm;fill:none" x="-2.835" y="-2.835" width="5.67" height="5.67"/>
    <rect transform="matrix(-0.352777,0,0,0.352777,-120.174263,76.887924)" style="stroke:#000000;stroke-width:0.05mm;fill:none" x="-2.835" y="-2.835" width="5.67" height="5.67"/>
    <rect transform="matrix(-0.352777,0,0,0.352777,-116.89061,76.887924)" style="stroke:#000000;stroke-width:0.05mm;fill:none" x="-2.835" y="-2.835" width="5.67" height="5.67"/>
    <rect transform="matrix(-0.352777,0,0,0.352777,-113.694801,76.887924)" style="stroke:#000000;stroke-width:0.05mm;fill:none" x="-2.835" y="-2.835" width="5.67" height="5.67"/>
    <rect transform="matrix(-0.352777,0,0,0.352777,-110.58931,76.887924)" style="stroke:#000000;stroke-width:0.05mm;fill:none" x="-2.835" y="-2.835" width="5.67" height="5.67"/>
    <path transform="matrix(-1.333333,0,0,1.333333,-181.955292,19.525146)" style="stroke:#000000;stroke-width:0.05mm;fill:none" d="M-42.360699,37.170849L-42.360699,45.941776"/>
    <path transform="matrix(-1.333333,0,0,1.333333,-181.955292,19.525146)" style="stroke:#000000;stroke-width:0.05mm;fill:none" d="M-46.537674,16.197346L-46.537674,11.130581"/>
    <path transform="matrix(-1.333333,0,0,1.333333,-181.955292,19.525146)" style="stroke:#000000;stroke-width:0.05mm;fill:none" d="M-51.171581,16.022985L-51.171581,11.130316"/>
    <path transform="matrix(-1.333333,0,0,1.333333,-181.955292,19.525146)" style="stroke:#000000;stroke-width:0.05mm;fill:none" d="M-48.863747,9.845468L-50.499142,11.522401"/>
    <path transform="matrix(-1.333333,0,0,1.333333,-181.955292,19.525146)" style="stroke:#000000;stroke-width:0.05mm;fill:none" d="M-79.897324,88.37294L-69.394485,82.42038"/>
    <path transform="matrix(-1.333333,0,0,1.333333,-181.955292,19.525146)" style="stroke:#000000;stroke-width:0.05mm;fill:none" d="M-75.215271,96.634285L-64.712433,90.681725"/>
    <path transform="matrix(-1.333333,0,0,1.333333,-181.955292,19.525146)" style="stroke:#000000;stroke-width:0.05mm;fill:none" d="M-65.97023,88.462402L-79.046455,95.873367L-81.24382,91.99617L-68.167595,84.585197"/>
    <rect transform="matrix(-0.173948,0.30691,0.30691,0.173948,-73.809387,129.183212)" style="stroke:#000000;stroke-width:0.05mm;fill:none" x="-18.1595" y="-2.4205" width="36.319" height="4.841"/>
    <rect transform="matrix(-0.173948,0.30691,0.30691,0.173948,-76.386581,127.724991)" style="stroke:#000000;stroke-width:0.05mm;fill:none" x="-18.1665" y="-2.4225" width="36.333" height="4.845"/>
    <rect transform="matrix(0.173941,-0.306914,-0.306914,-0.173941,-90.292618,152.340637)" style="stroke:#000000;stroke-width:0.05mm;fill:none" x="-18.165001" y="-2.4225" width="36.330002" height="4.845"/>
    <rect transform="matrix(0.173941,-0.306914,-0.306914,-0.173941,-92.868927,150.880478)" style="stroke:#000000;stroke-width:0.05mm;fill:none" x="-18.165001" y="-2.4225" width="36.330002" height="4.845"/>
    <rect transform="matrix(0.173941,-0.306914,-0.306914,-0.173941,-97.709038,148.137283)" style="stroke:#000000;stroke-width:0.05mm;fill:none" x="-18.165001" y="-2.4225" width="36.330002" height="4.845"/>
    <rect transform="matrix(0.173953,-0.306907,-0.306907,-0.173953,-44.428482,111.160423)" style="stroke:#000000;stroke-width:0.05mm;fill:none" x="-2.835" y="-2.8345" width="5.67" height="5.669"/>
    <rect transform="matrix(0.173953,-0.306907,-0.306907,-0.173953,-46.047379,114.017212)" style="stroke:#000000;stroke-width:0.05mm;fill:none" x="-2.835" y="-2.8345" width="5.67" height="5.669"/>
    <rect transform="matrix(0.173953,-0.306907,-0.306907,-0.173953,-47.623245,116.797447)" style="stroke:#000000;stroke-width:0.05mm;fill:none" x="-2.835" y="-2.8345" width="5.67" height="5.669"/>
    <rect transform="matrix(0.173953,-0.306907,-0.306907,-0.173953,-49.154297,119.499382)" style="stroke:#000000;stroke-width:0.05mm;fill:none" x="-2.835" y="-2.8345" width="5.67" height="5.669"/>
    <rect transform="matrix(0.173953,-0.306907,-0.306907,-0.173953,-47.113831,109.65654)" style="stroke:#000000;stroke-width:0.05mm;fill:none" x="-2.835" y="-2.8345" width="5.67" height="5.669"/>
    <rect transform="matrix(0.173953,-0.306907,-0.306907,-0.173953,-48.732727,112.51297)" style="stroke:#000000;stroke-width:0.05mm;fill:none" x="-2.835" y="-2.8345" width="5.67" height="5.669"/>
    <rect transform="matrix(0.173953,-0.306907,-0.306907,-0.173953,-50.308594,115.293564)" style="stroke:#000000;stroke-width:0.05mm;fill:none" x="-2.835" y="-2.8345" width="5.67" height="5.669"/>
    <rect transform="matrix(0.173953,-0.306907,-0.306907,-0.173953,-51.839981,117.99514)" style="stroke:#000000;stroke-width:0.05mm;fill:none" x="-2.835" y="-2.8345" width="5.67" height="5.669"/>
    <rect transform="matrix(0.173953,-0.306907,-0.306907,-0.173953,-48.178162,105.548439)" style="stroke:#000000;stroke-width:0.05mm;fill:none" x="-2.835" y="-2.8345" width="5.67" height="5.669"/>
    <rect transform="matrix(0.173953,-0.306907,-0.306907,-0.173953,-49.681702,108.200974)" style="stroke:#000000;stroke-width:0.05mm;fill:none" x="-2.835" y="-2.8345" width="5.67" height="5.669"/>
    <rect transform="matrix(0.173953,-0.306907,-0.306907,-0.173953,-51.300934,111.057762)" style="stroke:#000000;stroke-width:0.05mm;fill:none" x="-2.835" y="-2.8345" width="5.67" height="5.669"/>
    <rect transform="matrix(0.173953,-0.306907,-0.306907,-0.173953,-52.876434,113.838005)" style="stroke:#000000;stroke-width:0.05mm;fill:none" x="-2.835" y="-2.8345" width="5.67" height="5.669"/>
    <rect transform="matrix(0.173953,-0.306907,-0.306907,-0.173953,-54.407852,116.539932)" style="stroke:#000000;stroke-width:0.05mm;fill:none" x="-2.835" y="-2.8345" width="5.67" height="5.669"/>
    <rect transform="matrix(0.173953,-0.306907,-0.306907,-0.173953,-53.876587,109.615959)" style="stroke:#000000;stroke-width:0.05mm;fill:none" x="-2.835" y="-2.8345" width="5.67" height="5.669"/>
    <rect transform="matrix(0.173953,-0.306907,-0.306907,-0.173953,-55.45208,112.396561)" style="stroke:#000000;stroke-width:0.05mm;fill:none" x="-2.835" y="-2.8345" width="5.67" height="5.669"/>
    <rect transform="matrix(0.173953,-0.306907,-0.306907,-0.173953,-58.030167,110.899368)" style="stroke:#000000;stroke-width:0.05mm;fill:none" x="-2.835" y="-2.8345" width="5.67" height="5.669"/>
    <rect transform="matrix(0.173953,-0.306907,-0.306907,-0.173953,-56.017227,101.105568)" style="stroke:#000000;stroke-width:0.05mm;fill:none" x="-2.835" y="-2.8345" width="5.67" height="5.669"/>
    <rect transform="matrix(0.173953,-0.306907,-0.306907,-0.173953,-57.520767,103.758102)" style="stroke:#000000;stroke-width:0.05mm;fill:none" x="-2.835" y="-2.8345" width="5.67" height="5.669"/>
    <rect transform="matrix(0.173953,-0.306907,-0.306907,-0.173953,-58.585098,99.650352)" style="stroke:#000000;stroke-width:0.05mm;fill:none" x="-2.835" y="-2.8345" width="5.67" height="5.669"/>
    <rect transform="matrix(0.173953,-0.306907,-0.306907,-0.173953,-63.283379,107.939926)" style="stroke:#000000;stroke-width:0.05mm;fill:none" x="-2.835" y="-2.8345" width="5.67" height="5.669"/>
    <rect transform="matrix(0.173953,-0.306907,-0.306907,-0.173953,-64.814789,110.641853)" style="stroke:#000000;stroke-width:0.05mm;fill:none" x="-2.835" y="-2.8345" width="5.67" height="5.669"/>
    <rect transform="matrix(0.173953,-0.306907,-0.306907,-0.173953,-61.160713,98.208549)" style="stroke:#000000;stroke-width:0.05mm;fill:none" x="-2.835" y="-2.8345" width="5.67" height="5.669"/>
    <rect transform="matrix(0.173953,-0.306907,-0.306907,-0.173953,-62.664253,100.861092)" style="stroke:#000000;stroke-width:0.05mm;fill:none" x="-2.835" y="-2.8345" width="5.67" height="5.669"/>
    <rect transform="matrix(0.173953,-0.306907,-0.306907,-0.173953,-65.859016,106.498123)" style="stroke:#000000;stroke-width:0.05mm;fill:none" x="-2.835" y="-2.8345" width="5.67" height="5.669"/>
    <rect transform="matrix(0.173953,-0.306907,-0.306907,-0.173953,-68.771896,104.811485)" style="stroke:#000000;stroke-width:0.05mm;fill:none" x="-2.835" y="-2.8345" width="5.67" height="5.669"/>
    <rect transform="matrix(0.173953,-0.306907,-0.306907,-0.173953,-68.262482,97.670212)" style="stroke:#000000;stroke-width:0.05mm;fill:none" x="-2.835" y="-2.8345" width="5.67" height="5.669"/>
    <rect transform="matrix(0.173953,-0.306907,-0.306907,-0.173953,-72.988289,106.009171)" style="stroke:#000000;stroke-width:0.05mm;fill:none" x="-2.835" y="-2.8345" width="5.67" height="5.669"/>
    <rect transform="matrix(0.173953,-0.306907,-0.306907,-0.173953,-69.326805,93.562477)" style="stroke:#000000;stroke-width:0.05mm;fill:none" x="-2.835" y="-2.8345" width="5.67" height="5.669"/>
    <rect transform="matrix(0.173953,-0.306907,-0.306907,-0.173953,-74.025085,101.852036)" style="stroke:#000000;stroke-width:0.05mm;fill:none" x="-2.835" y="-2.8345" width="5.67" height="5.669"/>
    <rect transform="matrix(0.173953,-0.306907,-0.306907,-0.173953,-75.556503,104.553955)" style="stroke:#000000;stroke-width:0.05mm;fill:none" x="-2.835" y="-2.8345" width="5.67" height="5.669"/>
    <rect transform="matrix(0.173953,-0.306907,-0.306907,-0.173953,-73.405968,94.773201)" style="stroke:#000000;stroke-width:0.05mm;fill:none" x="-2.835" y="-2.8345" width="5.67" height="5.669"/>
    <rect transform="matrix(0.173953,-0.306907,-0.306907,-0.173953,-78.132118,103.112152)" style="stroke:#000000;stroke-width:0.05mm;fill:none" x="-2.835" y="-2.8345" width="5.67" height="5.669"/>
    <path transform="matrix(-1.333333,0,0,1.333333,-181.955292,19.525146)" style="stroke:#000000;stroke-width:0.05mm;fill:none" d="M-106.773453,76.367767L-109.84182,75.436966L-109.854256,75.416328L-109.057861,72.337112"/>
    <path transform="matrix(-1.333333,0,0,1.333333,-181.955292,19.525146)" style="stroke:#000000;stroke-width:0.05mm;fill:none" d="M-104.283592,70.48452L-108.35067,72.789665"/>
    <path transform="matrix(-1.333333,0,0,1.333333,-181.955292,19.525146)" style="stroke:#000000;stroke-width:0.05mm;fill:none" d="M-102.785133,73.334946L-106.763451,75.589592"/>
    <path transform="matrix(-1.333333,0,0,1.333333,-181.955292,19.525146)" style="stroke:#000000;stroke-width:0.05mm;fill:none" d="M-60.376297,98.332748L-75.150528,72.264885"/>
    <path transform="matrix(-1.333333,0,0,1.333333,-181.955292,19.525146)" style="stroke:#000000;stroke-width:0.05mm;fill:none" d="M-78.646202,74.246117L-75.150154,72.26474"/>
    <rect transform="matrix(-0.174021,0.306869,0.306869,0.174021,-78.961906,126.264008)" style="stroke:#000000;stroke-width:0.05mm;fill:none" x="-18.167" y="-2.418" width="36.334" height="4.836"/>
    <rect transform="matrix(-0.17398,0.306892,0.306892,0.17398,-81.328941,124.920074)" style="stroke:#000000;stroke-width:0.05mm;fill:none" x="-18.1665" y="-2.4205" width="36.333" height="4.841"/>
    <rect transform="matrix(0.173941,-0.306914,-0.306914,-0.173941,-83.8022,123.520126)" style="stroke:#000000;stroke-width:0.05mm;fill:none" x="-18.165001" y="-2.4225" width="36.330002" height="4.845"/>
    <rect transform="matrix(0.173941,-0.306914,-0.306914,-0.173941,-87.715919,153.800766)" style="stroke:#000000;stroke-width:0.05mm;fill:none" x="-18.165001" y="-2.4225" width="36.330002" height="4.845"/>
    <rect transform="matrix(0.173941,-0.306914,-0.306914,-0.173941,-95.236763,149.538513)" style="stroke:#000000;stroke-width:0.05mm;fill:none" x="-18.165001" y="-2.4225" width="36.330002" height="4.845"/>
    <rect transform="matrix(0.173953,-0.306907,-0.306907,-0.173953,-42.924973,108.50753)" style="stroke:#000000;stroke-width:0.05mm;fill:none" x="-2.835" y="-2.8345" width="5.67" height="5.669"/>
    <rect transform="matrix(0.173953,-0.306907,-0.306907,-0.173953,-45.610291,107.003647)" style="stroke:#000000;stroke-width:0.05mm;fill:none" x="-2.835" y="-2.8345" width="5.67" height="5.669"/>
    <rect transform="matrix(0.173953,-0.306907,-0.306907,-0.173953,-50.753784,104.106628)" style="stroke:#000000;stroke-width:0.05mm;fill:none" x="-2.835" y="-2.8345" width="5.67" height="5.669"/>
    <rect transform="matrix(0.173953,-0.306907,-0.306907,-0.173953,-52.257339,106.759171)" style="stroke:#000000;stroke-width:0.05mm;fill:none" x="-2.835" y="-2.8345" width="5.67" height="5.669"/>
    <rect transform="matrix(0.173953,-0.306907,-0.306907,-0.173953,-56.983475,115.098129)" style="stroke:#000000;stroke-width:0.05mm;fill:none" x="-2.835" y="-2.8345" width="5.67" height="5.669"/>
    <rect transform="matrix(0.173953,-0.306907,-0.306907,-0.173953,-53.331879,102.609451)" style="stroke:#000000;stroke-width:0.05mm;fill:none" x="-2.835" y="-2.8345" width="5.67" height="5.669"/>
    <rect transform="matrix(0.173953,-0.306907,-0.306907,-0.173953,-54.83506,105.262337)" style="stroke:#000000;stroke-width:0.05mm;fill:none" x="-2.835" y="-2.8345" width="5.67" height="5.669"/>
    <rect transform="matrix(0.173953,-0.306907,-0.306907,-0.173953,-56.454315,108.119133)" style="stroke:#000000;stroke-width:0.05mm;fill:none" x="-2.835" y="-2.8345" width="5.67" height="5.669"/>
    <rect transform="matrix(0.173953,-0.306907,-0.306907,-0.173953,-59.561234,113.601288)" style="stroke:#000000;stroke-width:0.05mm;fill:none" x="-2.835" y="-2.8345" width="5.67" height="5.669"/>
    <rect transform="matrix(0.173953,-0.306907,-0.306907,-0.173953,-59.139664,106.614899)" style="stroke:#000000;stroke-width:0.05mm;fill:none" x="-2.835" y="-2.8345" width="5.67" height="5.669"/>
    <rect transform="matrix(0.173953,-0.306907,-0.306907,-0.173953,-60.715508,109.395485)" style="stroke:#000000;stroke-width:0.05mm;fill:none" x="-2.835" y="-2.8345" width="5.67" height="5.669"/>
    <rect transform="matrix(0.173953,-0.306907,-0.306907,-0.173953,-62.246918,112.097054)" style="stroke:#000000;stroke-width:0.05mm;fill:none" x="-2.835" y="-2.8345" width="5.67" height="5.669"/>
    <rect transform="matrix(0.173953,-0.306907,-0.306907,-0.173953,-60.088615,102.302895)" style="stroke:#000000;stroke-width:0.05mm;fill:none" x="-2.835" y="-2.8345" width="5.67" height="5.669"/>
    <rect transform="matrix(0.173953,-0.306907,-0.306907,-0.173953,-61.707527,105.159683)" style="stroke:#000000;stroke-width:0.05mm;fill:none" x="-2.835" y="-2.8345" width="5.67" height="5.669"/>
    <rect transform="matrix(0.173953,-0.306907,-0.306907,-0.173953,-64.28315,103.71788)" style="stroke:#000000;stroke-width:0.05mm;fill:none" x="-2.835" y="-2.8345" width="5.67" height="5.669"/>
    <rect transform="matrix(0.173953,-0.306907,-0.306907,-0.173953,-67.390411,109.20005)" style="stroke:#000000;stroke-width:0.05mm;fill:none" x="-2.835" y="-2.8345" width="5.67" height="5.669"/>
    <rect transform="matrix(0.173953,-0.306907,-0.306907,-0.173953,-64.073601,96.521584)" style="stroke:#000000;stroke-width:0.05mm;fill:none" x="-2.835" y="-2.8345" width="5.67" height="5.669"/>
    <rect transform="matrix(0.173953,-0.306907,-0.306907,-0.173953,-65.57679,99.174461)" style="stroke:#000000;stroke-width:0.05mm;fill:none" x="-2.835" y="-2.8345" width="5.67" height="5.669"/>
    <rect transform="matrix(0.173953,-0.306907,-0.306907,-0.173953,-67.19603,102.031242)" style="stroke:#000000;stroke-width:0.05mm;fill:none" x="-2.835" y="-2.8345" width="5.67" height="5.669"/>
    <rect transform="matrix(0.173953,-0.306907,-0.306907,-0.173953,-70.30294,107.513412)" style="stroke:#000000;stroke-width:0.05mm;fill:none" x="-2.835" y="-2.8345" width="5.67" height="5.669"/>
    <rect transform="matrix(0.173953,-0.306907,-0.306907,-0.173953,-66.758942,95.017685)" style="stroke:#000000;stroke-width:0.05mm;fill:none" x="-2.835" y="-2.8345" width="5.67" height="5.669"/>
    <rect transform="matrix(0.173953,-0.306907,-0.306907,-0.173953,-69.881371,100.527016)" style="stroke:#000000;stroke-width:0.05mm;fill:none" x="-2.835" y="-2.8345" width="5.67" height="5.669"/>
    <rect transform="matrix(0.173953,-0.306907,-0.306907,-0.173953,-71.457222,103.307602)" style="stroke:#000000;stroke-width:0.05mm;fill:none" x="-2.835" y="-2.8345" width="5.67" height="5.669"/>
    <rect transform="matrix(0.173953,-0.306907,-0.306907,-0.173953,-70.830345,96.215012)" style="stroke:#000000;stroke-width:0.05mm;fill:none" x="-2.835" y="-2.8345" width="5.67" height="5.669"/>
    <rect transform="matrix(0.173953,-0.306907,-0.306907,-0.173953,-72.449242,99.0718)" style="stroke:#000000;stroke-width:0.05mm;fill:none" x="-2.835" y="-2.8345" width="5.67" height="5.669"/>
    <rect transform="matrix(0.173953,-0.306907,-0.306907,-0.173953,-71.902428,92.120674)" style="stroke:#000000;stroke-width:0.05mm;fill:none" x="-2.835" y="-2.8345" width="5.67" height="5.669"/>
    <rect transform="matrix(0.173953,-0.306907,-0.306907,-0.173953,-75.024864,97.629997)" style="stroke:#000000;stroke-width:0.05mm;fill:none" x="-2.835" y="-2.8345" width="5.67" height="5.669"/>
    <rect transform="matrix(0.173953,-0.306907,-0.306907,-0.173953,-76.600708,100.410233)" style="stroke:#000000;stroke-width:0.05mm;fill:none" x="-2.835" y="-2.8345" width="5.67" height="5.669"/>
    <path transform="matrix(-1.333333,0,0,1.333333,-181.955292,19.525146)" style="stroke:#000000;stroke-width:0.05mm;fill:none" d="M-88.462997,55.862885L-80.832359,51.538239"/>
    <path transform="matrix(-1.333333,0,0,1.333333,-181.955292,19.525146)" style="stroke:#000000;stroke-width:0.05mm;fill:none" d="M-83.411415,67.597992L-74.979065,62.818928"/>
    <path transform="matrix(-1.333333,0,0,1.333333,-181.955292,19.525146)" style="stroke:#000000;stroke-width:0.05mm;fill:none" d="M-105.991974,67.470535L-101.21653,75.896423"/>
    <path transform="matrix(-1.333333,0,0,1.333333,-181.955292,19.525146)" style="stroke:#000000;stroke-width:0.05mm;fill:none" d="M-106.162766,77.444839L-106.773346,76.367599"/>
    <path transform="matrix(-1.333333,0,0,1.333333,-181.955292,19.525146)" style="stroke:#000000;stroke-width:0.05mm;fill:none" d="M-109.057495,72.337257L-109.811501,71.006767"/>
    <path transform="matrix(-1.333333,0,0,1.333333,-181.955292,19.525146)" style="stroke:#000000;stroke-width:0.05mm;fill:none" d="M-104.649933,69.838486L-109.057976,72.336731"/>
    <path transform="matrix(-1.333333,0,0,1.333333,-181.955292,19.525146)" style="stroke:#000000;stroke-width:0.05mm;fill:none" d="M-102.516815,73.956047L-106.773193,76.368271"/>
    <path transform="matrix(-1.333333,0,0,1.333333,-181.955292,19.525146)" style="stroke:#000000;stroke-width:0.05mm;fill:none" d="M-109.029121,74.993996L-108.3507,72.789391"/>
    <path transform="matrix(-1.333333,0,0,1.333333,-181.955292,19.525146)" style="stroke:#000000;stroke-width:0.05mm;fill:none" d="M-109.029053,74.994041L-106.763489,75.589935"/>
    <path transform="matrix(-1.333333,0,0,1.333333,-181.955292,19.525146)" style="stroke:#000000;stroke-width:0.05mm;fill:none" d="M-25.367075,62.801395L-35.808006,56.740883"/>
    <path transform="matrix(-1.333333,0,0,1.333333,-181.955292,19.525146)" style="stroke:#000000;stroke-width:0.05mm;fill:none" d="M-26.62619,40.922256L-41.668377,66.837036"/>
    <path transform="matrix(-1.333333,0,0,1.333333,-181.955292,19.525146)" style="stroke:#000000;stroke-width:0.05mm;fill:none" d="M-32.321625,50.734432L-19.322393,58.279812L-21.559708,62.133995L-34.558941,54.588879"/>
    <rect transform="matrix(0.177095,0.305105,0.305105,-0.177095,-141.894791,108.781448)" style="stroke:#000000;stroke-width:0.05mm;fill:none" x="-18.165001" y="-2.4215" width="36.330002" height="4.843"/>
    <rect transform="matrix(0.177095,0.305105,0.305105,-0.177095,-139.333633,107.294495)" style="stroke:#000000;stroke-width:0.05mm;fill:none" x="-18.165001" y="-2.4215" width="36.330002" height="4.843"/>
    <rect transform="matrix(0.177095,0.305105,0.305105,-0.177095,-134.418396,104.441574)" style="stroke:#000000;stroke-width:0.05mm;fill:none" x="-18.165001" y="-2.4215" width="36.330002" height="4.843"/>
    <rect transform="matrix(0.177095,0.305105,0.305105,-0.177095,-131.960938,103.014938)" style="stroke:#000000;stroke-width:0.05mm;fill:none" x="-18.165001" y="-2.4215" width="36.330002" height="4.843"/>
    <rect transform="matrix(0.177095,0.305105,0.305105,-0.177095,-153.561142,82.86113)" style="stroke:#000000;stroke-width:0.05mm;fill:none" x="-18.165001" y="-2.4215" width="36.330002" height="4.843"/>
    <rect transform="matrix(0.177095,0.305105,0.305105,-0.177095,-146.188446,78.581589)" style="stroke:#000000;stroke-width:0.05mm;fill:none" x="-18.165001" y="-2.4215" width="36.330002" height="4.843"/>
    <rect transform="matrix(0.177073,0.305118,0.305118,-0.177073,-144.424637,137.638702)" style="stroke:#000000;stroke-width:0.05mm;fill:none" x="-2.8355" y="-2.8345" width="5.671" height="5.669"/>
    <rect transform="matrix(0.177073,0.305118,0.305118,-0.177073,-145.983551,134.952667)" style="stroke:#000000;stroke-width:0.05mm;fill:none" x="-2.8355" y="-2.8345" width="5.671" height="5.669"/>
    <rect transform="matrix(0.177073,0.305118,0.305118,-0.177073,-136.98703,144.320648)" style="stroke:#000000;stroke-width:0.05mm;fill:none" x="-2.8355" y="-2.8345" width="5.671" height="5.669"/>
    <rect transform="matrix(0.177073,0.305118,0.305118,-0.177073,-140.165909,138.843781)" style="stroke:#000000;stroke-width:0.05mm;fill:none" x="-2.8355" y="-2.8345" width="5.671" height="5.669"/>
    <rect transform="matrix(0.177073,0.305118,0.305118,-0.177073,-141.770355,136.079788)" style="stroke:#000000;stroke-width:0.05mm;fill:none" x="-2.8355" y="-2.8345" width="5.671" height="5.669"/>
    <rect transform="matrix(0.177073,0.305118,0.305118,-0.177073,-134.434341,142.838989)" style="stroke:#000000;stroke-width:0.05mm;fill:none" x="-2.8355" y="-2.8345" width="5.671" height="5.669"/>
    <rect transform="matrix(0.177073,0.305118,0.305118,-0.177073,-137.61322,137.362122)" style="stroke:#000000;stroke-width:0.05mm;fill:none" x="-2.8355" y="-2.8345" width="5.671" height="5.669"/>
    <rect transform="matrix(0.177073,0.305118,0.305118,-0.177073,-140.776581,131.912064)" style="stroke:#000000;stroke-width:0.05mm;fill:none" x="-2.8355" y="-2.8345" width="5.671" height="5.669"/>
    <rect transform="matrix(0.177073,0.305118,0.305118,-0.177073,-131.889404,141.343933)" style="stroke:#000000;stroke-width:0.05mm;fill:none" x="-2.8355" y="-2.8345" width="5.671" height="5.669"/>
    <rect transform="matrix(0.177073,0.305118,0.305118,-0.177073,-133.420105,138.706573)" style="stroke:#000000;stroke-width:0.05mm;fill:none" x="-2.8355" y="-2.8345" width="5.671" height="5.669"/>
    <rect transform="matrix(0.177073,0.305118,0.305118,-0.177073,-130.826126,137.237595)" style="stroke:#000000;stroke-width:0.05mm;fill:none" x="-2.8355" y="-2.8345" width="5.671" height="5.669"/>
    <rect transform="matrix(0.177073,0.305118,0.305118,-0.177073,-132.474655,134.3974)" style="stroke:#000000;stroke-width:0.05mm;fill:none" x="-2.8355" y="-2.8345" width="5.671" height="5.669"/>
    <rect transform="matrix(0.177073,0.305118,0.305118,-0.177073,-134.079102,131.633377)" style="stroke:#000000;stroke-width:0.05mm;fill:none" x="-2.8355" y="-2.8345" width="5.671" height="5.669"/>
    <rect transform="matrix(0.177073,0.305118,0.305118,-0.177073,-126.641487,138.315674)" style="stroke:#000000;stroke-width:0.05mm;fill:none" x="-2.8355" y="-2.8345" width="5.671" height="5.669"/>
    <rect transform="matrix(0.177073,0.305118,0.305118,-0.177073,-128.17218,135.67868)" style="stroke:#000000;stroke-width:0.05mm;fill:none" x="-2.8355" y="-2.8345" width="5.671" height="5.669"/>
    <rect transform="matrix(0.177073,0.305118,0.305118,-0.177073,-129.820358,132.838821)" style="stroke:#000000;stroke-width:0.05mm;fill:none" x="-2.8355" y="-2.8345" width="5.671" height="5.669"/>
    <rect transform="matrix(0.177073,0.305118,0.305118,-0.177073,-124.088791,136.83403)" style="stroke:#000000;stroke-width:0.05mm;fill:none" x="-2.8355" y="-2.8345" width="5.671" height="5.669"/>
    <rect transform="matrix(0.177073,0.305118,0.305118,-0.177073,-127.26767,131.357147)" style="stroke:#000000;stroke-width:0.05mm;fill:none" x="-2.8355" y="-2.8345" width="5.671" height="5.669"/>
    <rect transform="matrix(0.177073,0.305118,0.305118,-0.177073,-121.543854,135.338593)" style="stroke:#000000;stroke-width:0.05mm;fill:none" x="-2.8355" y="-2.8345" width="5.671" height="5.669"/>
    <rect transform="matrix(0.177073,0.305118,0.305118,-0.177073,-126.327164,127.097725)" style="stroke:#000000;stroke-width:0.05mm;fill:none" x="-2.8355" y="-2.8345" width="5.671" height="5.669"/>
    <rect transform="matrix(0.177073,0.305118,0.305118,-0.177073,-127.886086,124.412025)" style="stroke:#000000;stroke-width:0.05mm;fill:none" x="-2.8355" y="-2.8345" width="5.671" height="5.669"/>
    <rect transform="matrix(0.177073,0.305118,0.305118,-0.177073,-118.617218,133.676315)" style="stroke:#000000;stroke-width:0.05mm;fill:none" x="-2.8355" y="-2.8345" width="5.671" height="5.669"/>
    <rect transform="matrix(0.177073,0.305118,0.305118,-0.177073,-121.796097,128.199448)" style="stroke:#000000;stroke-width:0.05mm;fill:none" x="-2.8355" y="-2.8345" width="5.671" height="5.669"/>
    <rect transform="matrix(0.177073,0.305118,0.305118,-0.177073,-123.40052,125.435432)" style="stroke:#000000;stroke-width:0.05mm;fill:none" x="-2.8355" y="-2.8345" width="5.671" height="5.669"/>
    <rect transform="matrix(0.177073,0.305118,0.305118,-0.177073,-115.962921,132.117737)" style="stroke:#000000;stroke-width:0.05mm;fill:none" x="-2.8355" y="-2.8345" width="5.671" height="5.669"/>
    <rect transform="matrix(0.177073,0.305118,0.305118,-0.177073,-119.142151,126.640518)" style="stroke:#000000;stroke-width:0.05mm;fill:none" x="-2.8355" y="-2.8345" width="5.671" height="5.669"/>
    <rect transform="matrix(0.177073,0.305118,0.305118,-0.177073,-122.305496,121.190819)" style="stroke:#000000;stroke-width:0.05mm;fill:none" x="-2.8355" y="-2.8345" width="5.671" height="5.669"/>
    <rect transform="matrix(0.177073,0.305118,0.305118,-0.177073,-114.940933,127.998711)" style="stroke:#000000;stroke-width:0.05mm;fill:none" x="-2.8355" y="-2.8345" width="5.671" height="5.669"/>
    <rect transform="matrix(0.177073,0.305118,0.305118,-0.177073,-118.193535,122.394844)" style="stroke:#000000;stroke-width:0.05mm;fill:none" x="-2.8355" y="-2.8345" width="5.671" height="5.669"/>
    <rect transform="matrix(0.177073,0.305118,0.305118,-0.177073,-110.865295,129.140656)" style="stroke:#000000;stroke-width:0.05mm;fill:none" x="-2.8355" y="-2.8345" width="5.671" height="5.669"/>
    <rect transform="matrix(0.177073,0.305118,0.305118,-0.177073,-114.044518,123.663429)" style="stroke:#000000;stroke-width:0.05mm;fill:none" x="-2.8355" y="-2.8345" width="5.671" height="5.669"/>
    <rect transform="matrix(0.177073,0.305118,0.305118,-0.177073,-115.648598,120.899422)" style="stroke:#000000;stroke-width:0.05mm;fill:none" x="-2.8355" y="-2.8345" width="5.671" height="5.669"/>
    <rect transform="matrix(0.177073,0.305118,0.305118,-0.177073,-117.20787,118.213737)" style="stroke:#000000;stroke-width:0.05mm;fill:none" x="-2.8355" y="-2.8345" width="5.671" height="5.669"/>
    <path transform="matrix(-1.333333,0,0,1.333333,-181.581223,19.722809)" style="stroke:#000000;stroke-width:0.05mm;fill:none" d="M-41.525291,76.323845L-49.90799,71.458214"/>
    <path transform="matrix(-1.333333,0,0,1.333333,-181.955292,19.525146)" style="stroke:#000000;stroke-width:0.05mm;fill:none" d="M-30.234493,95.879379L-25.372459,87.502846"/>
    <path transform="matrix(-1.333333,0,0,1.333333,-181.955292,19.525146)" style="stroke:#000000;stroke-width:0.05mm;fill:none" d="M-21.538319,90.990578L-22.159933,92.061798"/>
    <path transform="matrix(-1.333333,0,0,1.333333,-181.955292,19.525146)" style="stroke:#000000;stroke-width:0.05mm;fill:none" d="M-22.206882,94.702057L-24.452358,95.229691"/>
    <path transform="matrix(-1.333333,0,0,1.333333,-181.955292,19.525146)" style="stroke:#000000;stroke-width:0.05mm;fill:none" d="M-26.791533,90.150055L-22.836226,92.445877"/>
    <path transform="matrix(-1.333333,0,0,1.333333,-181.955292,19.525146)" style="stroke:#000000;stroke-width:0.05mm;fill:none" d="M-22.207119,94.702141L-22.836588,92.445946"/>
    <path transform="matrix(-1.333333,0,0,1.333333,-181.955292,19.525146)" style="stroke:#000000;stroke-width:0.05mm;fill:none" d="M-20.600084,54.588734L-31.041018,48.528221"/>
    <path transform="matrix(-1.333333,0,0,1.333333,-181.955292,19.525146)" style="stroke:#000000;stroke-width:0.05mm;fill:none" d="M-38.192841,68.853973L-41.668388,66.836845"/>
    <rect transform="matrix(0.177095,0.305105,0.305105,-0.177095,-136.772461,105.807877)" style="stroke:#000000;stroke-width:0.05mm;fill:none" x="-18.165001" y="-2.4215" width="36.330002" height="4.843"/>
    <rect transform="matrix(0.177095,0.305105,0.305105,-0.177095,-156.12265,84.34774)" style="stroke:#000000;stroke-width:0.05mm;fill:none" x="-18.165001" y="-2.4215" width="36.330002" height="4.843"/>
    <rect transform="matrix(0.177095,0.305105,0.305105,-0.177095,-150.999969,81.374535)" style="stroke:#000000;stroke-width:0.05mm;fill:none" x="-18.165001" y="-2.4215" width="36.330002" height="4.843"/>
    <rect transform="matrix(0.177095,0.305105,0.305105,-0.177095,-148.645889,80.008224)" style="stroke:#000000;stroke-width:0.05mm;fill:none" x="-18.165001" y="-2.4215" width="36.330002" height="4.843"/>
    <rect transform="matrix(0.177073,0.305118,0.305118,-0.177073,-139.640976,145.879578)" style="stroke:#000000;stroke-width:0.05mm;fill:none" x="-2.8355" y="-2.8345" width="5.671" height="5.669"/>
    <rect transform="matrix(0.177073,0.305118,0.305118,-0.177073,-141.171677,143.242569)" style="stroke:#000000;stroke-width:0.05mm;fill:none" x="-2.8355" y="-2.8345" width="5.671" height="5.669"/>
    <rect transform="matrix(0.177073,0.305118,0.305118,-0.177073,-142.820206,140.402374)" style="stroke:#000000;stroke-width:0.05mm;fill:none" x="-2.8355" y="-2.8345" width="5.671" height="5.669"/>
    <rect transform="matrix(0.177073,0.305118,0.305118,-0.177073,-138.517731,141.683655)" style="stroke:#000000;stroke-width:0.05mm;fill:none" x="-2.8355" y="-2.8345" width="5.671" height="5.669"/>
    <rect transform="matrix(0.177073,0.305118,0.305118,-0.177073,-143.329269,133.394089)" style="stroke:#000000;stroke-width:0.05mm;fill:none" x="-2.8355" y="-2.8345" width="5.671" height="5.669"/>
    <rect transform="matrix(0.177073,0.305118,0.305118,-0.177073,-135.965042,140.201996)" style="stroke:#000000;stroke-width:0.05mm;fill:none" x="-2.8355" y="-2.8345" width="5.671" height="5.669"/>
    <rect transform="matrix(0.177073,0.305118,0.305118,-0.177073,-139.217636,134.598114)" style="stroke:#000000;stroke-width:0.05mm;fill:none" x="-2.8355" y="-2.8345" width="5.671" height="5.669"/>
    <rect transform="matrix(0.177073,0.305118,0.305118,-0.177073,-135.068283,135.866714)" style="stroke:#000000;stroke-width:0.05mm;fill:none" x="-2.8355" y="-2.8345" width="5.671" height="5.669"/>
    <rect transform="matrix(0.177073,0.305118,0.305118,-0.177073,-136.672714,133.102692)" style="stroke:#000000;stroke-width:0.05mm;fill:none" x="-2.8355" y="-2.8345" width="5.671" height="5.669"/>
    <rect transform="matrix(0.177073,0.305118,0.305118,-0.177073,-138.231628,130.417007)" style="stroke:#000000;stroke-width:0.05mm;fill:none" x="-2.8355" y="-2.8345" width="5.671" height="5.669"/>
    <rect transform="matrix(0.177073,0.305118,0.305118,-0.177073,-129.295441,139.874603)" style="stroke:#000000;stroke-width:0.05mm;fill:none" x="-2.8355" y="-2.8345" width="5.671" height="5.669"/>
    <rect transform="matrix(0.177073,0.305118,0.305118,-0.177073,-135.638016,128.947693)" style="stroke:#000000;stroke-width:0.05mm;fill:none" x="-2.8355" y="-2.8345" width="5.671" height="5.669"/>
    <rect transform="matrix(0.177073,0.305118,0.305118,-0.177073,-131.424789,130.074814)" style="stroke:#000000;stroke-width:0.05mm;fill:none" x="-2.8355" y="-2.8345" width="5.671" height="5.669"/>
    <rect transform="matrix(0.177073,0.305118,0.305118,-0.177073,-132.983719,127.389114)" style="stroke:#000000;stroke-width:0.05mm;fill:none" x="-2.8355" y="-2.8345" width="5.671" height="5.669"/>
    <rect transform="matrix(0.177073,0.305118,0.305118,-0.177073,-125.619492,134.197021)" style="stroke:#000000;stroke-width:0.05mm;fill:none" x="-2.8355" y="-2.8345" width="5.671" height="5.669"/>
    <rect transform="matrix(0.177073,0.305118,0.305118,-0.177073,-128.872101,128.59314)" style="stroke:#000000;stroke-width:0.05mm;fill:none" x="-2.8355" y="-2.8345" width="5.671" height="5.669"/>
    <rect transform="matrix(0.177073,0.305118,0.305118,-0.177073,-130.431015,125.907104)" style="stroke:#000000;stroke-width:0.05mm;fill:none" x="-2.8355" y="-2.8345" width="5.671" height="5.669"/>
    <rect transform="matrix(0.177073,0.305118,0.305118,-0.177073,-123.074554,132.701584)" style="stroke:#000000;stroke-width:0.05mm;fill:none" x="-2.8355" y="-2.8345" width="5.671" height="5.669"/>
    <rect transform="matrix(0.177073,0.305118,0.305118,-0.177073,-124.722733,129.861725)" style="stroke:#000000;stroke-width:0.05mm;fill:none" x="-2.8355" y="-2.8345" width="5.671" height="5.669"/>
    <rect transform="matrix(0.177073,0.305118,0.305118,-0.177073,-120.147919,131.039307)" style="stroke:#000000;stroke-width:0.05mm;fill:none" x="-2.8355" y="-2.8345" width="5.671" height="5.669"/>
    <rect transform="matrix(0.177073,0.305118,0.305118,-0.177073,-124.95945,122.74939)" style="stroke:#000000;stroke-width:0.05mm;fill:none" x="-2.8355" y="-2.8345" width="5.671" height="5.669"/>
    <rect transform="matrix(0.177073,0.305118,0.305118,-0.177073,-117.493622,129.480377)" style="stroke:#000000;stroke-width:0.05mm;fill:none" x="-2.8355" y="-2.8345" width="5.671" height="5.669"/>
    <rect transform="matrix(0.177073,0.305118,0.305118,-0.177073,-120.746582,123.876511)" style="stroke:#000000;stroke-width:0.05mm;fill:none" x="-2.8355" y="-2.8345" width="5.671" height="5.669"/>
    <rect transform="matrix(0.177073,0.305118,0.305118,-0.177073,-113.410225,130.635727)" style="stroke:#000000;stroke-width:0.05mm;fill:none" x="-2.8355" y="-2.8345" width="5.671" height="5.669"/>
    <rect transform="matrix(0.177073,0.305118,0.305118,-0.177073,-116.589462,125.158859)" style="stroke:#000000;stroke-width:0.05mm;fill:none" x="-2.8355" y="-2.8345" width="5.671" height="5.669"/>
    <rect transform="matrix(0.177073,0.305118,0.305118,-0.177073,-119.752808,119.70916)" style="stroke:#000000;stroke-width:0.05mm;fill:none" x="-2.8355" y="-2.8345" width="5.671" height="5.669"/>
    <rect transform="matrix(0.177073,0.305118,0.305118,-0.177073,-112.395988,126.503281)" style="stroke:#000000;stroke-width:0.05mm;fill:none" x="-2.8355" y="-2.8345" width="5.671" height="5.669"/>
    <path transform="matrix(-1.333333,0,0,1.333333,-181.610001,19.757584)" style="stroke:#000000;stroke-width:0.05mm;fill:none" d="M-49.104015,86.608963L-56.689854,82.206207"/>
    <path transform="matrix(-1.333333,0,0,1.333333,-181.955292,19.525146)" style="stroke:#000000;stroke-width:0.05mm;fill:none" d="M-24.485584,96.068268L-25.253368,97.390854"/>
    <path transform="matrix(-1.333333,0,0,1.333333,-181.955292,19.525146)" style="stroke:#000000;stroke-width:0.05mm;fill:none" d="M-28.868038,93.525185L-24.485935,96.068665"/>
    <path transform="matrix(-1.333333,0,0,1.333333,-181.955292,19.525146)" style="stroke:#000000;stroke-width:0.05mm;fill:none" d="M-26.390825,89.604706L-22.159523,92.061188"/>
    <path transform="matrix(-1.333333,0,0,1.333333,-181.955292,19.525146)" style="stroke:#000000;stroke-width:0.05mm;fill:none" d="M-22.160046,92.061516L-21.41445,95.179886L-21.425827,95.201057L-24.485731,96.068359"/>
    <path transform="matrix(-1.333333,0,0,1.333333,-181.955292,19.525146)" style="stroke:#000000;stroke-width:0.05mm;fill:none" d="M-28.495253,92.88295L-24.452106,95.229828"/>
    <path transform="matrix(-1.333333,0,0,1.333333,-181.955292,19.525146)" style="stroke:#000000;stroke-width:0.05mm;fill:none" d="M-60.895294,10.94276C-61.019569,11.255523,-61.143749,11.568041,-61.268024,11.880805"/>
    <path transform="matrix(-1.333333,0,0,1.333333,-181.955292,19.525146)" style="stroke:#000000;stroke-width:0.05mm;fill:none" d="M-63.781952,13.218118C-63.782471,13.106414,-63.858364,12.479525,-63.315472,11.740887"/>
    <path transform="matrix(-1.333333,0,0,1.333333,-181.955292,19.525146)" style="stroke:#000000;stroke-width:0.05mm;fill:none" d="M-61.082863,9.298688C-61.331829,10.088246,-61.581032,10.878562,-61.829994,11.66812"/>
    <path transform="matrix(-1.333333,0,0,1.333333,-181.955292,19.525146)" style="stroke:#000000;stroke-width:0.05mm;fill:none" d="M-62.63636,13.358271L-62.063271,12.134305"/>
    <path transform="matrix(-1.333333,0,0,1.333333,-181.955292,19.525146)" style="stroke:#000000;stroke-width:0.05mm;fill:none" d="M-78.352646,8.516375C-78.852142,8.168898,-79.511536,7.850359,-79.616821,7.360784C-79.626976,7.312078,-79.771324,7.049664,-79.540382,6.858202C-79.481148,6.809588,-79.038643,6.620859,-78.666435,6.750652C-78.096115,6.948463,-77.071518,7.218904,-76.02346,7.752442"/>
    <path transform="matrix(-1.333333,0,0,1.333333,-181.955292,19.525146)" style="stroke:#000000;stroke-width:0.05mm;fill:none" d="M-78.385544,7.054122C-78.329453,7.078729,-78.471268,7.214725,-78.69458,7.351779L-79.32164,7.037983C-79.046211,6.898812,-78.807556,6.869708,-78.385544,7.054122z"/>
    <circle transform="matrix(0,-0.352777,-0.352777,0,-78.630157,29.955914)" style="stroke:#000000;stroke-width:0.05mm;fill:none" r="0.826" cx="0" cy="0"/>
    <circle transform="matrix(0,-0.352777,-0.352777,0,-79.689201,30.393215)" style="stroke:#000000;stroke-width:0.05mm;fill:none" r="0.826" cx="0" cy="0"/>
    <circle transform="matrix(0,-0.352777,-0.352777,0,-80.693207,30.75005)" style="stroke:#000000;stroke-width:0.05mm;fill:none" r="0.826" cx="0" cy="0"/>
    <circle transform="matrix(0,-0.352777,-0.352777,0,-81.756477,31.128578)" style="stroke:#000000;stroke-width:0.05mm;fill:none" r="0.826" cx="0" cy="0"/>
    <circle transform="matrix(0,-0.352777,-0.352777,0,-82.819748,31.462765)" style="stroke:#000000;stroke-width:0.05mm;fill:none" r="0.826" cx="0" cy="0"/>
    <circle transform="matrix(0,-0.352777,-0.352777,0,-83.803291,31.863026)" style="stroke:#000000;stroke-width:0.05mm;fill:none" r="0.826" cx="0" cy="0"/>
    <circle transform="matrix(0,-0.352777,-0.352777,0,-84.837288,32.260502)" style="stroke:#000000;stroke-width:0.05mm;fill:none" r="0.826" cx="0" cy="0"/>
    <circle transform="matrix(0,-0.352777,-0.352777,0,-85.922409,32.589256)" style="stroke:#000000;stroke-width:0.05mm;fill:none" r="0.826" cx="0" cy="0"/>
    <circle transform="matrix(0,-0.352777,-0.352777,0,-87.040367,32.880543)" style="stroke:#000000;stroke-width:0.05mm;fill:none" r="0.826" cx="0" cy="0"/>
    <circle transform="matrix(0,-0.352777,-0.352777,0,-88.107872,33.2523)" style="stroke:#000000;stroke-width:0.05mm;fill:none" r="0.826" cx="0" cy="0"/>
    <circle transform="matrix(-0.176451,-0.305478,-0.305478,0.176451,-89.139664,33.599663)" style="stroke:#000000;stroke-width:0.05mm;fill:none" r="0.826" cx="0" cy="0"/>
    <circle transform="matrix(0,-0.352777,-0.352777,0,-90.283447,33.997368)" style="stroke:#000000;stroke-width:0.05mm;fill:none" r="0.826" cx="0" cy="0"/>
    <circle transform="matrix(0,-0.352777,-0.352777,0,-91.311447,34.33984)" style="stroke:#000000;stroke-width:0.05mm;fill:none" r="0.826" cx="0" cy="0"/>
    <circle transform="matrix(0,-0.352777,-0.352777,0,-92.418808,34.631092)" style="stroke:#000000;stroke-width:0.05mm;fill:none" r="0.826" cx="0" cy="0"/>
    <circle transform="matrix(0,-0.352777,-0.352777,0,-93.474327,34.987823)" style="stroke:#000000;stroke-width:0.05mm;fill:none" r="0.826" cx="0" cy="0"/>
    <circle transform="matrix(0,-0.352777,-0.352777,0,-94.529823,35.27911)" style="stroke:#000000;stroke-width:0.05mm;fill:none" r="0.826" cx="0" cy="0"/>
    <path transform="matrix(-1.333333,0,0,1.333333,-181.955292,19.525146)" style="stroke:#000000;stroke-width:0.05mm;fill:none" d="M-71.0867,9.406511C-71.960091,9.12348,-72.833321,8.839946,-73.706627,8.556664"/>
    <path transform="matrix(-1.333333,0,0,1.333333,-181.955292,19.525146)" style="stroke:#000000;stroke-width:0.05mm;fill:none" d="M-67.785553,8.343196C-68.018387,8.446383,-68.224495,8.529198,-68.393562,8.593756C-68.716888,8.717052,-68.971153,8.798808,-69.229645,8.881622C-69.46804,8.957823,-69.677322,9.020264,-69.84745,9.069212"/>
    <path transform="matrix(-1.333333,0,0,1.333333,-181.955292,19.525146)" style="stroke:#000000;stroke-width:0.05mm;fill:none" d="M-72.468399,12.009789C-72.476868,12.226218,-72.485596,12.442912,-72.494858,12.65987C-72.513908,13.12342,-72.534279,13.585647,-72.55545,14.046286"/>
    <path transform="matrix(-1.333333,0,0,1.333333,-181.955292,19.525146)" style="stroke:#000000;stroke-width:0.05mm;fill:none" d="M-46.062748,98.863686C-46.350086,99.136208,-46.780563,99.624359,-47.032711,100.349579C-47.129284,100.626602,-47.180878,100.884567,-47.2076,101.106819"/>
    <path transform="matrix(-1.333333,0,0,1.333333,-181.955292,19.525146)" style="stroke:#000000;stroke-width:0.05mm;fill:none" d="M-51.650738,99.117416C-51.803139,99.433594,-51.983055,99.917252,-52.013744,100.524208C-52.026447,100.774239,-52.011364,100.999924,-51.984642,101.19413"/>
    <path transform="matrix(-1.333333,0,0,1.333333,-181.955292,19.525146)" style="stroke:#000000;stroke-width:0.05mm;fill:none" d="M-35.484711,100.149559C-35.629436,100.389275,-35.820202,100.774506,-35.905663,101.281708C-35.961754,101.614029,-35.956463,101.904541,-35.934765,102.126259"/>
    <path transform="matrix(-1.333333,0,0,1.333333,-181.955292,19.525146)" style="stroke:#000000;stroke-width:0.05mm;fill:none" d="M-40.300125,98.847809C-40.872948,99.040688,-41.292576,99.505295,-41.382004,100.058273C-41.466408,100.58136,-41.224049,100.990135,-41.148907,101.106819"/>
    <path transform="matrix(-1.333333,0,0,1.333333,-181.955292,19.525146)" style="stroke:#000000;stroke-width:0.05mm;fill:none" d="M-43.304466,105.796555C-43.631226,105.90847,-44.67289,106.311958,-45.285133,107.398605C-45.553688,107.875114,-45.653698,108.3302,-45.693123,108.651138"/>
    <path transform="matrix(-1.333333,0,0,1.333333,-181.955292,19.525146)" style="stroke:#000000;stroke-width:0.05mm;fill:none" d="M-52.479946,106.000282C-52.311935,105.942871,-50.920757,105.49308,-49.770882,106.320694C-49.281666,106.672852,-49.024757,107.120796,-48.897228,107.398338"/>
    <path transform="matrix(-1.333333,0,0,1.333333,-181.955292,19.525146)" style="stroke:#000000;stroke-width:0.05mm;fill:none" d="M-33.459064,104.660439C-33.645596,104.63636,-35.622295,104.413582,-36.867161,105.854767C-37.470673,106.553528,-37.631805,107.330345,-37.682606,107.719017"/>
    <path transform="matrix(-1.333333,0,0,1.333333,-181.955292,19.525146)" style="stroke:#000000;stroke-width:0.05mm;fill:none" d="M-39.226448,103.699203C-40.005379,103.579079,-40.712345,103.847366,-41.003387,104.369125C-41.068211,104.485542,-41.16452,104.708054,-41.148911,105.039047"/>
    <path transform="matrix(-1.333333,0,0,1.333333,-181.955292,19.525146)" style="stroke:#000000;stroke-width:0.05mm;fill:none" d="M-20.522541,88.346504C-20.475445,87.985878,-20.240231,86.492836,-19.011242,85.727135C-18.765974,85.574203,-18.51753,85.473137,-18.28311,85.406723"/>
    <path transform="matrix(-1.333333,0,0,1.333333,-181.955292,19.525146)" style="stroke:#000000;stroke-width:0.05mm;fill:none" d="M-23.02285,78.718323C-22.869656,78.268532,-22.368801,76.998535,-21.108591,76.406136C-20.867821,76.292892,-20.631283,76.219337,-20.409563,76.173035"/>
    <path transform="matrix(-1.333333,0,0,1.333333,-181.955292,19.525146)" style="stroke:#000000;stroke-width:0.05mm;fill:none" d="M-17.176359,65.45372C-17.351513,65.724121,-17.670071,66.299324,-17.700764,67.084877C-17.718225,67.535194,-17.63541,67.907463,-17.554977,68.162521"/>
    <path transform="matrix(-1.333333,0,0,1.333333,-181.955292,19.525146)" style="stroke:#000000;stroke-width:0.05mm;fill:none" d="M-22.040718,73.434868C-21.522135,72.724464,-20.793209,72.347435,-20.176466,72.502747C-20.044968,72.53582,-19.868227,72.605934,-19.681431,72.764946"/>
    <path transform="matrix(-1.333333,0,0,1.333333,-181.955292,19.525146)" style="stroke:#000000;stroke-width:0.05mm;fill:none" d="M-10.143024,57.94326C-10.084816,58.15519,-9.710167,59.439743,-8.525099,59.91943C-8.193048,60.053837,-7.877664,60.092468,-7.622341,60.094055"/>
    <path transform="matrix(-1.333333,0,0,1.333333,-181.955292,19.525146)" style="stroke:#000000;stroke-width:0.05mm;fill:none" d="M-10.370567,47.015984C-10.036135,46.42067,-9.355362,45.439331,-8.146482,44.889263C-7.926349,44.788986,-7.710979,44.713051,-7.505662,44.656166"/>
    <path transform="matrix(-1.333333,0,0,1.333333,-181.955292,19.525146)" style="stroke:#000000;stroke-width:0.05mm;fill:none" d="M-14.556192,65.690254C-15.113934,67.612717,-15.719035,70.851738,-14.70039,74.483406C-14.464646,75.323723,-14.171224,76.08149,-13.855577,76.755646"/>
    <path transform="matrix(-1.333333,0,0,1.333333,-181.955292,19.525146)" style="stroke:#000000;stroke-width:0.05mm;fill:none" d="M-12.611506,62.398842C-12.487416,62.223949,-11.916446,61.460629,-10.884572,61.288383C-10.317041,61.193665,-9.850581,61.317753,-9.602931,61.4048"/>
    <path transform="matrix(-1.333333,0,0,1.333333,-181.955292,19.525146)" style="stroke:#000000;stroke-width:0.05mm;fill:none" d="M-13.958235,64.875343C-13.96088,64.949951,-13.980195,65.983154,-13.185652,66.502266C-12.835079,66.731392,-12.474982,66.763145,-12.28263,66.764465"/>
    <path transform="matrix(-1.333333,0,0,1.333333,-181.955292,19.525146)" style="stroke:#000000;stroke-width:0.05mm;fill:none" d="M-9.894211,64.871109C-10.112227,65.078278,-11.196224,66.148514,-11.088539,67.638382C-11.05917,68.043198,-10.94831,68.387421,-10.826337,68.657822"/>
    <path transform="matrix(-1.333333,0,0,1.333333,-181.955292,19.525146)" style="stroke:#000000;stroke-width:0.05mm;fill:none" d="M-14.030466,81.561531C-15.26554,81.703346,-16.254288,82.378563,-16.53554,83.309105C-16.600098,83.522888,-16.667301,83.882187,-16.564644,84.35791"/>
    <path transform="matrix(-1.333333,0,0,1.333333,-181.955292,19.525146)" style="stroke:#000000;stroke-width:0.05mm;fill:none" d="M-17.642288,77.308891C-18.094196,76.357712,-17.868242,75.437759,-17.350983,75.153336C-17.012581,74.967331,-16.605387,75.084274,-16.418856,75.153336"/>
    <path transform="matrix(-1.333333,0,0,1.333333,-181.955292,19.525146)" style="stroke:#000000;stroke-width:0.05mm;fill:none" d="M-20.351357,80.192589C-21.343807,80.908554,-21.827202,81.876923,-21.574789,82.580978C-21.523195,82.724648,-21.420273,82.91568,-21.196171,83.105385"/>
    <path transform="matrix(-1.333333,0,0,1.333333,-181.955292,19.525146)" style="stroke:#000000;stroke-width:0.05mm;fill:none" d="M-17.059942,70.318077C-18.171455,69.852417,-19.363138,69.947662,-20.147627,70.609383C-20.559847,70.957047,-20.768339,71.384354,-20.875759,71.687035"/>
    <path transform="matrix(-1.333333,0,0,1.333333,-181.955292,19.525146)" style="stroke:#000000;stroke-width:0.05mm;fill:none" d="M-11.001095,70.929794C-11.719438,70.710724,-12.399152,70.958374,-12.63225,71.425095C-12.788089,71.737038,-12.706068,72.070412,-12.661354,72.211441"/>
    <path transform="matrix(-1.333333,0,0,1.333333,-181.955292,19.525146)" style="stroke:#000000;stroke-width:0.05mm;fill:none" d="M-5.670618,73.056244C-5.935201,73.225311,-6.849865,73.855553,-7.243565,75.095123C-7.578262,76.149223,-7.345429,77.042717,-7.243565,77.367363"/>
    <path transform="matrix(-1.333333,0,0,1.333333,-181.955292,19.525146)" style="stroke:#000000;stroke-width:0.05mm;fill:none" d="M-8.29216,81.969521C-9.100197,81.557831,-10.000308,81.711815,-10.447719,82.260826C-10.812578,82.708763,-10.758339,83.274712,-10.739024,83.426048"/>
    <path transform="matrix(-1.333333,0,0,1.333333,-181.955292,19.525146)" style="stroke:#000000;stroke-width:0.05mm;fill:none" d="M-14.467291,87.445602C-15.043288,87.701187,-15.429844,88.217918,-15.457625,88.785446C-15.480379,89.246353,-15.258659,89.59005,-15.166319,89.717575"/>
    <path transform="matrix(-1.333333,0,0,1.333333,-181.955292,19.525146)" style="stroke:#000000;stroke-width:0.05mm;fill:none" d="M-5.204556,49.811832C-5.266203,49.856548,-6.147,50.519592,-6.078474,51.617878C-6.024498,52.477772,-5.426805,52.987095,-5.320972,53.074142"/>
    <path transform="matrix(-1.333333,0,0,1.333333,-181.955292,19.525146)" style="stroke:#000000;stroke-width:0.05mm;fill:none" d="M-3.515114,63.502155C-4.057774,63.59079,-4.47899,63.994541,-4.563657,64.492485C-4.662611,65.071922,-4.258063,65.496582,-4.214142,65.541031"/>
    <path transform="matrix(-1.333333,0,0,1.333333,-181.955292,19.525146)" style="stroke:#000000;stroke-width:0.05mm;fill:none" d="M-6.71924,55.346115C-6.715801,55.671551,-6.658122,57.859917,-4.971669,59.074619C-4.458113,59.444508,-3.931858,59.624424,-3.515139,59.715439"/>
    <path transform="matrix(-1.333333,0,0,1.333333,-181.955292,19.525146)" style="stroke:#000000;stroke-width:0.05mm;fill:none" d="M-10.098125,76.726288C-10.480184,76.570709,-10.896902,76.641884,-11.146668,76.901176C-11.356747,77.118927,-11.376856,77.39489,-11.379766,77.483528"/>
    <path transform="matrix(-1.333333,0,0,1.333333,-181.955292,19.525146)" style="stroke:#000000;stroke-width:0.05mm;fill:none" d="M-22.448441,99.329872C-23.775589,99.12191,-25.010134,99.64711,-25.536125,100.611511C-25.891195,101.263184,-25.823462,101.932838,-25.768959,102.242668"/>
    <path transform="matrix(-1.333333,0,0,1.333333,-181.955292,19.525146)" style="stroke:#000000;stroke-width:0.05mm;fill:none" d="M-29.404594,100.276558C-29.586893,100.516266,-29.877934,100.977699,-29.920002,101.602119C-29.931114,101.767487,-29.922913,101.919357,-29.905451,102.053497"/>
    <path transform="matrix(-1.333333,0,0,1.333333,-181.955292,19.525146)" style="stroke:#000000;stroke-width:0.05mm;fill:none" d="M-32.275322,98.276306C-32.334061,98.257256,-32.802902,98.114113,-33.196865,98.39801C-33.384983,98.533478,-33.476265,98.7089,-33.517273,98.805733"/>
    <path transform="matrix(-1.333333,0,0,1.333333,-181.955292,19.525146)" style="stroke:#000000;stroke-width:0.05mm;fill:none" d="M-32.191978,100.247452C-32.272411,100.144524,-32.629864,99.710342,-33.24052,99.635735C-33.553787,99.597633,-33.809376,99.669067,-33.954365,99.723045"/>
    <path transform="matrix(-1.333333,0,0,1.333333,-181.955292,19.525146)" style="stroke:#000000;stroke-width:0.05mm;fill:none" d="M-30.138546,105.4907C-30.542564,105.437515,-30.903191,105.681992,-30.98336,106.015106C-31.042362,106.260635,-30.943407,106.531303,-30.73571,106.714134"/>
    <path transform="matrix(-1.333333,0,0,1.333333,-181.955292,19.525146)" style="stroke:#000000;stroke-width:0.05mm;fill:none" d="M-59.150341,107.893639C-58.750557,107.761345,-56.707447,107.130577,-54.781017,108.243149C-54.00235,108.69294,-53.503078,109.277405,-53.208069,109.699677"/>
    <path transform="matrix(-1.333333,0,0,1.333333,-181.955292,19.525146)" style="stroke:#000000;stroke-width:0.05mm;fill:none" d="M-44.644314,113.253296C-44.869209,113.153549,-47.205742,112.158981,-49.071846,113.428185C-49.647049,113.819237,-50.011116,114.312424,-50.237072,114.709824"/>
    <path transform="matrix(-1.333333,0,0,1.333333,-181.955292,19.525146)" style="stroke:#000000;stroke-width:0.05mm;fill:none" d="M-27.677132,97.618553C-27.381592,97.531769,-26.826233,97.411911,-26.14784,97.531242C-25.625818,97.623055,-25.23159,97.821228,-24.990026,97.968071"/>
    <path transform="matrix(-1.333333,0,0,1.333333,-181.955292,19.525146)" style="stroke:#000000;stroke-width:0.05mm;fill:none" d="M-17.300182,95.171951C-18.300571,95.186501,-19.676403,95.359276,-21.101448,96.067566C-21.420534,96.226311,-21.711311,96.396439,-21.975365,96.570007"/>
    <path transform="matrix(-1.333333,0,0,1.333333,-181.955292,19.525146)" style="stroke:#000000;stroke-width:0.05mm;fill:none" d="M-20.314842,96.657318C-20.500845,96.552544,-21.715546,95.893997,-23.08926,96.395119C-23.301985,96.472641,-24.39736,96.898621,-24.880753,98.011719C-25.000608,98.288208,-25.052467,98.536652,-25.077337,98.710747"/>
    <path transform="matrix(-1.333333,0,0,1.333333,-181.955292,19.525146)" style="stroke:#000000;stroke-width:0.05mm;fill:none" d="M-120.09362,60.093952C-120.09362,93.231133,-93.230759,120.093987,-60.093586,120.093987C-26.956409,120.093987,-0.093552,93.231133,-0.093552,60.093952C-0.093552,26.956509,-26.956409,0.093919,-60.093586,0.093919C-93.230759,0.093919,-120.09362,26.956509,-120.09362,60.093952z"/>
    <path transform="matrix(-1.333333,0,0,1.333333,-181.955292,19.525146)" style="stroke:#000000;stroke-width:0.05mm;fill:none" d="M-94.545471,90.380356C-94.545471,90.380356,-95.331558,89.745094,-96.337234,89.845894"/>
    <path transform="matrix(-1.333333,0,0,1.333333,-181.955292,19.525146)" style="stroke:#000000;stroke-width:0.05mm;fill:none" d="M-98.753403,83.169403C-98.753403,83.169403,-97.884781,83.550407,-97.956741,84.368233"/>
    <path transform="matrix(-1.333333,0,0,1.333333,-181.955292,19.525146)" style="stroke:#000000;stroke-width:0.05mm;fill:none" d="M-101.339447,86.249153C-101.339447,86.249153,-99.578903,88.383545,-99.823639,89.400078"/>
    <path transform="matrix(-1.333333,0,0,1.333333,-181.955292,19.525146)" style="stroke:#000000;stroke-width:0.05mm;fill:none" d="M-105.192566,86.59523C-105.192566,86.59523,-104.663925,86.564537,-104.298019,86.772766"/>
    <path transform="matrix(-1.333333,0,0,1.333333,-181.955292,19.525146)" style="stroke:#000000;stroke-width:0.05mm;fill:none" d="M-104.546188,89.75515C-104.546188,89.75515,-103.674911,91.007942,-103.890015,91.667557"/>
    <path transform="matrix(-1.333333,0,0,1.333333,-181.955292,19.525146)" style="stroke:#000000;stroke-width:0.05mm;fill:none" d="M-97.491882,92.163116C-97.491882,92.163116,-96.770615,92.851295,-96.871429,93.432854"/>
    <path transform="matrix(-1.333333,0,0,1.333333,-181.955292,19.525146)" style="stroke:#000000;stroke-width:0.05mm;fill:none" d="M-95.415421,99.767494C-95.415421,99.767494,-95.844315,99.080376,-96.359985,99.410576"/>
    <path transform="matrix(-1.333333,0,0,1.333333,-181.955292,19.525146)" style="stroke:#000000;stroke-width:0.05mm;fill:none" d="M-98.441193,97.797684C-98.441193,97.797684,-97.97554,98.174973,-97.846146,98.83696"/>
    <path transform="matrix(-1.333333,0,0,1.333333,-181.955292,19.525146)" style="stroke:#000000;stroke-width:0.05mm;fill:none" d="M-86.288635,103.146225C-86.288635,103.146225,-88.198929,102.643257,-88.501068,103.07505"/>
    <path transform="matrix(-1.333333,0,0,1.333333,-181.955292,19.525146)" style="stroke:#000000;stroke-width:0.05mm;fill:none" d="M-81.596786,107.063644C-81.596786,107.063644,-83.479294,106.153999,-84.074341,106.505371"/>
    <path transform="matrix(-1.333333,0,0,1.333333,-181.955292,19.525146)" style="stroke:#000000;stroke-width:0.05mm;fill:none" d="M-87.975876,105.440689C-87.975876,105.440689,-85.367889,105.578804,-85.036102,108.088638"/>
    <path transform="matrix(-1.333333,0,0,1.333333,-181.955292,19.525146)" style="stroke:#000000;stroke-width:0.05mm;fill:none" d="M-91.730057,100.681366C-91.730057,100.681366,-90.557144,99.683624,-89.995712,100.561508"/>
    <path transform="matrix(-1.333333,0,0,1.333333,-181.955292,19.525146)" style="stroke:#000000;stroke-width:0.05mm;fill:none" d="M-91.358307,102.79142C-91.358307,102.79142,-90.403427,102.860214,-90.132751,103.868271"/>
</svg>
