<?xml version="1.0" encoding="UTF-8"?>
<svg xmlns="http://www.w3.org/2000/svg" xmlns:xlink="http://www.w3.org/1999/xlink" width="160.000mm" height="160.000mm" viewBox="-85.368042 5.137508 160.000000 160.000015">
    <path transform="matrix(-3.785372,0,0,3.785474,-86.620911,3.977493)" style="stroke:#000000;stroke-width:0.05mm;fill:none" d="M-19.747814,21.451336C-19.747814,20.508671,-20.522957,19.73328,-21.46496,19.73328C-22.406963,19.73328,-23.182106,20.508671,-23.182106,21.451336C-23.182106,22.393749,-22.406963,23.16914,-21.46496,23.16914C-20.522957,23.16914,-19.747814,22.393749,-19.747814,21.451336z"/>
    <path transform="matrix(-3.785372,0,0,3.785474,-86.620911,3.977493)" style="stroke:#000000;stroke-width:0.05mm;fill:none" d="M-30.78969,40.426708C-31.241421,40.204426,-31.561357,39.779598,-31.650396,39.283962C-31.729229,38.845074,-32.114677,38.522625,-32.560417,38.522625C-32.649212,38.522625,-32.737511,38.535206,-32.822632,38.560375C-33.305359,38.70322,-33.8283,38.607983,-34.229485,38.303799C-35.114452,37.632763,-35.945175,36.892895,-36.713959,36.091351C-37.062496,35.727947,-37.217941,35.219486,-37.132156,34.723118C-37.123154,34.671062,-37.118618,34.618267,-37.118618,34.565479C-37.118618,34.079464,-37.501503,33.671909,-37.986374,33.642056C-38.488804,33.611217,-38.947586,33.342564,-39.2206,32.919453C-41.425697,29.501842,-42.598946,25.519024,-42.598946,21.451336C-42.598946,11.750874,-35.927322,3.235088,-26.512667,0.91827C-26.023849,0.798122,-25.505888,0.91753,-25.119228,1.239975C-24.953083,1.378628,-24.743517,1.454609,-24.527218,1.454609C-24.217442,1.454609,-23.927515,1.298935,-23.756414,1.04039C-23.478397,0.620495,-23.016481,0.35751,-22.51371,0.332344C-22.164406,0.315075,-21.814709,0.306438,-21.464962,0.306438C-9.871194,0.306438,-0.330978,9.851482,-0.330978,21.451336C-0.330978,23.445217,-0.612865,25.428974,-1.168259,27.343906C-1.308538,27.827702,-1.671057,28.216747,-2.143501,28.39043C-2.506439,28.523899,-2.749023,28.871754,-2.749023,29.258831C-2.749023,29.401928,-2.715834,29.543041,-2.652069,29.671078C-2.427658,30.122059,-2.430815,30.653706,-2.660576,31.101971C-7.890157,41.302265,-20.507177,45.484669,-30.789688,40.426708L-30.78969,40.426708z"/>
</svg>
