<?xml version="1.0" encoding="UTF-8"?>
<svg xmlns="http://www.w3.org/2000/svg" xmlns:xlink="http://www.w3.org/1999/xlink" width="160.000mm" height="160.000mm" viewBox="-184.028397 19.424728 160.000000 160.000000">
    <path transform="matrix(-1.333335,0,0,1.334059,-184.536194,18.915276)" style="stroke:#000000;stroke-width:0.05mm;fill:none" d="M-65.756897,46.885513C-65.756897,46.885513,-65.658997,48.866447,-67.563995,49.698036C-67.804749,49.803604,-66.778168,50.557144,-68.193695,51.08313C-69.609192,51.60939,-71.030029,51.277069,-71.471893,50.615082C-71.911102,49.953094,-71.220551,51.408569,-73.228729,51.276543C-75.234253,51.144249,-75.363892,50.118988,-75.318939,49.656761"/>
    <path transform="matrix(-1.333335,0,0,1.334059,-184.536194,18.915276)" style="stroke:#000000;stroke-width:0.05mm;fill:none" d="M-74.490784,40.631821C-74.490784,40.631821,-73.903412,40.680504,-73.731445,41.040604C-73.559448,41.400436,-73.699677,41.025787,-73.898132,41.328995C-74.099213,41.63221,-74.694519,41.840965,-74.990845,42.55587"/>
    <path transform="matrix(-1.333335,0,0,1.334059,-184.536194,18.915276)" style="stroke:#000000;stroke-width:0.05mm;fill:none" d="M-73.898132,41.328995C-73.898132,41.328995,-75.046417,40.066406,-75.136353,39.717682"/>
    <path transform="matrix(-1.333335,0,0,1.334059,-184.536194,18.915276)" style="stroke:#000000;stroke-width:0.05mm;fill:none" d="M-75.869263,41.485893C-75.869263,41.485893,-76.64978,40.339722,-76.779449,40.225159"/>
    <path transform="matrix(-1.333335,0,0,1.334059,-184.536194,18.915276)" style="stroke:#000000;stroke-width:0.05mm;fill:none" d="M-66.479187,43.151711C-66.479187,43.151711,-66.682922,42.451096,-66.93161,42.319069C-67.177704,42.186775,-66.764923,41.921402,-66.738495,41.307304"/>
    <path transform="matrix(-1.333335,0,0,1.334059,-184.536194,18.915276)" style="stroke:#000000;stroke-width:0.05mm;fill:none" d="M-68.175171,36.431297C-68.175171,36.431297,-69.894989,37.801575,-73.024994,37.161018"/>
    <path transform="matrix(-1.333335,0,0,1.334059,-184.536194,18.915276)" style="stroke:#000000;stroke-width:0.05mm;fill:none" d="M-68.894836,35.322166C-68.894836,35.322166,-70.728424,36.556709,-72.797455,36.056648"/>
    <path transform="matrix(-1.333335,0,0,1.334059,-184.536194,18.915276)" style="stroke:#000000;stroke-width:0.05mm;fill:none" d="M-79.610474,38.173576C-79.610474,38.173576,-79.390869,38.140244,-79.329987,38.470177C-79.27179,38.79985,-79.062805,38.665176,-78.851105,38.792702C-78.639435,38.920235,-78.806122,38.773918,-78.607697,39.023682"/>
    <path transform="matrix(-1.333335,0,0,1.334059,-184.536194,18.915276)" style="stroke:#000000;stroke-width:0.05mm;fill:none" d="M-79.843292,38.449104C-79.843292,38.449104,-79.623688,38.415764,-79.562805,38.745697C-79.504608,39.075371,-79.295624,38.940697,-79.083923,39.068222C-78.872253,39.195755,-79.03894,39.049438,-78.840515,39.29921"/>
    <path transform="matrix(-1.333335,0,0,1.334059,-184.536194,18.915276)" style="stroke:#000000;stroke-width:0.05mm;fill:none" d="M-80.147552,38.739704C-80.147552,38.739704,-79.927948,38.706367,-79.867065,39.036301C-79.808868,39.365974,-79.599884,39.2313,-79.388184,39.358826C-79.176514,39.486359,-79.343201,39.340042,-79.144775,39.589809"/>
    <path transform="matrix(-1.333335,0,0,1.334059,-184.536194,18.915276)" style="stroke:#000000;stroke-width:0.05mm;fill:none" d="M-80.420074,39.022369C-80.420074,39.022369,-80.20047,38.989033,-80.139587,39.318966C-80.08139,39.64864,-79.872406,39.513966,-79.660706,39.641491C-79.449036,39.769024,-79.615723,39.622707,-79.417297,39.872475"/>
    <path transform="matrix(-1.333335,0,0,1.334059,-184.536194,18.915276)" style="stroke:#000000;stroke-width:0.05mm;fill:none" d="M-67.937042,39.748909C-67.937042,39.748909,-68.455627,40.28125,-69.125031,40.339989"/>
    <path transform="matrix(-1.333335,0,0,1.334059,-184.536194,18.915276)" style="stroke:#000000;stroke-width:0.05mm;fill:none" d="M-73.054077,39.231117C-73.054077,39.231117,-72.580505,39.838867,-71.564484,39.867172"/>
    <path transform="matrix(-1.333335,0,0,1.334059,-184.536194,18.915276)" style="stroke:#000000;stroke-width:0.05mm;fill:none" d="M-67.093018,42.121162C-67.093018,42.121162,-68.619659,42.838448,-69.757385,42.548996C-70.892456,42.25927,-71.620056,42.793999,-73.683807,41.16787"/>
    <path transform="matrix(-1.333335,0,0,1.334059,-184.536194,18.915276)" style="stroke:#000000;stroke-width:0.05mm;fill:none" d="M-76.282013,37.828033C-76.282013,37.828033,-77.030792,38.358788,-77.705475,38.295288"/>
    <ellipse transform="matrix(0.352388,0.016586,-0.016577,0.35258,-92.034035,69.408852)" style="stroke:#000000;stroke-width:0.05mm;fill:none" rx="2.013" ry="1.197" cx="0" cy="0"/>
    <ellipse transform="matrix(0.352388,0.016586,-0.016577,0.35258,-89.007217,69.847343)" style="stroke:#000000;stroke-width:0.05mm;fill:none" rx="2.013" ry="1.197" cx="0" cy="0"/>
    <ellipse transform="matrix(0.352778,0,0,0.35297,-90.944191,76.970329)" style="stroke:#000000;stroke-width:0.05mm;fill:none" rx="1.967" ry="1.744" cx="0" cy="0"/>
    <ellipse transform="matrix(0.352778,0,0,0.35297,-90.750175,79.458092)" style="stroke:#000000;stroke-width:0.05mm;fill:none" rx="1.967" ry="1.744" cx="0" cy="0"/>
    <ellipse transform="matrix(0.352778,0,0,0.35297,-90.203346,82.045074)" style="stroke:#000000;stroke-width:0.05mm;fill:none" rx="1.967" ry="1.744" cx="0" cy="0"/>
    <path transform="matrix(-1.333335,0,0,1.334059,-184.536194,18.915276)" style="stroke:#000000;stroke-width:0.05mm;fill:none" d="M-70.561676,38.182587C-70.561676,38.182587,-70.164795,38.238678,-70.146271,38.355888C-70.127747,38.473106,-69.74939,38.332611,-69.701782,38.520462C-69.656799,38.708054,-69.32605,38.695877,-69.318115,38.837433C-69.312866,38.978989,-69.040314,38.881088,-68.876282,39.11525C-68.688416,39.385651,-69.225525,39.130852,-69.378998,39.061539C-69.529785,38.991951,-69.632996,39.058365,-69.794373,38.85463C-69.95578,38.651169,-70.249451,39.046188,-70.336792,38.88559C-70.426727,38.724983,-70.421448,38.991951,-70.733673,38.85331"/>
    <path transform="matrix(-1.333335,0,0,1.334059,-184.536194,18.915276)" style="stroke:#000000;stroke-width:0.05mm;fill:none" d="M-62.423157,40.305328C-62.423157,40.305328,-63.81485,39.740967,-63.740753,39.336426"/>
    <path transform="matrix(-1.333335,0,0,1.334059,-184.536194,18.915276)" style="stroke:#000000;stroke-width:0.05mm;fill:none" d="M-63.614563,97.843147L-69.990906,90.351372L-76.627228,91.435646L-80.956696,89.962959"/>
    <path transform="matrix(-1.333335,0,0,1.334059,-184.536194,18.915276)" style="stroke:#000000;stroke-width:0.05mm;fill:none" d="M-80.589417,73.552605L-68.593201,88.673012L-70.043121,89.753571"/>
    <path transform="matrix(-1.333335,0,0,1.334059,-184.536194,18.915276)" style="stroke:#000000;stroke-width:0.05mm;fill:none" d="M-82.843658,73.572449L-83.110901,75.398071L-84.132202,81.144554L-82.473236,86.831505L-80.642334,89.129677L-76.461914,90.484085L-70.072235,89.488716L-70.016663,90.331947"/>
    <path transform="matrix(-1.333335,0,0,1.334059,-184.536194,18.915276)" style="stroke:#000000;stroke-width:0.05mm;fill:none" d="M-82.063171,74.730263L-83.192932,75.533806"/>
    <path transform="matrix(-1.333335,0,0,1.334059,-184.536194,18.915276)" style="stroke:#000000;stroke-width:0.05mm;fill:none" d="M-83.407227,76.841637L-80.639709,74.897484L-69.995514,88.220047L-72.321198,89.823151"/>
    <path transform="matrix(-1.333335,0,0,1.334059,-184.536194,18.915276)" style="stroke:#000000;stroke-width:0.05mm;fill:none" d="M-76.639191,75.298325L-72.157135,71.856102L-64.481567,81.119423L-69.151489,84.696854L-76.639191,75.298325z"/>
    <path transform="matrix(-1.333335,0,0,1.334059,-184.536194,18.915276)" style="stroke:#000000;stroke-width:0.05mm;fill:none" d="M-69.416077,75.162064C-69.416077,75.162064,-70.082825,75.660797,-70.119873,75.877235C-70.154266,76.093666,-70.141022,76.387878,-70.101349,76.502182C-70.061676,76.616219,-69.699188,76.449791,-69.55365,77.153053C-69.498108,77.412872,-68.945099,77.421341,-68.741394,77.262062C-68.540314,77.102516,-68.008484,76.87233,-68.008484,76.87233"/>
    <path transform="matrix(-1.333335,0,0,1.334059,-184.536194,18.915276)" style="stroke:#000000;stroke-width:0.05mm;fill:none" d="M-71.037964,77.825096C-71.037964,77.825096,-71.519531,77.304657,-70.701935,76.948524C-70.278595,76.76358,-70.029907,76.812531,-69.939941,76.92128C-69.849976,77.030022,-69.76532,77.248566,-69.781189,77.48246C-69.797089,77.716354,-70.715179,78.496078,-71.037964,77.825096z"/>
    <path transform="matrix(-1.333335,0,0,1.334059,-184.536194,18.915276)" style="stroke:#000000;stroke-width:0.05mm;fill:none" d="M-74.361145,90.157059L-83.563324,77.953415"/>
    <path transform="matrix(-1.333335,0,0,1.334059,-184.536194,18.915276)" style="stroke:#000000;stroke-width:0.05mm;fill:none" d="M-68.593201,88.708725L-60.354095,82.716446"/>
    <path transform="matrix(0.094786,-0.121436,-0.12137,-0.094837,-76.397789,119.619965)" style="stroke:#000000;stroke-width:0.05mm;fill:none" d="M-2.741615,0L-2.741615,-21.042969L-5.526291,-21.042969L-5.526291,0L-2.741615,0zM-20.116274,-5.583707L-22.656933,-5.253565C-22.379423,-3.502377,-21.6689,-2.131569,-20.525364,-1.141143C-19.381826,-0.150717,-17.977528,0.344496,-16.312464,0.344496C-14.226348,0.344496,-12.549323,-0.337319,-11.281385,-1.700949C-10.013448,-3.06458,-9.37948,-5.019117,-9.37948,-7.56456C-9.37948,-9.210485,-9.652206,-10.65067,-10.197659,-11.885115C-10.743111,-13.119559,-11.573251,-14.045392,-12.688078,-14.662615C-13.802905,-15.279837,-15.015819,-15.588448,-16.326818,-15.588448C-17.982313,-15.588448,-19.336374,-15.169789,-20.389,-14.332473C-21.441628,-13.495155,-22.116264,-12.306166,-22.412914,-10.765503L-19.900965,-10.377944C-19.66173,-11.401864,-19.238287,-12.172194,-18.630634,-12.688939C-18.022982,-13.205683,-17.288536,-13.464055,-16.427296,-13.464055C-15.125866,-13.464055,-14.068454,-12.99755,-13.255061,-12.06454C-12.441668,-11.13153,-12.03497,-9.655459,-12.03497,-7.63633C-12.03497,-5.588492,-12.427314,-4.10046,-13.211999,-3.172235C-13.996684,-2.244009,-15.020603,-1.779896,-16.283756,-1.779896C-17.298105,-1.779896,-18.144991,-2.0909,-18.824413,-2.712907C-19.503836,-3.334913,-19.934456,-4.291847,-20.116274,-5.583707zM-35.302811,-4.909069L-37.972656,-4.578927C-37.551605,-3.019125,-36.771702,-1.808604,-35.632954,-0.947364C-34.494202,-0.086124,-33.039661,0.344496,-31.269335,0.344496C-29.03968,0.344496,-27.271746,-0.342104,-25.96553,-1.715303C-24.659317,-3.088503,-24.00621,-5.014332,-24.00621,-7.49279C-24.00621,-10.057371,-24.666494,-12.047793,-25.987062,-13.464055C-27.307631,-14.880317,-29.02054,-15.588448,-31.125795,-15.588448C-33.164063,-15.588448,-34.829128,-14.89467,-36.120987,-13.507117C-37.412849,-12.119564,-38.058777,-10.167419,-38.058777,-7.650684C-38.058777,-7.497574,-38.053993,-7.26791,-38.044426,-6.961692L-26.676054,-6.961692C-26.771748,-5.287058,-27.24543,-4.004767,-28.097101,-3.114819C-28.948771,-2.22487,-30.010967,-1.779896,-31.283689,-1.779896C-32.231052,-1.779896,-33.039661,-2.028699,-33.709515,-2.526304C-34.379372,-3.02391,-34.910469,-3.818165,-35.302811,-4.909069zM-26.819593,-9.086084L-35.331516,-9.086084C-35.216686,-10.368376,-34.891327,-11.330093,-34.355446,-11.971239C-33.532482,-12.96645,-32.4655,-13.464055,-31.154503,-13.464055C-29.967905,-13.464055,-28.970301,-13.066928,-28.161694,-12.272673C-27.353085,-11.478417,-26.905718,-10.416222,-26.819593,-9.086084zM-64.905357,-7.377958L-67.690033,-6.674612C-67.106308,-4.38754,-66.056068,-2.643529,-64.53933,-1.442577C-63.022594,-0.241626,-61.16853,0.35885,-58.977154,0.35885C-56.709221,0.35885,-54.864735,-0.10287,-53.443687,-1.026311C-52.02264,-1.949752,-50.941303,-3.287067,-50.19968,-5.038255C-49.458061,-6.789443,-49.087246,-8.669818,-49.087246,-10.679379C-49.087246,-12.870756,-49.505905,-14.782231,-50.343224,-16.413803C-51.180542,-18.045374,-52.371922,-19.284603,-53.91737,-20.131489C-55.462814,-20.978376,-57.163765,-21.401819,-59.020218,-21.401819C-61.125469,-21.401819,-62.895798,-20.865936,-64.3312,-19.79417C-65.766602,-18.722404,-66.766594,-17.215235,-67.331184,-15.272659L-64.589569,-14.626729C-64.101532,-16.157824,-63.393402,-17.272652,-62.465179,-17.971212C-61.536953,-18.669773,-60.369492,-19.019054,-58.962799,-19.019054C-57.345585,-19.019054,-55.993912,-18.631496,-54.907795,-17.85638C-53.821678,-17.081264,-53.058517,-16.040598,-52.618332,-14.734385C-52.178143,-13.42817,-51.958046,-12.081285,-51.958046,-10.693732C-51.958046,-8.904266,-52.218811,-7.342072,-52.740341,-6.00715C-53.261871,-4.672228,-54.072872,-3.674625,-55.173344,-3.014341C-56.273815,-2.354057,-57.465199,-2.023915,-58.74749,-2.023915C-60.307289,-2.023915,-61.627861,-2.473673,-62.709194,-3.373191C-63.790531,-4.272708,-64.522583,-5.607631,-64.905357,-7.377958zM-70.698059,0L-70.698059,-15.243952L-73.023407,-15.243952L-73.023407,-12.932957C-73.616707,-14.014293,-74.164551,-14.727207,-74.666939,-15.071704C-75.169334,-15.4162,-75.721962,-15.588448,-76.324829,-15.588448C-77.195641,-15.588448,-78.080803,-15.310937,-78.980316,-14.755916L-78.09037,-12.358797C-77.458794,-12.732001,-76.827217,-12.918603,-76.195641,-12.918603C-75.631058,-12.918603,-75.123878,-12.748747,-74.674118,-12.409036C-74.224358,-12.069324,-73.903786,-11.598035,-73.712402,-10.995167C-73.425323,-10.07651,-73.281784,-9.07173,-73.281784,-7.980826L-73.281784,0L-70.698059,0zM-90.863136,-4.909069L-93.532982,-4.578927C-93.111938,-3.019125,-92.332031,-1.808604,-91.193283,-0.947364C-90.054535,-0.086124,-88.599991,0.344496,-86.829666,0.344496C-84.600014,0.344496,-82.832069,-0.342104,-81.525856,-1.715303C-80.219643,-3.088503,-79.566536,-5.014332,-79.566536,-7.49279C-79.566536,-10.057371,-80.226822,-12.047793,-81.547386,-13.464055C-82.867958,-14.880317,-84.580864,-15.588448,-86.686127,-15.588448C-88.724388,-15.588448,-90.389458,-14.89467,-91.681313,-13.507117C-92.973175,-12.119564,-93.61911,-10.167419,-93.61911,-7.650684C-93.61911,-7.497574,-93.614326,-7.26791,-93.604752,-6.961692L-82.236382,-6.961692C-82.332077,-5.287058,-82.805763,-4.004767,-83.657425,-3.114819C-84.509094,-2.22487,-85.571289,-1.779896,-86.844017,-1.779896C-87.791382,-1.779896,-88.599991,-2.028699,-89.269844,-2.526304C-89.939697,-3.02391,-90.470795,-3.818165,-90.863136,-4.909069zM-82.379921,-9.086084L-90.891846,-9.086084C-90.777016,-10.368376,-90.451653,-11.330093,-89.915771,-11.971239C-89.092812,-12.96645,-88.025826,-13.464055,-86.714828,-13.464055C-85.528229,-13.464055,-84.530624,-13.066928,-83.722023,-12.272673C-82.913414,-11.478417,-82.466049,-10.416222,-82.379921,-9.086084zM-106.837418,-1.880374C-105.880486,-1.066981,-104.959442,-0.492821,-104.074272,-0.157894C-103.18911,0.177033,-102.239357,0.344496,-101.225006,0.344496C-99.550369,0.344496,-98.263298,-0.064593,-97.363777,-0.882771C-96.464256,-1.700949,-96.014503,-2.746399,-96.014503,-4.019121C-96.014503,-4.765529,-96.184357,-5.447344,-96.524071,-6.064567C-96.863785,-6.681788,-97.308762,-7.177001,-97.858994,-7.550206C-98.409225,-7.92341,-99.028847,-8.205706,-99.717834,-8.397092C-100.225006,-8.531062,-100.990562,-8.660249,-102.014473,-8.78465C-104.100586,-9.033453,-105.636467,-9.330102,-106.622108,-9.674599C-106.631683,-10.028664,-106.636467,-10.253544,-106.636467,-10.349236C-106.636467,-11.401864,-106.392448,-12.143487,-105.904411,-12.574107C-105.244125,-13.157836,-104.263275,-13.449701,-102.961838,-13.449701C-101.746529,-13.449701,-100.849403,-13.236783,-100.270462,-12.810948C-99.691521,-12.385113,-99.26329,-11.631528,-98.985779,-10.550193L-96.45948,-10.894689C-96.68914,-11.976024,-97.067123,-12.849225,-97.593445,-13.514295C-98.119759,-14.179363,-98.880524,-14.691322,-99.875732,-15.050173C-100.870941,-15.409022,-102.024048,-15.588448,-103.335045,-15.588448C-104.636475,-15.588448,-105.693886,-15.435339,-106.507278,-15.12912C-107.320679,-14.822901,-107.918755,-14.437736,-108.301529,-13.973622C-108.684303,-13.509509,-108.95224,-12.923388,-109.105354,-12.215257C-109.191475,-11.775067,-109.234543,-10.980813,-109.234543,-9.832492L-109.234543,-6.387531C-109.234543,-3.985628,-109.289558,-2.466496,-109.399612,-1.830135C-109.509659,-1.193775,-109.727356,-0.58373,-110.052719,0L-107.354164,0C-107.08622,-0.535883,-106.913971,-1.162674,-106.837418,-1.880374zM-106.622108,-7.650684C-105.684319,-7.26791,-104.277626,-6.942553,-102.402031,-6.674612C-101.339836,-6.521502,-100.588646,-6.349254,-100.148453,-6.157867C-99.70826,-5.966481,-99.368561,-5.686578,-99.129318,-5.318158C-98.890083,-4.949739,-98.77047,-4.54065,-98.77047,-4.090891C-98.77047,-3.401899,-99.031242,-2.827739,-99.552765,-2.368411C-100.074287,-1.909082,-100.837448,-1.679418,-101.842232,-1.679418C-102.837433,-1.679418,-103.722603,-1.897121,-104.497719,-2.332525C-105.272835,-2.767931,-105.842216,-3.363621,-106.205849,-4.119599C-106.483353,-4.703328,-106.622108,-5.564569,-106.622108,-6.70332L-106.622108,-7.650684zM-113.352417,0L-113.352417,-15.243952L-115.663414,-15.243952L-115.663414,-13.105206C-116.141876,-13.851613,-116.778244,-14.452089,-117.572495,-14.906632C-118.366745,-15.361176,-119.271049,-15.588448,-120.2854,-15.588448C-121.414581,-15.588448,-122.340416,-15.353998,-123.062897,-14.885101C-123.785385,-14.416204,-124.294945,-13.760704,-124.591599,-12.918603C-125.79734,-14.6985,-127.366707,-15.588448,-129.299713,-15.588448C-130.811661,-15.588448,-131.974335,-15.169789,-132.787735,-14.332473C-133.601135,-13.495155,-134.007828,-12.205688,-134.007828,-10.464068L-134.007828,0L-131.438461,0L-131.438461,-9.602828C-131.438461,-10.636316,-131.354736,-11.380333,-131.187271,-11.834876C-131.019806,-12.289419,-130.715973,-12.655446,-130.275787,-12.932957C-129.835587,-13.210468,-129.318848,-13.349223,-128.725555,-13.349223C-127.653786,-13.349223,-126.76384,-12.992765,-126.05571,-12.27985C-125.34758,-11.566935,-124.993515,-10.425792,-124.993515,-8.856421L-124.993515,0L-122.40979,0L-122.40979,-9.904263C-122.40979,-11.052583,-122.199265,-11.913823,-121.778214,-12.487983C-121.35717,-13.062143,-120.668175,-13.349223,-119.711243,-13.349223C-118.983971,-13.349223,-118.311722,-13.157836,-117.694504,-12.775063C-117.077278,-12.39229,-116.629913,-11.832484,-116.352402,-11.095645C-116.074898,-10.358806,-115.936134,-9.29661,-115.936134,-7.909056L-115.936134,0L-113.352417,0z"/>
    <path transform="matrix(-1.333335,0,0,1.334059,-184.536194,18.915276)" style="stroke:#000000;stroke-width:0.05mm;fill:none" d="M-33.907635,114.225586C-32.62516,113.594849,-31.716852,112.389374,-31.464066,110.983002C-31.240263,109.73761,-30.145956,108.822662,-28.880491,108.822662C-28.628405,108.822662,-28.37772,108.858368,-28.136066,108.929749C-26.765591,109.335083,-25.280941,109.06485,-24.141972,108.201721C-21.629517,106.297607,-19.27108,104.198181,-17.088482,101.923737C-16.098972,100.892578,-15.657669,99.449799,-15.901215,98.04129C-15.926765,97.893585,-15.939644,97.743774,-15.939644,97.593964C-15.939644,96.214905,-14.852619,95.058441,-13.476055,94.973724C-12.049648,94.88623,-10.74715,94.123871,-9.972061,92.923294C-3.711723,83.225601,-0.380848,71.924118,-0.380848,60.381821C-0.380848,32.856155,-19.321762,8.692093,-46.05022,2.117981C-47.437984,1.777069,-48.908493,2.115875,-50.006233,3.030838C-50.477921,3.424271,-51.072884,3.639877,-51.686962,3.639877C-52.566425,3.639877,-53.389538,3.198151,-53.875298,2.464508C-54.664593,1.273041,-55.975983,0.526779,-57.40337,0.455383C-58.39505,0.406372,-59.387852,0.381882,-60.380791,0.381882C-93.295807,0.381882,-120.380737,27.466522,-120.380737,60.381821C-120.380737,66.039566,-119.580444,71.668594,-118.003662,77.102341C-117.605408,78.475113,-116.57621,79.579086,-115.234924,80.071915C-114.204536,80.450623,-113.515839,81.437698,-113.515839,82.536057C-113.515839,82.942093,-113.610062,83.342514,-113.791092,83.705826C-114.4282,84.985504,-114.419243,86.494095,-113.766937,87.766068C-98.920013,116.710052,-63.099964,128.57785,-33.907635,114.225586z"/>
    <path transform="matrix(-1.333335,0,0,1.334059,-184.536194,18.915276)" style="stroke:#000000;stroke-width:0.05mm;fill:none" d="M-40.150513,61.627831C-40.184906,61.363777,-40.256348,61.338379,-40.023499,61.07856C-39.79068,60.819,-40.007629,60.714226,-39.605469,60.46843"/>
    <path transform="matrix(-1.333335,0,0,1.334059,-184.536194,18.915276)" style="stroke:#000000;stroke-width:0.05mm;fill:none" d="M-38.727051,58.796791C-38.348724,58.395683,-39.002228,58.408379,-38.213776,58.000664"/>
    <path transform="matrix(-1.333335,0,0,1.334059,-184.536194,18.915276)" style="stroke:#000000;stroke-width:0.05mm;fill:none" d="M-36.919952,56.405228C-36.933167,56.28907,-37.073395,56.182175,-36.655365,56.262352C-36.237305,56.342522,-36.501892,56.149902,-36.335205,56.186409C-36.168549,56.222923,-36.525726,55.850121,-36.060059,56.036392C-35.93042,56.087456,-36.041534,55.715981,-35.663177,55.8451C-35.382721,55.941147,-35.567932,55.69323,-35.2901,55.695076"/>
    <path transform="matrix(-1.333335,0,0,1.334059,-184.536194,18.915276)" style="stroke:#000000;stroke-width:0.05mm;fill:none" d="M-37.245392,56.91983C-37.245392,56.91983,-37.364441,56.454697,-36.949066,56.349922"/>
    <path transform="matrix(-1.333335,0,0,1.334059,-184.536194,18.915276)" style="stroke:#000000;stroke-width:0.05mm;fill:none" d="M-35.276855,55.606979C-35.276855,55.606979,-35.377411,55.032036,-35.038757,55.159828"/>
    <path transform="matrix(-1.333335,0,0,1.334059,-184.536194,18.915276)" style="stroke:#000000;stroke-width:0.05mm;fill:none" d="M-33.647064,54.09964C-33.647064,54.09964,-33.856049,54.005455,-33.644409,53.735046C-33.435394,53.464645,-33.890442,53.570473,-33.517426,53.19001C-33.144348,52.809273,-33.636475,53.052689,-33.2211,52.725395"/>
    <path transform="matrix(-1.333335,0,0,1.334059,-184.536194,18.915276)" style="stroke:#000000;stroke-width:0.05mm;fill:none" d="M-45.444824,56.740456C-46.045441,56.722198,-48.818268,56.60498,-48.746826,57.065628"/>
    <path transform="matrix(-1.333335,0,0,1.334059,-184.536194,18.915276)" style="stroke:#000000;stroke-width:0.05mm;fill:none" d="M-35.044067,55.138397L-35.628784,55.150307C-35.628784,55.150307,-35.049347,54.217384,-33.776703,53.960213"/>
    <path transform="matrix(-1.333335,0,0,1.334059,-184.536194,18.915276)" style="stroke:#000000;stroke-width:0.05mm;fill:none" d="M-33.588867,53.647476L-34.155029,53.510681C-34.155029,53.510681,-34.266174,53.220963,-33.546509,53.285522"/>
    <path transform="matrix(-1.333335,0,0,1.334059,-184.536194,18.915276)" style="stroke:#000000;stroke-width:0.05mm;fill:none" d="M-36.97287,56.390144L-37.822205,56.073174C-37.822205,56.073174,-36.419891,55.480499,-35.303345,55.606178"/>
    <path transform="matrix(-1.333335,0,0,1.334059,-184.536194,18.915276)" style="stroke:#000000;stroke-width:0.05mm;fill:none" d="M-39.629272,60.493835L-39.745697,59.0746C-39.745697,59.0746,-39.57901,58.924324,-39.115967,59.058998"/>
    <path transform="matrix(-1.333335,0,0,1.334059,-184.536194,18.915276)" style="stroke:#000000;stroke-width:0.05mm;fill:none" d="M-39.629272,60.493835C-39.507599,60.250679,-39.666321,60.261253,-39.428192,60.094307C-39.190063,59.927353,-39.629272,59.867561,-39.36734,59.765961C-39.102753,59.66436,-39.388519,59.574135,-39.235046,59.412476C-39.078949,59.250809,-39.301208,59.191284,-39.071014,59.076721C-38.84082,58.962418,-38.811737,58.801025,-38.692657,58.765305"/>
    <path transform="matrix(-1.333335,0,0,1.334059,-184.536194,18.915276)" style="stroke:#000000;stroke-width:0.05mm;fill:none" d="M-35.007019,55.190788C-35.007019,55.190788,-35.067871,54.948425,-34.739777,55.027275C-34.409058,55.105858,-34.803284,54.660034,-34.467255,54.730675C-34.131226,54.801582,-34.382599,54.14489,-34.14978,54.467941C-33.914307,54.791267,-34.274109,54.191193,-33.977783,54.331154C-33.681458,54.470856,-33.996307,54.080597,-33.652344,54.181137"/>
</svg>
