<?xml version="1.0" encoding="UTF-8"?>
<svg xmlns="http://www.w3.org/2000/svg" xmlns:xlink="http://www.w3.org/1999/xlink" width="160.000mm" height="160.000mm" viewBox="-179.551666 17.193735 160.000000 160.000000">
    <path transform="matrix(-1.333335,0,0,1.334059,-179.951736,16.793289)" style="stroke:#ff0000;stroke-width:0.05mm;fill:none" d="M-56.962479,60.300156C-56.962479,58.468918,-58.469078,56.962601,-60.299995,56.962601C-62.130913,56.962601,-63.637512,58.468918,-63.637512,60.300156C-63.637512,62.130936,-62.130913,63.637253,-60.299995,63.637253C-58.469078,63.637253,-56.962479,62.130936,-56.962479,60.300156z"/>
    <path transform="matrix(-1.333335,0,0,1.334059,-179.951736,16.793289)" style="stroke:#ff0000;stroke-width:0.05mm;fill:none" d="M-38.322571,63.097687C-38.291088,63.179718,-41.274525,77.518555,-41.311035,77.68338C-41.340141,77.821472,-41.46767,78.19693,-41.460262,78.221527C-41.45153,78.244019,-41.6161,78.396423,-41.599434,78.415192C-41.585938,78.435059,-41.578529,78.459381,-41.586205,78.471832C-41.592556,78.482147,-41.584351,78.50119,-41.567947,78.511261C-41.516621,78.543274,-41.44783,78.739044,-41.424278,78.921082C-41.409992,79.012634,-41.404438,79.095459,-41.409725,79.103638C-41.414757,79.111847,-41.404171,79.163696,-41.387768,79.219543C-41.36422,79.296265,-41.367657,79.356873,-41.401787,79.457672C-41.426132,79.5336,-41.438038,79.616943,-41.426395,79.644196C-41.414757,79.671173,-41.409725,79.74527,-41.414223,79.807709C-41.427452,79.952972,-41.63224,80.32074,-41.735428,80.381592C-41.790462,80.415985,-41.804485,80.437164,-41.844437,80.566803C-41.884125,80.704376,-41.938103,81.032471,-41.940216,81.164764C-41.957676,81.831512,-41.950798,82.172821,-41.915081,82.339508C-41.899208,82.416229,-41.880421,82.540588,-41.872746,82.625244C-41.866135,82.704651,-41.852905,82.799896,-41.840469,82.828979C-41.816658,82.900421,-41.817978,83.186157,-41.84417,83.522186C-41.885715,84.024902,-41.87698,84.085754,-41.727757,84.384735C-41.653141,84.530243,-41.578529,84.675781,-41.558685,84.70752C-41.538845,84.739288,-41.508152,84.818665,-41.489899,84.879517C-41.452328,85.003876,-41.195942,85.437775,-41.084557,85.570068C-41.046982,85.609772,-40.947235,85.749969,-40.860455,85.882263C-40.77367,86.011932,-40.690853,86.125702,-40.67445,86.136261C-40.658047,86.146851,-40.640583,86.181244,-40.634232,86.218292C-40.627621,86.252686,-40.61042,86.289734,-40.595871,86.297668C-40.569145,86.313538,-40.533165,86.416718,-40.485806,86.609863C-40.445324,86.773926,-40.444,86.818909,-40.470459,86.988251C-40.482895,87.078186,-40.49189,87.189331,-40.490829,87.236938C-40.483421,87.345428,-40.528133,87.562378,-40.584755,87.694672C-40.622593,87.789948,-40.7234,88.218567,-40.730278,88.316467C-40.733452,88.377289,-40.37944,88.607483,-40.255615,88.626007L-40.162746,88.641876L-40.040512,88.446106C-39.893135,88.207977,-39.835457,88.168274,-39.645485,88.178864C-39.094624,88.210602,-38.050049,88.856171,-37.552368,89.475342C-37.515327,89.520294,-37.450504,89.581146,-37.405262,89.607635C-37.353931,89.642029,-37.327473,89.671112,-37.334087,89.694916C-37.335941,89.716064,-37.328533,89.742523,-37.312126,89.750488C-37.29784,89.761078,-37.285404,89.790161,-37.286461,89.81662C-37.288845,89.843079,-37.273499,89.946259,-37.252598,90.049469C-37.203117,90.290222,-37.194122,90.359039,-37.209206,90.382843C-37.215557,90.393433,-37.233547,90.496613,-37.245979,90.607727C-37.281963,90.917297,-37.437008,91.324768,-37.537285,91.375031C-37.560837,91.38562,-37.631218,91.467621,-37.696568,91.554962C-37.762184,91.642242,-37.825947,91.713684,-37.83812,91.713684C-37.852142,91.713684,-37.871719,91.726898,-37.883099,91.745453C-37.936543,91.832733,-38.557785,92.047058,-38.627632,92.00473C-38.644043,91.994141,-38.660179,91.991486,-38.666527,92.002075C-38.674202,92.01532,-38.760456,92.012665,-38.976357,91.988861C-39.053612,91.980927,-39.318195,91.885681,-39.472713,91.808929C-39.583836,91.756042,-39.656864,91.734833,-39.756611,91.734833C-39.830166,91.734833,-39.897106,91.742798,-39.907425,91.750732C-39.918007,91.758698,-40.011936,91.790436,-40.116711,91.822174C-40.221485,91.853943,-40.36092,91.89624,-40.424419,91.914764C-40.602749,91.970337,-40.918396,91.888336,-41.189331,91.718994C-41.355484,91.618439,-41.44783,91.536407,-41.607635,91.36441C-41.66399,91.303589,-41.763741,91.208344,-41.832531,91.155426C-41.97567,91.036346,-42.115372,90.904053,-42.237873,90.771759C-42.353233,90.6474,-42.42017,90.607727,-42.480759,90.634216C-42.508011,90.644775,-42.562252,90.644775,-42.600086,90.634216C-42.63792,90.620972,-42.724442,90.618317,-42.795876,90.628906C-43.061256,90.6633,-43.251228,90.615662,-43.552322,90.44632C-43.681175,90.374878,-43.756054,90.340485,-44.189175,90.144714C-44.436028,90.036255,-44.82761,89.787506,-45.015202,89.623474C-45.490921,89.202789,-45.702591,89.041412,-46.202652,88.710693C-46.499249,88.514893,-46.614609,88.451385,-46.738697,88.406403C-46.824684,88.377289,-46.954861,88.329651,-47.023918,88.303223C-47.094032,88.274109,-47.721889,87.908997,-48.482037,87.448608C-49.906815,86.58606,-49.881149,86.599304,-50.376976,86.451141C-50.477257,86.419373,-50.598434,86.358521,-50.777824,86.244751C-51.065956,86.064819,-51.127869,85.996063,-51.117546,85.858459C-51.113579,85.816132,-51.123367,85.74469,-51.138977,85.702362C-51.156441,85.657379,-51.177872,85.556824,-51.187134,85.480103C-51.203804,85.366333,-51.197716,85.324005,-51.151939,85.249939C-51.112526,85.186401,-51.092941,85.112335,-51.090302,85.01181C-51.082359,84.845093,-51.07045,84.821289,-50.925995,84.69693L-50.819099,84.606995L-50.712471,84.673126C-50.630188,84.723389,-50.603989,84.731354,-50.587326,84.704895C-50.551872,84.649323,-50.495247,84.657257,-50.275909,84.763092C-49.962112,84.911255,-49.540901,85.249939,-49.493271,85.392792C-49.488243,85.406036,-49.462578,85.432495,-49.433746,85.450989C-49.407013,85.466888,-49.309654,85.599182,-49.22049,85.73941L-49.056442,85.996063L-48.719894,86.205078C-48.535213,86.321472,-48.374084,86.408813,-48.362972,86.403503C-48.350536,86.398224,-48.257404,86.435242,-48.155804,86.48819C-47.978004,86.58078,-47.87323,86.623108,-47.630608,86.691895C-47.296173,86.795105,-47.003014,86.908844,-46.783413,87.022644C-46.628101,87.10199,-46.526768,87.144348,-46.161903,87.279266C-46.104229,87.300446,-45.906052,87.398315,-45.720051,87.496216C-45.53511,87.596771,-45.363655,87.676147,-45.341961,87.678802C-45.311798,87.681458,-45.327412,87.636444,-45.406521,87.517395C-45.526379,87.334839,-45.652054,87.239594,-45.938599,87.125824C-46.025642,87.091431,-46.208206,87.014679,-46.344997,86.956482C-46.479408,86.898254,-46.6199,86.845367,-46.65509,86.837402C-46.691338,86.832123,-46.787643,86.795105,-46.872841,86.752747C-46.955921,86.713074,-47.074718,86.662811,-47.135834,86.641632C-47.20013,86.623108,-47.299084,86.588715,-47.361259,86.57019C-47.431641,86.546387,-47.730885,86.3797,-48.156067,86.120392C-48.766464,85.75528,-48.858276,85.691772,-49.029724,85.5383C-49.239799,85.345184,-49.354897,85.22876,-49.39167,85.167908C-49.4049,85.149384,-49.44194,85.088531,-49.47422,85.040894C-49.506767,84.990631,-49.533752,84.942993,-49.536133,84.932434C-49.546982,84.887451,-49.616302,84.741913,-49.63456,84.731354C-49.655197,84.718109,-49.736954,84.556732,-49.765266,84.474701C-49.772675,84.448242,-49.80072,84.390045,-49.827179,84.345032C-49.853371,84.300079,-49.880882,84.233917,-49.891998,84.202179C-49.902054,84.167786,-49.926399,84.114868,-49.944389,84.085754C-49.963966,84.051361,-49.984337,84.011688,-49.989365,83.995789C-50.010796,83.934937,-50.243103,83.440186,-50.272736,83.395203C-50.306602,83.33963,-50.331734,83.294647,-50.423279,83.098877C-50.461647,83.016846,-50.51165,82.937469,-50.536255,82.92157C-50.559013,82.908356,-50.57383,82.881897,-50.569862,82.863373C-50.567215,82.844849,-50.59182,82.768127,-50.627014,82.694031C-50.663788,82.619965,-50.7257,82.490326,-50.764595,82.40567C-50.805603,82.320984,-50.855881,82.241608,-50.874397,82.231018C-50.894768,82.217804,-50.90403,82.186035,-50.899529,82.159607C-50.891594,82.135773,-50.910378,82.077576,-50.940544,82.029938C-50.970177,81.98761,-51.014099,81.897644,-51.036324,81.831512C-51.0895,81.688629,-51.268623,81.373779,-51.341385,81.302338C-51.372604,81.275879,-51.392715,81.233551,-51.388481,81.212372C-51.378693,81.164764,-51.479233,81.103912,-51.504898,81.143585C-51.516273,81.162109,-51.540092,81.172699,-51.560196,81.170044C-51.580566,81.164764,-51.632164,81.185913,-51.674759,81.212372C-51.717361,81.238831,-51.758896,81.257355,-51.769218,81.24942C-51.781387,81.241486,-51.796204,81.246796,-51.804932,81.262665C-51.813927,81.275879,-51.85759,81.291748,-51.903625,81.297058C-51.948341,81.299713,-52.036179,81.336731,-52.098091,81.373779C-52.176941,81.418762,-52.232498,81.434631,-52.278015,81.421387C-52.334892,81.402893,-52.736801,81.482239,-52.757172,81.516632C-52.760872,81.521942,-52.812202,81.527252,-52.869354,81.521942C-52.925713,81.521942,-53.09584,81.545776,-53.244797,81.57486C-53.395081,81.606598,-53.537163,81.627777,-53.562035,81.627777C-53.639824,81.625122,-53.991188,81.675415,-54.324036,81.733612C-54.468491,81.762726,-54.633064,81.783875,-54.690742,81.78653C-54.750275,81.78653,-54.80822,81.802399,-54.816956,81.815613C-54.827263,81.831512,-54.855049,81.839447,-54.877281,81.834137C-54.901611,81.828857,-54.992371,81.836792,-55.081795,81.852661C-55.168846,81.871185,-55.258278,81.876495,-55.282616,81.871185C-55.306168,81.868561,-55.366226,81.881775,-55.414909,81.905579C-55.461739,81.929382,-55.545349,81.945282,-55.598,81.940002C-55.713623,81.924103,-55.760986,81.969086,-55.946724,82.268066C-56.031387,82.40036,-56.086685,82.471802,-56.125053,82.487671C-56.155212,82.500916,-56.197281,82.529999,-56.217918,82.553833C-56.269249,82.619965,-56.448639,82.60144,-56.632523,82.51413C-56.710045,82.474426,-56.953995,82.318329,-57.174126,82.164886C-57.390816,82.011414,-57.773399,81.746826,-58.021584,81.58017C-58.26844,81.410828,-58.515556,81.230896,-58.569534,81.180634C-58.621918,81.133026,-58.720871,81.006012,-58.7939,80.889587L-58.784111,112.666016C-58.783844,113.898987,-57.768112,114.914978,-56.534096,114.914978C-56.480385,114.914978,-56.426407,114.912323,-56.372696,114.909698C-27.890587,112.861816,-5.55024,88.856171,-5.55024,60.300003C-5.55024,52.008224,-7.433809,43.824142,-11.058332,36.366592C-11.434307,35.593216,-12.22197,35.100037,-13.08213,35.100037C-13.477154,35.100037,-13.865561,35.204269,-14.207666,35.401917L-44.372528,52.657501C-44.363533,52.740067,-43.579842,53.763992,-43.339069,54.13945C-42.962303,54.7276,-42.819427,55.159943,-43.16074,56.56752C-43.328484,57.259933,-43.086124,57.648605,-43.177937,57.889114C-43.144863,57.975891,-43.102264,58.062149,-43.04538,58.16507C-42.935844,58.355042,-42.855408,58.555344,-42.594795,59.262024C-42.565163,59.342743,-42.50034,59.476608,-42.450596,59.561279C-42.350056,59.72876,-42.099758,60.039902,-42.07489,60.026947C-42.066952,60.023514,-42.039703,59.997833,-42.012184,59.971909C-41.982552,59.942276,-41.932014,59.925079,-41.876453,59.931427C-41.829887,59.934341,-41.753685,59.930634,-41.706589,59.922974C-41.621391,59.904709,-41.2523,59.959991,-41.110748,60.010803C-41.015232,60.044662,-40.906754,60.057632,-40.837166,60.041229C-40.799335,60.030655,-40.778698,60.006577,-40.744038,59.91423C-40.670746,59.726898,-40.596661,59.676102,-40.298214,59.611282C-40.093426,59.564987,-40.025696,59.561279,-39.978596,59.590637C-39.914833,59.630081,-39.74894,59.627686,-39.598919,59.587204L-39.513195,59.56366L-39.548386,59.450958C-39.584633,59.335052,-39.612942,58.922577,-39.587543,58.881561C-39.579868,58.869125,-39.582249,58.822296,-39.594421,58.777847C-39.621143,58.679153,-39.603416,58.65033,-39.514786,58.631271C-39.461075,58.621994,-39.421913,58.586548,-39.345184,58.480988C-39.255489,58.354782,-39.249935,58.341019,-39.276394,58.287567C-39.331692,58.179611,-39.249668,57.84996,-39.15839,57.812912C-39.142513,57.805496,-39.083511,57.811066,-39.02742,57.825882C-38.947781,57.843872,-38.912857,57.86557,-38.872902,57.915848C-38.845654,57.949707,-38.796703,57.994415,-38.767864,58.012131C-38.714417,58.045212,-38.679493,58.149185,-38.707539,58.194443C-38.71389,58.204498,-38.709393,58.215866,-38.694046,58.21402C-38.678173,58.215332,-38.633194,58.175125,-38.591915,58.126968C-38.479996,57.991776,-38.45142,57.978012,-38.193455,57.919281C-37.960888,57.864502,-37.950302,57.86557,-37.851612,57.926682C-37.761387,57.982498,-37.747894,58.00209,-37.714294,58.130951C-37.673546,58.289688,-37.633064,58.371445,-37.585175,58.403992C-37.564804,58.416702,-37.563217,58.460342,-37.578033,58.516434C-37.602642,58.606125,-37.55925,58.797684,-37.471935,58.991104C-37.437805,59.068893,-37.353401,59.12973,-37.30022,59.117294C-37.280109,59.112534,-37.19915,59.151443,-37.119247,59.200912C-36.994099,59.278702,-36.961292,59.31311,-36.889057,59.43454C-36.696972,59.766327,-36.664165,60.107651,-36.764969,60.678345C-36.789047,60.799789,-36.828735,60.937103,-36.856781,60.982086C-36.88456,61.027328,-37.010502,61.170746,-37.136181,61.300385C-37.261856,61.429779,-37.428017,61.610733,-37.502365,61.703873C-37.576977,61.796738,-37.665874,61.889359,-37.697891,61.90918C-37.801079,61.970306,-37.933632,62.129578,-38.200336,62.509537C-38.342411,62.711136,-38.265686,62.851639,-38.322571,63.097687z"/>
    <path transform="matrix(-1.333335,0,0,1.334059,-179.951736,16.793289)" style="stroke:#ff0000;stroke-width:0.05mm;fill:none" d="M-40.781078,90.263794C-40.806213,90.232025,-40.841137,90.232025,-40.839817,90.266418C-40.840874,90.300842,-40.783989,90.332581,-40.770229,90.311401C-40.763615,90.300842,-40.768375,90.279633,-40.781078,90.263794z"/>
    <path transform="matrix(-1.333335,0,0,1.334059,-179.951736,16.793289)" style="stroke:#ff0000;stroke-width:0.05mm;fill:none" d="M-54.905319,76.435333L-54.161842,77.044922C-53.595108,77.40451,-53.121231,77.712219,-53.109856,77.730469C-53.09742,77.746857,-52.695259,78.010132,-52.216888,78.314941C-51.483994,78.777435,-51.339005,78.864471,-51.303284,78.85257C-51.253014,78.835358,-51.078125,78.938019,-51.026527,79.015533C-50.994255,79.063965,-50.977318,79.068726,-50.892654,79.055756C-50.792641,79.041229,-50.683105,79.089111,-50.646591,79.162903C-50.636536,79.183289,-50.613785,79.197327,-50.596581,79.196777C-50.535202,79.189392,-50.355286,79.275116,-50.081177,79.442047C-49.852043,79.581207,-49.775322,79.617462,-49.647789,79.645264C-49.562592,79.663788,-49.463905,79.696838,-49.430832,79.717224C-49.398018,79.737335,-49.338493,79.760345,-49.298012,79.76828C-49.224457,79.782593,-48.955643,79.912231,-48.48283,80.162506C-48.113998,80.360413,-47.055138,81.016602,-46.88369,81.15683C-46.805901,81.217651,-46.676521,81.320862,-46.597412,81.381714C-46.519623,81.445221,-46.440773,81.519287,-46.423843,81.545776C-46.407967,81.57486,-46.362991,81.617188,-46.32198,81.643646C-46.252396,81.685974,-45.941769,82.037872,-45.84943,82.178101C-45.824562,82.215149,-45.794662,82.254852,-45.782227,82.262787C-45.770058,82.268066,-45.717667,82.326263,-45.668194,82.389771C-45.616333,82.453278,-45.525318,82.535309,-45.462875,82.574982C-45.401493,82.614685,-45.308098,82.683472,-45.260208,82.728455C-45.209141,82.776062,-45.081875,82.876617,-44.976574,82.958618C-44.590282,83.252319,-44.440525,83.381958,-44.366711,83.487793C-44.301357,83.577759,-44.247643,83.620087,-43.975391,83.794708C-43.730389,83.950806,-43.643074,84.014313,-43.589893,84.085754C-43.514221,84.183655,-43.290913,84.371521,-43.237469,84.38208C-43.217358,84.38739,-43.221325,84.310638,-43.252022,84.173065C-43.316845,83.874084,-43.317104,83.567169,-43.253078,83.315826C-43.235615,83.257599,-43.225822,83.186157,-43.230061,83.159729C-43.232174,83.135895,-43.220798,83.059174,-43.207039,82.990387C-43.189846,82.92157,-43.179527,82.8078,-43.181904,82.739014C-43.182964,82.667603,-43.180317,82.604095,-43.175289,82.596161C-43.170265,82.588226,-43.153065,82.482391,-43.137718,82.360657C-43.124229,82.238983,-43.09671,82.0802,-43.077129,82.006134C-43.047764,81.88443,-43.035061,81.818268,-43.007809,81.638367C-43.004105,81.609253,-42.982407,81.514008,-42.961243,81.424042C-42.937958,81.336731,-42.918381,81.241486,-42.914677,81.212372C-42.910973,81.183289,-42.892979,81.103912,-42.874989,81.03775C-42.841919,80.902832,-42.841389,80.778473,-42.879223,80.490051C-42.902241,80.302216,-42.903038,80.299561,-42.994846,80.259888C-43.075012,80.224426,-43.086918,80.211212,-43.074219,80.16806C-43.068401,80.140289,-43.071575,80.104309,-43.084274,80.087921C-43.09671,80.071747,-43.09724,80.040283,-43.085861,80.021759C-43.073162,80.001129,-43.071308,79.95694,-43.081097,79.922272C-43.092213,79.890015,-43.086391,79.839447,-43.069988,79.812744C-43.052261,79.784149,-43.042469,79.750305,-43.051201,79.736542C-43.057552,79.724091,-43.041145,79.674622,-43.013103,79.629364C-42.966003,79.553436,-42.949337,79.43042,-42.977119,79.365082C-42.982147,79.350525,-43.018131,79.31665,-43.055172,79.293884C-43.10041,79.265839,-43.119465,79.237,-43.112324,79.207367C-43.09671,79.131714,-43.118141,79.05603,-43.169205,79.024292C-43.206249,79.001526,-43.210217,78.984863,-43.186138,78.945953C-43.168148,78.917145,-43.147774,78.810486,-43.137192,78.706512C-43.121315,78.534546,-43.112324,78.505951,-43.005428,78.33371C-42.907536,78.175507,-42.871552,78.135529,-42.76651,78.067017C-42.577595,77.945587,-42.628136,77.873596,-42.379955,77.959076C-42.319099,77.979706,-42.329155,77.905884,-42.318836,77.838409C-42.314072,77.798737,-39.641785,64.429871,-39.656864,64.397064C-39.685703,64.335144,-39.76984,64.476181,-39.822754,64.57988C-39.865356,64.666946,-39.948433,64.808487,-40.104008,65.078369C-40.386318,65.57074,-40.386318,65.57074,-40.595604,66.165268C-40.856747,66.912186,-40.93692,67.078354,-41.322945,67.659912C-41.539639,67.991425,-41.636738,68.152817,-41.658962,68.229828C-41.686214,68.315002,-41.728817,68.379562,-41.927254,68.617172C-42.057426,68.772217,-42.225967,68.957428,-42.300846,69.027527C-42.375458,69.097916,-42.468327,69.187866,-42.506424,69.226776C-42.545319,69.262222,-42.594532,69.300049,-42.615696,69.306671C-42.634747,69.314865,-42.706715,69.389481,-42.774181,69.475479C-42.840328,69.559341,-42.950394,69.672852,-43.016277,69.728683C-43.145924,69.832916,-43.313934,70.021317,-43.554966,70.323456C-43.667416,70.463959,-43.715832,70.542007,-43.764782,70.662125C-43.799973,70.751038,-43.894691,70.945236,-43.975918,71.099213C-44.138641,71.398727,-44.264053,71.715698,-44.253468,71.790314C-44.237858,71.902496,-44.259556,72.212585,-44.307705,72.574524C-44.336018,72.789917,-44.358505,73.023285,-44.360622,73.09549C-44.360889,73.169312,-44.365654,73.268555,-44.370152,73.316956C-44.382847,73.419861,-44.389725,73.568848,-44.38073,73.622833C-44.377293,73.644775,-44.385757,73.713287,-44.398987,73.776001C-44.443703,74.004089,-44.516464,74.171844,-44.700611,74.469482C-44.859627,74.725861,-44.897465,74.773499,-44.968636,74.814758C-45.015202,74.83963,-45.086109,74.88092,-45.12421,74.905518C-45.189827,74.947327,-45.200676,74.946259,-45.263382,74.887512C-45.390644,74.771881,-45.508915,74.536682,-45.469494,74.472931C-45.439064,74.423706,-45.479015,74.19458,-45.535637,74.102753C-45.560246,74.064667,-45.593845,73.981567,-45.608662,73.918365C-45.631416,73.83606,-45.665546,73.780762,-45.735397,73.714874C-45.882504,73.581268,-45.919285,73.484436,-45.908169,73.255829C-45.901291,73.143646,-45.885681,73.022461,-45.870335,72.983826C-45.855782,72.941772,-45.84996,72.89151,-45.856838,72.870331C-45.86557,72.847839,-45.853664,72.801025,-45.833294,72.768188C-45.807892,72.727203,-45.805511,72.677734,-45.822445,72.613159C-45.844933,72.539612,-45.836735,72.485107,-45.789375,72.358093C-45.728252,72.200165,-45.724548,72.134277,-45.762913,71.783966C-45.769264,71.720459,-45.76741,71.653534,-45.757359,71.637115C-45.74704,71.620712,-45.750481,71.561707,-45.764236,71.510635C-45.784081,71.432846,-45.779053,71.387878,-45.735924,71.295288C-45.705235,71.23204,-45.679306,71.139954,-45.678249,71.092331C-45.679306,71.043671,-45.654961,70.967712,-45.628239,70.924606C-45.600197,70.879608,-45.547806,70.767166,-45.512089,70.672989C-45.476372,70.578506,-45.402023,70.417389,-45.348049,70.311813L-45.25174,70.124222L-45.657345,69.875793C-45.878803,69.738739,-46.246307,69.525223,-46.473583,69.401382C-47.095886,69.058487,-47.150124,69.021973,-47.199863,68.937317C-47.243786,68.861908,-47.245899,68.86058,-47.341946,68.877777C-47.396976,68.888885,-47.516834,68.931229,-47.60997,68.975952C-47.750465,69.042099,-47.805496,69.053467,-47.939903,69.041031C-47.969536,69.038651,-48.008167,69.037048,-48.050766,69.036011C-48.228565,69.37706,-50.04969,68.122391,-50.19574,68.374268C-50.349991,68.640182,-51.980881,71.437897,-52.09227,71.587646C-53.922661,74.049316,-53.287399,74.761566,-54.905319,76.435333z"/>
    <path transform="matrix(-1.333335,0,0,1.334059,-179.951736,16.793289)" style="stroke:#ff0000;stroke-width:0.05mm;fill:none" d="M-55.531059,78.072571C-56.815613,79.344971,-57.667038,80.095306,-57.667038,80.095306C-57.247673,80.119385,-57.148186,80.132874,-57.08046,80.174957C-57.020927,80.211731,-56.998177,80.211731,-56.955048,80.17865C-56.907158,80.142944,-56.894455,80.145325,-56.810059,80.205902C-56.723541,80.268066,-56.719833,80.276031,-56.741798,80.347198L-56.765076,80.426575L-56.626961,80.431854C-56.552353,80.437164,-56.443604,80.445099,-56.386719,80.447723C-56.329567,80.453033,-56.24173,80.453033,-56.190399,80.447723C-56.095421,80.442444,-56.095421,80.442444,-55.976089,80.248505C-55.884537,80.100861,-55.84433,80.054565,-55.804634,80.045319C-55.776596,80.036835,-55.743256,80.037903,-55.73082,80.045319C-55.720497,80.051666,-55.654884,80.055634,-55.585304,80.053223C-55.515717,80.050873,-55.385277,80.060638,-55.293198,80.072296C-55.2043,80.084717,-55.111694,80.091064,-55.093704,80.084991C-55.07386,80.080505,-55.029678,80.082367,-54.99501,80.095032C-54.934952,80.112518,-54.844727,80.100342,-54.669846,80.046875C-54.630684,80.03421,-54.562157,80.019653,-54.520088,80.011688C-54.478279,80.00351,-54.415047,79.988678,-54.381439,79.975464C-54.346786,79.965668,-54.301277,79.965393,-54.280907,79.978088C-54.217133,80.017517,-53.873451,79.957977,-53.797249,79.894501C-53.760735,79.863007,-53.715752,79.845551,-53.699356,79.855591C-53.682945,79.865936,-53.617592,79.860901,-53.549866,79.84317C-53.403549,79.809021,-53.41069,79.779144,-53.599335,79.661926C-53.673157,79.616425,-53.7565,79.553436,-53.781631,79.52066C-53.80809,79.490204,-53.951241,79.372986,-54.103104,79.264771C-54.413994,79.038025,-54.79023,78.742493,-54.92305,78.617615C-55.158791,78.397736,-55.216469,78.339539,-55.296371,78.253021C-55.33606,78.210175,-55.408829,78.153809,-55.531059,78.072571z"/>
    <path transform="matrix(-1.333335,0,0,1.334059,-179.951736,16.793289)" style="stroke:#ff0000;stroke-width:0.05mm;fill:none" d="M-45.5322,62.578049C-45.563152,62.650284,-45.163898,62.369553,-45.246181,62.361099C-45.349636,62.35051,-46.049458,61.848587,-46.104492,61.988831C-46.341824,62.593399,-47.418674,63.922928,-47.589859,64.756104C-47.671879,65.156158,-46.852467,65.268341,-46.938457,65.458298C-46.902473,65.450912,-46.295521,65.516251,-46.256096,65.506989C-46.103165,65.471008,-45.967968,65.449844,-45.953415,65.458572C-45.912403,65.483978,-45.606812,65.471802,-45.441181,65.438202C-45.363922,65.423386,-45.290371,65.414917,-45.280048,65.42128C-45.271847,65.426559,-45.247238,65.404861,-45.225548,65.369934C-45.201469,65.331055,-45.168129,65.309082,-45.131088,65.309341C-45.054096,65.308548,-45.03928,65.275223,-45.082935,65.208542C-45.104103,65.178375,-45.113892,65.143982,-45.10754,65.133667C-45.084785,65.096619,-45.119183,65.010101,-45.168396,64.979675C-45.209408,64.95401,-45.209934,64.936813,-45.164692,64.845535C-45.082142,64.67514,-45.067059,64.605026,-45.093517,64.514801C-45.106747,64.45845,-45.100925,64.393875,-45.074203,64.328003C-45.045628,64.263443,-45.040073,64.19017,-45.054096,64.107605C-45.066269,64.040405,-45.07156,63.929276,-45.063885,63.857315C-45.045628,63.681366,-45.07209,63.412292,-45.116272,63.291107C-45.139027,63.231583,-45.146702,63.161469,-45.131088,63.122833C-45.101986,63.042145,-45.429802,62.657166,-45.5322,62.578049z"/>
    <path transform="matrix(-1.333335,0,0,1.334059,-179.951736,16.793289)" style="stroke:#ff0000;stroke-width:0.05mm;fill:none" d="M-44.579964,59.344315C-44.694,59.626358,-45.126328,60.424347,-45.242741,60.70665C-45.190884,60.718552,-44.328342,61.078125,-44.276749,61.087921C-44.144722,61.113052,-43.987297,61.147995,-43.930412,61.166245C-43.863998,61.187408,-43.799179,61.187943,-43.749435,61.167557C-43.707897,61.15062,-43.654453,61.146927,-43.633812,61.159622C-43.603123,61.178665,-43.58672,61.165985,-43.534595,61.081848L-43.473743,60.983414L-43.61132,60.875458C-43.708691,60.803757,-43.786743,60.718552,-43.857914,60.609024C-43.922474,60.510864,-44.302681,59.557571,-44.579964,59.344315z"/>
    <path transform="matrix(-1.333335,0,0,1.334059,-179.951736,16.793289)" style="stroke:#ff0000;stroke-width:0.05mm;fill:none" d="M-86.773148,114.143875C-88.055626,113.513138,-88.963936,112.307663,-89.216721,110.901291C-89.440521,109.655899,-90.534828,108.740952,-91.800293,108.740952C-92.052383,108.740952,-92.30307,108.776657,-92.544724,108.848038C-93.915192,109.253372,-95.399841,108.983139,-96.538818,108.12001C-99.05127,106.215897,-101.409706,104.11647,-103.5923,101.842026C-104.581818,100.810867,-105.023117,99.368088,-104.779572,97.959579C-104.754021,97.811874,-104.741142,97.662064,-104.741142,97.512253C-104.741142,96.133194,-105.828171,94.97673,-107.204727,94.892014C-108.631134,94.80452,-109.93364,94.04216,-110.708725,92.841583C-116.969063,83.14389,-120.299942,71.842407,-120.299942,60.30011C-120.299942,32.774445,-101.359024,8.610382,-74.630569,2.03627C-73.242798,1.695358,-71.772293,2.034164,-70.674553,2.949127C-70.202866,3.34256,-69.607903,3.558167,-68.99382,3.558167C-68.114357,3.558167,-67.291252,3.11644,-66.805489,2.382797C-66.01619,1.19133,-64.704803,0.445068,-63.277416,0.373672C-62.285736,0.324661,-61.292934,0.300171,-60.299995,0.300171C-27.384979,0.300171,-0.300053,27.384811,-0.300053,60.30011C-0.300053,65.957855,-1.100342,71.586884,-2.67712,77.02063C-3.075375,78.393402,-4.104576,79.497375,-5.445858,79.990204C-6.47625,80.368912,-7.164951,81.355988,-7.164951,82.454346C-7.164951,82.860382,-7.070724,83.260803,-6.889694,83.624115C-6.252586,84.903793,-6.261543,86.412384,-6.913849,87.684357C-21.760769,116.628342,-57.580822,128.49614,-86.773148,114.143875z"/>
    <path transform="matrix(-1.333335,0,0,1.334059,-179.951736,16.793289)" style="stroke:#ff0000;stroke-width:0.05mm;fill:none" d="M-52.03009,39.324631C-52.257904,39.277542,-51.682701,42.004852,-51.919762,41.964386C-53.600136,41.676773,-57.469925,41.865433,-59.649826,41.984756C-69.19519,42.507309,-69.753723,42.845428,-71.636497,43.747147C-77.998932,46.793823,-79.152252,47.349442,-79.152252,47.349442L-104.90889,32.831497C-105.604477,32.430389,-106.034424,31.685852,-106.034424,30.882843C-106.034424,30.433319,-105.899765,29.99411,-105.647873,29.622101C-102.785088,25.389832,-99.380165,21.633545,-95.558525,18.41832C-95.073807,18.718903,-94.343033,18.682114,-93.872337,18.323074C-93.568863,18.089447,-93.43763,17.539902,-93.605896,17.175049C-93.632889,17.114716,-93.688988,17.036423,-93.752213,16.96312C-93.011383,16.391632,-92.256531,15.839966,-91.488708,15.307892C-91.359856,15.327209,-91.225182,15.348373,-91.084419,15.371124C-89.850403,15.57222,-89.010086,15.584381,-88.28434,15.408173C-87.898842,15.317947,-87.324959,15.022675,-86.992912,14.756226C-86.521416,14.371002,-86.47644,14.358566,-85.656235,14.321793C-85.065956,14.29718,-84.877304,14.272568,-84.586258,14.186325C-84.106575,14.04689,-83.83194,13.919891,-83.426064,13.653458C-82.999817,13.374573,-82.647133,13.030365,-82.253433,12.501465C-81.888573,12.017548,-81.773735,11.94371,-81.204094,11.824921C-80.297897,11.636261,-80.474373,11.628067,-78.137314,11.92334C-76.431808,12.140564,-76.366188,12.143738,-76.300575,12.201157C-76.013496,12.451187,-58.862961,30.765625,-58.862961,30.81485C-58.862961,30.851898,-58.786491,30.8069,-58.679863,30.942123C-58.634888,30.999527,-58.597839,31.102188,-58.597839,31.171768C-58.597839,31.253784,-58.569267,31.311203,-58.511856,31.339783C-58.450211,31.376816,-58.438034,31.401428,-58.470848,31.438217C-58.503654,31.479218,-58.49942,31.508057,-58.458412,31.540863C-58.425598,31.56546,-58.409195,31.62262,-58.421631,31.663635C-58.458412,31.799088,-58.302567,31.901489,-58.01973,31.934296C-57.224396,32.016327,-56.609505,32.208923,-56.404449,32.430389C-56.293854,32.549194,-56.187225,32.594437,-55.490311,32.795242C-55.059837,32.918289,-54.358688,33.147934,-53.932449,33.303513C-52.800827,33.71785,-52.517982,33.799606,-52.23912,33.799606C-51.997284,33.799606,-51.845413,33.848816,-51.784035,33.939041C-51.73085,34.012863,-51.747253,34.755005,-51.812874,35.349533C-51.845413,35.656967,-51.870026,36.16127,-51.861816,36.464478C-51.853622,36.981216,-51.861816,37.030441,-51.952042,37.202408C-52.005493,37.305069,-52.124283,37.469101,-52.210541,37.571503C-52.591812,38.001984,-52.55899,38.125,-52.03009,38.268417C-51.92347,38.297256,-51.804672,38.354675,-51.767632,38.395676C-51.681641,38.489868,-51.718414,38.641479,-51.935638,39.096558C-51.971626,39.171967,-52.0047,39.252411,-52.03009,39.324631z"/>
    <path transform="matrix(-1.333335,0,0,1.334059,-179.951736,16.793289)" style="stroke:#ff0000;stroke-width:0.05mm;fill:none" d="M-47.629551,40.820313C-47.666855,40.052505,-47.697281,39.565659,-47.717125,39.416443C-47.729298,39.313797,-47.794914,39.145782,-47.860531,39.043381C-47.926144,38.94072,-47.979328,38.838333,-47.979328,38.817947C-47.979328,38.797318,-47.868732,38.678528,-47.729298,38.555481L-47.479263,38.330063L-47.438255,37.817566C-47.393276,37.231247,-47.43005,36.280075,-47.512074,35.89061C-47.540649,35.747192,-47.561283,35.619949,-47.553085,35.615967C-47.503872,35.566772,-47.385071,35.693756,-47.262043,35.927383C-46.995605,36.431686,-46.806957,36.595718,-46.269855,36.767975C-46.036228,36.845764,-45.285873,37.321472,-45.052242,37.542938C-44.884232,37.702744,-44.863594,37.837952,-44.978424,38.030548L-45.048012,38.153595L-44.851425,38.321869C-44.662777,38.489868,-44.658543,38.498077,-44.724163,38.588303C-44.814384,38.719528,-44.773376,38.79335,-44.588959,38.826157C-44.502972,38.838333,-44.371735,38.887543,-44.297916,38.93251C-44.166683,39.014542,-44.166683,39.014542,-44.023281,38.924316C-43.863209,38.826157,-43.715572,38.637512,-43.715572,38.530884C-43.715572,38.391449,-44.359303,37.210602,-44.756969,36.628525C-44.822586,36.526138,-44.994827,36.312881,-45.134266,36.148834C-45.449913,35.788223,-45.470284,35.755402,-46.081207,34.640198C-46.815163,33.299545,-46.798759,33.332367,-46.765949,33.119095C-46.733143,32.885468,-46.765949,32.848694,-47.126575,32.709259C-47.413647,32.602646,-47.942551,32.221359,-48.077755,32.032715C-48.167973,31.905716,-48.159775,31.758087,-48.061348,31.59404C-47.99176,31.479218,-47.958954,31.458847,-47.876934,31.479218C-47.782742,31.50383,-47.762104,31.475235,-47.610497,31.175735C-47.520275,30.99556,-47.446457,30.827286,-47.446457,30.798691C-47.446457,30.774109,-47.487469,30.708481,-47.536678,30.655289L-47.6269,30.560837L-47.528477,30.290451L-47.434284,30.023743L-47.548851,29.646713C-47.643311,29.326828,-47.69252,29.236603,-47.852329,29.072556C-47.954987,28.961975,-48.085953,28.851364,-48.143372,28.818573C-48.311642,28.7323,-48.877319,28.621719,-49.037132,28.646332C-49.529259,28.715912,-50.070328,29.093201,-50.070328,29.376053C-50.070328,29.453842,-50.099167,29.552246,-50.131714,29.593262C-50.16452,29.638519,-50.193359,29.732697,-50.193359,29.802551C-50.193359,29.872147,-50.221931,29.966324,-50.254745,30.015549C-50.303955,30.085388,-50.308189,30.142807,-50.27935,30.282242C-50.246536,30.417435,-50.250778,30.470612,-50.299988,30.524063C-50.373802,30.606094,-50.373802,30.737061,-50.295753,31.003754C-50.226166,31.229172,-50.148117,31.298767,-49.955498,31.298767C-49.857071,31.298767,-49.828499,31.319397,-49.816063,31.401428C-49.766846,31.64325,-49.869507,31.790878,-49.988304,31.647232C-50.058159,31.561234,-50.139915,31.569443,-50.172722,31.663635C-50.193359,31.733475,-50.221931,31.741684,-50.390205,31.721039C-50.537582,31.704636,-50.804283,31.749878,-51.484795,31.909698C-51.984856,32.024521,-52.476974,32.118713,-52.579376,32.118713C-52.681763,32.118713,-52.968834,32.057327,-53.218872,31.979538C-53.887207,31.77449,-54.186447,31.733475,-54.80558,31.766296C-55.100853,31.778458,-55.543495,31.77449,-55.789558,31.749878C-56.375877,31.692474,-56.429054,31.680038,-56.400482,31.606201C-56.379845,31.557266,-56.408684,31.54483,-56.523247,31.54483C-56.765343,31.54483,-57.117767,31.360428,-57.408806,31.077576C-57.741119,30.753464,-57.772873,30.813263,-57.871826,30.674606C-57.928978,30.594193,-58.019997,30.384903,-58.117363,30.276154C-58.227959,30.198105,-74.506439,13.024277,-74.867065,12.651199C-75.215782,12.298508,-75.154663,12.298004,-75.072639,12.298004C-75.019463,12.298004,-75.243034,12.288193,-74.714134,12.357788C-73.668503,12.489029,-73.766922,12.45224,-73.373489,12.821075L-73.205482,12.976913L-73.028999,12.308838C-72.897766,11.804535,-72.725792,11.328827,-72.328125,10.353043C-71.885208,9.279099,-71.745773,8.983826,-71.471138,8.545151C-71.184067,8.085815,-71.089874,7.975235,-70.741417,7.671753C-70.5242,7.479141,-70.306702,7.286514,-70.265694,7.237305L-70.187904,7.151321L-70.983246,7.159515C-71.723282,7.166397,-71.896851,7.158737,-72.68557,6.971664C-68.667351,6.036621,-64.51445,5.550064,-60.300179,5.550064C-42.15453,5.550064,-25.147919,14.57103,-14.971254,29.594315C-14.718842,29.966599,-14.583904,30.406326,-14.583904,30.856125C-14.583904,31.6586,-15.013588,32.402878,-15.708384,32.804245L-40.650902,46.881927C-41.094875,47.138565,-43.610001,45.380936,-47.457569,43.978394C-47.650185,43.908005,-47.404919,41.525955,-47.629551,40.820313z"/>
    <path transform="matrix(-1.333335,0,0,1.334059,-179.951736,16.793289)" style="stroke:#ff0000;stroke-width:0.05mm;fill:none" d="M-77.421616,8.30014C-77.526657,8.409149,-77.638313,8.514191,-77.756042,8.614731C-77.985703,8.811584,-78.366974,9.147873,-78.604828,9.365082C-79.432976,10.119415,-79.736183,10.377655,-80.142059,10.676895C-80.670959,11.070587,-80.785789,11.128006,-81.367867,11.328827C-81.634567,11.419052,-81.933815,11.542084,-82.032242,11.599487C-82.216652,11.710083,-82.25766,11.751099,-82.659302,12.296402C-83.356483,13.247589,-83.98777,13.731247,-84.815918,13.960892C-85.106964,14.03894,-85.205383,14.04689,-85.713654,14.022552C-86.029564,14.010101,-86.287796,13.993713,-86.295998,13.989731C-86.299973,13.981537,-86.271393,13.874908,-86.230385,13.751877C-86.144127,13.501846,-86.123756,13.079575,-86.189377,12.841721C-86.213974,12.755722,-86.291763,12.612045,-86.365585,12.517868C-86.435699,12.425781,-86.520103,12.35144,-86.613235,12.294556C-83.682449,10.688004,-80.605606,9.349747,-77.421616,8.30014z"/>
    <path transform="matrix(-1.333335,0,0,1.334059,-179.951736,16.793289)" style="stroke:#ff0000;stroke-width:0.05mm;fill:none" d="M-82.195747,60.369583C-82.475945,60.327774,-82.792915,60.3508,-83.156723,60.434937L-83.368652,60.485214L-83.445641,60.333862C-83.48851,60.251846,-83.595665,60.044403,-83.682182,59.87825C-84.069267,59.123657,-84.483597,58.66539,-85.071243,58.340744C-85.704918,57.990189,-86.576454,57.88356,-87.524193,58.03833L-87.635056,58.055008L-87.718132,57.835129C-88.207344,56.560898,-89.164345,56.079636,-90.085625,56.647156C-90.153091,56.690552,-90.277176,56.778931,-90.359734,56.846909C-90.479591,56.94165,-90.518219,56.963608,-90.539124,56.944809C-90.555786,56.932373,-90.647339,56.815445,-90.744965,56.687897C-91.215393,56.071686,-91.387901,55.889404,-91.697731,55.679321C-92.211815,55.332184,-92.919838,55.28006,-93.738724,55.53273L-94.008591,55.616074L-94.053841,55.412094C-94.136391,55.046967,-94.299637,54.804337,-94.540939,54.693481C-94.89389,54.531815,-95.291824,54.642136,-95.854065,55.063629C-95.97921,55.157288,-96.096428,55.243546,-96.115204,55.25676C-96.142189,55.275284,-96.158867,55.262848,-96.192207,55.195389C-96.414978,54.74321,-96.622681,54.496628,-96.90419,54.345551C-97.472519,54.042603,-98.114929,54.228348,-98.923752,54.931335C-99.043091,55.035843,-99.144943,55.12236,-99.149712,55.123962C-99.154205,55.12529,-99.167175,55.091675,-99.180664,55.048279C-99.214531,54.938477,-99.376991,54.632889,-99.485207,54.478638C-100.025223,53.7034,-100.807594,53.721924,-101.494446,54.524933L-101.595779,54.646652L-101.752419,54.622314C-101.951385,54.59108,-102.167549,54.627594,-102.398788,54.729202C-102.605698,54.82048,-103.019508,55.108337,-103.335953,55.376358C-103.521423,55.536438,-103.570099,55.591461,-103.652657,55.749695C-104.094505,56.584976,-104.316231,58.03595,-104.266487,59.776642C-104.210663,61.693024,-103.866173,63.848587,-103.231438,66.265015C-103.116341,66.703171,-102.528442,68.510284,-102.364136,68.928055C-101.495247,71.137054,-100.588249,72.545441,-99.693436,73.070892C-99.4897,73.190765,-98.952332,73.41803,-98.768707,73.464325C-98.042961,73.638428,-97.409279,73.407715,-96.891762,72.784607L-96.725868,72.585632L-96.496475,72.650208C-96.206223,72.730896,-96.054886,72.754456,-95.781303,72.765045C-95.163239,72.787262,-94.593063,72.596222,-94.151207,72.219452C-93.918907,72.022339,-93.626534,71.586578,-93.513557,71.273575L-93.478371,71.182556L-93.188126,71.230713C-92.589378,71.329147,-92.138252,71.219864,-91.828964,70.903961C-91.615181,70.68779,-91.465958,70.295944,-91.445313,69.903824C-91.442146,69.800125,-91.436844,69.710953,-91.437378,69.708572C-91.435791,69.705673,-91.254814,69.629715,-91.03495,69.53923C-90.371376,69.266724,-90.067368,69.097916,-89.772354,68.833847C-89.326004,68.430634,-89.110634,67.90094,-89.119362,67.217255L-89.121742,67.062744L-88.753975,66.936539C-88.461342,66.836258,-88.345726,66.785446,-88.180626,66.682007C-87.759933,66.424576,-87.387405,66.011292,-87.178909,65.573669C-87.123352,65.458832,-87.08181,65.355911,-87.084724,65.346924C-87.09742,65.305649,-87.043709,65.324173,-86.812996,65.440842C-86.481468,65.606461,-86.285408,65.636108,-86.006813,65.565186C-85.698036,65.485031,-85.457275,65.308014,-85.185013,64.953491L-85.067802,64.80188L-85.011978,64.867493C-84.594727,65.352203,-84.38121,65.53688,-84.05101,65.698013C-83.462311,65.984818,-82.850861,65.846176,-82.424355,65.328659C-82.370911,65.264633,-82.3246,65.210129,-82.319847,65.208801C-82.315346,65.207474,-82.256874,65.249542,-82.192574,65.3022C-81.818718,65.605148,-81.380569,65.780563,-80.96888,65.796188C-80.833679,65.801208,-80.677574,65.778717,-80.524117,65.735855C-79.593575,65.82132,-79.120239,64.623016,-78.876289,65.103241C-76.195793,70.377701,-71.192001,71.163513,-69.249168,72.423981C-67.325912,73.671478,-62.41552,74.951294,-62.415253,75.870178L-61.784218,112.666016C-61.784218,112.666016,-61.784218,112.666016,-61.784218,112.666016C-61.784218,113.901642,-62.799957,114.917633,-64.034233,114.917633C-64.087677,114.917633,-64.140862,114.914978,-64.194305,114.912323C-92.690178,112.880341,-115.05011,88.86676,-115.05011,60.300003C-115.05011,52.019592,-113.171829,43.8461,-109.556564,36.396759C-109.180847,35.622589,-108.392921,35.129135,-107.532234,35.129135C-107.137741,35.129135,-106.749863,35.232849,-106.40802,35.430222L-79.30677,51.055466C-78.510895,51.514771,-80.2799,52.64798,-80.203705,55.793884C-80.16481,57.391159,-79.411011,59.548035,-79.856041,60.114792C-80.647675,61.122589,-81.080795,59.324219,-81.664734,59.442749C-82.010544,59.513123,-82.257141,60.05394,-82.195747,60.369583z"/>
</svg>
