<?xml version="1.0" encoding="UTF-8"?>
<svg xmlns="http://www.w3.org/2000/svg" xmlns:xlink="http://www.w3.org/1999/xlink" width="160.000mm" height="160.000mm" viewBox="-181.830582 19.650381 160.000000 160.000000">
    <path transform="matrix(-1.333336,0,0,1.33406,-182.339844,19.140968)" style="stroke:#ff0000;stroke-width:0.05mm;fill:none" d="M-33.908699,114.225464C-32.626228,113.594727,-31.71792,112.389252,-31.465134,110.982849C-31.241331,109.737488,-30.147028,108.82251,-28.881561,108.82251C-28.629477,108.82251,-28.378792,108.858215,-28.137138,108.929626C-26.766666,109.334961,-25.282017,109.064728,-24.143047,108.201599C-21.630596,106.297485,-19.27216,104.198059,-17.089565,101.923615C-16.100056,100.892426,-15.658752,99.449677,-15.902298,98.041168C-15.927849,97.893463,-15.940727,97.743652,-15.940727,97.593842C-15.940727,96.214783,-14.853706,95.058289,-13.477142,94.973602C-12.050735,94.886108,-10.748241,94.123749,-9.973152,92.923172C-3.712822,83.225494,-0.381947,71.924026,-0.381947,60.381729C-0.381947,32.856079,-19.322842,8.692047,-46.051277,2.11795C-47.439041,1.777039,-48.909546,2.115845,-50.007282,3.030807C-50.47897,3.424225,-51.073936,3.639832,-51.688011,3.639832C-52.567474,3.639832,-53.390583,3.19812,-53.876343,2.464478C-54.665642,1.27301,-55.977028,0.526749,-57.404415,0.455338C-58.396095,0.406342,-59.388893,0.381851,-60.381832,0.381851C-93.296814,0.381851,-120.381714,27.466461,-120.381714,60.381729C-120.381714,66.039474,-119.581429,71.668503,-118.004654,77.102234C-117.6064,78.475006,-116.577194,79.578964,-115.235916,80.071808C-114.205528,80.450516,-113.51683,81.437592,-113.51683,82.53595C-113.51683,82.941971,-113.611053,83.342392,-113.792084,83.705719C-114.429192,84.985397,-114.420227,86.493988,-113.767929,87.765961C-98.921021,116.7099,-63.101006,128.577698,-33.908699,114.225464z"/>
    <path transform="matrix(-1.333336,0,0,1.33406,-182.339844,19.140968)" style="stroke:#ff0000;stroke-width:0.05mm;fill:none" d="M-112.801025,75.41433L-111.089172,74.430077L-112.110466,72.649437L-110.08905,71.490562L-110.684364,70.456039L-106.289635,67.931915L-107.014595,66.669861L-88.827148,56.226761C-90.099792,51.882309,-90.671295,47.916206,-90.8909,44.579815L-96.341309,41.433922L-106.469551,35.586636C-106.514534,35.560177,-106.562157,35.536366,-106.609779,35.512554C-106.988136,35.327347,-107.395592,35.2612,-107.784531,35.29295C-107.773949,35.34322,-107.768654,35.39349,-107.768654,35.446407C-107.768654,35.875031,-108.117905,36.221634,-108.546532,36.221634C-108.580925,36.221634,-108.615318,36.21899,-108.649719,36.213699C-108.644424,36.256031,-108.641777,36.298363,-108.641777,36.340698C-108.641777,36.671425,-108.792595,36.970406,-109.030716,37.166199C-108.615318,37.383156,-108.332214,37.819717,-108.332214,38.322426C-108.332214,38.393864,-108.337509,38.462654,-108.350739,38.528801C-108.27401,38.666382,-108.229027,38.822487,-108.229027,38.991821C-108.229027,39.515694,-108.652359,39.93903,-109.176239,39.93903C-109.226509,39.93903,-109.276779,39.936382,-109.324402,39.9258C-109.229156,40.129528,-109.176239,40.357071,-109.176239,40.595196C-109.176239,40.820091,-109.221214,41.031757,-109.305885,41.224903L-109.305885,41.230194C-109.297943,41.280464,-109.292656,41.330734,-109.292656,41.381004C-109.292656,41.838734,-109.665718,42.211796,-110.123444,42.211796C-110.226631,42.211796,-110.327171,42.193275,-110.419777,42.156235L-110.422424,42.156235C-110.536194,42.182693,-110.655258,42.195923,-110.77961,42.195923C-110.959526,42.195923,-111.131508,42.166817,-111.2929,42.108608C-111.332588,42.389069,-111.451653,42.643066,-111.620987,42.852089C-111.226753,43.029358,-110.954239,43.426231,-110.954239,43.886608C-110.954239,43.97921,-110.964821,44.069168,-110.988632,44.156483C-110.840462,44.026836,-110.644676,43.944817,-110.427711,43.944817C-109.962051,43.944817,-109.583694,44.32317,-109.583694,44.788837C-109.583694,45.146023,-109.805946,45.450294,-110.118156,45.574646C-109.715988,46.011211,-109.467278,46.59594,-109.467278,47.236229C-109.467278,47.432022,-109.491089,47.619873,-109.533424,47.802437C-109.51226,47.799793,-109.488441,47.799793,-109.467278,47.799793C-108.744965,47.799793,-108.157593,48.387165,-108.157593,49.109478C-108.157593,49.543392,-108.366615,49.92704,-108.692047,50.167809C-108.546532,50.498539,-108.453926,50.858372,-108.432762,51.239372C-108.046471,51.366371,-107.768654,51.728851,-107.768654,52.157475C-107.768654,52.649597,-108.133781,53.057056,-108.610031,53.117912C-108.707924,53.744972,-109.157715,54.258263,-109.750381,54.446117C-109.678947,54.591637,-109.641907,54.753036,-109.641907,54.925014C-109.641907,55.552074,-110.149902,56.062721,-110.77961,56.062721C-110.988632,56.062721,-111.187065,56.004513,-111.35376,55.906616C-111.533676,56.187077,-111.848526,56.369637,-112.205711,56.369637C-112.216293,56.369637,-112.229523,56.369637,-112.240112,56.366989C-112.528503,56.66597,-112.909508,56.877636,-113.338127,56.957012C-113.481003,57.163387,-113.687378,57.322136,-113.928146,57.412094C-113.835548,57.533806,-113.779984,57.687263,-113.779984,57.853951C-113.779984,58.256115,-114.105423,58.581551,-114.507584,58.581551C-114.655754,58.581551,-114.795982,58.536572,-114.909752,58.459846C-115.105545,64.333588,-114.356773,70.032707,-112.801025,75.41433z"/>
    <path transform="matrix(-1.333336,0,0,1.33406,-182.339844,19.140968)" style="stroke:#ff0000;stroke-width:0.05mm;fill:none" d="M-106.853195,88.836624C-106.818802,87.974091,-106.22084,87.257065,-105.416512,87.040115C-105.419159,87.029526,-105.419159,87.021591,-105.419159,87.011002C-105.419159,86.960739,-105.416512,86.913109,-105.408577,86.865479C-106.093842,86.704086,-106.591263,86.230484,-106.591263,85.669571C-106.591263,85.103363,-106.085907,84.624466,-105.390053,84.471008C-105.411217,84.32019,-105.419159,84.164093,-105.419159,84.005341C-105.419159,82.35434,-104.434906,81.015549,-103.220474,81.015549C-102.521973,81.015549,-101.89756,81.460052,-101.495392,82.155899C-101.360451,82.113571,-101.217575,82.08976,-101.066765,82.08976C-100.368263,82.08976,-99.791473,82.589821,-99.675056,83.253922C-99.418411,83.317429,-99.172348,83.396805,-98.944809,83.49205C-98.584976,83.137512,-98.09285,82.920547,-97.547813,82.920547C-96.444504,82.920547,-95.547562,83.81749,-95.547562,84.920792C-95.547562,85.180092,-95.597832,85.426147,-95.690437,85.653694C-95.089836,85.99765,-94.727356,86.442154,-94.727356,86.921043C-94.727356,87.227966,-94.872879,87.519005,-95.134811,87.77829C-94.624168,88.148712,-94.293442,88.751968,-94.293442,89.429291C-94.293442,89.910835,-94.460129,90.355331,-94.743233,90.704582C-94.610939,90.778671,-94.48394,90.865982,-94.359589,90.961227C-92.994339,92.001038,-92.581589,93.752579,-93.438835,94.87442C-94.293442,95.996246,-96.089958,96.062393,-97.455208,95.022583C-97.502831,94.985535,-97.550461,94.948502,-97.595436,94.906158C-97.682747,94.924683,-97.772705,94.932617,-97.862663,94.932617C-98.521477,94.932617,-99.08239,94.503998,-99.28083,93.911331C-100.27037,93.900742,-101.095871,93.469475,-101.333992,92.88739C-101.532433,92.821243,-101.717636,92.739227,-101.892265,92.649269C-101.95047,93.374222,-102.352638,93.932495,-102.83947,93.932495C-103.00087,93.932495,-103.154327,93.869003,-103.289261,93.757874C-103.331596,93.77375,-103.371284,93.789627,-103.41362,93.802856C-102.344704,95.17868,-101.212288,96.501602,-100.016373,97.768951C-99.815285,97.422348,-99.439583,97.189514,-99.010956,97.189514C-98.696098,97.189514,-98.412994,97.311218,-98.203979,97.514954C-97.947334,97.525536,-97.7145,97.615494,-97.526642,97.763657C-97.346725,97.522888,-97.060974,97.369431,-96.73819,97.369431C-96.193146,97.369431,-95.751289,97.811279,-95.751289,98.356323C-95.751289,98.642075,-95.873001,98.901367,-96.068787,99.081284C-95.809502,99.282364,-95.642815,99.597221,-95.642815,99.949112L-95.642815,99.970284C-95.510521,100.131683,-95.428497,100.343346,-95.428497,100.570892C-95.428497,101.015381,-95.740707,101.388451,-96.158752,101.481049C-95.163918,102.351532,-94.137337,103.184967,-93.079002,103.978714C-93.11869,103.801445,-93.137207,103.616241,-93.137207,103.428383C-93.137207,103.071198,-93.065773,102.729889,-92.938774,102.417679C-93.110748,102.126633,-93.206001,101.790619,-93.206001,101.428131C-93.206001,100.322174,-92.309067,99.425247,-91.20575,99.425247C-90.229446,99.425247,-89.414528,100.123741,-89.239899,101.049782C-88.856255,101.245575,-88.525528,101.533966,-88.276817,101.883217C-88.062508,101.605408,-87.726486,101.428131,-87.348129,101.428131C-86.694611,101.428131,-86.165451,101.954659,-86.165451,102.608177C-86.165451,102.936256,-86.300385,103.235237,-86.517342,103.449554C-86.128403,103.502472,-85.77916,103.682388,-85.514572,103.941673C-85.289673,103.33313,-84.702301,102.899216,-84.014389,102.899216C-83.128036,102.899216,-82.411011,103.616241,-82.411011,104.499947C-82.411011,104.809509,-82.498322,105.0979,-82.651787,105.343964C-82.106743,105.904877,-81.765427,106.661591,-81.744263,107.500313C-81.281242,107.831047,-80.979622,108.373444,-80.979622,108.987274C-80.979622,109.627563,-81.307701,110.193771,-81.807762,110.519211C-76.37323,112.855484,-70.46244,114.342438,-64.231506,114.802811C-64.178589,114.805458,-64.125671,114.810745,-64.070114,114.808098C-63.022366,114.810745,-62.141304,114.099022,-61.887306,113.128006L-61.887306,113.125359C-61.874077,113.030098,-61.868782,112.934853,-61.868782,112.83696L-61.868782,102.645218L-69.5364,107.047882L-75.349289,96.922287L-79.632889,99.382904L-84.363632,91.149086L-80.077393,88.688461L-80.090622,88.66465L-85.890282,78.565514L-78.907928,74.554436C-80.336685,72.887558,-82.045891,70.680939,-83.710114,67.934563L-100.691055,77.684448L-101.416016,76.419739L-105.810738,78.941223L-106.406052,77.9067L-108.427467,79.068222L-109.332344,77.491302L-111.681839,78.840683C-110.409195,82.349045,-108.789948,85.693375,-106.853195,88.836624z"/>
    <path transform="matrix(-1.333336,0,0,1.33406,-182.339844,19.140968)" style="stroke:#ff0000;stroke-width:0.05mm;fill:none" d="M-56.055893,60.470673C-56.055893,58.089428,-57.98735,56.15797,-60.368595,56.15797C-62.749844,56.15797,-64.681305,58.089428,-64.681305,60.470673C-64.681305,62.854568,-62.749844,64.783379,-60.368595,64.783379C-57.98735,64.783379,-56.055893,62.854568,-56.055893,60.470673z"/>
    <path transform="matrix(-1.333336,0,0,1.33406,-182.339844,19.140968)" style="stroke:#ff0000;stroke-width:0.05mm;fill:none" d="M-58.868412,102.743118C-58.484768,102.743118,-58.159325,103.002403,-58.056141,103.354294C-57.447598,102.811905,-56.746452,102.438843,-56.005619,102.240402L-56.002975,102.240402C-55.857456,101.533966,-55.407665,100.936005,-54.796478,100.594696C-54.481625,99.861801,-53.751377,99.348511,-52.899418,99.348511C-52.571335,99.348511,-52.259125,99.425247,-51.983959,99.560181C-51.44421,98.491264,-50.335606,97.761017,-49.055027,97.761017C-47.925255,97.761017,-46.927773,98.329865,-46.337753,99.200348C-45.811234,98.790237,-45.152428,98.546829,-44.435402,98.546829L-44.432762,98.546829C-43.99884,98.366913,-43.522591,98.269012,-43.02253,98.269012C-42.085907,98.269012,-41.228653,98.615616,-40.575134,99.184471C-40.495758,98.591805,-39.987755,98.136719,-39.376572,98.136719C-38.707176,98.136719,-38.164787,98.679115,-38.164787,99.348511C-38.164787,99.568115,-38.222992,99.77449,-38.32618,99.951759C-38.275902,99.949112,-38.222992,99.949112,-38.172722,99.949112C-37.582703,99.949112,-37.029724,100.118454,-36.564049,100.409492C-36.288895,100.41478,-36.02166,100.441238,-35.759727,100.486221C-35.60891,100.044365,-35.354912,99.655426,-35.021538,99.340576L-35.01889,99.337929C-34.812515,98.716156,-34.225136,98.269012,-33.531929,98.269012C-33.161514,98.269012,-32.820206,98.398659,-32.550331,98.612976C-31.513161,98.800827,-30.671791,99.554886,-30.356934,100.544434C-30.126747,100.544434,-29.899216,100.568237,-29.679604,100.61322C-29.372688,100.277206,-28.954651,100.041718,-28.481041,99.972931L-28.475754,99.972931C-28.451942,99.967636,-28.428123,99.964996,-28.404312,99.962341C-28.40696,99.957054,-28.40696,99.951759,-28.40696,99.943825C-28.417542,99.832703,-28.422836,99.721573,-28.422836,99.607803C-28.422836,99.009842,-28.287895,98.446289,-28.047134,97.940933L-30.846413,96.305801L-31.579308,97.562576L-49.695316,86.992477C-52.865021,90.299774,-56.061184,92.789497,-58.868412,94.652161L-58.868412,102.743118z"/>
    <path transform="matrix(-1.333336,0,0,1.33406,-182.339844,19.140968)" style="stroke:#ff0000;stroke-width:0.05mm;fill:none" d="M-22.138985,91.43483L-20.125511,92.609581L-21.043617,94.181206L-18.702057,95.546455C-18.035301,94.755348,-17.392365,93.94838,-16.773239,93.125519C-16.998138,92.792145,-17.130432,92.389984,-17.130432,91.956055C-17.130432,91.908432,-17.127785,91.860809,-17.125145,91.813187C-17.352676,91.868752,-17.588165,91.897858,-17.831573,91.897858C-19.474632,91.897858,-20.808136,90.567001,-20.808136,88.921295C-20.808136,88.841919,-20.805489,88.762543,-20.797546,88.683167C-20.900742,88.706985,-21.009216,88.717567,-21.117699,88.717567C-21.956421,88.717567,-22.639053,88.037582,-22.639053,87.196213C-22.639053,86.656464,-22.355949,86.182861,-21.929962,85.912979C-22.054314,85.838898,-22.173386,85.756882,-22.287155,85.669571C-23.551857,85.5849,-24.549339,84.534508,-24.549339,83.248634C-24.549339,82.780319,-24.417053,82.346405,-24.186859,81.97599C-24.189507,81.931007,-24.189507,81.886032,-24.189507,81.841049C-24.189507,80.803886,-23.858772,79.840805,-23.297859,79.054993C-24.075737,78.509949,-24.583733,77.607719,-24.583733,76.586426C-24.583733,75.237061,-23.697388,74.094055,-22.475006,73.710411C-22.498825,73.644272,-22.519989,73.575478,-22.5438,73.504036C-22.596718,73.514618,-22.652275,73.519913,-22.70784,73.519913C-23.202606,73.519913,-23.604782,73.120392,-23.604782,72.625626C-23.604782,72.165245,-23.255524,71.784248,-22.80838,71.736626L-22.80838,71.728683C-22.80838,68.670105,-20.527679,66.143341,-17.574928,65.75705C-17.365906,65.336357,-16.931992,65.047966,-16.431931,65.047966C-15.873657,65.047966,-15.397408,65.407791,-15.225426,65.90786C-15.0905,65.942253,-14.960846,65.981941,-14.8312,66.026917C-14.659225,65.735878,-14.458138,65.463356,-14.233246,65.212006C-14.262352,65.074417,-14.275574,64.928902,-14.275574,64.783379C-14.275574,63.854691,-13.701439,63.060944,-12.886513,62.735504C-13.3125,62.314819,-13.574432,61.732735,-13.574432,61.087154C-13.574432,59.809219,-12.537262,58.772053,-11.256683,58.772053C-11.201126,58.772053,-11.145561,58.774696,-11.089996,58.779991C-10.888916,58.584198,-10.664017,58.414864,-10.417961,58.279926C-10.632271,57.973011,-10.756622,57.599949,-10.756622,57.197784C-10.756622,56.967594,-10.716942,56.747993,-10.640205,56.546906C-11.034431,55.858994,-11.256683,55.062599,-11.256683,54.215931C-11.256683,54.028076,-11.246101,53.840225,-11.222282,53.657661C-11.465706,53.326931,-11.611221,52.919472,-11.611221,52.477623C-11.611221,51.697102,-11.161438,51.019768,-10.505264,50.696976C-10.968285,50.263062,-11.256683,49.641289,-11.256683,48.953373C-11.256683,48.339542,-11.026497,47.778625,-10.645493,47.352646C-11.248749,46.611813,-11.611221,45.661961,-11.611221,44.630085C-11.611221,44.577171,-11.611221,44.526897,-11.608582,44.476627C-11.899628,44.071815,-12.071602,43.577045,-12.071602,43.039944C-12.071602,41.923401,-11.32283,40.97884,-10.301544,40.682507C-10.526436,40.349133,-10.65873,39.946964,-10.65873,39.51305C-10.65873,39.081779,-10.526436,38.679611,-10.304184,38.346237C-10.574059,37.727112,-10.854523,37.10799,-11.150848,36.494156C-11.150848,36.491508,-11.153496,36.491508,-11.153496,36.488865C-11.166725,36.462406,-11.182602,36.435947,-11.195831,36.412136C-11.814957,35.335281,-13.193436,34.967514,-14.267639,35.586636L-22.821617,40.526402L-15.236015,44.950233L-21.120338,55.03614L-16.852615,57.525864L-21.638931,65.727943L-25.904007,63.238213L-31.78833,73.321472L-38.744225,69.262772C-39.477112,71.33181,-40.538094,73.911499,-42.093849,76.724014L-25.179047,86.592964L-25.914581,87.852379L-21.538383,90.405609L-22.138985,91.43483z"/>
    <path transform="matrix(-1.333336,0,0,1.33406,-182.339844,19.140968)" style="stroke:#ff0000;stroke-width:0.05mm;fill:none" d="M-15.02964,29.779037C-18.934891,24.011126,-23.906403,19.03961,-29.676956,15.134365C-35.225266,11.377283,-41.215431,8.776432,-47.364334,7.273602L-47.364334,9.247391L-45.311172,9.247391L-45.311172,11.578367L-44.117905,11.578367L-44.117905,16.645134L-42.662697,16.645134L-42.662697,37.618633C-38.04837,38.729885,-34.174866,40.304153,-31.097771,41.841381L-15.76783,32.991077C-15.722847,32.961971,-15.677872,32.935516,-15.632889,32.903763C-14.603661,32.207909,-14.333786,30.808266,-15.02964,29.779037z"/>
    <path transform="matrix(-1.333336,0,0,1.33406,-182.339844,19.140968)" style="stroke:#ff0000;stroke-width:0.05mm;fill:none" d="M-50.893879,6.538059C-59.445202,5.040516,-68.192322,5.614666,-76.391747,8.117619C-76.296494,8.136143,-76.201248,8.154663,-76.103348,8.175827C-75.38633,8.416599,-74.669312,8.660015,-73.952286,8.903431C-72.925705,8.572704,-70.404236,7.79483,-69.107773,7.662537C-68.242584,7.575226,-66.943481,7.630787,-66.988464,7.853039C-67.046677,8.133495,-67.485886,8.427181,-68.134109,8.712933C-68.12088,8.720871,-68.110291,8.731457,-68.099716,8.744682C-68.007111,8.863747,-68.038864,9.04631,-68.171158,9.149498C-68.306091,9.252686,-68.488647,9.2421,-68.581253,9.123035C-68.628876,9.064827,-68.64476,8.990746,-68.631531,8.916664C-68.904045,9.019848,-69.197731,9.120392,-69.504654,9.218288C-69.47554,9.281788,-69.470253,9.358517,-69.491425,9.435246C-69.5364,9.596642,-69.692505,9.694534,-69.840668,9.652203C-69.959732,9.620453,-70.033813,9.506683,-70.033813,9.379684C-70.486252,9.514618,-70.957214,9.641621,-71.420235,9.758038C-69.062798,10.557076,-66.708008,11.353472,-64.353218,12.149868L-62.154533,9.699829C-61.625366,9.54108,-61.321095,9.591347,-61.154408,9.744808C-60.955971,9.927368,-60.860722,10.337471,-61.170284,11.279388C-60.948036,11.305847,-60.683453,11.37464,-60.368595,11.498991C-60.773407,11.700075,-61.141178,11.946138,-61.524822,12.176327C-61.720615,12.620825,-61.982552,13.147345,-62.32122,13.761177C-62.522305,13.737366,-62.720741,13.7162,-62.91124,13.695032C-63.186405,14.091908,-63.5383,14.457031,-63.66795,14.777178C-63.802883,14.750717,-64.04895,14.126303,-64.056885,13.554804C-64.361153,13.517761,-64.623093,13.480721,-64.842697,13.448969C-64.842697,13.448969,-68.610359,12.917158,-72.708755,11.546618C-72.721985,11.832367,-72.732559,12.118116,-72.745789,12.40122C-72.706108,12.390638,-72.663773,12.390638,-72.621437,12.403868C-72.475922,12.443556,-72.396545,12.610243,-72.441528,12.771637C-72.486504,12.92774,-72.626732,13.022991,-72.769608,12.996532C-72.782837,13.261116,-72.793411,13.5257,-72.804001,13.790281C-72.761673,13.779699,-72.71933,13.779699,-72.677002,13.790281C-72.528831,13.832617,-72.449463,13.999304,-72.494438,14.1607C-72.539413,14.319448,-72.687584,14.417345,-72.83046,14.382948C-72.833107,14.472906,-72.838394,14.56551,-72.841042,14.655468C-72.864853,14.766594,-72.994507,15.301052,-73.306709,15.367197C-73.648026,15.435989,-73.999924,14.901531,-74.17189,14.636948C-74.833359,13.62624,-74.849228,12.051971,-74.730164,10.805786C-76.098061,10.258099,-77.439499,9.612514,-78.627472,8.853161C-89.290176,12.612888,-98.88131,19.698423,-105.70755,29.779037C-105.736656,29.824017,-105.765762,29.868996,-105.792221,29.916622C-106.413986,30.993473,-106.046219,32.369308,-104.969368,32.991077L-96.341309,37.973175L-96.341309,29.040852L-84.66526,29.040852L-84.66526,24.101086L-75.169373,24.101086L-75.169373,29.040852L-63.495968,29.040852L-63.495968,37.094761C-61.339615,36.684658,-58.574722,36.30101,-55.362686,36.226929L-55.362686,16.645134L-53.904831,16.645134L-53.904831,11.578367L-52.711563,11.578367L-52.711563,9.247391L-50.893879,9.247391L-50.893879,6.538059z"/>
</svg>
