<?xml version="1.0" encoding="UTF-8"?>
<svg xmlns="http://www.w3.org/2000/svg" xmlns:xlink="http://www.w3.org/1999/xlink" width="145.731mm" height="135.854mm" viewBox="-696.466858 -8.463713 145.730591 135.854446">
    <path transform="matrix(-1.33333,0,0,1.33406,-706.240723,-28.653028)" style="stroke:#000000;stroke-width:0.05mm;fill:none" d="M-64.384705,112.080452L-64.397858,69.224976C-64.398064,68.308243,-63.836639,67.479462,-62.985252,67.139664C-59.622231,65.797516,-57.601719,62.295647,-58.123234,58.712357C-58.25526,57.805222,-57.818665,56.904358,-57.02496,56.445709L-19.917328,35.006287C-19.22401,34.606262,-18.366215,34.605652,-17.672344,35.006256C-17.284256,35.230316,-16.971931,35.565781,-16.775948,35.968903L-16.221088,37.157715C-20.372169,34.893326,-20.942966,34.677582,-18.732315,36.105133C-17.83942,36.69313,-17.063217,37.257263,-17.018494,37.355576C-16.980042,37.464767,-17.10146,37.800629,-17.32119,38.181213C-17.635094,38.724915,-17.753929,38.830292,-18.118721,38.909653C-18.67218,39.039566,-19.073284,38.880478,-20.164822,38.134277C-20.639915,37.802002,-21.070274,37.568024,-21.121731,37.581818C-21.29034,37.672958,-21.333298,38.576065,-21.175232,38.754318C-20.985809,39.002289,-19.708721,39.798767,-13.83477,43.358719L-12.993546,43.869476C-10.250542,45.518829,-7.920624,46.953758,-7.463015,47.272629L-7.407339,47.319847C-7.355793,47.354103,-7.344765,47.385986,-7.330439,47.474434L-7.364557,47.735428C-7.393557,47.886864,-7.452965,48.077156,-7.539003,48.309044C-8.01671,49.613586,-8.237677,49.920967,-8.594049,49.860199C-8.766806,49.832962,-9.24078,49.95076,-9.640324,50.140549C-10.230225,50.408913,-10.389189,50.433121,-10.547253,50.254883C-10.609266,50.184998,-11.304867,49.75425,-12.325853,49.147522L-12.35009,49.133247L-14.835732,47.662926L-18.939808,45.278938L-19.150349,45.693832C-19.321537,46.015442,-19.457527,46.125427,-19.728588,46.142899C-20.051113,46.174171,-20.105938,46.244011,-20.592712,47.137367C-21.415592,48.663078,-20.981419,48.739761,-25.22226,46.291306L-28.843285,44.200706L-29.19104,44.652374C-29.380611,44.90538,-29.598213,45.156715,-29.670189,45.231155C-29.765591,45.32106,-29.689922,45.466232,-29.482086,45.658722C-29.108231,45.990562,-28.993778,46.520584,-29.183025,47.049271C-29.448055,47.809662,-29.606812,48.486427,-29.540337,48.597305C-29.464672,48.742477,-28.228405,49.514236,-22.83078,52.746552L-18.470776,55.365288L-17.819363,56.321335C-17.167946,57.277374,-16.963596,57.902802,-17.170773,58.261642C-17.315166,58.511742,-18.174002,58.668335,-18.604813,58.535583C-18.793037,58.484917,-19.211742,58.431656,-19.560612,58.43322L-20.167992,58.430511L-24.270386,56.018494C-26.536762,54.695511,-28.441391,53.624863,-28.509995,53.64325C-28.973099,53.767334,-28.406422,54.167007,-24.035545,56.792023C-21.576801,58.284073,-19.515797,59.560982,-19.452236,59.626678C-19.29417,59.804924,-19.436678,60.679565,-19.68152,61.103645C-19.945204,61.560349,-20.636456,62.205162,-20.766941,62.129822C-20.821312,62.098434,-21.012897,62.103806,-21.189011,62.132622C-21.474319,62.199875,-21.845711,62.014442,-25.390621,59.967781L-29.261749,57.732788L-30.061077,58.866142L-31.039734,58.301117C-31.974892,57.7612,-32.469719,57.663986,-31.990482,58.114662L-31.778053,58.324295L-33.381096,61.226418L-34.990417,64.139404L-33.77758,64.92662C-32.31633,65.886276,-32.443455,65.754883,-32.490437,66.162712C-32.5215,66.492752,-32.48428,66.528732,-31.483875,67.106323L-30.439976,67.709015L-30.279121,68.309341C-30.152115,68.817627,-30.159298,69.030952,-30.392036,69.534523C-30.620182,70.055237,-30.728138,70.166893,-31.019722,70.245026C-31.208401,70.295578,-31.451889,70.41597,-31.55357,70.516747C-31.797512,70.738373,-32.060623,70.716957,-32.789627,70.397552C-33.327496,70.174004,-33.389824,70.181519,-33.658886,70.446632C-33.82626,70.610977,-34.029171,70.711304,-34.116161,70.661079C-34.203152,70.610855,-34.379269,70.639664,-34.513573,70.721603C-34.735317,70.854553,-34.867485,70.807251,-35.835266,70.248497C-36.705185,69.746254,-36.941494,69.653305,-37.010555,69.772926C-37.06078,69.859917,-37.069195,70.000046,-37.029057,70.081207C-36.978058,70.168648,-36.080563,70.773811,-35.012005,71.434242C-33.336185,72.474274,-33.094044,72.657562,-33.214554,72.79097C-33.294491,72.904305,-33.16782,73.136925,-32.794407,73.569992C-32.489159,73.920212,-32.138729,74.267517,-31.997368,74.349129C-31.866879,74.424469,-31.776974,74.519867,-31.80209,74.56337C-31.852314,74.65036,-33.60281,74.292145,-33.842037,74.154022C-33.918152,74.110077,-34.008514,74.115913,-34.046181,74.181152C-34.077572,74.235519,-34.054588,74.321274,-34.000217,74.352669C-33.934975,74.390335,-33.916595,74.458954,-33.947987,74.513321C-33.973095,74.556808,-34.604237,74.293915,-35.351627,73.905907C-36.301025,73.415764,-36.767372,73.219009,-36.966915,73.263283C-37.115009,73.29377,-37.373516,73.289505,-37.511971,73.253075C-37.767117,73.192749,-37.845367,73.278061,-38.573177,74.43821C-39.252438,75.539391,-39.408939,75.710014,-39.717678,75.79274C-39.906345,75.843292,-40.186607,75.826462,-40.327972,75.74485C-40.46933,75.663239,-40.935677,75.466484,-41.364815,75.305725C-41.793941,75.144951,-42.662624,74.715912,-43.304188,74.345505C-43.945751,73.975098,-44.514565,73.704689,-44.578575,73.740219C-44.64259,73.775757,-44.97094,73.716675,-45.308479,73.623283L-45.927517,73.439865L-46.16317,73.898254C-46.296692,74.154625,-46.369564,74.431526,-46.340309,74.506409C-46.300175,74.58757,-44.933422,75.434662,-43.280582,76.388931C-40.55122,77.964737,-40.259308,78.16227,-40.142277,78.461807C-40.025249,78.76136,-40.052044,78.832878,-40.380512,79.150688C-40.882641,79.643715,-40.978489,79.834846,-40.884895,80.149864C-40.831429,80.383705,-40.322029,80.706802,-36.972855,82.640457C-32.623276,85.151688,-32.990852,84.808975,-33.460152,85.973389C-33.664864,86.478645,-33.676193,86.573593,-33.497944,86.415527C-33.260277,86.204773,-33.104679,86.236626,-33.098068,86.501419C-33.092239,86.591766,-33.267124,86.693787,-33.494701,86.736374C-33.767448,86.781876,-34.025181,86.952057,-34.249062,87.214264C-34.443222,87.450119,-34.668335,87.639122,-34.758694,87.644951C-34.866199,87.655373,-36.502342,86.797737,-38.402367,85.744247C-40.302399,84.690765,-42.064426,83.77494,-42.302422,83.710022C-42.646248,83.627518,-42.794334,83.658005,-42.941643,83.86293C-43.131218,84.115936,-43.180992,84.1017,-43.903721,83.771423C-44.32489,83.571762,-45.446594,82.95314,-46.397217,82.389793C-47.347847,81.826454,-48.312717,81.312881,-48.522686,81.249649C-48.892849,81.137421,-48.933434,81.157486,-49.029736,81.449852C-49.08041,81.638069,-49.086357,81.924606,-49.029526,82.102409C-48.96978,82.325386,-49.015865,82.530762,-49.169449,82.746559L-49.402969,83.075691L-47.18222,84.502831L-47.374828,85.087555C-47.479095,85.418823,-47.511837,85.776878,-47.434486,85.894028C-47.363419,86.022064,-46.479713,86.57576,-45.347137,87.200653C-43.38187,88.291809,-43.38187,88.291809,-43.245224,88.73317C-43.12405,89.151093,-43.054207,89.205917,-41.123695,90.407486C-40.028786,91.097633,-39.066051,91.740456,-38.98243,91.846733C-38.856987,92.006149,-38.916855,92.160072,-39.43457,93.006554L-40.038498,93.977249L-40.421215,93.886772C-40.626591,93.840691,-41.58395,93.38945,-42.533348,92.899307L-44.256477,91.991447L-44.810181,92.875153C-45.152115,93.417168,-45.347187,93.855499,-45.332161,93.980148C-45.312546,94.121964,-44.947884,94.419495,-44.325153,94.822525C-42.95549,95.714798,-42.738457,95.941589,-42.768738,96.446053C-42.815392,97.129555,-43.03299,97.380882,-43.775124,97.561356C-44.437775,97.729721,-44.459526,97.717163,-45.547371,97.190582C-46.153397,96.884186,-46.776573,96.58239,-46.935089,96.505371C-47.115353,96.415794,-47.325768,96.453796,-47.530365,96.582153C-47.724083,96.716782,-47.979683,96.757698,-48.17878,96.700745C-48.360718,96.639191,-48.570686,96.575958,-48.659367,96.553757C-48.765186,96.536156,-49.053528,96.935127,-49.612278,97.902908C-50.313744,99.092773,-50.406685,99.329086,-50.372498,99.696777C-50.353333,99.939827,-50.355923,100.170311,-50.393589,100.23555C-50.42498,100.289917,-50.404583,100.606171,-50.362438,100.934967C-50.25058,101.695488,-50.523903,102.219116,-51.094513,102.353638C-51.328362,102.407097,-51.654701,102.595657,-51.817482,102.777153L-52.135082,103.101227L-53.103317,102.643707C-53.622353,102.387543,-54.891685,101.698181,-55.930992,101.11264C-57.133408,100.432922,-57.854454,100.074623,-57.941895,100.125633C-58.023056,100.165756,-58.001755,100.279541,-57.890106,100.387497C-57.693146,100.573723,-57.706154,100.696693,-57.974098,101.411911C-58.134865,101.841042,-58.130264,101.858192,-57.548122,102.281281C-57.236141,102.519402,-56.615093,102.950447,-56.181816,103.229607C-55.478371,103.693733,-53.466038,105.406509,-53.815685,105.233627C-53.898079,105.200562,-54.032387,105.282509,-54.120277,105.434738C-54.245838,105.652222,-54.411079,105.687309,-54.987068,105.630234C-56.156204,105.520683,-56.205975,105.506439,-57.169609,105.066071C-57.679455,104.844208,-58.408463,104.524803,-58.792412,104.36113C-59.473328,104.083977,-59.501358,104.082314,-59.728596,104.400574C-60.029495,104.821281,-59.917839,104.929237,-58.441898,105.737877C-57.477028,106.251457,-57.348221,106.354813,-57.34621,106.602463C-57.34375,106.748863,-57.309563,107.116562,-57.265739,107.417343C-57.20858,107.870796,-57.248383,108.065308,-57.535492,108.537483C-57.828873,109.020531,-57.905449,109.077812,-58.048038,108.922997C-58.159691,108.815033,-58.250046,108.820862,-58.319107,108.940483C-58.37561,109.038353,-58.581436,109.093491,-58.782211,109.06456C-59.272438,108.984512,-59.705833,109.08226,-59.741043,109.293907C-59.763691,109.48381,-60.401558,109.333023,-60.850304,109.030441C-61.153095,108.826622,-61.575615,108.930649,-61.615871,109.226379C-61.647713,109.381973,-61.438194,109.546432,-60.557404,110.054962C-59.513504,110.657654,-59.465408,110.699921,-59.501068,111.012802C-59.520805,111.247887,-59.418793,111.422783,-59.117683,111.65461C-58.515476,112.118294,-58.343292,112.623657,-58.627491,113.141006C-58.930042,113.685898,-58.979263,113.79174,-58.829063,113.99691L-58.716072,114.148262C-58.505329,114.385933,-58.490307,114.51059,-58.64098,114.771561C-58.785378,115.021667,-58.930553,115.097328,-59.238838,115.078827C-59.469322,115.076241,-59.827839,115.14473,-60.041618,115.238777C-60.411457,115.402222,-60.461231,115.387993,-61.56118,114.781921L-62.463669,114.294647C-62.744148,114.259872,-63.015182,114.166313,-63.262459,114.023537C-63.451118,113.914627,-63.620155,113.780487,-63.764214,113.62468L-63.7659,113.622841C-64.157944,113.213516,-64.384476,112.662407,-64.384705,112.080452z"/>
    <path transform="matrix(-1.33333,0,0,1.33406,-706.240723,-28.653028)" style="stroke:#000000;stroke-width:0.05mm;fill:none" d="M-21.047672,32.628319L-58.154976,54.067436C-58.948776,54.525986,-59.947235,54.45417,-60.667206,53.886749C-63.511047,51.645355,-67.554008,51.646484,-70.396469,53.889771C-71.116051,54.45768,-72.114525,54.530006,-72.908569,54.07196L-110.029442,32.655571C-110.722527,32.25515,-111.151962,31.512583,-111.151962,30.711374C-111.151962,30.263247,-111.017609,29.825037,-110.766487,29.453753L-110.014374,28.37882C-109.899857,33.105957,-109.801292,33.708153,-109.670326,31.079897C-109.607536,30.012625,-109.507103,29.058355,-109.444321,28.970465C-109.368988,28.88257,-109.017418,28.819792,-108.57795,28.819792C-107.950142,28.819792,-107.799469,28.870016,-107.54834,29.14625C-107.159103,29.560602,-107.096321,29.987513,-107.19677,31.305906C-107.246986,31.88349,-107.234444,32.373177,-107.19677,32.410851C-107.033539,32.511299,-106.22995,32.096947,-106.15461,31.870932C-106.034569,31.582899,-105.983353,30.078669,-105.837318,23.211714L-105.815598,22.227816C-105.75872,19.027628,-105.680992,16.292398,-105.633652,15.736666L-105.620598,15.664839C-105.616699,15.603067,-105.594597,15.577578,-105.525169,15.520948L-105.282082,15.419996C-105.136436,15.369394,-104.94194,15.325701,-104.698097,15.284266C-103.329483,15.045698,-102.952789,15.083368,-102.827217,15.42238C-102.76445,15.585615,-102.425438,15.937185,-102.06131,16.188307C-101.533943,16.564993,-101.433502,16.690554,-101.508827,16.916567C-101.538353,17.005213,-101.563583,17.822992,-101.578529,19.010553L-101.578773,19.038679L-101.609291,21.926466L-101.621841,26.672689L-101.157257,26.647577C-100.793137,26.635023,-100.629913,26.697802,-100.479233,26.923811C-100.290894,27.18749,-100.203003,27.200048,-99.185944,27.174936C-97.453201,27.124712,-97.603874,26.71036,-97.603874,31.607256L-97.603874,35.788452L-97.038849,35.863792C-96.724945,35.901459,-96.398491,35.964233,-96.298035,35.989349C-96.17247,36.027016,-96.084587,35.888901,-96.021805,35.612663C-95.921349,35.122978,-95.519554,34.75885,-94.967087,34.658401C-94.176048,34.507721,-93.510574,34.306831,-93.447792,34.193817C-93.359901,34.055702,-93.309669,32.59919,-93.209221,26.308561L-93.12133,21.223322L-92.61908,20.181166C-92.116837,19.139002,-91.677368,18.649313,-91.263023,18.649313C-90.974228,18.649313,-90.409203,19.314787,-90.308754,19.754251C-90.25853,19.942595,-90.095299,20.331835,-89.91951,20.633181L-89.618172,21.160543L-89.655838,25.919321C-89.668388,28.543554,-89.643272,30.728327,-89.593056,30.778551C-89.254036,31.117563,-89.191254,30.426977,-89.103363,25.329184C-89.040581,22.453825,-88.965248,20.030489,-88.940132,19.942595C-88.864799,19.716585,-88.036087,19.402681,-87.546402,19.402681C-87.019043,19.402681,-86.114998,19.678919,-86.114998,19.829588C-86.114998,19.89237,-86.014549,20.055601,-85.901543,20.193716C-85.700653,20.407171,-85.675537,20.821524,-85.675537,24.914827L-85.675537,29.384817L-84.294357,29.510378L-84.294357,30.640432C-84.294357,31.720263,-84.131134,32.197395,-83.980453,31.557028L-83.905121,31.26824L-80.590294,31.205458L-77.262917,31.142679L-77.187584,29.698721C-77.087128,27.953417,-77.13736,28.129202,-76.760674,27.965975C-76.45932,27.827856,-76.44677,27.777632,-76.44677,26.622465L-76.44677,25.417074L-76.007301,24.97761C-75.630615,24.613482,-75.442276,24.513033,-74.889801,24.462805C-74.324776,24.400026,-74.17411,24.437696,-73.960655,24.651148C-73.822533,24.789267,-73.596519,24.939943,-73.458405,24.97761C-73.144501,25.078062,-73.031494,25.316626,-72.943604,26.107664C-72.868263,26.685247,-72.830597,26.735468,-72.466469,26.83592C-72.240456,26.898703,-72.052116,27.024263,-72.052116,27.124712C-72.052116,27.225161,-71.93911,27.363276,-71.800995,27.438616C-71.574982,27.564177,-71.549873,27.702295,-71.549873,28.819792C-71.549873,29.824282,-71.512207,30.075407,-71.374084,30.075407C-71.273636,30.075407,-71.148071,30.012625,-71.097855,29.937288C-71.047623,29.849398,-70.97229,28.769567,-70.934616,27.513952C-70.871834,25.542635,-70.834167,25.241289,-70.658386,25.278955C-70.520264,25.291513,-70.382149,25.065504,-70.19381,24.525587C-70.043137,24.086123,-69.917572,23.608992,-69.917572,23.445761C-69.917572,23.295088,-69.879906,23.169523,-69.829674,23.169523C-69.729233,23.169523,-69.1642,24.864603,-69.1642,25.140841C-69.1642,25.228731,-69.113976,25.304071,-69.038643,25.304071C-68.975861,25.304071,-68.913078,25.241289,-68.913078,25.178507C-68.913078,25.10317,-68.862854,25.052946,-68.800072,25.052946C-68.749855,25.052946,-68.661957,25.730978,-68.62429,26.572241C-68.574066,27.639513,-68.511284,28.14176,-68.373169,28.292433C-68.27272,28.405439,-68.147156,28.631449,-68.109482,28.769567C-68.034149,29.020689,-67.921143,29.045801,-66.552528,29.096029C-65.259247,29.133696,-65.033226,29.18392,-64.80722,29.409933C-64.669106,29.548044,-64.543541,29.79917,-64.543541,29.9624C-64.543541,30.125628,-64.480759,30.627874,-64.405418,31.079897C-64.330086,31.531919,-64.267303,32.498741,-64.267303,33.239555C-64.267303,33.98037,-64.217079,34.608177,-64.154297,34.645844C-64.091515,34.68351,-63.978516,34.997414,-63.890625,35.336433L-63.739944,35.964233L-63.225151,35.939125C-62.936356,35.926567,-62.660118,35.851234,-62.609894,35.788452C-62.559677,35.713112,-62.509445,34.105927,-62.509445,32.197395C-62.509445,29.045801,-62.484329,28.694231,-62.28344,28.443106C-62.082535,28.191984,-62.007202,28.179426,-61.567734,28.304987C-60.889702,28.49333,-60.676254,28.480772,-60.450233,28.242208C-60.274452,28.078978,-60.249336,27.476282,-60.249336,23.608992C-60.249336,18.586531,-60.36235,19.07622,-59.119286,18.900434C-58.579376,18.825098,-58.491478,18.787432,-58.717491,18.712091C-59.018837,18.611647,-59.069061,18.46097,-58.843048,18.322851C-58.767715,18.272627,-58.591927,18.373075,-58.441254,18.548864C-58.265472,18.762316,-57.989235,18.900434,-57.650215,18.963217C-57.348869,19.013441,-57.072639,19.11389,-57.022408,19.189226C-56.959625,19.277121,-56.884293,21.122873,-56.846626,23.295088C-56.808952,25.467299,-56.721069,27.45117,-56.658287,27.689737C-56.557831,28.028753,-56.457382,28.14176,-56.206261,28.166868C-55.892357,28.204542,-55.879799,28.254763,-55.804459,29.045801C-55.766792,29.510378,-55.741676,30.791109,-55.754242,31.896048C-55.766792,33.000984,-55.729126,34.093369,-55.678902,34.306831C-55.591011,34.68351,-55.553337,34.708626,-55.251991,34.645844C-55.063652,34.595619,-54.812531,34.457497,-54.686966,34.319382C-54.523743,34.156151,-54.322838,34.093369,-54.059158,34.118484L-53.657364,34.156151L-53.531799,31.519361L-52.929108,31.393801C-52.590088,31.318464,-52.263634,31.167791,-52.200851,31.042231C-52.125511,30.91667,-52.087845,29.874506,-52.112961,28.581224C-52.150627,26.333677,-52.150627,26.333677,-51.836723,25.994658C-51.53537,25.680754,-51.52282,25.592859,-51.447487,23.3202C-51.397255,22.026915,-51.321922,20.871752,-51.271698,20.746191C-51.196358,20.557848,-51.033127,20.532736,-50.041191,20.557848L-48.898582,20.595514L-48.785583,20.9722C-48.722801,21.173098,-48.634903,22.227816,-48.584679,23.295088L-48.509346,25.241289L-47.467186,25.278955C-46.82682,25.304071,-46.349686,25.253847,-46.249237,25.178507C-46.13623,25.090612,-46.060894,24.62604,-46.023228,23.885225C-45.935333,22.252928,-45.847439,21.951578,-45.39542,21.725569C-44.780167,21.424223,-44.453709,21.487001,-43.92635,22.039473C-43.449219,22.529161,-43.449219,22.554274,-43.361324,23.759665C-43.323658,24.437696,-43.27343,25.128286,-43.260876,25.304071C-43.248318,25.504969,-43.110199,25.668196,-42.896744,25.781202C-42.683292,25.881655,-42.520061,26.082552,-42.469837,26.283449C-42.432171,26.471788,-42.381947,26.685247,-42.356831,26.773142C-42.319164,26.873587,-41.829472,26.923811,-40.711975,26.923811C-39.330799,26.936369,-39.079678,26.898703,-38.778328,26.685247C-38.577431,26.547129,-38.376534,26.434122,-38.301197,26.434122C-38.238419,26.434122,-37.974739,26.258337,-37.711056,26.05744C-37.108364,25.580305,-36.518223,25.555193,-36.116425,25.9821C-35.953197,26.157885,-35.626736,26.346228,-35.388172,26.396456L-34.948704,26.509462L-34.860809,27.576735C-34.823143,28.154318,-34.785477,29.598272,-34.772919,30.791109C-34.760365,32.172287,-34.71014,32.975876,-34.622246,33.0261C-34.546906,33.076324,-34.459015,33.000984,-34.421345,32.850311C-34.358566,32.586632,-34.24556,32.536407,-33.492191,32.410851C-33.040169,32.33551,-33.027615,32.322952,-32.952278,31.607256C-32.902054,31.218016,-32.839275,30.464647,-32.814159,29.949842C-32.763935,29.10858,-32.2868,26.509462,-32.261692,26.898703C-32.249134,26.986593,-32.111015,27.06193,-31.93523,27.06193C-31.684109,27.06193,-31.571102,27.18749,-31.332539,27.714853C-30.842842,28.782125,-30.830292,28.832346,-30.729839,29.887064C-30.667057,30.439531,-30.579166,31.230574,-30.528942,31.644922C-30.428493,32.373177,-30.415936,32.398293,-30.026695,32.435959C-29.511894,32.486191,-29.474224,32.33551,-29.511894,30.65299C-29.549564,29.560602,-29.524448,29.397375,-29.310997,29.271814C-29.185436,29.196474,-28.884087,28.983019,-28.645519,28.794676C-28.281391,28.518446,-28.093048,28.455664,-27.540581,28.468222C-26.975552,28.480772,-26.887657,28.518446,-26.950439,28.719343C-26.98811,28.870016,-26.937885,28.945353,-26.799767,28.945353C-26.686764,28.945353,-26.536087,29.096029,-26.460751,29.284369C-26.284966,29.748945,-25.983616,30.075407,-25.782719,30.000067C-25.606934,29.92473,-25.418591,30.552538,-25.456257,31.092455C-25.481373,31.456583,-25.180027,31.770487,-24.90379,31.65748C-24.753113,31.607256,-24.715446,31.343576,-24.715446,30.326529C-24.715446,29.121138,-24.702888,29.058355,-24.414101,28.932795C-24.200642,28.832346,-24.100197,28.656561,-24.049973,28.279879C-23.94952,27.52651,-23.59795,27.124712,-23.007809,27.112154C-22.384651,27.101732,-22.268375,27.091436,-22.165794,26.85877L-22.091213,26.685247C-21.990761,26.383898,-21.890312,26.308561,-21.588966,26.308561C-21.300175,26.308561,-21.16206,26.396456,-21.023941,26.672689C-20.910934,26.873587,-20.672367,27.149824,-20.484024,27.287939C-20.157566,27.52651,-20.145008,27.576735,-20.119896,28.832346L-20.090641,29.857557C-19.980526,30.117846,-19.926029,30.399351,-19.926029,30.684881C-19.926029,30.902727,-19.957672,31.116186,-20.02058,31.318842L-20.021328,31.321226C-20.17979,31.865412,-20.543793,32.337143,-21.047672,32.628319z"/>
    <path transform="matrix(-1.33333,0,0,1.33406,-706.240723,-28.653028)" style="stroke:#000000;stroke-width:0.05mm;fill:none" d="M-111.324661,35.228058L-74.204132,56.644375C-73.410118,57.102554,-72.973083,58.003155,-73.104492,58.910378C-73.623672,62.493912,-71.601212,65.994659,-68.237244,67.334656C-67.38562,67.673889,-66.823746,68.502426,-66.82341,69.419113L-66.810089,112.274979C-66.810318,113.075417,-67.238678,113.818604,-67.932556,114.219208C-68.320641,114.443268,-68.767319,114.546021,-69.214424,114.514191L-70.521393,114.400299C-66.484833,111.937561,-66.012604,111.551102,-68.354218,112.751823C-69.309891,113.231079,-70.186539,113.621231,-70.294044,113.610809C-70.407829,113.589508,-70.637985,113.316422,-70.857719,112.935837C-71.171623,112.392143,-71.203468,112.236542,-71.089798,111.880943C-70.925583,111.33667,-70.587265,111.068848,-69.395264,110.496643C-68.869957,110.251343,-68.452148,109.995621,-68.438354,109.944168C-68.432983,109.752579,-69.193619,109.263817,-69.427025,109.311577C-69.736488,109.351646,-71.064804,110.059402,-77.084778,113.366417L-77.947723,113.839569C-80.747604,115.390404,-83.155251,116.690697,-83.660202,116.927582L-83.728928,116.952179C-83.784378,116.979691,-83.817497,116.973312,-83.90126,116.941483L-84.110229,116.781448C-84.226875,116.680603,-84.361961,116.534012,-84.519768,116.343552C-85.41069,115.277588,-85.566406,114.932533,-85.335594,114.654282C-85.225616,114.518303,-85.090652,114.04892,-85.055237,113.608017C-84.992706,112.962952,-84.934189,112.813187,-84.70079,112.765427C-84.609261,112.746658,-83.888428,112.359619,-82.852493,111.778778L-82.828011,111.764923L-80.311852,110.347458L-76.195221,107.985207L-76.449265,107.595444C-76.642197,107.286377,-76.669449,107.113617,-76.549057,106.870132C-76.414871,106.57518,-76.447937,106.492783,-76.978218,105.624542C-77.888092,104.149048,-78.171585,104.486717,-73.930748,102.038269L-70.309723,99.947662L-70.526993,99.42067C-70.651321,99.12999,-70.760185,98.815872,-70.788666,98.716324C-70.818817,98.588745,-70.982376,98.581696,-71.252998,98.665451C-71.72731,98.823288,-72.243546,98.657394,-72.606781,98.229172C-73.132782,97.619446,-73.639503,97.14357,-73.768761,97.145706C-73.932327,97.138641,-75.218811,97.82341,-80.716888,100.881737L-85.16478,103.348244L-86.318451,103.434372C-87.472107,103.520493,-88.115921,103.38475,-88.323105,103.025909C-88.467499,102.775803,-88.173691,101.953751,-87.84333,101.647018C-87.70533,101.509338,-87.44986,101.17337,-87.276779,100.870453L-86.970741,100.34581L-82.830681,97.999039C-80.551743,96.697784,-78.672234,95.583649,-78.653847,95.515045C-78.529762,95.051941,-79.159225,95.342865,-83.617989,97.815643C-86.139511,99.198959,-88.275848,100.345383,-88.364532,100.367577C-88.597931,100.415337,-89.284134,99.854614,-89.528976,99.430527C-89.792656,98.973831,-90.005447,98.05278,-89.874969,97.977448C-89.820595,97.94606,-89.729462,97.777451,-89.666351,97.610519C-89.58194,97.329819,-89.235657,97.100891,-85.69075,95.05423L-81.819618,92.819244L-82.401474,91.560318L-81.422813,90.995293C-80.487656,90.455376,-80.156059,90.075455,-80.785965,90.265137L-81.073738,90.344299L-82.785522,87.504959L-84.503586,84.654755L-85.791756,85.311493C-87.353462,86.097153,-87.176117,86.052765,-87.505814,85.808151C-87.776108,85.616241,-87.825882,85.630478,-88.826279,86.208061L-89.870178,86.81076L-90.470505,86.649902C-90.97419,86.505745,-91.15535,86.392853,-91.47509,85.939514C-91.811966,85.481583,-91.854675,85.33226,-91.776558,85.04068C-91.725998,84.852005,-91.708519,84.580933,-91.744949,84.44249C-91.814911,84.120422,-91.66481,83.903259,-91.023705,83.431625C-90.561172,83.077591,-90.536507,83.019859,-90.631577,82.654282C-90.690216,82.42717,-90.675644,82.201279,-90.588654,82.151047C-90.501663,82.10083,-90.438553,81.933899,-90.442368,81.776627C-90.44664,81.518112,-90.339577,81.427299,-89.371796,80.868546C-88.501877,80.366302,-88.303238,80.20813,-88.372299,80.088501C-88.422516,80.001511,-88.539673,79.924164,-88.63002,79.91835C-88.731255,79.918793,-89.704086,80.393463,-90.810318,80.988647C-92.54892,81.919937,-92.82872,82.037994,-92.883995,81.866928C-92.942184,81.741028,-93.20697,81.734421,-93.768723,81.841278C-94.224648,81.930519,-94.700638,82.060349,-94.841995,82.141953C-94.972488,82.2173,-95.100052,82.247467,-95.125168,82.203964C-95.1754,82.116974,-93.989929,80.780106,-93.750702,80.641983C-93.674583,80.598038,-93.634453,80.516861,-93.672119,80.45163C-93.703506,80.397263,-93.789268,80.374283,-93.843643,80.40567C-93.908882,80.443344,-93.977493,80.42495,-94.008881,80.370583C-94.033997,80.327087,-93.490753,79.911957,-92.781021,79.458694C-91.881851,78.881561,-91.478287,78.57608,-91.416855,78.381119C-91.369217,78.237625,-91.236267,78.015884,-91.13549,77.9142C-90.955673,77.723404,-90.990433,77.612976,-91.631241,76.402603C-92.24527,75.263748,-92.314774,75.042908,-92.232056,74.734177C-92.181503,74.545502,-92.026802,74.311203,-91.885437,74.229584C-91.74408,74.147972,-91.340508,73.842468,-90.986717,73.551216C-90.632919,73.259964,-89.827011,72.722183,-89.185455,72.351776C-88.543884,71.981369,-88.025307,71.623962,-88.024078,71.550766C-88.022842,71.477554,-87.807495,71.22274,-87.557846,70.977112L-87.089493,70.53273L-87.368637,70.099449C-87.523903,69.855621,-87.727264,69.654068,-87.806747,69.641968C-87.89711,69.636139,-89.314087,70.39624,-90.966919,71.35051C-93.696289,72.926308,-94.013313,73.080338,-94.331238,73.031921C-94.64917,72.98349,-94.697708,72.92453,-94.808701,72.481155C-94.984619,71.799789,-95.102219,71.621216,-95.421829,71.544769C-95.651077,71.474152,-96.185585,71.753754,-99.53476,73.687408C-103.884338,76.198639,-103.403763,76.051666,-104.177521,75.063034C-104.512733,74.633118,-104.589287,74.575836,-104.541527,74.809235C-104.477837,75.120438,-104.583221,75.239258,-104.815842,75.112595C-104.897003,75.072464,-104.897903,74.870003,-104.821007,74.651627C-104.724037,74.392662,-104.742554,74.084373,-104.857689,73.759384C-104.964867,73.473297,-105.015991,73.183853,-104.975861,73.102676C-104.931137,73.004364,-103.370331,72.016251,-101.507973,70.897522C-99.645615,69.778778,-97.971466,68.710724,-97.796257,68.537079C-97.552887,68.280571,-97.505249,68.137085,-97.609062,67.907043C-97.733391,67.616364,-97.696175,67.580383,-97.048782,67.119614C-96.665283,66.854706,-95.568695,66.192581,-94.605507,65.650986C-93.642326,65.10939,-92.715118,64.530579,-92.555374,64.380356C-92.273102,64.115898,-92.270195,64.070717,-92.475235,63.841137C-92.6129,63.703136,-92.858078,63.554718,-93.040474,63.515034C-93.263451,63.455296,-93.418274,63.312695,-93.528358,63.071789L-93.69664,62.70499L-96.042946,63.914646L-96.453033,63.455479C-96.68779,63.199551,-96.981506,62.992161,-97.121635,63.000576C-97.268044,62.998108,-98.189415,63.486568,-99.296875,64.154968C-101.224472,65.311356,-101.224472,65.311356,-101.675034,65.209015C-102.097549,65.104996,-102.179947,65.138077,-104.185799,66.20916C-105.330933,66.812302,-106.369003,67.324646,-106.502853,67.343933C-106.703629,67.372864,-106.806999,67.244049,-107.281212,66.372452L-107.819901,65.36409L-107.550194,65.077881C-107.407593,64.923065,-106.538132,64.31958,-105.638947,63.742455L-103.991158,62.704105L-104.479622,61.782734C-104.778053,61.215611,-105.06012,60.827507,-105.175583,60.778187C-105.308197,60.72427,-105.748207,60.891312,-106.4086,61.229099C-107.866173,61.969131,-108.171089,62.04369,-108.592827,61.765232C-109.16143,61.383083,-109.270287,61.068966,-109.055519,60.336025C-108.870003,59.677971,-108.848251,59.665417,-107.848297,58.986603C-107.279938,58.614967,-106.706993,58.226173,-106.561028,58.127407C-106.393333,58.016083,-106.321022,57.814854,-106.329887,57.573494C-106.349617,57.338409,-106.257248,57.096596,-106.108383,56.952652C-105.964104,56.825863,-105.804359,56.67564,-105.740799,56.609947C-105.672638,56.5271,-105.873993,56.077904,-106.432739,55.110123C-107.112457,53.907707,-107.270638,53.709061,-107.606171,53.554817C-107.826233,53.44989,-108.024551,53.332409,-108.06221,53.267166C-108.093613,53.212799,-108.377693,53.072338,-108.683502,52.944435C-109.398064,52.661053,-109.714882,52.162529,-109.546066,51.601112C-109.475449,51.371857,-109.475571,50.994965,-109.551353,50.763245L-109.673218,50.326157L-108.792877,49.716396C-108.311523,49.394981,-107.079842,48.640385,-106.053093,48.033089C-104.863243,47.331627,-104.192421,46.886333,-104.192871,46.785103C-104.187042,46.694748,-104.296227,46.656303,-104.445557,46.699013C-104.705299,46.776482,-104.805298,46.703728,-105.290733,46.114075C-105.581978,45.760281,-105.599129,45.755684,-106.256607,46.048294C-106.61882,46.199417,-107.302643,46.521736,-107.761032,46.757389C-108.514702,47.134525,-111.004181,48.020874,-110.679642,47.804508C-110.609802,47.749687,-110.613617,47.592403,-110.701508,47.44017C-110.827072,47.222691,-110.774834,47.062042,-110.437408,46.591759C-109.757973,45.634033,-109.720749,45.598053,-108.857567,44.983704C-108.410507,44.653095,-107.769386,44.181461,-107.435661,43.930786C-106.855202,43.479668,-106.839729,43.456234,-107.001717,43.100307C-107.21563,42.629364,-107.364952,42.672081,-108.803223,43.545967C-109.730431,44.124779,-109.884354,44.184647,-110.099808,44.062572C-110.227837,43.991501,-110.56337,43.837257,-110.845757,43.724819C-111.267052,43.547592,-111.415604,43.415871,-111.680946,42.931137C-111.952599,42.435535,-111.963921,42.340584,-111.758537,42.294502C-111.60923,42.251793,-111.569092,42.170628,-111.638153,42.051014C-111.694656,41.953148,-111.639503,41.747322,-111.514061,41.587906C-111.199623,41.203381,-111.067574,40.779175,-111.233269,40.642864C-111.386398,40.528297,-110.936867,40.051285,-110.450462,39.813942C-110.122559,39.653629,-110.001389,39.235703,-110.237373,39.052979C-110.356201,38.947601,-110.603394,39.046822,-111.484177,39.555347C-112.528084,40.158043,-112.58873,40.178558,-112.841873,39.991241C-113.035583,39.856606,-113.238037,39.857506,-113.589371,40.002354C-114.292038,40.292046,-114.815788,40.188477,-115.121727,39.683678C-115.442337,39.149216,-115.509392,39.053669,-115.762177,39.081165L-115.949753,39.103336C-116.260941,39.167015,-116.376419,39.117695,-116.527077,38.85672C-116.671494,38.606617,-116.664429,38.443062,-116.494263,38.185329C-116.376778,37.987015,-116.256844,37.642288,-116.231392,37.410118C-116.188019,37.008114,-116.150803,36.97213,-115.075958,36.322571L-114.202728,35.78463C-114.032372,35.55912,-113.815826,35.37117,-113.56855,35.228409C-113.37989,35.119484,-113.179207,35.040161,-112.972252,34.993309L-112.96981,34.992767C-112.419296,34.857906,-111.828773,34.937275,-111.324661,35.228058z"/>
</svg>
