<?xml version="1.0" encoding="UTF-8"?>
<svg xmlns="http://www.w3.org/2000/svg" xmlns:xlink="http://www.w3.org/1999/xlink" width="160.000mm" height="160.000mm" viewBox="-179.551666 17.193735 160.000000 160.000000">
    <path transform="matrix(-1.333335,0,0,1.334059,-179.951736,16.793289)" style="stroke:#000000;stroke-width:0.05mm;fill:none" d="M-99.199821,55.247116C-99.199821,55.247116,-98.864334,56.115219,-99.013031,56.920349"/>
    <path transform="matrix(-1.333335,0,0,1.334059,-179.951736,16.793289)" style="stroke:#000000;stroke-width:0.05mm;fill:none" d="M-96.153152,55.267502C-96.153152,55.267502,-94.810921,57.389725,-95.088463,58.206757"/>
    <path transform="matrix(-1.333335,0,0,1.334059,-179.951736,16.793289)" style="stroke:#000000;stroke-width:0.05mm;fill:none" d="M-96.778358,72.680786C-96.778358,72.680786,-96.016884,70.792709,-96.619347,69.443069"/>
    <path transform="matrix(-1.333335,0,0,1.334059,-179.951736,16.793289)" style="stroke:#000000;stroke-width:0.05mm;fill:none" d="M-93.499908,71.253616C-93.499908,71.253616,-92.605087,68.352188,-94.93924,66.217789"/>
    <path transform="matrix(-1.333335,0,0,1.334059,-179.951736,16.793289)" style="stroke:#000000;stroke-width:0.05mm;fill:none" d="M-91.495689,69.816391C-91.372131,67.634644,-91.990196,65.963272,-94.233597,62.935913"/>
    <path transform="matrix(-1.333335,0,0,1.334059,-179.951736,16.793289)" style="stroke:#000000;stroke-width:0.05mm;fill:none" d="M-89.175026,67.144119C-89.175026,67.144119,-88.797203,64.095062,-89.894958,63.130905"/>
    <path transform="matrix(-1.333335,0,0,1.334059,-179.951736,16.793289)" style="stroke:#000000;stroke-width:0.05mm;fill:none" d="M-94.060028,55.637115C-94.060028,55.637115,-92.878937,58.327408,-93.281097,60.054337"/>
    <path transform="matrix(-1.333335,0,0,1.334059,-179.951736,16.793289)" style="stroke:#000000;stroke-width:0.05mm;fill:none" d="M-90.654846,56.994705C-90.654846,56.994705,-89.070251,59.68074,-89.272926,60.95285"/>
    <path transform="matrix(-1.333335,0,0,1.334059,-179.951736,16.793289)" style="stroke:#000000;stroke-width:0.05mm;fill:none" d="M-87.09594,65.271652C-87.09594,65.271652,-86.472839,63.89978,-86.765999,62.716034"/>
    <path transform="matrix(-1.333335,0,0,1.334059,-179.951736,16.793289)" style="stroke:#000000;stroke-width:0.05mm;fill:none" d="M-87.724319,57.906708C-87.724319,57.906708,-86.564644,60.173141,-87.304161,61.341797"/>
    <path transform="matrix(-1.333335,0,0,1.334059,-179.951736,16.793289)" style="stroke:#000000;stroke-width:0.05mm;fill:none" d="M-83.279587,60.521057C-83.279587,60.521057,-82.951241,62.040817,-82.989075,62.892517"/>
    <path transform="matrix(-1.333335,0,0,1.334059,-179.951736,16.793289)" style="stroke:#000000;stroke-width:0.05mm;fill:none" d="M-85.021339,64.859177C-85.021339,64.859177,-84.357765,62.556503,-85.538597,60.560211"/>
    <path transform="matrix(-1.333335,0,0,1.334059,-179.951736,16.793289)" style="stroke:#000000;stroke-width:0.05mm;fill:none" d="M-82.425247,65.211853C-82.425247,65.211853,-81.848457,62.940948,-82.357246,62.011185"/>
    <path transform="matrix(-1.333335,0,0,1.334059,-179.951736,16.793289)" style="stroke:#000000;stroke-width:0.05mm;fill:none" d="M-101.622086,64.148758C-101.622086,64.148758,-103.589264,59.74292,-102.091721,58.498581C-100.594444,57.254517,-98.469048,60.528732,-97.536392,63.464813"/>
    <path transform="matrix(-1.333335,0,0,1.334059,-179.951736,16.793289)" style="stroke:#000000;stroke-width:0.05mm;fill:none" d="M-100.429611,61.814606C-100.429611,61.814606,-97.395897,67.972519,-98.261345,69.562668C-99.126534,71.152817,-100.006805,70.306396,-101.217003,67.774612"/>
    <path transform="matrix(-1.333335,0,0,1.334059,-179.951736,16.793289)" style="stroke:#000000;stroke-width:0.05mm;fill:none" d="M-98.043861,56.358902C-98.043861,56.358902,-94.775467,59.291534,-95.264946,61.319565"/>
    <path transform="matrix(-1.333335,0,0,1.334059,-179.951736,16.793289)" style="stroke:#000000;stroke-width:0.05mm;fill:none" d="M-92.155029,57.368805C-92.155029,57.368805,-90.707497,61.669342,-91.516068,62.764725"/>
    <path transform="matrix(-1.333335,0,0,1.334059,-179.951736,16.793289)" style="stroke:#000000;stroke-width:0.05mm;fill:none" d="M-82.257233,60.404114C-82.257233,60.404114,-79.841591,61.773331,-79.9543,63.622238"/>
    <path transform="matrix(-1.333335,0,0,1.334059,-179.951736,16.793289)" style="stroke:#000000;stroke-width:0.05mm;fill:none" d="M-80.512573,65.834961C-80.512573,65.834961,-78.601753,65.091476,-78.839874,64.306183"/>
    <path transform="matrix(-1.333335,0,0,1.334059,-179.951736,16.793289)" style="stroke:#000000;stroke-width:0.05mm;fill:none" d="M-82.257233,60.389832C-82.257233,60.389832,-81.939468,58.669769,-81.077194,59.898499C-80.215179,61.127487,-80.054848,59.949554,-79.666168,60.237961C-79.201561,60.582703,-78.593018,61.505844,-78.28875,61.96727"/>
    <path transform="matrix(-1.333335,0,0,1.334059,-179.951736,16.793289)" style="stroke:#000000;stroke-width:0.05mm;fill:none" d="M-79.016617,65.101257C-78.517876,65.020569,-77.520401,64.859436,-77.181732,64.313065C-76.842804,63.766708,-76.936729,62.471039,-76.983818,61.823074"/>
    <path transform="matrix(-1.333335,0,0,1.334059,-179.951736,16.793289)" style="stroke:#000000;stroke-width:0.05mm;fill:none" d="M-79.236755,60.690918C-79.236755,60.690918,-79.075615,58.004883,-77.897163,59.937119"/>
    <path transform="matrix(-1.333335,0,0,1.334059,-179.951736,16.793289)" style="stroke:#000000;stroke-width:0.05mm;fill:none" d="M-76.846237,62.722656C-76.846237,62.722656,-74.902878,64.351166,-75.548195,61.758789"/>
    <path transform="matrix(-1.333335,0,0,1.334059,-179.951736,16.793289)" style="stroke:#000000;stroke-width:0.05mm;fill:none" d="M-78.143753,59.651642C-78.143753,59.651642,-78.221809,57.891113,-76.522659,59.710907C-74.823502,61.530441,-75.172493,60.858139,-75.172493,60.858139"/>
    <path transform="matrix(-1.333335,0,0,1.334059,-179.951736,16.793289)" style="stroke:#000000;stroke-width:0.05mm;fill:none" d="M-75.320915,62.445908C-75.320915,62.445908,-72.816635,63.391785,-74.895203,60.090317"/>
    <path transform="matrix(-1.333335,0,0,1.334059,-179.951736,16.793289)" style="stroke:#000000;stroke-width:0.05mm;fill:none" d="M-76.239548,59.582321C-76.239548,59.582321,-76.454399,57.301605,-74.182419,59.659317"/>
    <path transform="matrix(-1.333335,0,0,1.334059,-179.951736,16.793289)" style="stroke:#000000;stroke-width:0.05mm;fill:none" d="M-73.095245,60.88327C-73.095245,60.88327,-71.528648,61.911713,-71.983467,59.593704"/>
    <path transform="matrix(-1.333335,0,0,1.334059,-179.951736,16.793289)" style="stroke:#000000;stroke-width:0.05mm;fill:none" d="M-47.677254,40.742401L-47.467438,45.219681L-47.00177,46.213974L-46.664955,47.7258C-46.664955,47.7258,-46.441383,48.036423,-46.835087,48.012344C-47.228783,47.988266,-47.519558,48.036957,-47.519558,48.036957C-47.519558,48.036957,-47.520618,48.061829,-47.393887,48.402878C-47.267147,48.743927,-46.985634,49.693253,-46.985634,49.693253C-46.985634,49.693253,-46.695385,50.475082,-47.174015,50.585693C-47.652908,50.696274,-48.007717,50.615326,-48.007717,50.615326C-48.007717,50.615326,-48.362522,49.58107,-48.726852,49.313843C-49.091187,49.0466,-48.790092,48.830963,-48.749344,48.584915C-48.708862,48.339111,-49.25602,43.840927,-49.343071,43.441147C-49.429855,43.041092,-49.69973,41.020477,-49.69973,41.020477C-49.69973,41.020477,-49.829903,40.791092,-49.887848,41.214157C-49.945786,41.637222,-50.102951,43.375259,-50.401138,43.630325C-50.699059,43.885376,-51.030052,44.207108,-51.455765,44.091751C-51.881485,43.976135,-51.87619,44.050217,-51.87619,44.050217C-51.87619,44.050217,-51.934135,44.009735,-51.852905,44.334381C-51.771942,44.659012,-51.948158,45.158829,-51.948158,45.158829C-51.948158,45.158829,-52.103462,45.407532,-52.360909,45.349594C-52.618347,45.291641,-52.881348,45.066742,-53.028183,44.884979C-53.175026,44.703476,-53.670853,42.943985,-53.526665,42.684174C-53.382462,42.424347,-53.073158,42.371964,-52.809113,42.530716C-52.545052,42.689728,-52.538437,42.710892,-52.538437,42.710892L-51.952385,42.468536C-51.952385,42.468536,-51.758186,42.43573,-51.787292,42.108704C-51.816132,41.781952,-52.163261,39.738571,-52.059013,39.347778"/>
    <path transform="matrix(-1.333335,0,0,1.334059,-179.951736,16.793289)" style="stroke:#000000;stroke-width:0.05mm;fill:none" d="M-48.051903,38.812271C-48.051903,38.812271,-50.873421,39.204102,-51.880157,38.365372"/>
    <path transform="matrix(-1.333335,0,0,1.334059,-179.951736,16.793289)" style="stroke:#000000;stroke-width:0.05mm;fill:none" d="M-44.647243,36.909378C-44.647243,36.909378,-44.889603,37.539627,-45.181171,37.505478"/>
    <path transform="matrix(-1.333335,0,0,1.334059,-179.951736,16.793289)" style="stroke:#000000;stroke-width:0.05mm;fill:none" d="M-56.415649,31.647598C-56.415649,31.647598,-56.663826,32.108246,-56.561691,32.333145"/>
    <path transform="matrix(-1.333335,0,0,1.334059,-179.951736,16.793289)" style="stroke:#000000;stroke-width:0.05mm;fill:none" d="M-48.083385,32.095535C-48.083385,32.095535,-49.178764,33.261826,-49.847099,31.726715"/>
    <path transform="matrix(-1.333335,0,0,1.334059,-179.951736,16.793289)" style="stroke:#000000;stroke-width:0.05mm;fill:none" d="M-70.189835,7.159622C-70.189835,7.159622,-76.738281,9.024185,-81.719666,11.928696"/>
    <path transform="matrix(-1.333335,0,0,1.334059,-179.951736,16.793289)" style="stroke:#000000;stroke-width:0.05mm;fill:none" d="M-73.275154,12.791016C-73.275154,12.791016,-72.942314,8.949539,-76.16124,6.054459"/>
    <path transform="matrix(-1.333335,0,0,1.334059,-179.951736,16.793289)" style="stroke:#000000;stroke-width:0.05mm;fill:none" d="M-72.621376,6.897415C-72.621376,6.897415,-73.844009,7.024429,-76.16124,6.054459C-76.463127,5.927994,-75.88369,7.695938,-77.446838,8.289917"/>
    <path transform="matrix(-1.333335,0,0,1.334059,-179.951736,16.793289)" style="stroke:#000000;stroke-width:0.05mm;fill:none" d="M-86.650375,12.237244C-86.650375,12.237244,-87.964294,12.062088,-87.823006,13.100861C-87.681458,14.139343,-86.950943,14.080338,-86.941414,14.164749C-86.931892,14.249405,-87.008095,14.450226,-87.008095,14.450226C-87.008095,14.450226,-87.636482,15.08284,-88.738205,15.08284C-89.83992,15.08284,-89.916924,15.16777,-92.472794,14.795502C-95.028931,14.423233,-95.689865,16.034821,-95.716591,15.989838C-95.743042,15.944855,-96.27063,16.900528,-96.034088,17.688461C-95.797554,18.476379,-95.663406,18.18721,-95.550697,18.42453"/>
    <path transform="matrix(-1.333335,0,0,1.334059,-179.951736,16.793289)" style="stroke:#000000;stroke-width:0.05mm;fill:none" d="M-93.80233,16.905563C-93.80233,16.905563,-93.488792,18.6026,-94.80616,18.28006C-96.123253,17.957535,-95.503593,16.582504,-95.275787,16.132706C-95.048256,15.682907,-94.355042,14.940765,-91.547813,15.281281"/>
    <path transform="matrix(-1.333335,0,0,1.334059,-179.951736,16.793289)" style="stroke:#000000;stroke-width:0.05mm;fill:none" d="M-58.398956,30.65358L-75.67202,12.299164"/>
    <path transform="matrix(-1.333335,0,0,1.334059,-179.951736,16.793289)" style="stroke:#000000;stroke-width:0.05mm;fill:none" d="M-75.170105,12.308685L-75.519348,12.259735L-76.421059,12.137512"/>
    <path transform="matrix(-1.333335,0,0,1.334059,-179.951736,16.793289)" style="stroke:#000000;stroke-width:0.05mm;fill:none" d="M-51.851585,44.044922C-51.851585,44.044922,-52.573105,43.282394,-52.522835,42.675705"/>
    <path transform="matrix(-1.333335,0,0,1.334059,-179.951736,16.793289)" style="stroke:#000000;stroke-width:0.05mm;fill:none" d="M-47.600788,48.0298C-47.600788,48.0298,-48.208534,48.455795,-48.775536,48.057602"/>
    <path transform="matrix(-1.333335,0,0,1.334059,-179.951736,16.793289)" style="stroke:#000000;stroke-width:0.05mm;fill:none" d="M-86.931099,12.666931C-86.931099,12.666931,-86.477341,12.716934,-86.593491,13.259064C-86.709373,13.801193,-86.667572,13.935349,-86.667572,13.935349C-86.667572,13.935349,-87.1978,13.673676,-87.245689,13.519684C-87.293579,13.365692,-87.636215,12.825684,-87.316597,12.718246C-86.996979,12.610855,-87.097519,12.635437,-86.931099,12.666931z"/>
    <path transform="matrix(-1.333335,0,0,1.334059,-179.951736,16.793289)" style="stroke:#000000;stroke-width:0.05mm;fill:none" d="M-86.773148,114.143875C-88.055626,113.513138,-88.963936,112.307663,-89.216721,110.901291C-89.440521,109.655899,-90.534828,108.740952,-91.800293,108.740952C-92.052383,108.740952,-92.30307,108.776657,-92.544724,108.848038C-93.915192,109.253372,-95.399841,108.983139,-96.538818,108.12001C-99.05127,106.215897,-101.409706,104.11647,-103.5923,101.842026C-104.581818,100.810867,-105.023117,99.368088,-104.779572,97.959579C-104.754021,97.811874,-104.741142,97.662064,-104.741142,97.512253C-104.741142,96.133194,-105.828171,94.97673,-107.204727,94.892014C-108.631134,94.80452,-109.93364,94.04216,-110.708725,92.841583C-116.969063,83.14389,-120.299942,71.842407,-120.299942,60.30011C-120.299942,32.774445,-101.359024,8.610382,-74.630569,2.03627C-73.242798,1.695358,-71.772293,2.034164,-70.674553,2.949127C-70.202866,3.34256,-69.607903,3.558167,-68.99382,3.558167C-68.114357,3.558167,-67.291252,3.11644,-66.805489,2.382797C-66.01619,1.19133,-64.704803,0.445068,-63.277416,0.373672C-62.285736,0.324661,-61.292934,0.300171,-60.299995,0.300171C-27.384979,0.300171,-0.300053,27.384811,-0.300053,60.30011C-0.300053,65.957855,-1.100342,71.586884,-2.67712,77.02063C-3.075375,78.393402,-4.104576,79.497375,-5.445858,79.990204C-6.47625,80.368912,-7.164951,81.355988,-7.164951,82.454346C-7.164951,82.860382,-7.070724,83.260803,-6.889694,83.624115C-6.252586,84.903793,-6.261543,86.412384,-6.913849,87.684357C-21.760769,116.628342,-57.580822,128.49614,-86.773148,114.143875z"/>
    <path transform="matrix(-1.333335,0,0,1.334059,-179.951736,16.793289)" style="stroke:#000000;stroke-width:0.05mm;fill:none" d="M-37.421967,91.274658C-37.445702,91.285461,-37.515831,91.366676,-37.581055,91.453751C-37.646286,91.540817,-37.710075,91.611786,-37.722099,91.612846C-37.736176,91.612633,-37.755798,91.625984,-37.767197,91.644409C-37.820404,91.730423,-38.441223,91.943863,-38.511105,91.900635C-38.52755,91.890465,-38.543682,91.888985,-38.550018,91.899223C-38.557617,91.911514,-38.644135,91.908958,-38.860023,91.885849C-38.937366,91.877647,-39.202084,91.78186,-39.35688,91.705933C-39.46804,91.651329,-39.541103,91.631622,-39.640911,91.632172C-39.714622,91.631889,-39.781372,91.638733,-39.791817,91.646431C-39.802261,91.654129,-39.89624,91.6866,-40.000973,91.718094C-40.105705,91.74958,-40.244926,91.790886,-40.308525,91.811005C-40.486824,91.864944,-40.802639,91.782852,-41.073952,91.615036C-41.240433,91.512047,-41.333069,91.432098,-41.49334,91.259338C-41.549767,91.198952,-41.649666,91.10318,-41.71859,91.049217C-41.862133,90.932114,-42.002182,90.800179,-42.124836,90.667679C-42.240532,90.542313,-42.307571,90.503677,-42.368328,90.528389C-42.395382,90.53997,-42.449638,90.54039,-42.487591,90.528236C-42.525543,90.51609,-42.612061,90.513535,-42.683407,90.523209C-42.948845,90.557228,-43.138779,90.510529,-43.4403,90.341003C-43.569477,90.269592,-43.644424,90.234558,-44.078163,90.039886C-44.32531,89.929482,-44.717411,89.681282,-44.905525,89.516785C-45.38213,89.097382,-45.594288,88.935005,-46.095154,88.605362C-46.392227,88.410278,-46.507809,88.344452,-46.631943,88.301643C-46.718128,88.270981,-46.848431,88.224358,-46.917694,88.198509C-46.987743,88.169334,-47.616547,87.803032,-48.377995,87.343353C-49.805077,86.480431,-49.779144,86.493637,-50.275547,86.345146C-50.375809,86.314278,-50.497246,86.253319,-50.676849,86.139389C-50.965393,85.958076,-51.027508,85.888504,-51.017609,85.753052C-51.013783,85.710114,-51.023697,85.638855,-51.03933,85.595207C-51.057011,85.550293,-51.078613,85.451981,-51.088051,85.375359C-51.104897,85.26017,-51.099018,85.218506,-51.053413,85.144775C-51.014141,85.081291,-50.994637,85.008408,-50.992195,84.907982C-50.984802,84.73983,-50.972923,84.716034,-50.828587,84.592949L-50.721916,84.503197L-50.615036,84.569305C-50.532822,84.620163,-50.506409,84.628006,-50.489944,84.601379C-50.454472,84.544037,-50.397854,84.553581,-50.178383,84.658188C-49.864193,84.807228,-49.442101,85.144775,-49.394112,85.28772C-49.388905,85.302269,-49.36314,85.329529,-49.334366,85.347328C-49.307648,85.363861,-49.209827,85.495155,-49.120396,85.635422L-48.955757,85.89299L-48.618675,86.101501C-48.433689,86.215927,-48.272415,86.304359,-48.261181,86.29998C-48.24868,86.293556,-48.15554,86.331345,-48.053871,86.382912C-47.875675,86.476151,-47.770992,86.51825,-47.527927,86.589317C-47.193306,86.691536,-46.899811,86.805122,-46.680031,86.918419C-46.524441,86.997673,-46.42308,87.04055,-46.057793,87.175896C-46.000076,87.197441,-45.801636,87.294701,-45.615215,87.393028C-45.430065,87.493393,-45.258343,87.574135,-45.236832,87.576111C-45.206623,87.577812,-45.222252,87.534164,-45.301575,87.414307C-45.421974,87.232231,-45.547974,87.137306,-45.834824,87.022163C-45.921795,86.98819,-46.104748,86.911827,-46.241528,86.852707C-46.376251,86.794853,-46.51683,86.741875,-46.551941,86.734314C-46.588318,86.728806,-46.684776,86.691788,-46.770004,86.650398C-46.853176,86.610275,-46.972244,86.55928,-47.033287,86.538506C-47.097649,86.518517,-47.196644,86.485596,-47.258949,86.466881C-47.329479,86.443069,-47.628944,86.274826,-48.054886,86.017014C-48.66629,85.650146,-48.758305,85.58757,-48.929977,85.433243C-49.14053,85.240707,-49.255917,85.124023,-49.292889,85.064346C-49.30632,85.044716,-49.343292,84.985031,-49.375839,84.936584C-49.408394,84.88813,-49.435566,84.840179,-49.437931,84.830223C-49.448971,84.783752,-49.518467,84.638824,-49.536964,84.62738C-49.557518,84.61467,-49.63966,84.45343,-49.668076,84.370728C-49.675652,84.346222,-49.703922,84.286263,-49.730309,84.241623C-49.756691,84.196991,-49.784485,84.13166,-49.795692,84.099243C-49.805634,84.064781,-49.830273,84.012726,-49.848125,83.981865C-49.868034,83.94973,-49.888252,83.908905,-49.893459,83.894356C-49.915089,83.832848,-50.148529,83.337334,-50.178234,83.293472C-50.212364,83.238388,-50.23748,83.191704,-50.329559,82.996002C-50.367943,82.915627,-50.418346,82.836311,-50.443008,82.82106C-50.465618,82.807076,-50.480629,82.7808,-50.476662,82.760605C-50.473957,82.742455,-50.498741,82.667664,-50.534279,82.591881C-50.571083,82.518143,-50.633312,82.389038,-50.672482,82.305351C-50.713707,82.22039,-50.764111,82.141075,-50.782608,82.129631C-50.803162,82.11692,-50.812317,82.08577,-50.807869,82.060204C-50.800102,82.033867,-50.818886,81.976944,-50.84938,81.929764C-50.879086,81.885902,-50.923157,81.796349,-50.945572,81.731514C-50.998936,81.588074,-51.179035,81.272804,-51.251907,81.20224C-51.283047,81.174484,-51.303265,81.133667,-51.299297,81.113464C-51.289616,81.065659,-51.390327,81.003357,-51.415665,81.044319C-51.427067,81.062752,-51.450798,81.073555,-51.471043,81.069527C-51.491287,81.065498,-51.542862,81.084564,-51.58543,81.11203C-51.627998,81.139496,-51.669609,81.156235,-51.679886,81.149872C-51.692219,81.14225,-51.706776,81.1474,-51.715641,81.161736C-51.72451,81.176071,-51.768173,81.191536,-51.814209,81.197037C-51.858974,81.200493,-51.946785,81.236786,-52.008495,81.27224C-52.087296,81.316933,-52.142986,81.333458,-52.18837,81.319534C-52.2453,81.301315,-52.647118,81.381226,-52.667385,81.413994C-52.671185,81.420135,-52.722595,81.42514,-52.779694,81.420975C-52.836002,81.42012,-53.006054,81.442352,-53.155075,81.471931C-53.305359,81.503555,-53.447258,81.526215,-53.472088,81.525009C-53.549908,81.522179,-53.901245,81.571022,-54.234081,81.631302C-54.378513,81.658058,-54.543186,81.680786,-54.600761,81.681976C-54.660393,81.6819,-54.71814,81.697151,-54.727005,81.711487C-54.737141,81.727875,-54.764984,81.73613,-54.787285,81.730835C-54.811638,81.724266,-54.902435,81.733223,-54.991653,81.748825C-55.078819,81.765694,-55.16835,81.772614,-55.192703,81.766037C-55.21627,81.762787,-55.27607,81.776764,-55.324802,81.800423C-55.371483,81.825348,-55.455326,81.841446,-55.507835,81.83445C-55.623608,81.819466,-55.670929,81.863808,-55.855881,82.162811C-55.940277,82.294655,-55.995373,82.365349,-56.033661,82.381302C-56.064037,82.393661,-56.105816,82.424446,-56.126396,82.448532C-56.177689,82.513077,-56.357204,82.495476,-56.541256,82.407104C-56.619049,82.367485,-56.863163,82.210823,-57.08371,82.057411C-57.300934,81.903221,-57.684166,81.640686,-57.932697,81.472794C-58.179966,81.302849,-58.427544,81.124222,-58.481602,81.073799C-58.53693,81.025414,-58.643761,80.885712,-58.717701,80.766357C-58.837151,80.573547,-58.864464,80.502846,-58.951687,80.143089C-59.06068,79.699074,-59.057335,79.661499,-58.903313,79.490608C-58.834934,79.416817,-58.8237,79.412437,-58.691483,79.437592C-58.564648,79.46225,-58.510727,79.489937,-58.129215,79.723091C-57.720196,79.976097,-57.70454,79.982956,-57.581646,79.991013C-57.162029,80.015556,-57.062389,80.029053,-56.99456,80.071007C-56.934956,80.10788,-56.912178,80.107811,-56.869133,80.074974C-56.821499,80.039314,-56.808685,80.041573,-56.724106,80.102386C-56.63747,80.164474,-56.633835,80.172386,-56.655396,80.243996L-56.678703,80.323021L-56.540462,80.329247C-56.465965,80.332855,-56.357147,80.340698,-56.300053,80.344872C-56.242954,80.349045,-56.155167,80.349548,-56.10376,80.344536C-56.00885,80.33812,-56.00885,80.33812,-55.889771,80.145615C-55.798561,79.998161,-55.758671,79.952049,-55.718803,79.942726C-55.69096,79.934464,-55.657429,79.935387,-55.645096,79.943016C-55.634819,79.949371,-55.569023,79.953262,-55.499424,79.951012C-55.429825,79.948753,-55.2995,79.95858,-55.207291,79.970314C-55.118408,79.982819,-55.025723,79.989182,-55.007843,79.983253C-54.987911,79.978592,-54.943623,79.980507,-54.908993,79.993431C-54.84874,80.01088,-54.758732,79.998604,-54.583755,79.945435C-54.544678,79.9328,-54.476181,79.918541,-54.434258,79.910492C-54.392334,79.902443,-54.329216,79.887688,-54.295517,79.874557C-54.261024,79.864746,-54.215473,79.864609,-54.19492,79.877319C-54.131203,79.916733,-53.787609,79.857437,-53.711483,79.794098C-53.675083,79.762817,-53.63015,79.7453,-53.613705,79.755478C-53.597263,79.765648,-53.531776,79.760849,-53.464066,79.743271C-53.31789,79.709099,-53.324989,79.67923,-53.514084,79.562256C-53.588078,79.516487,-53.671391,79.453629,-53.696678,79.420998C-53.723228,79.390419,-53.866768,79.273308,-54.0187,79.165176C-54.330303,78.938446,-54.707344,78.642929,-54.840439,78.518127C-55.076759,78.298332,-55.134453,78.23999,-55.214588,78.15361C-55.275913,78.087364,-55.416779,77.988907,-55.696308,77.815994L-56.088886,77.573158L-56.07777,77.509247C-56.064434,77.432549,-56.090675,77.41066,-56.144642,77.456558C-56.178513,77.483742,-56.200809,77.478447,-56.299469,77.417419C-56.365242,77.376732,-56.589756,77.243523,-56.803204,77.11998C-57.016655,76.996445,-57.20575,76.879478,-57.224556,76.859352C-57.283039,76.797691,-57.190346,76.560547,-56.936962,76.114159C-56.80378,75.885071,-56.704945,75.688538,-56.692253,75.631264C-56.675591,75.553795,-56.56617,75.372299,-56.111416,74.673882C-55.806767,74.199745,-55.523819,73.774483,-55.485195,73.730415C-55.404934,73.63282,-55.322643,73.573296,-55.291813,73.592361C-55.281536,73.598724,-55.221115,73.602112,-55.160217,73.600143C-55.013111,73.592033,-54.850258,73.687103,-54.820122,73.799187C-54.796295,73.884712,-54.839611,74.078781,-54.94072,74.361687C-55.019169,74.584991,-55.055191,74.758087,-55.049747,74.891701C-55.044926,75.00795,-55.031013,75.022217,-54.981468,74.965088C-54.940311,74.916924,-54.84005,74.947792,-54.835033,75.013191C-54.828102,75.057121,-54.733128,75.183823,-54.681744,75.215607C-54.640636,75.241035,-54.625988,75.332214,-54.648815,75.405869C-54.663395,75.447823,-54.71072,75.492165,-54.80582,75.549431C-54.882568,75.595406,-54.949348,75.639038,-54.953148,75.645187C-54.956947,75.651329,-54.955563,75.708817,-54.947224,75.773438C-54.929138,75.92337,-54.989155,76.024994,-55.111286,76.057045C-55.212219,76.08239,-55.21793,76.110001,-55.155842,76.216362C-55.116505,76.286003,-55.005993,76.360023,-54.082504,76.94825C-53.514908,77.307838,-53.040283,77.615585,-53.028908,77.633949C-53.016266,77.650261,-52.613579,77.913506,-52.134365,78.21843C-51.400284,78.681,-51.255138,78.767944,-51.219383,78.756088C-51.169075,78.739067,-50.993889,78.841774,-50.942219,78.919037C-50.909668,78.967484,-50.892746,78.97229,-50.808113,78.959511C-50.708138,78.944901,-50.598557,78.992867,-50.561752,79.066597C-50.551643,79.087013,-50.529037,79.100998,-50.511635,79.100433C-50.45026,79.093094,-50.270317,79.178917,-49.995686,79.345963C-49.766273,79.485039,-49.689266,79.521347,-49.561638,79.549324C-49.476555,79.56797,-49.377563,79.600891,-49.344673,79.621231C-49.31179,79.641579,-49.252014,79.664391,-49.211529,79.672447C-49.137985,79.68679,-48.868706,79.816544,-48.395466,80.066803C-48.025951,80.264229,-46.965374,80.920258,-46.793537,81.060532C-46.715599,81.122902,-46.585968,81.225739,-46.506763,81.286057C-46.428825,81.348419,-46.349792,81.422798,-46.332726,81.45034C-46.316933,81.479935,-46.271881,81.521957,-46.230774,81.547386C-46.160889,81.590614,-45.849529,81.941772,-45.756775,82.081261C-45.731972,82.119263,-45.701782,82.157753,-45.689453,82.165382C-45.67712,82.173012,-45.624805,82.23085,-45.575024,82.292793C-45.523186,82.356003,-45.431816,82.438004,-45.36937,82.479469C-45.307705,82.517609,-45.214115,82.58683,-45.166222,82.633438C-45.115005,82.679283,-44.987427,82.780846,-44.881981,82.86306C-44.494972,83.15625,-44.344955,83.285858,-44.270847,83.391159C-44.205269,83.482697,-44.151516,83.524437,-43.878628,83.698898C-43.633247,83.853508,-43.545822,83.918915,-43.492409,83.98877C-43.416553,84.086655,-43.192711,84.276085,-43.139412,84.2864C-43.119171,84.290428,-43.12323,84.214294,-43.154297,84.076157C-43.219891,83.777908,-43.220787,83.47155,-43.157349,83.22197C-43.140068,83.161873,-43.130527,83.091324,-43.134781,83.06604C-43.136978,83.04203,-43.125694,82.964058,-43.112045,82.896049C-43.095074,82.827271,-43.08503,82.714554,-43.087517,82.645065C-43.08873,82.573517,-43.086315,82.509888,-43.081245,82.501694C-43.07618,82.493507,-43.059181,82.387924,-43.044075,82.267021C-43.031021,82.144844,-43.003864,81.986084,-42.98436,81.913208C-42.95517,81.792511,-42.942787,81.726555,-42.915775,81.545059C-42.912117,81.516174,-42.890701,81.421822,-42.869759,81.33284C-42.846764,81.245125,-42.8274,81.149506,-42.823746,81.120621C-42.820084,81.091736,-42.802158,81.012215,-42.784397,80.946754C-42.75172,80.811226,-42.751476,80.68679,-42.789875,80.399704C-42.813316,80.212486,-42.814102,80.209167,-42.905975,80.169327C-42.986301,80.133797,-42.998154,80.120796,-42.98563,80.077576C-42.979919,80.049965,-42.983215,80.013947,-42.995857,79.997635C-43.008499,79.981316,-43.008953,79.94989,-42.997551,79.931458C-42.984882,79.91098,-42.983112,79.866768,-42.993057,79.832306C-43.004265,79.799889,-42.998692,79.749535,-42.982224,79.722908C-42.964489,79.694237,-42.954975,79.660484,-42.963509,79.646713C-42.969982,79.634209,-42.953659,79.584846,-42.925789,79.539795C-42.878918,79.46402,-42.862541,79.341064,-42.890335,79.275734C-42.895546,79.261185,-42.931587,79.22757,-42.968582,79.204681C-43.013802,79.176712,-43.032921,79.147896,-43.02594,79.118233C-43.010544,79.042809,-43.032005,78.967247,-43.083389,78.935463C-43.120384,78.912575,-43.124329,78.895981,-43.100258,78.857063C-43.082527,78.828392,-43.062206,78.722038,-43.051853,78.618011C-43.036552,78.446259,-43.027515,78.41787,-42.921104,78.245842C-42.823563,78.08815,-42.787472,78.04818,-42.682713,77.979897C-42.494087,77.858727,-42.285606,77.843277,-42.037331,77.928894C-41.976292,77.949661,-41.971703,77.946838,-41.961372,77.879601C-41.95676,77.839989,-41.956879,77.780449,-41.962231,77.743164C-41.968849,77.707916,-41.963757,77.662933,-41.951088,77.642456C-41.919418,77.591255,-41.868839,77.41301,-41.876247,77.374451C-41.878136,77.359123,-41.869888,77.327415,-41.85722,77.306931C-41.844551,77.286453,-41.830284,77.235817,-41.828991,77.196976C-41.816391,77.043373,-41.791794,76.925507,-41.762657,76.878403C-41.742386,76.845634,-41.743317,76.819572,-41.761818,76.808136C-41.778259,76.797958,-41.782513,76.772675,-41.769844,76.752197C-41.733109,76.69281,-41.687569,76.485954,-41.646881,76.199654C-41.634163,76.105591,-41.59893,75.929176,-41.567688,75.809753C-41.535179,75.688286,-41.505821,75.553543,-41.499939,75.511871C-41.492794,75.468163,-41.475967,75.376633,-41.460258,75.309898C-41.423615,75.154175,-41.415199,75.108414,-41.398827,74.985458C-41.39072,74.931007,-41.373436,74.870911,-41.359505,74.848389C-41.345566,74.825859,-41.346333,74.785744,-41.360073,74.757423C-41.373817,74.729103,-41.373314,74.686943,-41.358109,74.662361C-41.342911,74.637787,-41.340042,74.605583,-41.352684,74.589272C-41.365326,74.572952,-41.352631,74.515678,-41.323326,74.454529C-41.247772,74.300217,-41.227001,74.225288,-41.209503,74.077553C-41.182293,73.845207,-41.167686,73.766464,-41.129299,73.603325C-41.10836,73.514343,-41.086914,73.383194,-41.0807,73.313423C-41.073215,73.2416,-41.060356,73.170273,-41.051487,73.155937C-41.041351,73.139557,-41.043861,73.106857,-41.060135,73.082626C-41.077988,73.051765,-41.068306,73.003952,-41.027912,72.91568C-40.994808,72.848381,-40.965958,72.755798,-40.963398,72.714905C-40.959572,72.671967,-40.946091,72.618011,-40.930889,72.593437C-40.916954,72.570908,-40.903641,72.531006,-40.901249,72.504173C-40.891014,72.340607,-40.873062,72.224297,-40.851524,72.189484C-40.83886,72.169006,-40.833145,72.141388,-40.839622,72.128891C-40.844833,72.114342,-40.833881,72.064484,-40.814236,72.014343C-40.794586,71.964203,-40.786171,71.918442,-40.796448,71.912079C-40.806725,71.905724,-40.80608,71.886299,-40.793411,71.865822C-40.782013,71.847389,-40.765182,71.755867,-40.753731,71.663849C-40.745602,71.572601,-40.724182,71.478249,-40.710247,71.455719C-40.697578,71.435242,-40.679031,71.373093,-40.670929,71.318649C-40.662823,71.264198,-40.652328,71.182915,-40.646446,71.141243C-40.639297,71.097534,-40.616756,70.978394,-40.593594,70.876625C-40.572487,70.77359,-40.54533,70.61483,-40.535145,70.524857C-40.523693,70.432838,-40.509876,70.350777,-40.50354,70.340538C-40.497208,70.330299,-40.490059,70.286583,-40.487503,70.245689C-40.483677,70.202751,-40.472729,70.152893,-40.461327,70.13446C-40.449924,70.116028,-40.455757,70.084106,-40.474564,70.06398C-40.497482,70.041306,-40.499207,70.011932,-40.476883,69.980431C-40.408951,69.875214,-40.367577,69.73941,-40.391907,69.696045C-40.411812,69.66391,-40.404354,69.628876,-40.368885,69.571533C-40.341015,69.526482,-40.326435,69.484535,-40.338768,69.476906C-40.349045,69.470551,-40.349186,69.447807,-40.336517,69.42733C-40.323853,69.406845,-40.316704,69.363136,-40.31921,69.330437C-40.322987,69.299782,-40.314571,69.254021,-40.301903,69.233543C-40.289234,69.213066,-40.269871,69.117439,-40.258423,69.025421C-40.25029,68.934174,-40.228874,68.839828,-40.216206,68.819351C-40.202271,68.796822,-40.19529,68.767159,-40.203823,68.753387C-40.2103,68.740891,-40.20031,68.701759,-40.180038,68.668991C-40.159771,68.63623,-40.148991,68.600426,-40.155464,68.587921C-40.159889,68.576691,-40.149391,68.495407,-40.130985,68.410522C-40.111313,68.323586,-40.093529,68.221321,-40.090969,68.180435C-40.089676,68.141586,-40.077461,68.089684,-40.064793,68.069206C-40.052124,68.048721,-40.04388,68.017014,-40.044502,67.999641C-40.049065,67.965675,-40.007778,67.733536,-39.970512,67.595192C-39.957031,67.541237,-39.943863,67.4786,-39.944004,67.455856C-39.944145,67.433113,-39.9408,67.395546,-39.936829,67.375343C-39.932861,67.355148,-39.922226,67.2966,-39.912544,67.248795C-39.904915,67.199707,-39.877617,67.06369,-39.855076,66.944557C-39.832535,66.825417,-39.81506,66.71447,-39.816948,66.699142C-39.817566,66.68177,-39.803299,66.631134,-39.784916,66.583046C-39.767799,66.537003,-39.756851,66.487137,-39.763329,66.47464C-39.769806,66.462135,-39.759026,66.426331,-39.738758,66.39357C-39.718491,66.360802,-39.70644,66.322945,-39.714973,66.309174C-39.73156,66.27626,-39.699932,66.055145,-39.672062,66.010094C-39.659393,65.989609,-39.645123,65.938972,-39.641296,65.896042C-39.636684,65.856415,-39.626667,65.780502,-39.619041,65.731415C-39.613472,65.681061,-39.601875,65.611786,-39.596474,65.575485C-39.591072,65.539185,-39.580124,65.489326,-39.572353,65.462982C-39.546993,65.385231,-39.509533,65.196037,-39.49617,65.082542C-39.487587,65.022728,-39.471714,64.94194,-39.460934,64.906136C-39.446831,64.869553,-39.427921,64.742508,-39.415344,64.625694C-39.40609,64.509659,-39.382759,64.393845,-39.366295,64.367218C-39.351089,64.342644,-39.345688,64.306343,-39.357063,64.287979C-39.376495,64.250481,-39.36927,64.096382,-39.343933,64.05542C-39.335068,64.041084,-39.332031,63.994827,-39.335327,63.958809C-39.341923,63.886776,-39.343979,63.885506,-39.478374,64.043053C-39.565758,64.147568,-39.639542,64.25766,-39.692123,64.361046C-39.734573,64.448051,-39.894218,64.742889,-40.049412,65.012161C-40.330666,65.503601,-40.330666,65.503601,-40.538597,66.097023C-40.798035,66.842636,-40.877869,67.008453,-41.26247,67.588867C-41.478447,67.919647,-41.575199,68.080658,-41.597237,68.157631C-41.624344,68.242805,-41.666939,68.307068,-41.864815,68.544273C-41.994621,68.69899,-42.162888,68.883728,-42.237434,68.953712C-42.311981,69.023689,-42.404579,69.113655,-42.442722,69.152359C-42.481659,69.187729,-42.53056,69.225441,-42.551758,69.232147C-42.570904,69.240128,-42.642609,69.314697,-42.709892,69.400497C-42.775906,69.484253,-42.885757,69.597519,-42.951435,69.653168C-43.081051,69.757042,-43.248528,69.945099,-43.488998,70.246567C-43.601242,70.386673,-43.649376,70.464493,-43.698021,70.584473C-43.733036,70.673248,-43.827282,70.866959,-43.908215,71.020767C-44.070389,71.319702,-44.195087,71.636147,-44.184383,71.710724C-44.168327,71.822594,-44.189419,72.132339,-44.236801,72.49379C-44.264629,72.708763,-44.286457,72.941605,-44.288567,73.013916C-44.288612,73.087509,-44.293114,73.186661,-44.297417,73.23497C-44.309822,73.337723,-44.316566,73.48645,-44.307274,73.540337C-44.30381,73.562302,-44.31208,73.630806,-44.325253,73.693451C-44.369381,73.92099,-44.44178,74.08857,-44.625465,74.385529C-44.783813,74.641518,-44.821648,74.688904,-44.89254,74.730003C-44.939217,74.754929,-45.010109,74.796021,-45.048088,74.820663C-45.113598,74.862259,-45.124352,74.861267,-45.187424,74.802437C-45.314835,74.686813,-45.433777,74.451843,-45.394505,74.388351C-45.364101,74.339203,-45.404438,74.110382,-45.461319,74.01857C-45.486122,73.980568,-45.519917,73.897377,-45.534901,73.834305C-45.557938,73.752098,-45.592064,73.697014,-45.66209,73.631042C-45.809574,73.497345,-45.846519,73.400871,-45.835922,73.172409C-45.829205,73.060471,-45.814095,72.93956,-45.798725,72.900932C-45.784145,72.858986,-45.778572,72.808632,-45.785362,72.787445C-45.794205,72.764984,-45.782467,72.718445,-45.762199,72.685677C-45.736862,72.644722,-45.734612,72.595146,-45.751652,72.530807C-45.77438,72.457283,-45.766273,72.402832,-45.719208,72.276215C-45.658524,72.118378,-45.654839,72.052696,-45.694141,71.702759C-45.700424,71.639404,-45.698799,71.572456,-45.688663,71.556076C-45.678528,71.539688,-45.681969,71.480934,-45.695854,71.429871C-45.716045,71.352257,-45.710953,71.307266,-45.668026,71.214897C-45.637455,71.151695,-45.611927,71.059883,-45.610943,71.01236C-45.612019,70.963554,-45.587921,70.887848,-45.561321,70.844841C-45.533451,70.799789,-45.481178,70.687714,-45.445683,70.593582C-45.410187,70.499443,-45.336212,70.338501,-45.282356,70.233063L-45.186535,70.04599L-45.592712,69.797577C-45.814693,69.660263,-46.182774,69.446739,-46.410301,69.32299C-47.033585,68.979919,-47.087814,68.94355,-47.137737,68.858864C-47.181976,68.783371,-47.184029,68.782097,-47.279896,68.799248C-47.335106,68.810402,-47.454872,68.852417,-47.547749,68.896896C-47.688095,68.96299,-47.743305,68.974144,-47.877743,68.961769C-47.967106,68.954628,-48.139355,68.95285,-48.259094,68.958069C-48.384216,68.962784,-48.516598,68.951691,-48.568939,68.930634C-48.619225,68.910858,-48.693245,68.901886,-48.733898,68.907883C-48.799076,68.921364,-48.843983,68.902084,-49.134438,68.742241C-49.31089,68.641586,-49.499844,68.547356,-49.550606,68.532944C-49.8778,68.432495,-50.517216,68.087936,-50.661999,67.936089C-50.707359,67.885376,-50.74036,67.805504,-50.770638,67.670677L-50.809731,67.476608L-50.590912,67.150421C-50.335049,66.773529,-50.304024,66.741745,-50.221329,66.787239C-49.995857,66.909714,-49.909248,67.008591,-49.837097,67.208954C-49.736229,67.50071,-49.745235,67.492302,-49.470436,67.645294C-49.268841,67.755836,-49.19136,67.786774,-49.05582,67.811157C-48.834721,67.848816,-48.633358,67.840286,-48.346077,67.780144C-48.145168,67.740189,-48.071911,67.709045,-47.84832,67.572693C-47.706062,67.485138,-47.548603,67.373001,-47.500011,67.326607C-47.450153,67.27816,-47.372932,67.226822,-47.325943,67.210587C-47.212822,67.170128,-47.102516,67.088287,-47.051846,67.006371C-47.01384,66.944931,-47.016994,66.931656,-47.077843,66.860031C-47.130157,66.802193,-47.145,66.761864,-47.138783,66.692093L-47.128597,66.602119L-47.294464,66.51651C-47.387913,66.470032,-47.491325,66.42588,-47.528492,66.417053C-47.622276,66.398682,-47.898006,66.219627,-47.963276,66.13678C-48.148327,65.889236,-48.193832,65.815781,-48.278,65.616478C-48.329956,65.493729,-48.387596,65.361801,-48.412407,65.323807C-48.449379,65.26413,-48.476978,65.147949,-48.544411,64.760788C-48.554974,64.708954,-48.582146,64.660995,-48.615032,64.640656C-48.643806,64.622856,-48.680637,64.585915,-48.696911,64.561691C-48.719185,64.519592,-48.708096,64.492477,-48.546425,64.23571C-48.451412,64.082115,-48.262039,63.794342,-48.129677,63.598724C-47.854496,63.199802,-47.83234,63.182358,-47.711407,63.285477C-47.630627,63.35244,-47.534435,63.550682,-47.550926,63.614101C-47.558697,63.640442,-47.562859,63.711487,-47.559418,63.770248C-47.556149,63.84306,-47.577873,63.928722,-47.62635,64.034653C-47.748802,64.301529,-47.714706,64.636917,-47.528152,65.001488C-47.462601,65.129814,-47.451534,65.139496,-47.237774,65.271713C-46.853416,65.509468,-46.651295,65.541046,-46.201534,65.434166C-46.048714,65.398445,-45.913464,65.377342,-45.899075,65.386238C-45.857967,65.411667,-45.552208,65.399757,-45.386581,65.366295C-45.30938,65.351753,-45.235981,65.343361,-45.225704,65.349716C-45.217484,65.354797,-45.192795,65.33326,-45.171257,65.298447C-45.14719,65.259537,-45.1138,65.237717,-45.076946,65.237862C-44.999916,65.237373,-44.985023,65.204109,-45.02895,65.137299C-45.050125,65.107208,-45.060066,65.072746,-45.053734,65.062508C-45.03093,65.025642,-45.065514,64.939125,-45.114841,64.908615C-45.155949,64.883186,-45.15657,64.865814,-45.111584,64.774712C-45.029221,64.604797,-45.014301,64.534744,-45.04097,64.444626C-45.054379,64.388199,-45.048637,64.323792,-45.022179,64.258041C-44.993664,64.193573,-44.988235,64.120476,-45.002571,64.037987C-45.015022,63.970825,-45.020325,63.859947,-45.01284,63.788124C-44.995003,63.612274,-45.022026,63.343552,-45.066547,63.222572C-45.089443,63.163101,-45.097305,63.093117,-45.081932,63.054485C-45.041683,62.943474,-45.080399,62.891205,-45.327045,62.73864L-45.549026,62.601334L-45.512287,62.541939C-45.490753,62.507126,-45.460209,62.480713,-45.446129,62.480927C-45.405952,62.480297,-45.228252,62.372189,-45.235039,62.350998C-45.237404,62.341042,-45.293999,62.294708,-45.362137,62.244064C-45.451614,62.177391,-45.55582,62.129925,-45.748428,62.064583C-46.023113,61.971123,-46.242416,61.852459,-46.289497,61.772369C-46.305775,61.748142,-46.312225,61.698849,-46.304768,61.663818C-46.297619,61.620106,-46.309307,61.593056,-46.346302,61.570171C-46.393578,61.540928,-46.393887,61.532242,-46.331814,61.431892C-46.284943,61.356117,-46.237617,61.311768,-46.158028,61.270393L-46.050907,61.212067L-46.105896,61.135578C-46.136871,61.093765,-46.201042,61.022926,-46.248146,60.97963C-46.331291,60.902718,-46.440968,60.758423,-46.516006,60.62706C-46.534649,60.592876,-46.581421,60.521473,-46.619659,60.463844C-46.657898,60.406212,-46.686169,60.346249,-46.682201,60.32605C-46.678234,60.305855,-46.609013,60.161789,-46.530136,60.006706C-46.449993,59.849579,-46.374268,59.681221,-46.362534,59.634682C-46.333347,59.513988,-46.227272,59.370068,-46.103989,59.276436C-45.928486,59.144318,-45.844669,59.165016,-45.71669,59.371597C-45.620781,59.524361,-45.606403,59.776768,-45.683395,59.947174C-45.784142,60.165176,-45.785122,60.212708,-45.705776,60.295769C-45.666103,60.337296,-45.621532,60.384689,-45.608887,60.401005C-45.596245,60.41732,-45.527489,60.485332,-45.459518,60.55003C-45.327209,60.671513,-45.188854,60.737274,-44.813908,60.861603C-44.742111,60.883362,-44.636951,60.920094,-44.579235,60.941635C-44.520248,60.961136,-44.364159,60.998226,-44.231941,61.02338C-44.099728,61.048531,-43.942368,61.083572,-43.885437,61.101799C-43.819019,61.123062,-43.754013,61.123634,-43.704491,61.103298C-43.66288,61.086563,-43.609413,61.082825,-43.58886,61.095539C-43.558029,61.114609,-43.541725,61.102039,-43.489792,61.018074L-43.428986,60.919773L-43.566837,60.811852C-43.664536,60.740089,-43.742619,60.654984,-43.814194,60.545578C-43.937443,60.358913,-44.154179,59.955849,-44.195381,59.834095C-44.225849,59.750122,-44.402031,59.488235,-44.513618,59.365414C-44.546337,59.331017,-44.640549,59.244427,-44.723385,59.176197C-44.916088,59.014526,-44.931885,58.984932,-44.877411,58.89687C-44.797607,58.767849,-44.669476,58.753666,-44.381023,58.83865C-44.305908,58.859634,-44.234421,58.872704,-44.221924,58.86628C-44.1936,58.85265,-44.213173,58.792404,-44.275738,58.69141C-44.317612,58.62587,-44.314911,58.607719,-44.264069,58.511749C-44.218296,58.423965,-44.212727,58.373611,-44.225269,58.210121C-44.235161,58.102066,-44.252007,57.986877,-44.263214,57.954464C-44.274422,57.922043,-44.267414,57.855591,-44.246979,57.808769C-44.2286,57.760677,-44.212219,57.637726,-44.208511,57.535252C-44.20607,57.434826,-44.194931,57.334118,-44.183529,57.315689C-44.149326,57.260391,-44.132446,57.095276,-44.151684,57.006927C-44.168556,56.928535,-44.165543,56.919071,-44.070724,56.816322C-43.905785,56.632362,-43.669022,56.433372,-43.59182,56.418831C-43.444855,56.387978,-43.307098,56.399574,-43.222824,56.451698C-43.144722,56.500015,-43.143143,56.506653,-43.157154,56.639565C-43.167171,56.715481,-43.198746,56.863007,-43.226501,56.967598C-43.269001,57.128189,-43.26984,57.198463,-43.238514,57.418877C-43.198063,57.707237,-43.144386,57.85936,-43.006947,58.105774C-42.896988,58.295547,-42.816139,58.495628,-42.553741,59.201599C-42.524055,59.282249,-42.458984,59.415943,-42.409058,59.500626C-42.307941,59.667938,-42.056976,59.978912,-42.031975,59.966064C-42.024063,59.962463,-41.996841,59.936829,-41.96962,59.911194C-41.939857,59.881462,-41.889549,59.864449,-41.833717,59.870667C-41.787376,59.873848,-41.711136,59.870041,-41.663834,59.862488C-41.578728,59.844345,-41.209587,59.89996,-41.067741,59.95089C-40.972069,59.984585,-40.863731,59.997803,-40.793964,59.981491C-40.756153,59.970901,-40.735573,59.946823,-40.701347,59.854733C-40.6283,59.667732,-40.554398,59.617172,-40.255882,59.552647C-40.05117,59.506546,-39.983627,59.503021,-39.936356,59.532265C-39.872639,59.571678,-39.706558,59.569641,-39.55658,59.529331L-39.470993,59.505821L-39.506504,59.393246C-39.542805,59.277351,-39.572258,58.865547,-39.546921,58.824589C-39.539322,58.812302,-39.541664,58.765549,-39.55397,58.721123C-39.580948,58.622322,-39.563217,58.593651,-39.474785,58.57473C-39.420837,58.565628,-39.381905,58.530247,-39.305275,58.424744C-39.215981,58.298759,-39.210434,58.285202,-39.237129,58.231876C-39.292572,58.123962,-39.211205,57.794868,-39.120071,57.757797C-39.104248,57.750595,-39.045097,57.756035,-38.988956,57.770943C-38.909248,57.789101,-38.874306,57.810715,-38.834324,57.860931C-38.806984,57.894833,-38.75782,57.9394,-38.729046,57.957199C-38.675606,57.990253,-38.640404,58.094143,-38.668274,58.139198C-38.674606,58.149437,-38.670189,58.160667,-38.654846,58.158833C-38.63871,58.160316,-38.593918,58.120068,-38.552765,58.071907C-38.441002,57.937164,-38.412678,57.923538,-38.154816,57.865013C-37.922264,57.810654,-37.911507,57.811646,-37.812847,57.872673C-37.722412,57.928612,-37.708981,57.948246,-37.674904,58.076923C-37.633728,58.235474,-37.593292,58.31712,-37.545231,58.349678C-37.524673,58.362392,-37.523125,58.405827,-37.537872,58.46183C-37.562134,58.55159,-37.518452,58.74284,-37.430481,58.936001C-37.396214,59.013828,-37.31163,59.074642,-37.258476,59.062218C-37.238544,59.05756,-37.157425,59.096409,-37.077267,59.145992C-36.951889,59.223549,-36.91917,59.257942,-36.846497,59.379349C-36.653748,59.710938,-36.620132,60.051697,-36.7197,60.621544C-36.743507,60.742729,-36.782829,60.879807,-36.810699,60.924862C-36.83857,60.969917,-36.9641,61.113129,-37.089462,61.242287C-37.214821,61.371445,-37.380554,61.552086,-37.454956,61.644806C-37.529366,61.737526,-37.617844,61.830032,-37.649971,61.849808C-37.752983,61.910675,-37.885323,62.069496,-38.151154,62.448715C-38.292702,62.649979,-38.479034,62.891491,-38.56752,62.984001C-38.769653,63.195923,-38.782318,63.2164,-38.830223,63.413292C-38.891609,63.664139,-38.897034,63.737236,-38.857246,63.838299C-38.825508,63.920223,-38.829166,63.949108,-38.882706,64.063232C-38.929436,64.161743,-38.936584,64.20546,-38.917942,64.239639C-38.902935,64.265915,-38.903439,64.308075,-38.91864,64.332657C-38.933842,64.357224,-38.964748,64.44854,-38.98774,64.536255C-39.010738,64.623962,-39.041645,64.715279,-39.05558,64.737801C-39.070778,64.762383,-39.07745,64.800728,-39.068607,64.823189C-39.061031,64.847694,-39.071671,64.906235,-39.091316,64.956375C-39.109699,65.004471,-39.120647,65.054329,-39.115437,65.068878C-39.108959,65.081375,-39.119743,65.117188,-39.138744,65.147903C-39.157745,65.178619,-39.169792,65.216476,-39.16917,65.233849C-39.167282,65.249176,-39.17778,65.33046,-39.192863,65.414566C-39.210003,65.497406,-39.223511,65.588158,-39.224632,65.612946C-39.227024,65.639786,-39.237804,65.675591,-39.249207,65.694016C-39.260605,65.712448,-39.272034,65.767677,-39.273014,65.815208C-39.273994,65.862732,-39.29924,66.000023,-39.329693,66.122765C-39.386154,66.342682,-39.40028,66.416054,-39.424286,66.588089C-39.431908,66.637169,-39.451271,66.732788,-39.470299,66.800308C-39.516457,66.989784,-39.547726,67.145996,-39.543159,67.17997C-39.541275,67.195297,-39.551743,67.239784,-39.567112,67.278412C-39.594841,67.346207,-39.621803,67.454117,-39.643414,67.599319C-39.66708,67.74324,-39.694382,67.879257,-39.720387,67.97644C-39.735924,68.029121,-39.750053,68.102493,-39.753399,68.140068C-39.756748,68.177635,-39.775322,68.276581,-39.794994,68.36351C-39.8134,68.448402,-39.832283,68.538651,-39.834675,68.565491C-39.8358,68.590279,-39.84137,68.640633,-39.846771,68.676933C-39.852177,68.713234,-39.85648,68.761536,-39.856339,68.784279C-39.856194,68.807022,-39.878712,68.889359,-39.906128,68.965843C-39.933544,69.042328,-39.956539,69.130035,-39.956085,69.161469C-39.955635,69.192894,-39.974518,69.28315,-39.997826,69.362175C-40.019073,69.442467,-40.035736,69.519943,-40.031792,69.536537C-40.029118,69.555183,-40.039898,69.590988,-40.057632,69.619659C-40.076633,69.650375,-40.087582,69.700233,-40.083809,69.730888C-40.081299,69.76358,-40.087181,69.805252,-40.099846,69.825729C-40.111248,69.844162,-40.105419,69.876083,-40.086609,69.896217C-40.060844,69.923477,-40.063236,69.950317,-40.097439,70.005608C-40.122776,70.04657,-40.150192,70.123047,-40.158295,70.177498C-40.165134,70.229897,-40.180527,70.305321,-40.19384,70.345222C-40.203835,70.384354,-40.226517,70.480743,-40.239857,70.557442C-40.253197,70.63414,-40.271603,70.719025,-40.279373,70.745361C-40.289196,70.770432,-40.297611,70.8162,-40.303322,70.843811C-40.342411,71.09996,-40.35257,71.153137,-40.372837,71.185905C-40.385506,71.206383,-40.39122,71.233994,-40.382687,71.247765C-40.374153,71.261536,-40.379868,71.289154,-40.392536,71.309631C-40.403938,71.328064,-40.419498,71.417542,-40.427151,71.503418C-40.432747,71.590569,-40.449097,71.676727,-40.459232,71.693108C-40.470634,71.71154,-40.476517,71.753204,-40.47274,71.783859C-40.47023,71.816559,-40.482445,71.868462,-40.501446,71.899185C-40.520447,71.929901,-40.531231,71.965706,-40.52602,71.980255C-40.519543,71.992752,-40.525425,72.034424,-40.537472,72.072273C-40.550785,72.112175,-40.548756,72.150238,-40.53231,72.160416C-40.513813,72.171852,-40.517471,72.200737,-40.547874,72.249893C-40.570679,72.286751,-40.583679,72.335342,-40.572304,72.353706C-40.562984,72.370796,-40.583614,72.468468,-40.617531,72.569237C-40.652237,72.666695,-40.675713,72.759773,-40.669235,72.772278C-40.662758,72.784775,-40.673538,72.82058,-40.692543,72.851303C-40.712811,72.884071,-40.721226,72.929832,-40.71365,72.954338C-40.706074,72.978844,-40.708153,73.014366,-40.720821,73.034851C-40.73349,73.055328,-40.735569,73.090851,-40.727997,73.115356C-40.720421,73.139862,-40.731369,73.18972,-40.755436,73.22863C-40.778236,73.265495,-40.791553,73.305397,-40.786343,73.319946C-40.779865,73.332443,-40.784958,73.377434,-40.798271,73.417336C-40.814907,73.458008,-40.827126,73.509918,-40.830303,73.533432C-40.832214,73.554901,-40.840797,73.614723,-40.848423,73.663803C-40.856049,73.712883,-40.867023,73.799538,-40.87513,73.853989C-40.883232,73.90844,-40.896713,73.962395,-40.904312,73.974678C-40.911915,73.986969,-40.91605,74.021217,-40.911797,74.046501C-40.908813,74.073837,-40.921051,74.162537,-40.942303,74.242828C-40.961494,74.324402,-40.976105,74.403145,-40.974213,74.418465C-40.973595,74.435837,-40.978043,74.461403,-40.988174,74.477791C-40.998306,74.494171,-41.011791,74.548126,-41.018631,74.600525C-41.051521,74.823692,-41.057716,74.856674,-41.083385,74.925743C-41.097969,74.96769,-41.103058,75.01268,-41.096581,75.025177C-41.091373,75.039726,-41.098351,75.069389,-41.112289,75.091911C-41.140156,75.136971,-41.172188,75.253067,-41.196163,75.388313C-41.202045,75.429977,-41.218872,75.5215,-41.235847,75.590286C-41.249496,75.658295,-41.259033,75.728851,-41.260468,75.744949C-41.258583,75.760277,-41.273975,75.835701,-41.291428,75.909851C-41.308876,75.984001,-41.316528,76.069878,-41.310219,76.096436C-41.301853,76.12426,-41.32074,76.214516,-41.349899,76.298416C-41.381119,76.381042,-41.403633,76.463387,-41.400169,76.485344C-41.398758,76.506042,-41.408131,76.562538,-41.422401,76.613174C-41.438728,76.662537,-41.464565,76.745659,-41.482159,76.797066C-41.496429,76.847702,-41.509121,76.904976,-41.508499,76.922348C-41.504559,76.93895,-41.521385,77.030472,-41.543594,77.121506C-41.563744,77.213806,-41.576775,77.299187,-41.572353,77.310417C-41.565876,77.322922,-41.574123,77.35463,-41.590591,77.381248C-41.607059,77.407875,-41.623863,77.462608,-41.627689,77.505547C-41.636467,77.616211,-41.654251,77.718468,-41.690582,77.882874C-41.719151,78.020943,-41.715996,78.034218,-41.647404,78.116287C-41.606155,78.164459,-41.567127,78.22541,-41.559555,78.249916C-41.550709,78.272369,-41.531281,78.309875,-41.514526,78.328735C-41.501095,78.348366,-41.493523,78.372871,-41.501122,78.385162C-41.507454,78.395401,-41.499401,78.414543,-41.482956,78.424713C-41.431572,78.456497,-41.36227,78.652267,-41.338352,78.834122C-41.323704,78.925301,-41.318069,79.008072,-41.323135,79.016266C-41.328201,79.024452,-41.317638,79.076294,-41.300911,79.131943C-41.277397,79.208786,-41.280602,79.269096,-41.314518,79.369873C-41.338615,79.44558,-41.350372,79.528908,-41.338688,79.555962C-41.327003,79.583008,-41.321678,79.657089,-41.326149,79.719452C-41.339058,79.864372,-41.543037,80.230881,-41.646049,80.291748C-41.701118,80.325645,-41.71505,80.348175,-41.754684,80.476563C-41.794006,80.61364,-41.847218,80.943161,-41.849205,81.075012C-41.865005,81.739143,-41.857491,82.08075,-41.821381,82.24749C-41.805298,82.322563,-41.786087,82.447708,-41.778397,82.531754C-41.771492,82.612473,-41.75811,82.705696,-41.745636,82.736069C-41.721642,82.807541,-41.722153,83.093208,-41.747692,83.428528C-41.788055,83.930222,-41.779236,83.989479,-41.629177,84.289001C-41.554302,84.434418,-41.479427,84.579842,-41.459518,84.611977C-41.439613,84.644112,-41.408665,84.722717,-41.390358,84.785004C-41.352482,84.907539,-41.095116,85.3414,-40.983215,85.472908C-40.945602,85.513168,-40.845413,85.654419,-40.75835,85.784729C-40.671288,85.915031,-40.588165,86.02874,-40.571724,86.03891C-40.555279,86.049088,-40.537907,86.085312,-40.531288,86.12056C-40.524666,86.1558,-40.507294,86.192032,-40.492905,86.200928C-40.466187,86.217453,-40.429718,86.319298,-40.381924,86.513092C-40.341228,86.67701,-40.339676,86.720444,-40.36573,86.891205C-40.377972,86.979904,-40.386749,87.090576,-40.385674,87.139374C-40.377838,87.246155,-40.422279,87.465012,-40.478519,87.597282C-40.516068,87.690147,-40.616013,88.118187,-40.622566,88.216064C-40.625771,88.276382,-40.271145,88.507065,-40.147152,88.52713L-40.054153,88.542183L-39.932541,88.345581C-39.785595,88.108017,-39.727997,88.070023,-39.538036,88.079926C-38.986824,88.112251,-37.940636,88.759384,-37.441547,89.37674C-37.404408,89.422371,-37.339279,89.482475,-37.29406,89.510445C-37.242676,89.542229,-37.216125,89.572815,-37.22263,89.597107C-37.224541,89.618576,-37.216965,89.643082,-37.200523,89.653252C-37.186134,89.662155,-37.17366,89.69252,-37.174782,89.717308C-37.177174,89.744148,-37.16143,89.847328,-37.140305,89.951004C-37.090172,90.191551,-37.081043,90.259491,-37.096245,90.284065C-37.102577,90.294304,-37.120361,90.396561,-37.132462,90.508003C-37.167629,90.817543,-37.321968,91.223259,-37.421967,91.274658z"/>
    <path transform="matrix(-1.333335,0,0,1.334059,-179.951736,16.793289)" style="stroke:#000000;stroke-width:0.05mm;fill:none" d="M-40.668976,90.160942C-40.694263,90.128311,-40.729061,90.12944,-40.727821,90.164185C-40.728634,90.197662,-40.671875,90.229942,-40.657936,90.207413C-40.651604,90.197174,-40.656334,90.177261,-40.668976,90.160942z"/>
    <path transform="matrix(-1.333335,0,0,1.334059,-179.951736,16.793289)" style="stroke:#000000;stroke-width:0.05mm;fill:none" d="M-43.139385,84.286987C-43.139385,84.286987,-41.814877,85.69986,-41.730743,85.988251"/>
    <path transform="matrix(-1.333335,0,0,1.334059,-179.951736,16.793289)" style="stroke:#000000;stroke-width:0.05mm;fill:none" d="M-40.622402,88.216064C-40.622402,88.216064,-41.402924,87.147125,-42.124706,90.666107"/>
    <path transform="matrix(-1.333335,0,0,1.334059,-179.951736,16.793289)" style="stroke:#000000;stroke-width:0.05mm;fill:none" d="M-57.855354,30.681656C-57.855354,30.681656,-58.706535,30.626495,-58.820969,30.80011"/>
    <path transform="matrix(-1.333335,0,0,1.334059,-179.951736,16.793289)" style="stroke:#000000;stroke-width:0.05mm;fill:none" d="M-42.60651,84.805573C-42.60651,84.805573,-41.849274,85.210388,-41.438377,84.707672"/>
    <path transform="matrix(-1.333335,0,0,1.334059,-179.951736,16.793289)" style="stroke:#000000;stroke-width:0.05mm;fill:none" d="M-46.028633,88.628784C-46.028633,88.628784,-46.801479,87.26355,-46.275223,87.15509"/>
    <path transform="matrix(-1.333335,0,0,1.334059,-179.951736,16.793289)" style="stroke:#000000;stroke-width:0.05mm;fill:none" d="M-40.599651,90.348602C-40.599651,90.348602,-41.007637,89.134155,-40.110168,88.679077"/>
    <path transform="matrix(-1.333335,0,0,1.334059,-179.951736,16.793289)" style="stroke:#000000;stroke-width:0.05mm;fill:none" d="M-40.255692,90.920105C-40.255692,90.920105,-40.169174,91.377808,-40.676376,91.12912C-41.183849,90.883057,-41.12458,91.258759,-42.028664,90.671387"/>
    <path transform="matrix(-1.333335,0,0,1.334059,-179.951736,16.793289)" style="stroke:#000000;stroke-width:0.05mm;fill:none" d="M-55.556808,81.858124C-55.556808,81.858124,-56.41671,81.135803,-56.005272,80.442596"/>
    <path transform="matrix(-1.333335,0,0,1.334059,-179.951736,16.793289)" style="stroke:#000000;stroke-width:0.05mm;fill:none" d="M-55.954475,77.378723C-55.954475,77.378723,-55.791229,76.182007,-55.098289,76.21933"/>
    <path transform="matrix(-1.333335,0,0,1.334059,-179.951736,16.793289)" style="stroke:#000000;stroke-width:0.05mm;fill:none" d="M-41.583366,78.155548C-41.583366,78.155548,-41.630993,77.923767,-41.945583,77.957642"/>
    <path transform="matrix(-1.333335,0,0,1.334059,-179.951736,16.793289)" style="stroke:#000000;stroke-width:0.05mm;fill:none" d="M-38.322643,62.767639C-38.322643,62.767639,-40.868465,60.782471,-39.859344,59.62677"/>
    <path transform="matrix(-1.333335,0,0,1.334059,-179.951736,16.793289)" style="stroke:#000000;stroke-width:0.05mm;fill:none" d="M-38.639877,63.148895C-38.639877,63.148895,-41.09045,61.361633,-40.393803,59.618835"/>
    <path transform="matrix(-1.333335,0,0,1.334059,-179.951736,16.793289)" style="stroke:#000000;stroke-width:0.05mm;fill:none" d="M-48.43634,85.776611C-48.43634,85.776611,-47.946335,82.445496,-46.149284,81.590881"/>
    <path transform="matrix(-1.333335,0,0,1.334059,-179.951736,16.793289)" style="stroke:#000000;stroke-width:0.05mm;fill:none" d="M-39.601902,64.281845C-39.601902,64.281845,-38.924042,63.335175,-38.658134,63.208435"/>
</svg>
