<?xml version="1.0" encoding="UTF-8"?>
<svg xmlns="http://www.w3.org/2000/svg" xmlns:xlink="http://www.w3.org/1999/xlink" width="160.000mm" height="160.000mm" viewBox="-179.028397 19.424736 160.000000 160.000000">
    <path transform="matrix(-1.333335,0,0,1.334059,-179.536194,18.915283)" style="stroke:#ff0000;stroke-width:0.05mm;fill:none" d="M-65.255814,60.381821C-65.255814,57.706955,-63.055164,55.506729,-60.380791,55.506729C-57.706417,55.506729,-55.505764,57.706955,-55.505764,60.381821C-55.505764,63.055969,-57.706417,65.256226,-60.380791,65.256226C-63.055164,65.256226,-65.255814,63.055969,-65.255814,60.381821z"/>
    <path transform="matrix(-1.333335,0,0,1.334059,-179.536194,18.915283)" style="stroke:#ff0000;stroke-width:0.05mm;fill:none" d="M-33.907635,114.225586C-32.62516,113.594849,-31.716852,112.389374,-31.464066,110.983002C-31.240263,109.73761,-30.145956,108.822662,-28.880491,108.822662C-28.628405,108.822662,-28.37772,108.858368,-28.136066,108.929749C-26.765591,109.335083,-25.280941,109.06485,-24.141972,108.201721C-21.629517,106.297607,-19.27108,104.198181,-17.088482,101.923737C-16.098972,100.892578,-15.657669,99.449799,-15.901215,98.04129C-15.926765,97.893585,-15.939644,97.743774,-15.939644,97.593964C-15.939644,96.214905,-14.852619,95.058441,-13.476055,94.973724C-12.049648,94.88623,-10.74715,94.123871,-9.972061,92.923294C-3.711723,83.225601,-0.380848,71.924118,-0.380848,60.381821C-0.380848,32.856155,-19.321762,8.692093,-46.05022,2.117981C-47.437984,1.777069,-48.908493,2.115875,-50.006233,3.030838C-50.477921,3.424271,-51.072884,3.639877,-51.686962,3.639877C-52.566425,3.639877,-53.389538,3.198151,-53.875298,2.464508C-54.664593,1.273041,-55.975983,0.526779,-57.40337,0.455383C-58.39505,0.406372,-59.387852,0.381882,-60.380791,0.381882C-93.295807,0.381882,-120.380737,27.466522,-120.380737,60.381821C-120.380737,66.039566,-119.580444,71.668594,-118.003662,77.102341C-117.605408,78.475113,-116.57621,79.579086,-115.234924,80.071915C-114.204536,80.450623,-113.515839,81.437698,-113.515839,82.536057C-113.515839,82.942093,-113.610062,83.342514,-113.791092,83.705826C-114.4282,84.985504,-114.419243,86.494095,-113.766937,87.766068C-98.920013,116.710052,-63.099964,128.57785,-33.907635,114.225586z"/>
    <path transform="matrix(-1.333335,0,0,1.334059,-179.536194,18.915283)" style="stroke:#ff0000;stroke-width:0.05mm;fill:none" d="M-71.691742,65.287048L-72.866516,63.662514C-73.390381,62.585129,-76.094421,59.355362,-75.570557,55.763115C-75.438263,54.853745,-75.906586,53.12178,-76.700317,52.662201L-106.473877,35.483345C-106.815155,35.285702,-107.204132,35.181458,-107.598358,35.181458C-108.458252,35.181458,-109.246704,35.674641,-109.622437,36.448013C-113.247192,43.905296,-115.131042,52.089638,-115.131042,60.381416C-115.131042,88.937088,-92.789642,112.941925,-64.307251,114.990326C-64.254333,114.994034,-64.201416,114.996155,-64.148529,114.996155C-62.912903,114.996155,-61.896912,113.980667,-61.896912,112.746658L-61.891602,97.169586L-62.312286,96.958984L-62.695923,97.226738C-62.907593,97.373055,-63.18808,97.563553,-63.320374,97.649277L-63.558472,97.808029L-63.510864,97.845863C-63.434113,97.91201,-62.841461,98.467896,-62.822968,98.494354C-62.791199,98.535362,-62.859955,98.570557,-62.907593,98.539604C-62.931396,98.523193,-64.569183,98.276077,-66.545624,97.988998C-68.828979,97.657745,-70.165131,97.451897,-70.215393,97.422531C-70.292145,97.376755,-70.670471,97.12355,-72.178619,96.119987C-72.88504,95.649025,-73.104645,95.501396,-74.234436,94.748657C-74.850891,94.338287,-75.988617,93.580788,-76.377533,93.326256C-76.560089,93.206398,-76.740021,93.099243,-76.784973,93.087334C-76.835266,93.074104,-77.594635,92.506042,-78.899017,91.509361C-80.909851,89.972397,-80.933655,89.952286,-80.981293,89.992241C-81.010406,90.015526,-81.203552,90.173477,-81.415192,90.341492C-81.415192,90.341492,-83.685333,87.555695,-83.550385,87.442986C-83.418091,87.330276,-83.277863,87.206177,-83.240814,87.166229L-83.169373,87.094788L-83.555695,85.932213C-85.11145,81.268929,-85.135254,81.200142,-85.11145,81.083725C-84.89447,79.978294,-83.680023,73.378799,-83.690613,73.36451C-83.698547,73.354454,-83.687988,73.332497,-83.664154,73.315826C-83.637695,73.296249,-83.613892,73.299957,-83.595367,73.322441C-83.582153,73.342812,-83.410156,73.390442,-83.214355,73.426956L-82.862488,73.494423L-82.023743,74.673935L-81.592468,74.349815C-81.351685,74.171227,-81.010406,73.90638,-80.83313,73.760323L-80.50769,73.49839L-80.544739,72.633209C-80.565887,72.159599,-80.589691,71.750816,-80.600281,71.727272C-80.624084,71.665359,-80.587036,71.612701,-80.544739,71.646576C-80.359497,71.792358,-79.359406,72.511238,-79.335571,72.516525C-79.301178,72.523399,-78.790527,72.120178,-77.195099,70.823982C-76.800873,70.503311,-76.192322,70.014626,-75.845734,69.736015C-75.499115,69.457153,-75.067841,69.105782,-74.885284,68.953377C-74.705353,68.800194,-74.221191,68.409393,-73.811066,68.087402C-73.403625,67.76329,-73.006744,67.448433,-72.932678,67.38308C-72.858582,67.321426,-72.599274,67.110031,-72.350586,66.916092C-71.673248,66.380051,-71.74469,66.50016,-71.715576,65.846909L-71.691742,65.287048z"/>
    <path transform="matrix(-1.333335,0,0,1.334059,-179.536194,18.915283)" style="stroke:#ff0000;stroke-width:0.05mm;fill:none" d="M-11.123383,36.478176C-11.50174,35.704006,-12.287567,35.210564,-13.150116,35.210564C-13.544342,35.210564,-13.930634,35.314278,-14.274597,35.511654L-43.786163,52.45874C-43.921112,52.535995,-44.048096,52.683105,-44.16983,52.878624C-44.161896,52.948212,-44.138092,52.976532,-44.042816,53.09639C-43.812622,53.376579,-43.23056,53.825569,-42.603485,54.206573C-42.375946,54.345474,-41.664215,54.678589,-41.439331,54.751617C-40.698517,54.99556,-40.105804,55.09848,-39.420563,55.100334C-38.22464,55.103516,-36.848816,54.71537,-35.470337,53.984055L-35.19516,53.836426L-34.935883,53.569984C-34.636902,53.263336,-34.427856,53.091621,-34.189728,52.956947C-34.001892,52.852432,-33.737305,52.746872,-33.536224,52.700035L-33.406586,52.670135L-33.462128,52.632042C-33.491241,52.611931,-33.52829,52.565361,-33.541534,52.531235C-33.554779,52.49472,-33.578583,52.460587,-33.591766,52.454498C-33.634125,52.433861,-33.644714,52.35952,-33.612976,52.301575C-33.597076,52.271416,-33.586517,52.224579,-33.591766,52.19574C-33.602356,52.135681,-33.565338,52.045723,-33.517731,52.008949C-33.485962,51.985657,-33.485962,51.983284,-33.530914,51.974815C-33.581207,51.96476,-33.594421,51.91687,-33.565338,51.853371C-33.554779,51.834053,-33.560028,51.81395,-33.573273,51.807861C-33.644714,51.774261,-33.644714,51.530052,-33.575928,51.497772C-33.557373,51.488251,-33.52829,51.491692,-33.507111,51.507294C-33.480682,51.525818,-33.470093,51.524765,-33.456879,51.495384C-33.446289,51.475815,-33.422485,51.455177,-33.406586,51.449883C-33.348389,51.434807,-33.348389,51.400932,-33.409241,51.344841C-33.464783,51.295364,-33.467438,51.285843,-33.448914,51.217049C-33.438324,51.176567,-33.430389,51.120209,-33.435669,51.090576C-33.440979,51.056183,-33.433044,51.022316,-33.41452,50.99929C-33.382782,50.962257,-33.274292,50.946648,-33.253143,50.975746C-33.234589,51.006706,-33.229309,50.971252,-33.245178,50.886314C-33.255798,50.81356,-33.253143,50.800598,-33.21875,50.773872C-33.184326,50.748215,-33.179047,50.738419,-33.189636,50.699257C-33.19754,50.676247,-33.194916,50.62941,-33.186981,50.593956C-33.173737,50.54686,-33.157898,50.529663,-33.11554,50.514053C-33.083801,50.502937,-33.054688,50.503731,-33.036163,50.517754C-33.017639,50.531776,-33.004425,50.53231,-32.999115,50.519081C-32.983246,50.48336,-32.940918,50.488647,-32.932953,50.526222C-32.922394,50.583107,-32.914459,50.577286,-32.858917,50.484154C-32.792755,50.375671,-32.737183,50.348419,-32.668396,50.391022C-32.636627,50.411125,-32.610199,50.415092,-32.599579,50.404518C-32.58902,50.395256,-32.562592,50.396309,-32.538727,50.407684C-32.501709,50.425156,-32.496429,50.421974,-32.488495,50.38546C-32.46994,50.265343,-32.451447,50.227776,-32.401154,50.208191C-32.36676,50.194435,-32.348236,50.173798,-32.342957,50.148666C-32.332397,50.099449,-32.27417,50.05526,-32.239746,50.071404C-32.223907,50.079079,-32.202728,50.112152,-32.194794,50.145752L-32.178925,50.208725L-32.173615,50.15554C-32.16571,50.068489,-32.133942,50.019547,-32.06781,49.994675C-32.036041,49.982506,-31.969879,49.95578,-31.922272,49.936203L-31.834961,49.899429L-31.848175,49.83857C-31.86142,49.762634,-31.85083,49.743057,-31.779388,49.695427C-31.74765,49.67453,-31.715881,49.640663,-31.702667,49.617905C-31.678833,49.565788,-31.620636,49.508896,-31.565094,49.485085C-31.538635,49.473709,-31.498962,49.432701,-31.469849,49.382957C-31.430145,49.313637,-31.406342,49.29274,-31.358704,49.27951C-31.32431,49.269981,-31.292572,49.271301,-31.284607,49.28083C-31.279327,49.289558,-31.242279,49.284531,-31.205261,49.266014C-31.154968,49.243782,-31.11792,49.241409,-31.067688,49.257545C-30.998871,49.279243,-30.993591,49.276596,-30.956543,49.227379C-30.91684,49.16362,-30.805756,49.116791,-30.755463,49.139542C-30.736938,49.148804,-30.713104,49.177109,-30.707855,49.200134C-30.694611,49.244049,-30.691956,49.24485,-30.617859,49.232407C-30.527924,49.218918,-30.475006,49.239288,-30.445923,49.29882C-30.424713,49.344856,-30.437958,49.451225,-30.475006,49.535095C-30.48822,49.566048,-30.485565,49.602829,-30.467072,49.644104L-30.437958,49.709457L-30.527924,49.87323C-30.575562,49.963722,-30.61261,50.040184,-30.6073,50.042564C-30.60202,50.044678,-30.564972,50.042831,-30.522614,50.040184C-30.480316,50.03595,-30.432678,50.044418,-30.414154,50.057648C-30.379761,50.080925,-30.374481,50.078285,-30.334778,50.021133C-30.276581,49.931175,-30.236877,49.914772,-30.160156,49.944138C-30.107239,49.965309,-30.091339,49.963188,-30.051666,49.927734C-30.006683,49.887253,-29.98288,49.889107,-29.895569,49.939911C-29.86911,49.953659,-29.855865,49.949959,-29.842651,49.924026C-29.834717,49.906036,-29.800323,49.880371,-29.768555,49.869797C-29.691833,49.840691,-29.617767,49.87561,-29.588623,49.95446C-29.570129,50.00235,-29.55954,50.013992,-29.535736,50.008698C-29.517212,50.00499,-29.477539,50.016106,-29.44577,50.035156C-29.395477,50.064522,-29.384918,50.081192,-29.382294,50.144432C-29.376984,50.201576,-29.369049,50.222221,-29.345245,50.225655C-29.287048,50.232796,-29.226166,50.292595,-29.218231,50.35186C-29.212952,50.392609,-29.223541,50.442612,-29.257904,50.517494C-29.289673,50.589981,-29.302887,50.641579,-29.297607,50.67598C-29.287048,50.742645,-29.308197,50.793716,-29.374329,50.844513C-29.469574,50.918335,-29.649506,51.354637,-29.620422,51.444855C-29.617767,51.458351,-29.593933,51.425545,-29.567474,51.36866C-29.485474,51.191383,-29.390198,51.127884,-29.287048,51.176567C-29.197052,51.219429,-29.183838,51.302513,-29.25,51.418396C-29.257904,51.434006,-29.25528,51.445114,-29.24469,51.444061C-29.2341,51.443802,-29.220886,51.432159,-29.215607,51.420776C-29.210297,51.409401,-29.167969,51.379234,-29.12561,51.35569C-29.054199,51.315475,-29.035675,51.314148,-28.980103,51.34008C-28.93512,51.361244,-28.903381,51.396698,-28.863678,51.464699C-28.816071,51.544868,-28.802826,51.556511,-28.776367,51.544601C-28.694366,51.505447,-28.628235,51.618683,-28.657318,51.739334C-28.681122,51.83326,-28.755219,51.894386,-28.879578,51.92746C-28.94043,51.942535,-28.993317,51.963173,-28.995972,51.971375C-29.009216,51.99572,-28.958954,52.004982,-28.913971,51.986191C-28.850464,51.958672,-28.784332,51.997299,-28.744629,52.085411C-28.715515,52.152351,-28.707581,52.16082,-28.657318,52.163727C-28.580597,52.169815,-28.51178,52.2267,-28.474762,52.31163C-28.445648,52.37619,-28.437714,52.383858,-28.411255,52.371155C-28.395386,52.364281,-28.353058,52.360847,-28.313354,52.364807C-28.181061,52.381477,-28.091125,52.538109,-28.130798,52.690254C-28.154602,52.782593,-28.144012,52.805611,-28.067291,52.827042C-27.940277,52.863022,-27.895325,53.009071,-27.966766,53.158829C-28.006439,53.245079,-27.985291,53.295883,-27.905884,53.305931C-27.855621,53.313606,-27.837097,53.324188,-27.813293,53.360703C-27.78949,53.402504,-27.78418,53.404884,-27.725983,53.390602C-27.588409,53.359642,-27.46936,53.473145,-27.485199,53.621582C-27.493164,53.67952,-27.490509,53.685081,-27.434967,53.699104C-27.318512,53.729797,-27.270905,53.877167,-27.334412,54.012367C-27.352905,54.054703,-27.352905,54.059464,-27.294708,54.077988C-27.112152,54.13858,-27.093628,54.345474,-27.241791,54.664307L-27.313232,54.812469L-27.270905,54.853218C-27.212677,54.91275,-27.207397,55.015404,-27.260315,55.125999C-27.284119,55.176537,-27.321167,55.232887,-27.339661,55.251144C-27.376709,55.278664,-27.374084,55.290573,-27.347626,55.346924C-27.307922,55.437683,-27.318512,55.545631,-27.382019,55.671043C-27.440216,55.788254,-27.442871,55.828468,-27.384674,55.748299C-27.36087,55.715492,-27.329102,55.693794,-27.294708,55.689568C-27.244415,55.681091,-27.239166,55.68586,-27.191528,55.740097C-27.114777,55.828995,-27.098938,55.882446,-27.130676,55.953087L-27.157135,56.013412L-27.072479,55.940392C-26.977203,55.857567,-26.924286,55.851486,-26.895203,55.919754C-26.868744,55.981926,-26.871399,56.171631,-26.897858,56.202858C-26.916351,56.225868,-26.911041,56.236725,-26.855499,56.268471C-26.821106,56.290169,-26.784058,56.317947,-26.770844,56.331444C-26.754944,56.351021,-26.739105,56.342552,-26.696747,56.290955C-26.662354,56.249153,-26.625305,56.221642,-26.590912,56.217407C-26.522125,56.207611,-26.397766,56.267944,-26.360718,56.329063C-26.331635,56.374832,-26.328979,56.375626,-26.297241,56.354721C-26.241669,56.312126,-26.11731,56.278526,-26.067047,56.290955C-25.876556,56.338326,-25.773376,56.54866,-25.836853,56.765617C-25.852722,56.819862,-25.850098,56.835205,-25.818329,56.849495C-25.717804,56.896065,-25.670166,57.085243,-25.731018,57.191338L-25.765411,57.249283L-25.680756,57.300873C-25.540527,57.386604,-25.516724,57.406975,-25.492889,57.471527C-25.466431,57.544029,-25.487579,57.629745,-25.543182,57.696159C-25.582886,57.742989,-25.582886,57.746964,-25.543182,57.787704C-25.426758,57.903862,-25.445282,58.089073,-25.577576,58.126373L-25.643707,58.143303L-25.619873,58.186699C-25.606689,58.21051,-25.596069,58.258667,-25.598724,58.293854C-25.604034,58.430115,-25.686035,58.52298,-25.813049,58.53833C-25.879211,58.545479,-25.889771,58.55394,-25.918854,58.617439L-25.953278,58.688881L-25.879211,58.691788C-25.78656,58.695755,-25.651672,58.760849,-25.601379,58.826195C-25.543182,58.900276,-25.551117,59.03231,-25.614624,59.133644C-25.641083,59.17598,-25.683411,59.224655,-25.707214,59.242912C-25.733673,59.26355,-25.746918,59.285774,-25.744263,59.306412C-25.738953,59.354568,-25.831573,59.537926,-25.881866,59.575233C-25.908295,59.595337,-25.961212,59.619942,-26.000916,59.631317C-26.061737,59.646667,-26.085541,59.643227,-26.135834,59.611481C-26.170227,59.590843,-26.212585,59.55883,-26.231079,59.542419C-26.262848,59.514374,-26.262848,59.515968,-26.260193,59.558563C-26.260193,59.585022,-26.276093,59.632912,-26.299896,59.669426C-26.336914,59.733185,-26.336914,59.73716,-26.297241,59.768372C-26.199341,59.83902,-26.175537,60.040894,-26.249603,60.140915C-26.294586,60.201492,-26.389832,60.230606,-26.469208,60.207581C-26.52478,60.191444,-26.540649,60.195679,-26.553864,60.225052C-26.567108,60.256004,-26.561829,60.269501,-26.516815,60.296486C-26.485077,60.31501,-26.437469,60.329033,-26.408356,60.328232C-26.379272,60.328232,-26.33429,60.337494,-26.307831,60.350464C-26.278717,60.361839,-26.21521,60.387497,-26.164948,60.404694C-26.11731,60.422165,-26.061737,60.44809,-26.043243,60.462639C-25.995605,60.501007,-26.00354,60.585678,-26.067047,60.701294C-26.114685,60.790192,-26.114685,60.799721,-26.082916,60.81031C-25.99295,60.844963,-25.945343,60.880684,-25.921509,60.93148C-25.873901,61.041283,-25.950623,61.227287,-26.077637,61.301102L-26.141144,61.34053L-26.130554,61.417526C-26.119965,61.473618,-26.127899,61.517799,-26.154358,61.573364C-26.180847,61.628662,-26.20993,61.66227,-26.257538,61.690834C-26.33429,61.736351,-26.336914,61.733971,-26.188751,61.795082C-26.119965,61.824715,-26.098785,61.845085,-26.061737,61.910179C-25.987671,62.043259,-26.00885,62.176353,-26.119965,62.287735C-26.164948,62.334045,-26.167603,62.338799,-26.138489,62.375847C-26.096161,62.433517,-26.098785,62.513962,-26.146423,62.616348C-26.196686,62.722183,-26.249603,62.772453,-26.302521,62.765053C-26.336914,62.761078,-26.33429,62.765839,-26.297241,62.813995C-26.217834,62.907661,-26.249603,63.080429,-26.358093,63.176476C-26.381897,63.197906,-26.42688,63.220924,-26.453339,63.226212C-26.498322,63.23468,-26.511566,63.245529,-26.548584,63.338921C-26.580322,63.422531,-26.598877,63.447937,-26.641205,63.468307C-26.675598,63.486031,-26.691467,63.505615,-26.691467,63.533127C-26.696747,63.596626,-26.747009,63.693466,-26.797302,63.733414C-26.858154,63.777611,-26.963989,63.792427,-27.024841,63.764114C-27.067169,63.74427,-27.072479,63.747711,-27.101563,63.808029C-27.138611,63.890846,-27.217987,63.962021,-27.270905,63.964928C-27.329102,63.968903,-27.416412,63.92366,-27.445526,63.875504C-27.46405,63.838196,-27.46936,63.838196,-27.495789,63.871002C-27.514313,63.894028,-27.554016,63.907249,-27.604248,63.909103C-27.67569,63.911751,-27.688934,63.919418,-27.712738,63.969955C-27.725983,64.000648,-27.752441,64.038483,-27.770935,64.050125C-27.810638,64.079231,-27.908539,64.068115,-27.969391,64.023933C-28.009064,63.995888,-28.022308,63.993767,-28.030273,64.013351C-28.038177,64.026314,-28.051422,64.045891,-28.062012,64.05674C-28.075226,64.069969,-28.054077,64.083199,-27.972046,64.118652C-27.87149,64.159668,-27.860931,64.166542,-27.837097,64.232689C-27.794769,64.35466,-27.866211,64.524529,-27.993225,64.58062L-28.056732,64.610512L-28.043488,64.668716C-28.032928,64.711052,-28.038177,64.751541,-28.064667,64.805252C-28.09906,64.881714,-28.09906,64.884087,-28.048767,64.919807C-28.019684,64.940712,-27.987915,64.985687,-27.977325,65.018234C-27.953522,65.090996,-27.97998,65.236252,-28.027618,65.304253L-28.062012,65.351616L-27.945587,65.409027C-27.879425,65.44104,-27.813293,65.484428,-27.797424,65.50322C-27.760376,65.55455,-27.768341,65.656151,-27.818573,65.763306C-27.866211,65.864372,-27.924438,65.918083,-28.009064,65.937927C-28.054077,65.948776,-28.064667,65.956177,-28.051422,65.976028C-28.003784,66.043762,-28.077881,66.24987,-28.170471,66.312576L-28.223419,66.346176L-28.188995,66.420792C-28.144012,66.523453,-28.146667,66.59568,-28.19696,66.704689C-28.273651,66.868202,-28.392731,66.925087,-28.551483,66.872971C-28.633484,66.844391,-28.633484,66.844391,-28.662598,66.906296C-28.702271,66.990967,-28.760529,67.028542,-28.858398,67.034363C-28.932465,67.03701,-28.945709,67.043617,-28.961578,67.091507C-28.982758,67.154739,-29.059479,67.200256,-29.109741,67.182259C-29.128265,67.173798,-29.167969,67.173264,-29.194397,67.178032C-29.247345,67.185699,-29.247345,67.187286,-29.22879,67.226181C-29.215607,67.247612,-29.170593,67.282539,-29.128265,67.302383C-29.019806,67.353447,-28.980103,67.411919,-28.993317,67.500816C-29.011871,67.629135,-29.104462,67.777573,-29.189148,67.81356C-29.220886,67.827316,-29.22879,67.84108,-29.2341,67.890289C-29.242035,67.963577,-29.294952,68.078407,-29.339935,68.122856C-29.403442,68.183975,-29.472229,68.193764,-29.556885,68.153282C-29.633636,68.117561,-29.633636,68.117561,-29.638916,68.166779C-29.644226,68.241646,-29.707703,68.366272,-29.757965,68.393257C-29.784454,68.40834,-29.813568,68.409927,-29.847961,68.394577C-29.895569,68.372627,-29.895569,68.373413,-29.908813,68.429245C-29.924652,68.514969,-29.9776,68.608635,-30.027863,68.638794C-30.093994,68.678215,-30.18924,68.676628,-30.255402,68.634293C-30.300385,68.604927,-30.310974,68.6036,-30.326843,68.630325C-30.358582,68.68351,-30.400909,68.69091,-30.475006,68.655991C-30.512054,68.638268,-30.546448,68.614456,-30.546448,68.60228C-30.551727,68.560478,-30.580811,68.56868,-30.604645,68.617363C-30.617859,68.645142,-30.641693,68.678741,-30.660217,68.691978C-30.689301,68.712875,-30.689301,68.728226,-30.670807,68.791199C-30.636414,68.881943,-30.641693,68.951263,-30.684021,69.043869C-30.747498,69.17881,-30.964478,69.358994,-31.027985,69.32988C-31.041229,69.323799,-31.046478,69.348137,-31.046478,69.402641C-31.043854,69.512711,-31.091492,69.64341,-31.144379,69.67543C-31.168213,69.690514,-31.22113,69.703735,-31.260803,69.704796C-31.32431,69.708237,-31.345459,69.701355,-31.393097,69.660881C-31.443359,69.618813,-31.448669,69.616425,-31.451294,69.645531C-31.451294,69.694473,-31.490997,69.803223,-31.522766,69.84185C-31.554504,69.882065,-31.668274,69.902443,-31.721191,69.878098C-31.739685,69.869904,-31.766174,69.842384,-31.787323,69.819626L-31.819092,69.773857L-31.819092,69.828354C-31.816437,69.859047,-31.824371,69.913025,-31.832336,69.948479C-31.853485,70.031822,-31.922272,70.060928,-32.006927,70.022034C-32.05722,69.997696,-32.065155,69.998749,-32.0625,70.033943C-32.05722,70.139244,-32.186859,70.235817,-32.276794,70.192947C-32.303253,70.180779,-32.324432,70.174171,-32.327087,70.177345C-32.329742,70.182373,-32.327087,70.239258,-32.319153,70.305931C-32.313843,70.371552,-32.313843,70.445633,-32.319153,70.470505C-32.332397,70.537704,-32.411743,70.631371,-32.467285,70.64328C-32.536102,70.661003,-32.610199,70.622643,-32.612823,70.569717C-32.612823,70.539299,-32.623413,70.526596,-32.652527,70.522621C-32.845673,70.49617,-32.919769,70.43531,-32.911804,70.313866C-32.911804,70.268623,-32.901215,70.219414,-32.893311,70.201691C-32.885376,70.18528,-32.882721,70.162796,-32.890656,70.153267C-32.895935,70.144539,-32.909149,70.148766,-32.917114,70.165176C-32.925049,70.181313,-32.956818,70.212006,-32.988556,70.231323C-33.067902,70.284767,-33.147308,70.247459,-33.176392,70.145325C-33.194916,70.072571,-33.192291,70.067802,-33.112885,69.913025L-33.028229,69.754005L-33.128754,69.835503C-33.186981,69.880219,-33.253143,69.95192,-33.282227,70.000076C-33.398651,70.189514,-33.549469,70.291374,-33.644714,70.246407C-33.681763,70.228935,-33.700256,70.20063,-33.721466,70.131836L-33.74527,70.040817L-33.774353,70.140564C-33.816711,70.289528,-33.896057,70.420227,-33.959564,70.4459C-34.023041,70.469978,-34.105072,70.453568,-34.150085,70.406471C-34.176514,70.378159,-34.195038,70.376312,-34.242676,70.393509C-34.329987,70.423935,-34.419922,70.377373,-34.459625,70.284233C-34.483429,70.220467,-34.491364,70.213333,-34.509918,70.234756C-34.602509,70.337685,-34.660706,70.344032,-34.718903,70.256981C-34.758606,70.203537,-34.758606,70.202744,-34.774475,70.233437C-34.800934,70.288994,-34.877686,70.30381,-34.951752,70.269417C-35.004669,70.244278,-35.023193,70.223907,-35.041718,70.168083C-35.073456,70.069923,-35.068176,69.974144,-35.028473,69.88974L-34.99408,69.816452L-35.054932,69.816452C-35.10257,69.818306,-35.121063,69.811691,-35.139618,69.783905C-35.176666,69.734962,-35.168701,69.588646,-35.123718,69.491806C-35.09726,69.43148,-35.09198,69.411377,-35.113129,69.418259C-35.192505,69.447624,-35.229553,69.349731,-35.20047,69.170609C-35.18457,69.072968,-35.18988,69.04731,-35.213684,69.035141C-35.232208,69.026672,-35.258667,69.00074,-35.271912,68.978783C-35.29306,68.940681,-35.295715,68.939095,-35.311554,68.974014C-35.361847,69.104729,-35.446503,69.152878,-35.562927,69.120331C-35.623779,69.103401,-35.634369,69.106041,-35.668793,69.152084C-35.695221,69.188866,-35.703186,69.226959,-35.700531,69.307129C-35.700531,69.375389,-35.71109,69.437569,-35.734924,69.489693C-35.761383,69.544991,-35.766663,69.587852,-35.758728,69.645531C-35.719025,69.887894,-35.872498,70.095322,-36.055054,70.042145C-36.113251,70.026794,-36.123871,70.029442,-36.158264,70.073624C-36.203217,70.140831,-36.293182,70.178398,-36.348755,70.156441C-36.393738,70.140038,-36.396393,70.142418,-36.417542,70.212006C-36.436035,70.276039,-36.446655,70.28688,-36.512787,70.310165C-36.555115,70.327362,-36.602722,70.329216,-36.626556,70.317841C-36.676819,70.294296,-36.674164,70.291908,-36.676819,70.379486C-36.684784,70.529243,-36.756226,70.583214,-36.920258,70.565758C-37.057831,70.550674,-37.118683,70.502518,-37.118683,70.410965C-37.118683,70.351433,-37.123993,70.345093,-37.179535,70.330536C-37.28009,70.307251,-37.330353,70.273911,-37.364746,70.212265L-37.396484,70.15432L-37.422974,70.212799C-37.441467,70.251961,-37.441467,70.273651,-37.428223,70.280533C-37.391205,70.297203,-37.375336,70.396416,-37.396484,70.471825C-37.417664,70.550407,-37.49704,70.631104,-37.555267,70.633484C-37.621399,70.637459,-37.735168,70.596176,-37.764252,70.559135C-37.79071,70.522888,-37.79071,70.524475,-37.8172,70.607292C-37.848938,70.70916,-37.930939,70.77874,-38.005035,70.771065C-38.065887,70.764717,-38.158478,70.685867,-38.184967,70.615761C-38.208771,70.557022,-38.21936,70.554634,-38.240509,70.603584C-38.272278,70.668671,-38.354279,70.73349,-38.415161,70.742233C-38.465424,70.749901,-38.473358,70.746193,-38.513062,70.698044C-38.571259,70.629517,-38.571259,70.537971,-38.518311,70.400124C-38.481293,70.30249,-38.478668,70.279999,-38.502441,70.240585C-38.531555,70.195335,-38.53421,70.194542,-38.584473,70.22258C-38.613586,70.238464,-38.658539,70.251694,-38.682373,70.24984C-38.724701,70.24614,-38.732635,70.25592,-38.774994,70.345619C-38.83847,70.482147,-38.904633,70.534531,-38.994568,70.518394C-39.084534,70.501984,-39.15863,70.447746,-39.187714,70.374458L-39.211548,70.31572L-39.2565,70.356201C-39.322662,70.416527,-39.446991,70.445366,-39.510498,70.415733C-39.571381,70.386887,-39.621643,70.301964,-39.616333,70.231056C-39.613678,70.173111,-39.555481,70.041611,-39.515808,69.998749L-39.486694,69.966736L-39.552856,69.979439C-39.605774,69.989754,-39.632233,69.985519,-39.682495,69.951653C-39.78302,69.886566,-39.79361,69.832329,-39.730133,69.697121C-39.68515,69.596321,-39.67984,69.581764,-39.708954,69.560867C-39.753937,69.5233,-39.745972,69.413757,-39.693085,69.29998C-39.669281,69.24469,-39.650726,69.199181,-39.656036,69.1968C-39.658691,69.195473,-39.708954,69.190186,-39.761871,69.188332C-39.849182,69.181717,-39.870361,69.174309,-39.9021,69.138855C-39.949707,69.086998,-39.949707,68.996246,-39.899475,68.893585C-39.870361,68.83194,-39.870361,68.818184,-39.89682,68.806015C-39.941772,68.785378,-39.960327,68.686943,-39.936523,68.606773C-39.920624,68.550949,-39.923279,68.53746,-39.968262,68.507034C-40.044952,68.450409,-40.058197,68.3713,-40.010559,68.246948C-39.976166,68.157784,-39.955017,68.131584,-39.904755,68.095596C-39.867706,68.071266,-39.841217,68.03846,-39.838623,68.018341C-39.833313,67.97892,-39.851837,67.962517,-39.878265,67.980774C-39.888855,67.986595,-39.910034,67.985535,-39.928558,67.977333C-39.970917,67.957497,-39.965607,67.887375,-39.907379,67.763809C-39.854462,67.652962,-39.870361,67.650307,-39.970917,67.750053C-40.050262,67.829956,-40.100555,67.857216,-40.142853,67.838165C-40.166687,67.826515,-40.161407,67.801651,-40.105804,67.660362C-40.071442,67.571732,-40.037048,67.485741,-40.034393,67.471977C-40.029114,67.458221,-40.071442,67.489708,-40.127014,67.541039C-40.216949,67.624641,-40.238098,67.634705,-40.301636,67.629936C-40.391571,67.624115,-40.391571,67.63549,-40.267242,67.452141C-40.145508,67.276192,-40.137604,67.252647,-40.219604,67.331223C-40.30954,67.41642,-40.341309,67.430702,-40.388947,67.400543C-40.452423,67.361382,-40.40744,67.233063,-40.267242,67.048645C-40.20636,66.970062,-40.156097,66.900475,-40.153442,66.892281C-40.150818,66.885658,-40.198456,66.900742,-40.261932,66.926414C-40.404785,66.982239,-40.478882,66.974564,-40.476227,66.899689C-40.476227,66.857887,-40.449799,66.808937,-40.338654,66.650185C-40.264587,66.540649,-40.190491,66.43428,-40.174622,66.413643C-40.150818,66.383484,-40.150818,66.381104,-40.179901,66.396187C-40.227539,66.427139,-40.272491,66.395386,-40.275146,66.327126C-40.277802,66.250137,-40.253998,66.200394,-40.171967,66.121811L-40.105804,66.055931L-40.182556,66.029739C-40.243408,66.008835,-40.261932,65.99482,-40.267242,65.963593C-40.283081,65.885277,-40.190491,65.750069,-40.071442,65.680489C-40.007904,65.642647,-40.007904,65.639473,-40.037048,65.625717C-40.079376,65.60508,-40.089966,65.48893,-40.055573,65.414055C-40.031769,65.363518,-40.013214,65.351082,-39.939148,65.329918C-39.851837,65.306633,-39.851837,65.30584,-39.851837,65.247101C-39.854462,65.204765,-39.835968,65.153702,-39.78833,65.059769C-39.706329,64.904991,-39.603119,64.810806,-39.492004,64.79599L-39.417908,64.784348L-39.462891,64.741219C-39.505249,64.697296,-39.505249,64.695709,-39.460236,64.623215C-39.436432,64.581413,-39.396759,64.534576,-39.372955,64.517914C-39.341187,64.491455,-39.327942,64.46949,-39.320007,64.421066C-39.309448,64.337196,-39.330597,64.331108,-39.36499,64.405991C-39.428497,64.542786,-39.574036,64.653381,-39.624298,64.602318C-39.653381,64.570824,-39.648102,64.427689,-39.618988,64.325554C-39.603119,64.280312,-39.597839,64.23983,-39.600494,64.232689C-39.605774,64.226601,-39.656036,64.273705,-39.716888,64.334549C-39.89151,64.516853,-39.973511,64.538017,-39.99472,64.407578C-40,64.350693,-39.98941,64.331909,-39.80423,64.057266C-39.775085,64.012291,-39.775085,64.012291,-39.833313,64.05542C-39.920624,64.118126,-40.029114,64.144051,-40.068787,64.110451C-40.150818,64.037949,-40.127014,63.944824,-39.968262,63.742943C-39.833313,63.573349,-39.830658,63.565147,-39.915314,63.586578C-39.99472,63.607742,-40.021149,63.601395,-40.037048,63.558266C-40.058197,63.498466,-39.997345,63.417503,-39.796265,63.229919C-39.772461,63.209282,-39.775085,63.206902,-39.814789,63.207687C-39.883575,63.211128,-39.941772,63.16774,-39.944427,63.109001C-39.947083,63.058464,-39.910034,62.985977,-39.775085,62.765572C-39.724823,62.683823,-39.724823,62.676674,-39.753937,62.662125C-39.790985,62.645454,-39.899475,62.456017,-39.933868,62.34198C-39.952362,62.29171,-39.952362,62.250702,-39.933868,62.211807C-39.920624,62.180054,-39.910034,62.153328,-39.912659,62.151741C-39.915314,62.150948,-39.955017,62.155975,-40,62.162857C-40.09259,62.174759,-40.174622,62.148041,-40.198456,62.094856C-40.227539,62.035858,-40.219604,61.869431,-40.179901,61.73661L-40.145508,61.613579L-40.227539,61.499809C-40.415375,61.248192,-40.579437,60.855286,-40.637634,60.532227C-40.653534,60.449677,-40.669373,60.239601,-40.674683,60.066032L-40.685272,59.749596L-40.83606,59.455376C-41.023956,59.083107,-41.66687,58.561874,-41.777985,58.377464C-42.129883,57.794052,-42.553223,57.3993,-43.061218,57.074127C-43.622131,56.716148,-43.905243,56.687042,-44.725464,56.68969C-44.953003,56.690216,-45.32077,56.721169,-45.389557,56.72303C-45.455719,57.029938,-45.561554,58.049118,-45.595917,58.229568C-46.971771,65.285995,-51.874512,71.510841,-55.247925,72.854134C-56.099884,73.194389,-58.621368,75.297821,-58.621368,76.216713L-58.896515,112.747711C-58.896515,112.747986,-58.896515,112.747986,-58.896515,112.748245C-58.896515,113.982529,-57.880524,114.99826,-56.647552,114.99826C-56.594666,114.99826,-56.541748,114.996399,-56.486176,114.992706C-27.99057,112.960709,-5.630646,88.949524,-5.630646,60.381416C-5.630646,52.101021,-7.509186,43.927521,-11.123383,36.478176z"/>
    <path transform="matrix(-1.333335,0,0,1.334059,-179.536194,18.915283)" style="stroke:#ff0000;stroke-width:0.05mm;fill:none" d="M-37.250977,56.944221C-37.219238,56.907967,-37.19278,56.877541,-37.198059,56.875954C-37.198059,56.875427,-37.449432,56.82383,-37.751038,56.763237C-38.417816,56.629097,-39.240662,56.456589,-39.79892,56.331711C-40.193146,56.244392,-41.203827,56.011559,-41.217072,56.005478C-41.219727,56.003883,-41.230286,56.0187,-41.240875,56.039871C-41.280579,56.127716,-41.15094,56.325356,-40.611176,57.003487C-40.171967,57.55011,-40.127014,57.625252,-40.044952,57.931107C-40.021149,58.0261,-39.99472,58.105736,-39.98941,58.108116C-39.970917,58.116585,-39.349121,58.080597,-38.936371,58.049118C-38.732635,58.034302,-38.476013,58.022926,-38.370178,58.023445L-38.171722,58.026367L-38.113525,57.925026C-38.073822,57.856499,-38.026184,57.799873,-37.960052,57.750931C-37.870087,57.680283,-37.864807,57.672882,-37.856842,57.604355C-37.846283,57.504333,-37.758972,57.322838,-37.674316,57.222565C-37.592285,57.127304,-37.454712,57.061165,-37.417664,57.097939L-37.330353,57.175194L-37.319763,57.092911C-37.311829,57.02121,-37.303894,57.000839,-37.250977,56.944221z"/>
    <path transform="matrix(-1.333335,0,0,1.334059,-179.536194,18.915283)" style="stroke:#ff0000;stroke-width:0.05mm;fill:none" d="M-65.770386,46.91069C-59.31192,44.704334,-53.718628,46.431534,-48.596313,50.248413C-47.860748,50.797417,-44.463531,48.876808,-43.667114,48.417496L-15.772095,32.912922C-15.076263,32.511547,-14.647644,31.767277,-14.647644,30.964001C-14.647644,30.51474,-14.782562,30.075531,-15.033936,29.703262C-25.207153,14.664091,-42.222473,5.631485,-60.380829,5.631485C-78.52597,5.631485,-95.533386,14.652449,-105.709229,29.675747C-105.963226,30.048012,-106.098145,30.487751,-106.098145,30.937542C-106.098145,31.740025,-105.666901,32.484299,-104.973694,32.88567L-75.898621,49.323158C-75.739899,49.414177,-75.536163,49.531654,-75.303314,49.656799C-75.282166,49.482971,-75.208069,49.309143,-75.07843,49.142982L-75.020233,49.06916L-75.234528,48.860939C-75.353607,48.746109,-75.49646,48.590263,-75.557343,48.513275C-75.930389,48.029617,-76.147369,47.504944,-76.23465,46.857513C-76.258453,46.680241,-76.258453,46.214577,-76.232025,45.981743C-76.155273,45.224503,-75.829834,44.170139,-75.414459,43.324265C-75.284821,43.065243,-75.07843,42.684772,-74.98053,42.537132C-74.959381,42.506176,-74.97525,42.483162,-75.19223,42.250324C-75.475311,41.942085,-75.845734,41.516106,-75.848389,41.518486C-75.985962,41.60183,-76.163208,41.558704,-76.237305,41.619293C-76.721497,42.022518,-77.057495,41.820641,-77.401489,41.891289C-77.59198,41.930706,-77.703094,41.930706,-77.864502,41.889698C-78.121124,41.824081,-78.375122,41.648663,-78.573578,41.394398C-78.687347,41.250202,-79.100098,40.668121,-79.287964,40.38607C-79.36731,40.273094,-80.573822,39.320599,-80.608215,39.306042C-80.677032,39.277996,-79.37262,37.854275,-79.37262,37.854275L-78.137024,39.040138C-78.041748,39.169521,-77.851257,39.428543,-77.716309,39.618782C-77.361786,40.109055,-77.171295,40.292675,-76.882874,40.407505C-76.800873,40.440311,-76.597137,40.484497,-76.583923,40.473122C-76.581268,40.469681,-76.650085,40.356705,-76.737366,40.220444C-77.007263,39.791027,-77.269196,39.325356,-77.544342,38.774494C-77.832764,38.199028,-77.845947,38.177597,-78.142303,37.777546C-78.637054,37.108681,-79.086884,36.364407,-79.340851,35.798729C-79.743042,34.898621,-79.743042,34.260971,-79.340851,33.996918C-79.073639,33.821503,-78.777313,33.901669,-78.346039,34.269173C-78.007355,34.555981,-77.576111,35.083828,-77.203033,35.662735L-77.086609,35.839741L-77.046936,35.811958C-76.795563,35.646328,-76.385498,35.441277,-76.149994,35.364285C-75.964783,35.303692,-75.731934,35.280678,-75.628754,35.315071C-75.544098,35.342854,-75.454163,35.423283,-75.417114,35.506893C-75.369476,35.613522,-75.374756,35.803757,-75.427673,35.960918C-75.552032,36.328423,-75.903931,36.846481,-76.329895,37.285686L-76.43573,37.395752L-76.359009,37.528309C-76.306091,37.615356,-76.284943,37.671185,-76.290222,37.692348C-76.308746,37.749763,-75.853668,38.60384,-75.538818,39.102318C-75.361511,39.382774,-75.120789,39.741814,-75.107544,39.741814C-75.099579,39.741814,-75.046692,39.702389,-74.988495,39.655029C-74.692139,39.415581,-74.432861,39.251541,-74.234436,39.184338C-73.998932,39.102318,-73.739655,39.072945,-73.52533,39.100727C-73.374542,39.120308,-73.125793,39.189362,-73.086121,39.223759C-73.064972,39.238575,-73.064972,39.235138,-73.072906,39.208942C-73.189301,38.913933,-73.236938,38.659668,-73.244843,38.307243C-73.255463,37.96302,-73.221039,37.71537,-73.123169,37.408718C-73.0914,37.310291,-73.067596,37.225098,-73.067596,37.218483C-73.067596,37.212132,-73.154907,37.166096,-73.263397,37.118473C-73.369232,37.06926,-73.459198,37.028248,-73.464478,37.02507C-73.477692,37.016872,-73.408936,36.882462,-73.295135,36.693813C-73.173431,36.492203,-73.067596,36.339802,-72.914124,36.156181C-72.861237,36.092152,-72.818878,36.034737,-72.818878,36.029972C-72.818878,36.024948,-73.123169,35.377247,-73.496216,34.590378C-73.866638,33.803509,-74.186798,33.124588,-74.207947,33.081989L-74.239685,33.004993L-74.049194,32.891754C-73.112579,32.340893,-72.337341,32.04747,-71.461578,31.919678C-71.286957,31.893482,-71.133484,31.885281,-70.778961,31.880253C-70.530273,31.878666,-70.294769,31.878666,-70.257721,31.88184C-69.879364,31.919678,-69.363434,32.003284,-69.336975,32.031063C-69.331696,32.039268,-69.294647,32.31311,-69.257599,32.642517C-69.220551,32.972187,-69.13855,33.705082,-69.072418,34.273937C-68.974518,35.129864,-68.950684,35.310043,-68.92688,35.3283C-68.911011,35.339676,-68.797241,35.415085,-68.675537,35.493664C-68.551147,35.574097,-68.379211,35.695541,-68.294525,35.764332C-68.138428,35.885513,-67.752136,36.233173,-67.749481,36.249577C-67.746857,36.254608,-67.828857,36.29879,-67.929382,36.348003C-68.029938,36.397213,-68.111969,36.439816,-68.111969,36.442989C-68.111969,36.446426,-68.077576,36.490616,-68.037872,36.541416C-67.535156,37.190701,-67.344666,38.013817,-67.514008,38.803864C-67.577515,39.089348,-67.696564,39.395737,-67.844727,39.633598C-67.881775,39.695774,-67.910889,39.748425,-67.908234,39.750015C-67.905579,39.751602,-67.834137,39.776211,-67.749481,39.803989C-67.514008,39.881248,-67.365814,39.97147,-67.183289,40.151649C-67.066833,40.268066,-67.005981,40.343475,-66.947784,40.446926C-66.804901,40.702511,-66.73877,40.984562,-66.759949,41.236973C-66.765228,41.307613,-66.767853,41.365028,-66.762573,41.365028C-66.741425,41.365028,-66.183136,41.032185,-65.733368,40.750141C-64.791443,40.159855,-63.471161,39.200741,-63.299194,38.982723C-63.151031,38.790901,-63.151031,38.835083,-63.299194,38.607281C-63.50293,38.300625,-63.563782,38.19585,-63.685486,37.946613C-63.875977,37.564556,-63.952698,37.312145,-63.952698,37.07111C-63.952698,36.94305,-63.947418,36.915272,-63.89978,36.825047C-63.809845,36.644604,-63.648438,36.587452,-63.407684,36.649628C-63.174835,36.70863,-62.799103,36.931675,-62.457825,37.215309L-62.280548,37.361092L-62.055664,37.110268C-61.380951,36.364407,-60.727448,35.864346,-60.290863,35.764332C-60.068634,35.711945,-59.891357,35.754547,-59.751129,35.895565C-59.285492,36.371021,-59.679718,37.361092,-60.888824,38.749893C-61.103149,38.995689,-61.280426,39.184338,-61.661438,39.566395C-61.960419,39.869606,-61.986847,39.892628,-62.034454,39.884422C-62.079468,39.877811,-62.113861,39.902412,-62.367859,40.114079C-63.598175,41.148602,-65.06131,42.197937,-66.225494,42.884796L-66.519165,43.058624L-66.463623,43.166843C-66.204315,43.678284,-65.963562,44.396358,-65.841827,45.021042C-65.751862,45.489883,-65.736023,45.678532,-65.736023,46.18018C-65.736023,46.18018,-65.751862,46.772053,-65.751862,46.80645C-65.751862,46.818352,-65.759827,46.857246,-65.770386,46.91069z"/>
</svg>
