<?xml version="1.0" encoding="UTF-8"?>
<svg xmlns="http://www.w3.org/2000/svg" xmlns:xlink="http://www.w3.org/1999/xlink" width="114.800mm" height="53.800mm" viewBox="42.599861 -126.900162 114.800285 53.800316">
    <path transform="matrix(1,0,0,-1,35.913979,-67.100113)" style="stroke:#000000;stroke-width:0.05mm;fill:none" d="M7.067841,54.975037L6.90387,54.707458L6.783768,54.417496L6.71051,54.112335L6.685883,53.799469L6.686157,19.778099L6.710236,19.015663L6.782242,18.260567L6.901474,17.520081L6.978455,17.157562L7.066788,16.801353L7.166245,16.452309L7.276581,16.111282L7.397552,15.779091L7.528854,15.456535L7.670151,15.144386L7.821152,14.843399L7.981445,14.554306L8.150665,14.277794L8.328415,14.014534L8.514236,13.765152L8.707718,13.530266L8.908356,13.310425L9.115707,13.106171L9.329224,12.917992L9.548431,12.74633L9.772797,12.591614L10.00177,12.454208L10.234787,12.33445L10.471313,12.232628L10.71077,12.148972L10.952576,12.083702L11.196136,12.036972L11.440887,12.008888L11.686218,11.999512L34.586227,11.999695L34.899094,11.975075L35.204254,11.901817L35.494202,11.781723L35.761795,11.617744L36.000443,11.413925L36.204269,11.175285L36.36824,10.907692L36.488342,10.617744L36.561615,10.312584L36.586243,9.99971L36.586258,7.999718L36.610886,7.686844L36.684143,7.381676L36.804245,7.091736L36.968231,6.82415L37.172058,6.585503L37.41069,6.381683L37.678284,6.217712L37.968231,6.09761L38.273407,6.024353L38.586273,5.999733L89.586258,6.000137L89.899124,6.024765L90.2043,6.09803L90.494247,6.218132L90.761826,6.382111L91.000473,6.58593L91.2043,6.824577L91.368271,7.092171L91.488358,7.382118L91.56163,7.687279L91.586258,8.000153L91.586227,10.000153L91.610855,10.313019L91.684128,10.618187L91.804214,10.908134L91.968185,11.175728L92.172012,11.414368L92.41066,11.618195L92.678238,11.782173L92.968185,11.902275L93.273361,11.97554L93.586227,12.000168L116.486221,12.000351L116.731552,12.00972L116.976303,12.037811L117.219856,12.084549L117.461647,12.149818L117.701134,12.233475L117.937637,12.335304L118.17067,12.45507L118.399643,12.592476L118.623978,12.7472L118.843193,12.918861L119.056717,13.10704L119.264053,13.311302L119.464706,13.531151L119.658157,13.766037L119.844009,14.015419L120.021744,14.278679L120.190964,14.555199L120.351242,14.844292L120.502243,15.145279L120.643539,15.457428L120.774834,15.779991L120.895798,16.11219L121.006119,16.453217L121.105583,16.802261L121.193893,17.15847L121.270889,17.520988L121.390091,18.261475L121.462082,19.016571L121.48616,19.779007L121.485893,53.800369L121.461258,54.113243L121.387993,54.418411L121.267899,54.708359L121.103928,54.975952L120.900101,55.214584L120.661453,55.418411L120.393837,55.582382L120.103897,55.702484L119.798752,55.775742L119.485893,55.800369L83.585861,55.800079L83.272995,55.824707L82.96785,55.897964L82.677872,56.018051L82.410294,56.182037L82.171646,56.385849L81.967819,56.624496L81.803848,56.892075L81.683731,57.182022L81.610489,57.487198L81.561234,58.11293L81.487961,58.418091L81.367874,58.708038L81.203873,58.975632L81.000046,59.214264L80.761398,59.418091L80.49382,59.582062L80.203873,59.702164L79.898697,59.775421L79.585831,59.800049L48.585846,59.799805L48.27298,59.775177L47.967804,59.701904L47.677856,59.581802L47.410278,59.417816L47.171631,59.214005L46.967819,58.975357L46.803833,58.707764L46.683746,58.417816L46.610474,58.112656L46.561234,57.486908L46.487976,57.181747L46.367874,56.8918L46.203903,56.624207L46.000076,56.385559L45.761444,56.181747L45.493851,56.017761L45.203903,55.897659L44.898743,55.824402L44.585876,55.799774L8.685867,55.799484L8.373001,55.774857L8.067841,55.701599L7.777893,55.581497L7.510315,55.417511L7.271667,55.213684L7.067841,54.975037z"/>
    <path transform="matrix(1,0,0,-1,35.913979,-67.100113)" style="stroke:#000000;stroke-width:0.05mm;fill:none" d="M30.171875,34.799652L30.171783,46.799652L30.186966,46.973289L30.232086,47.14167L30.305756,47.299652L30.405731,47.442429L30.528976,47.565689L30.671768,47.66568L30.829758,47.739349L30.998123,47.784462L31.171768,47.79966L98.071762,47.800194L98.245407,47.784988L98.413773,47.739891L98.571762,47.666222L98.714554,47.566238L98.837814,47.442986L98.93779,47.300194L99.011459,47.14222L99.056564,46.973839L99.071762,46.800201L99.071884,34.800201L99.056686,34.626549L99.011551,34.458176L98.937912,34.300201L98.837906,34.15741L98.714676,34.034149L98.571884,33.934166L98.413895,33.860489L98.245529,33.815392L98.071884,33.800194L31.171875,33.79966L30.99823,33.81485L30.829865,33.859962L30.671875,33.933632L30.529083,34.033615L30.405838,34.156876L30.305847,34.299652L30.232178,34.457634L30.187073,34.625999L30.171875,34.799652z"/>
    <path transform="matrix(1,0,0,-1,35.913979,-67.100113)" style="stroke:#000000;stroke-width:0.05mm;fill:none" d="M31.172012,17.79966L30.998352,17.81485L30.829987,17.859962L30.672012,17.933632L30.529221,18.033607L30.40596,18.156868L30.305984,18.299652L30.232315,18.457634L30.187195,18.626007L30.171997,18.799652L30.171906,30.799652L30.187103,30.973305L30.232208,31.14167L30.305878,31.299652L30.405853,31.442444L30.529114,31.565689L30.67189,31.66568L30.82988,31.739349L30.998245,31.78447L31.17189,31.79966L98.071884,31.800194L98.245529,31.785004L98.413925,31.739891L98.571884,31.666222L98.714676,31.566238L98.837936,31.442986L98.937912,31.300201L99.011581,31.14222L99.056717,30.973839L99.071915,30.800201L99.072006,18.800194L99.056808,18.626549L99.011703,18.458176L98.938034,18.300201L98.838058,18.15741L98.714798,18.034149L98.572006,17.934166L98.414017,17.860504L98.245651,17.815384L98.072006,17.800194L31.172012,17.79966z"/>
    <path transform="matrix(1,0,0,-1,35.913979,-67.100113)" style="stroke:#ff0000;stroke-width:0.05mm;fill:none" d="M55.088402,57.128513L57.221214,57.128513L57.221214,57.886326L52.115746,57.886326L52.115746,57.128513L54.236839,57.128513L54.236839,51.44492L55.088402,51.44492L55.088402,57.128513z"/>
    <path transform="matrix(1,0,0,-1,35.913979,-67.100113)" style="stroke:#ff0000;stroke-width:0.05mm;fill:none" d="M64.057152,51.35117L64.386894,51.420162L64.687576,51.561966L64.947449,51.769268L65.154808,52.034763L65.154808,51.44492L65.889183,51.44492L65.889183,57.886326L65.100121,57.886326L65.100121,55.577732L64.844467,55.851707L64.535553,56.054539L64.187637,56.179127L63.814964,56.218357L63.53714,56.199295L63.264183,56.144138L63.071102,56.073746L62.887211,55.983288L62.714073,55.87365L62.553246,55.745701L62.404591,55.590591L62.274235,55.420639L62.163265,55.237434L62.072777,55.042576L61.94709,54.650032L61.869003,54.24678L61.839092,53.837128L61.857933,53.425388L61.900871,53.115044L61.979652,52.812927L62.093273,52.522125L62.240746,52.245701L62.449203,51.967659L62.702202,51.733505L62.993027,51.548416L63.314964,51.417576L63.497276,51.372841L63.682693,51.346779L63.869793,51.339512L64.057152,51.35117z"/>
    <path transform="matrix(1,0,0,-1,35.913979,-67.100113)" style="stroke:#ff0000;stroke-width:0.05mm;fill:none" d="M59.279808,51.358982L59.635597,51.427719L59.972397,51.554413L60.283218,51.735733L60.561058,51.968357L60.746059,52.18515L60.893089,52.429295L61.014183,52.710545L61.100365,53.060345L61.146996,53.417576L61.165546,53.894718L61.127464,54.370701L61.05632,54.706131L60.935169,55.024746L60.766609,55.321026L60.553246,55.589451L60.266907,55.83535L59.942955,56.022888L59.590164,56.148003L59.217308,56.206638L58.808067,56.216736L58.406815,56.154057L58.023106,56.020988L57.666527,55.81992L57.441231,55.633789L57.248169,55.416672L57.090454,55.172661L56.971214,54.905857L56.874588,54.560257L56.814163,54.207504L56.790272,53.850414L56.803246,53.491795L56.832806,53.184875L56.897919,52.884541L56.99773,52.593887L57.131371,52.316013L57.272133,52.113052L57.434792,51.930843L57.617035,51.770767L57.816536,51.634228L58.030975,51.522606L58.258041,51.437298L58.495403,51.379688L58.740746,51.35117L59.010498,51.339699L59.279808,51.358982z"/>
    <path transform="matrix(1,0,0,-1,35.913979,-67.100113)" style="stroke:#ff0000;stroke-width:0.05mm;fill:none" d="M68.721214,51.35117L69.064133,51.404678L69.394051,51.506508L69.70591,51.654694L69.994652,51.847263L70.213402,52.023045L70.265198,51.726868L70.369652,51.44492L71.197777,51.44492L71.096558,51.655769L71.023911,51.877075L70.980568,52.105942L70.967308,52.339451L70.95047,52.737713L70.947777,53.136326L70.952118,53.917603L70.943871,54.698826L70.929199,55.02211L70.865746,55.339451L70.777435,55.550316L70.647507,55.735275L70.481186,55.888332L70.283714,56.003513L70.077667,56.088051L69.864624,56.151005L69.646286,56.191975L69.424339,56.210545L69.083832,56.221642L68.744705,56.199104L68.409462,56.143227L68.080589,56.054295L67.781914,55.920113L67.518089,55.72617L67.377007,55.572357L67.258667,55.401581L67.164581,55.216343L67.096214,55.019138L67.033714,54.780857L67.807152,54.675388L67.87574,54.891556L67.971214,55.097263L68.04245,55.210251L68.131485,55.308533L68.236084,55.390045L68.354027,55.452732L68.684624,55.540211L69.025902,55.562107L69.290131,55.548729L69.549339,55.495701L69.756371,55.41367L69.928246,55.296482L70.030006,55.172798L70.096214,55.026951L70.145676,54.718372L70.146996,54.405857L69.562286,54.259754L68.967308,54.16367L68.563332,54.116302L68.162621,54.046482L67.90358,53.98037L67.659393,53.875431L67.434387,53.733948L67.232933,53.558201L67.089005,53.363522L66.98362,53.147747L66.9189,52.916496L66.896996,52.675388L66.924339,52.398045L67.002464,52.144138L67.131371,51.917576L67.311058,51.714451L67.533951,51.560089L67.777863,51.446114L68.037399,51.374512L68.307152,51.347263L68.514275,51.33955L68.721214,51.35117z"/>
    <path transform="matrix(1,0,0,-1,35.913979,-67.100113)" style="stroke:#ff0000;stroke-width:0.05mm;fill:none" d="M72.861839,49.562107L73.07058,49.609108L73.264717,49.694412L73.439056,49.815132L73.588402,49.968357L73.825592,50.327641L74.006371,50.718357L74.135483,51.041725L74.260277,51.366795L76.033714,56.112888L75.244652,56.112888L74.244652,53.394138L74.068398,52.865234L73.920433,52.327732L73.763313,52.872765L73.580589,53.409763L72.611839,56.112888L71.760277,56.112888L73.529808,51.437107L73.404144,51.083992L73.260277,50.737888L73.217308,50.655857L73.102768,50.517754L72.959496,50.409763L72.753983,50.339382L72.537621,50.31992L72.309052,50.342106L72.084496,50.390232L72.170433,49.648045L72.422798,49.580917L72.682152,49.550388L72.861839,49.562107z"/>
    <path transform="matrix(1,0,0,-1,35.913979,-67.100113)" style="stroke:#ff0000;stroke-width:0.05mm;fill:none" d="M58.697777,52.019138L58.436058,52.10117L58.205589,52.241795L57.994652,52.437107L57.851765,52.644714L57.742523,52.87027L57.668526,53.109711L57.631371,53.358982L57.602028,53.70356L57.613297,54.048012L57.664856,54.388763L57.756371,54.722263L57.837036,54.892132L57.93988,55.048485L58.063274,55.18919L58.205589,55.312107L58.436058,55.452732L58.697777,55.534763L58.979027,55.562107L59.260277,55.534763L59.518089,55.452732L59.748558,55.312107L59.959496,55.116795L60.101158,54.912636L60.210598,54.691025L60.286285,54.455734L60.326683,54.210545L60.355343,53.863865L60.343185,53.517387L60.29055,53.174713L60.197777,52.839451L60.097038,52.62738L59.959496,52.437107L59.752464,52.241795L59.521996,52.10117L59.264183,52.019138L58.979027,51.991795L58.697777,52.019138z"/>
    <path transform="matrix(1,0,0,-1,35.913979,-67.100113)" style="stroke:#ff0000;stroke-width:0.05mm;fill:none" d="M63.674339,52.019138L63.443871,52.10117L63.229027,52.241795L63.033714,52.433201L62.894672,52.642181L62.788124,52.867973L62.7155,53.106846L62.678246,53.355076L62.654385,53.661911L62.656906,53.969093L62.685722,54.274933L62.740746,54.577732L62.830784,54.848503L62.975555,55.090645L63.168934,55.296059L63.404808,55.456638L63.635277,55.534763L63.889183,55.562107L64.146996,55.534763L64.385277,55.452732L64.604027,55.312107L64.799339,55.116795L64.935883,54.896713L65.039551,54.660774L65.109055,54.412613L65.143089,54.155857L65.168182,53.852772L65.165405,53.54929L65.134872,53.247334L65.076683,52.948826L64.953247,52.629372L64.753265,52.358555L64.489403,52.149475L64.174339,52.015232L63.924339,51.991795L63.674339,52.019138z"/>
    <path transform="matrix(1,0,0,-1,35.913979,-67.100113)" style="stroke:#ff0000;stroke-width:0.05mm;fill:none" d="M68.467308,51.972263L68.286453,52.008095L68.115746,52.077732L67.906494,52.245117L67.778458,52.470654L67.740952,52.727264L67.803246,52.987888L67.889442,53.12228L68.001144,53.233856L68.13401,53.319122L68.283714,53.374607L68.45462,53.417938L68.627464,53.452732L69.119308,53.529526L69.607933,53.624607L69.880898,53.695358L70.146996,53.78867L70.14814,53.412971L70.115746,53.03867L70.043106,52.767723L69.910866,52.524544L69.7258,52.318703L69.494652,52.159763L69.25106,52.053474L68.995544,51.986229L68.732742,51.958878L68.467308,51.972263z"/>
    <path transform="matrix(1,0,0,-1,35.913979,-67.100113)" style="stroke:#ff0000;stroke-width:0.05mm;fill:none" d="M43.234367,14.683613L45.36718,14.683613L45.36718,15.441425L40.261711,15.441425L40.261711,14.683613L42.382805,14.683613L42.382805,9.000019L43.234367,9.000019L43.234367,14.683613z"/>
    <path transform="matrix(1,0,0,-1,35.913979,-67.100113)" style="stroke:#ff0000;stroke-width:0.05mm;fill:none" d="M47.425774,8.914082L47.781563,8.982817L48.118362,9.109509L48.429184,9.290833L48.707024,9.523457L48.892025,9.74025L49.039055,9.984394L49.160149,10.265644L49.24633,10.615444L49.292961,10.972675L49.308277,11.322158L49.300774,11.671894L49.259224,12.020577L49.167973,12.357765L49.028862,12.678188L48.843742,12.976582L48.542778,13.289705L48.186378,13.529528L47.787575,13.689167L47.359367,13.761738L46.951103,13.77149L46.55085,13.708698L46.168133,13.575747L45.812492,13.375019L45.587196,13.18889L45.394135,12.971769L45.23642,12.727757L45.11718,12.460957L44.984638,11.924389L44.935818,11.377131L44.97084,10.828817L45.089836,10.289082L45.191921,10.031375L45.32682,9.793798L45.491581,9.578899L45.683258,9.389219L45.898903,9.227306L46.135563,9.095703L46.390297,8.996958L46.660149,8.933613L47.042244,8.895761L47.425774,8.914082z"/>
    <path transform="matrix(1,0,0,-1,35.913979,-67.100113)" style="stroke:#ff0000;stroke-width:0.05mm;fill:none" d="M51.062492,11.421894L51.062634,11.669554L51.08429,11.915806L51.127274,12.159243L51.191399,12.398457L51.304092,12.621649L51.464951,12.808441L51.665791,12.951374L51.89843,13.042988L52.072853,13.077951L52.249519,13.086296L52.425453,13.068103L52.597649,13.023457L52.706451,12.9622L52.800926,12.882234L52.878727,12.785965L52.937492,12.6758L53.020672,12.358371L53.046867,12.031269L53.046867,9.000019L53.83593,9.000019L53.83593,11.710957L53.839687,11.933386L53.871925,12.152566L53.932064,12.365784L54.019524,12.570332L54.084503,12.669954L54.160149,12.761738L54.287239,12.870075L54.428261,12.957832L54.580734,13.023714L54.74218,13.066425L54.925354,13.085371L55.109367,13.078144L55.308708,13.035398L55.4851,12.940935L55.628902,12.801796L55.730461,12.625019L55.797226,12.286388L55.808586,11.941425L55.808586,9.000019L56.597649,9.000019L56.597649,12.203144L56.591118,12.453873L56.553364,12.70084L56.485016,12.941147L56.386711,13.171894L56.243145,13.365664L56.064854,13.524384L55.858036,13.643579L55.628899,13.718769L55.354462,13.765742L55.077629,13.771471L54.802994,13.7362L54.535149,13.660175L54.292946,13.531044L54.073296,13.368926L53.879494,13.176651L53.714836,12.95705L53.582535,13.225245L53.38998,13.448046L53.147942,13.61578L52.86718,13.718769L52.639992,13.75979L52.410378,13.774122L52.180641,13.761754L51.953117,13.722675L51.66256,13.616688L51.399212,13.45966L51.169651,13.256405L50.980461,13.011738L50.980461,13.667988L50.27343,13.667988L50.27343,9.000019L51.062492,9.000019L51.062492,11.421894z"/>
    <path transform="matrix(1,0,0,-1,35.913979,-67.100113)" style="stroke:#ff0000;stroke-width:0.05mm;fill:none" d="M58.624992,11.421894L58.625496,11.669317L58.646606,11.915408L58.68816,12.158882L58.749992,12.398457L58.821785,12.550422L58.914665,12.686807L59.02618,12.80597L59.153873,12.906267L59.295288,12.986057L59.447975,13.043697L59.609474,13.077544L59.777336,13.085957L59.96978,13.072847L60.156242,13.023457L60.265278,12.962461L60.359856,12.882561L60.437584,12.786194L60.496086,12.6758L60.583397,12.359071L60.605461,12.031269L60.605461,9.000019L61.394524,9.000019L61.394524,11.710957L61.398113,11.90262L61.420967,12.092489L61.462822,12.279093L61.52343,12.460957L61.608505,12.620974L61.722649,12.761738L61.849586,12.870338L61.99057,12.958194L62.143105,13.023993L62.30468,13.066425L62.487858,13.085332L62.671867,13.078144L62.87019,13.033492L63.045921,12.938629L63.189899,12.800243L63.292961,12.625019L63.358574,12.286257L63.371086,11.941425L63.371086,9.000019L64.156242,9.000019L64.156242,12.203144L64.149994,12.453924L64.112335,12.700924L64.0439,12.941221L63.945305,13.171894L63.802395,13.365025L63.625046,13.523489L63.419353,13.642877L63.191399,13.718769L62.915989,13.765699L62.638199,13.771416L62.362595,13.736159L62.093742,13.660175L61.851715,13.530819L61.632133,13.368639L61.438278,13.176445L61.27343,12.95705L61.141411,13.22551L60.948917,13.44843L60.706764,13.616091L60.425774,13.718769L60.146347,13.768417L59.864258,13.77436L59.584606,13.736881L59.312492,13.656269L59.08419,13.540429L58.876976,13.392559L58.694168,13.215412L58.539055,13.011738L58.539055,13.667988L57.832024,13.667988L57.832024,9.000019L58.624992,9.000019L58.624992,11.421894z"/>
    <path transform="matrix(1,0,0,-1,35.913979,-67.100113)" style="stroke:#ff0000;stroke-width:0.05mm;fill:none" d="M67.58593,8.914082L67.941719,8.982817L68.278519,9.109509L68.58934,9.290833L68.86718,9.523457L69.052185,9.74025L69.199211,9.984394L69.32193,10.28203L69.402336,10.593769L69.44783,10.925187L69.468231,11.258606L69.463486,11.592614L69.433586,11.9258L69.376076,12.207095L69.284447,12.478059L69.159958,12.735588L69.003899,12.976582L68.702934,13.289705L68.346542,13.529528L67.947739,13.689167L67.519524,13.761738L67.111259,13.77149L66.711006,13.708698L66.328293,13.575747L65.972649,13.375019L65.747345,13.18889L65.554283,12.971769L65.396568,12.727757L65.277336,12.460957L65.144798,11.924389L65.095978,11.377131L65.130997,10.828817L65.249992,10.289082L65.352074,10.031375L65.486969,9.793798L65.651733,9.578899L65.843414,9.389219L66.059059,9.227306L66.295715,9.095703L66.550446,8.996958L66.820305,8.933613L67.2024,8.895761L67.58593,8.914082z"/>
    <path transform="matrix(1,0,0,-1,35.913979,-67.100113)" style="stroke:#ff0000;stroke-width:0.05mm;fill:none" d="M71.214836,11.445332L71.220535,11.713999L71.253281,11.980042L71.312698,12.241426L71.39843,12.496113L71.543709,12.713573L71.746719,12.867613L71.988487,12.948206L72.249992,12.945332L72.476486,12.886412L72.687492,12.785175L72.96093,13.51955L72.666512,13.67015L72.347649,13.757832L72.112,13.771545L71.878899,13.734394L71.737457,13.674356L71.608582,13.592546L71.494743,13.490841L71.39843,13.371113L71.259163,13.171399L71.136711,12.960957L71.136711,13.667988L70.421867,13.667988L70.421867,9.000019L71.214836,9.000019L71.214836,11.445332z"/>
    <path transform="matrix(1,0,0,-1,35.913979,-67.100113)" style="stroke:#ff0000;stroke-width:0.05mm;fill:none" d="M74.183586,11.445332L74.215988,11.911169L74.316399,12.367207L74.369568,12.509107L74.446289,12.635175L74.543373,12.74338L74.657623,12.831688L74.785858,12.89807L74.924896,12.940493L75.071556,12.956924L75.222649,12.945332L75.447029,12.885788L75.656242,12.785175L75.92968,13.51955L75.635262,13.67015L75.316399,13.757832L75.165924,13.774239L75.01564,13.767111L74.868279,13.736788L74.726555,13.683613L74.528244,13.548783L74.36718,13.371113L74.227913,13.171399L74.105461,12.960957L74.105461,13.667988L73.394524,13.667988L73.394524,9.000019L74.183586,9.000019L74.183586,11.445332z"/>
    <path transform="matrix(1,0,0,-1,35.913979,-67.100113)" style="stroke:#ff0000;stroke-width:0.05mm;fill:none" d="M78.566399,8.914082L78.92215,8.9829L79.258942,9.109617L79.569763,9.290912L79.847649,9.523457L80.032654,9.74025L80.17968,9.984394L80.302399,10.28203L80.382805,10.593769L80.428299,10.925187L80.4487,11.258606L80.443954,11.592614L80.414055,11.9258L80.356544,12.207095L80.264915,12.478059L80.140427,12.735588L79.984367,12.976582L79.683311,13.289568L79.326904,13.529338L78.928131,13.689018L78.499992,13.761738L78.091629,13.772157L77.691254,13.709567L77.308533,13.576383L76.953117,13.375019L76.727631,13.189049L76.5345,12.971967L76.376846,12.727896L76.257805,12.460957L76.174072,12.186836L76.11602,11.906753L76.083939,11.622522L76.078117,11.335957L76.086739,11.012602L76.128998,10.69278L76.204414,10.379119L76.312492,10.074238L76.428337,9.855942L76.568619,9.655924L76.73114,9.475863L76.913712,9.317436L77.114151,9.182321L77.330261,9.072193L77.55986,8.988731L77.800774,8.933613L78.182869,8.895761L78.566399,8.914082z"/>
    <path transform="matrix(1,0,0,-1,35.913979,-67.100113)" style="stroke:#ff0000;stroke-width:0.05mm;fill:none" d="M84.042961,12.589863L84.226555,11.796894L84.968742,9.000019L85.789055,9.000019L87.249992,13.667988L86.480461,13.667988L85.410149,10.070332L84.480461,13.667988L83.667961,13.667988L82.925774,10.933613L82.683586,9.972675L81.664055,13.667988L80.843742,13.667988L82.27343,9.000019L83.101555,9.000019L84.042961,12.589863z"/>
    <path transform="matrix(1,0,0,-1,35.913979,-67.100113)" style="stroke:#ff0000;stroke-width:0.05mm;fill:none" d="M46.843742,9.574238L46.582024,9.656269L46.351555,9.796894L46.140617,9.992207L46.021637,10.158407L45.925285,10.337729L45.852615,10.527884L45.80468,10.726582L45.753761,11.116606L45.753269,11.508284L45.802895,11.896806L45.902336,12.277363L45.983002,12.44723L46.085846,12.603585L46.20924,12.744289L46.351555,12.867207L46.582024,13.007832L46.843742,13.089863L47.124992,13.117207L47.406242,13.089863L47.664055,13.007832L47.894524,12.867207L48.105461,12.671894L48.247124,12.467735L48.356564,12.246122L48.432251,12.010832L48.472649,11.765644L48.501308,11.418961L48.489151,11.072485L48.436516,10.729816L48.343742,10.39455L48.243004,10.18248L48.105461,9.992207L47.89843,9.796894L47.664055,9.656269L47.410149,9.574238L47.124992,9.546894L46.843742,9.574238z"/>
    <path transform="matrix(1,0,0,-1,35.913979,-67.100113)" style="stroke:#ff0000;stroke-width:0.05mm;fill:none" d="M67.003899,9.574238L66.74218,9.656269L66.511711,9.796894L66.300774,9.992207L66.181503,10.158258L66.085052,10.337547L66.012482,10.52776L65.964836,10.726582L65.913925,11.116606L65.913429,11.508284L65.963051,11.896806L66.062492,12.277363L66.166382,12.485704L66.300774,12.6758L66.511711,12.867207L66.74218,13.007832L67.003899,13.089863L67.285149,13.117207L67.566399,13.089863L67.824211,13.007832L68.05468,12.867207L68.265617,12.671894L68.40728,12.467735L68.516724,12.246122L68.5924,12.010832L68.632805,11.765644L68.661469,11.418961L68.649307,11.072486L68.596672,10.729816L68.503899,10.39455L68.40316,10.18248L68.265617,9.992207L68.058586,9.796894L67.824211,9.656269L67.566399,9.574238L67.285149,9.546894L67.003899,9.574238z"/>
    <path transform="matrix(1,0,0,-1,35.913979,-67.100113)" style="stroke:#ff0000;stroke-width:0.05mm;fill:none" d="M77.980461,9.574238L77.722649,9.656269L77.488274,9.796894L77.281242,9.992207L77.161972,10.158258L77.065521,10.337547L76.99295,10.52776L76.945305,10.726582L76.894394,11.116606L76.893898,11.508284L76.94352,11.896806L77.042961,12.277363L77.146851,12.485704L77.281242,12.6758L77.488274,12.867207L77.722649,13.007832L77.980461,13.089863L78.265617,13.117207L78.546867,13.089863L78.80468,13.007832L79.035149,12.867207L79.24218,12.671894L79.362625,12.509367L79.460152,12.333163L79.533661,12.14566L79.582024,11.949238L79.634445,11.558261L79.635437,11.165473L79.585312,10.775896L79.484367,10.39455L79.380989,10.184042L79.246086,9.992207L79.039055,9.796894L78.80468,9.656269L78.546867,9.574238L78.265617,9.546894L77.980461,9.574238z"/>
</svg>
