  0
SECTION
  2
HEADER
  9
$ACADVER
  1
AC1009
  0
ENDSEC
  0
SECTION
  2
ENTITIES
  0
POLYLINE
  5
90
  8
Layer_1
  62
0
  70
1
  66
1
  10
0
  20
0
  30
0
  0
VERTEX
  5
90
  8
Layer_1
  10
7.0678406
  20
54.975037
  0
VERTEX
  5
91
  8
Layer_1
  10
6.9038696
  20
54.707458
  0
VERTEX
  5
92
  8
Layer_1
  10
6.7837677
  20
54.417496
  0
VERTEX
  5
93
  8
Layer_1
  10
6.7105103
  20
54.112335
  0
VERTEX
  5
94
  8
Layer_1
  10
6.6858826
  20
53.799469
  0
VERTEX
  5
95
  8
Layer_1
  10
6.6861572
  20
19.778099
  0
VERTEX
  5
96
  8
Layer_1
  10
6.7102356
  20
19.015663
  0
VERTEX
  5
97
  8
Layer_1
  10
6.7822418
  20
18.260567
  0
VERTEX
  5
98
  8
Layer_1
  10
6.901474
  20
17.520081
  0
VERTEX
  5
99
  8
Layer_1
  10
6.9784546
  20
17.157562
  0
VERTEX
  5
9a
  8
Layer_1
  10
7.0667877
  20
16.801353
  0
VERTEX
  5
9b
  8
Layer_1
  10
7.1662445
  20
16.452309
  0
VERTEX
  5
9c
  8
Layer_1
  10
7.2765808
  20
16.111282
  0
VERTEX
  5
9d
  8
Layer_1
  10
7.3975525
  20
15.779091
  0
VERTEX
  5
9e
  8
Layer_1
  10
7.5288544
  20
15.456535
  0
VERTEX
  5
9f
  8
Layer_1
  10
7.6701508
  20
15.144386
  0
VERTEX
  5
a0
  8
Layer_1
  10
7.8211517
  20
14.843399
  0
VERTEX
  5
a1
  8
Layer_1
  10
7.9814453
  20
14.554306
  0
VERTEX
  5
a2
  8
Layer_1
  10
8.1506653
  20
14.277794
  0
VERTEX
  5
a3
  8
Layer_1
  10
8.3284149
  20
14.014534
  0
VERTEX
  5
a4
  8
Layer_1
  10
8.5142365
  20
13.765152
  0
VERTEX
  5
a5
  8
Layer_1
  10
8.7077179
  20
13.530266
  0
VERTEX
  5
a6
  8
Layer_1
  10
8.9083557
  20
13.310425
  0
VERTEX
  5
a7
  8
Layer_1
  10
9.1157074
  20
13.106171
  0
VERTEX
  5
a8
  8
Layer_1
  10
9.3292236
  20
12.917992
  0
VERTEX
  5
a9
  8
Layer_1
  10
9.5484314
  20
12.74633
  0
VERTEX
  5
aa
  8
Layer_1
  10
9.7727966
  20
12.591614
  0
VERTEX
  5
ab
  8
Layer_1
  10
10.00177
  20
12.454208
  0
VERTEX
  5
ac
  8
Layer_1
  10
10.234787
  20
12.33445
  0
VERTEX
  5
ad
  8
Layer_1
  10
10.471313
  20
12.232628
  0
VERTEX
  5
ae
  8
Layer_1
  10
10.71077
  20
12.148972
  0
VERTEX
  5
af
  8
Layer_1
  10
10.952576
  20
12.083702
  0
VERTEX
  5
b0
  8
Layer_1
  10
11.196136
  20
12.036972
  0
VERTEX
  5
b1
  8
Layer_1
  10
11.440887
  20
12.008888
  0
VERTEX
  5
b2
  8
Layer_1
  10
11.686218
  20
11.999512
  0
VERTEX
  5
b3
  8
Layer_1
  10
34.586227
  20
11.999695
  0
VERTEX
  5
b4
  8
Layer_1
  10
34.899094
  20
11.975075
  0
VERTEX
  5
b5
  8
Layer_1
  10
35.204254
  20
11.901817
  0
VERTEX
  5
b6
  8
Layer_1
  10
35.494202
  20
11.781723
  0
VERTEX
  5
b7
  8
Layer_1
  10
35.761795
  20
11.617744
  0
VERTEX
  5
b8
  8
Layer_1
  10
36.000443
  20
11.413925
  0
VERTEX
  5
b9
  8
Layer_1
  10
36.204269
  20
11.175285
  0
VERTEX
  5
ba
  8
Layer_1
  10
36.36824
  20
10.907692
  0
VERTEX
  5
bb
  8
Layer_1
  10
36.488342
  20
10.617744
  0
VERTEX
  5
bc
  8
Layer_1
  10
36.561615
  20
10.312584
  0
VERTEX
  5
bd
  8
Layer_1
  10
36.586243
  20
9.9997101
  0
VERTEX
  5
be
  8
Layer_1
  10
36.586258
  20
7.9997177
  0
VERTEX
  5
bf
  8
Layer_1
  10
36.610886
  20
7.6868439
  0
VERTEX
  5
c0
  8
Layer_1
  10
36.684143
  20
7.3816757
  0
VERTEX
  5
c1
  8
Layer_1
  10
36.804245
  20
7.0917358
  0
VERTEX
  5
c2
  8
Layer_1
  10
36.968231
  20
6.8241501
  0
VERTEX
  5
c3
  8
Layer_1
  10
37.172058
  20
6.5855026
  0
VERTEX
  5
c4
  8
Layer_1
  10
37.41069
  20
6.3816833
  0
VERTEX
  5
c5
  8
Layer_1
  10
37.678284
  20
6.2177124
  0
VERTEX
  5
c6
  8
Layer_1
  10
37.968231
  20
6.0976105
  0
VERTEX
  5
c7
  8
Layer_1
  10
38.273407
  20
6.024353
  0
VERTEX
  5
c8
  8
Layer_1
  10
38.586273
  20
5.999733
  0
VERTEX
  5
c9
  8
Layer_1
  10
89.586258
  20
6.0001373
  0
VERTEX
  5
ca
  8
Layer_1
  10
89.899124
  20
6.024765
  0
VERTEX
  5
cb
  8
Layer_1
  10
90.2043
  20
6.0980301
  0
VERTEX
  5
cc
  8
Layer_1
  10
90.494247
  20
6.218132
  0
VERTEX
  5
cd
  8
Layer_1
  10
90.761826
  20
6.3821106
  0
VERTEX
  5
ce
  8
Layer_1
  10
91.000473
  20
6.5859299
  0
VERTEX
  5
cf
  8
Layer_1
  10
91.2043
  20
6.8245773
  0
VERTEX
  5
d0
  8
Layer_1
  10
91.368271
  20
7.0921707
  0
VERTEX
  5
d1
  8
Layer_1
  10
91.488358
  20
7.3821182
  0
VERTEX
  5
d2
  8
Layer_1
  10
91.56163
  20
7.6872787
  0
VERTEX
  5
d3
  8
Layer_1
  10
91.586258
  20
8.0001526
  0
VERTEX
  5
d4
  8
Layer_1
  10
91.586227
  20
10.000153
  0
VERTEX
  5
d5
  8
Layer_1
  10
91.610855
  20
10.313019
  0
VERTEX
  5
d6
  8
Layer_1
  10
91.684128
  20
10.618187
  0
VERTEX
  5
d7
  8
Layer_1
  10
91.804214
  20
10.908134
  0
VERTEX
  5
d8
  8
Layer_1
  10
91.968185
  20
11.175728
  0
VERTEX
  5
d9
  8
Layer_1
  10
92.172012
  20
11.414368
  0
VERTEX
  5
da
  8
Layer_1
  10
92.41066
  20
11.618195
  0
VERTEX
  5
db
  8
Layer_1
  10
92.678238
  20
11.782173
  0
VERTEX
  5
dc
  8
Layer_1
  10
92.968185
  20
11.902275
  0
VERTEX
  5
dd
  8
Layer_1
  10
93.273361
  20
11.97554
  0
VERTEX
  5
de
  8
Layer_1
  10
93.586227
  20
12.000168
  0
VERTEX
  5
df
  8
Layer_1
  10
116.48622
  20
12.000351
  0
VERTEX
  5
e0
  8
Layer_1
  10
116.73155
  20
12.00972
  0
VERTEX
  5
e1
  8
Layer_1
  10
116.9763
  20
12.037811
  0
VERTEX
  5
e2
  8
Layer_1
  10
117.21986
  20
12.084549
  0
VERTEX
  5
e3
  8
Layer_1
  10
117.46165
  20
12.149818
  0
VERTEX
  5
e4
  8
Layer_1
  10
117.70113
  20
12.233475
  0
VERTEX
  5
e5
  8
Layer_1
  10
117.93764
  20
12.335304
  0
VERTEX
  5
e6
  8
Layer_1
  10
118.17067
  20
12.45507
  0
VERTEX
  5
e7
  8
Layer_1
  10
118.39964
  20
12.592476
  0
VERTEX
  5
e8
  8
Layer_1
  10
118.62398
  20
12.7472
  0
VERTEX
  5
e9
  8
Layer_1
  10
118.84319
  20
12.918861
  0
VERTEX
  5
ea
  8
Layer_1
  10
119.05672
  20
13.10704
  0
VERTEX
  5
eb
  8
Layer_1
  10
119.26405
  20
13.311302
  0
VERTEX
  5
ec
  8
Layer_1
  10
119.46471
  20
13.531151
  0
VERTEX
  5
ed
  8
Layer_1
  10
119.65816
  20
13.766037
  0
VERTEX
  5
ee
  8
Layer_1
  10
119.84401
  20
14.015419
  0
VERTEX
  5
ef
  8
Layer_1
  10
120.02174
  20
14.278679
  0
VERTEX
  5
f0
  8
Layer_1
  10
120.19096
  20
14.555199
  0
VERTEX
  5
f1
  8
Layer_1
  10
120.35124
  20
14.844292
  0
VERTEX
  5
f2
  8
Layer_1
  10
120.50224
  20
15.145279
  0
VERTEX
  5
f3
  8
Layer_1
  10
120.64354
  20
15.457428
  0
VERTEX
  5
f4
  8
Layer_1
  10
120.77483
  20
15.779991
  0
VERTEX
  5
f5
  8
Layer_1
  10
120.8958
  20
16.11219
  0
VERTEX
  5
f6
  8
Layer_1
  10
121.00612
  20
16.453217
  0
VERTEX
  5
f7
  8
Layer_1
  10
121.10558
  20
16.802261
  0
VERTEX
  5
f8
  8
Layer_1
  10
121.19389
  20
17.15847
  0
VERTEX
  5
f9
  8
Layer_1
  10
121.27089
  20
17.520988
  0
VERTEX
  5
fa
  8
Layer_1
  10
121.39009
  20
18.261475
  0
VERTEX
  5
fb
  8
Layer_1
  10
121.46208
  20
19.016571
  0
VERTEX
  5
fc
  8
Layer_1
  10
121.48616
  20
19.779007
  0
VERTEX
  5
fd
  8
Layer_1
  10
121.48589
  20
53.800369
  0
VERTEX
  5
fe
  8
Layer_1
  10
121.46126
  20
54.113243
  0
VERTEX
  5
ff
  8
Layer_1
  10
121.38799
  20
54.418411
  0
VERTEX
  5
100
  8
Layer_1
  10
121.2679
  20
54.708359
  0
VERTEX
  5
101
  8
Layer_1
  10
121.10393
  20
54.975952
  0
VERTEX
  5
102
  8
Layer_1
  10
120.9001
  20
55.214584
  0
VERTEX
  5
103
  8
Layer_1
  10
120.66145
  20
55.418411
  0
VERTEX
  5
104
  8
Layer_1
  10
120.39384
  20
55.582382
  0
VERTEX
  5
105
  8
Layer_1
  10
120.1039
  20
55.702484
  0
VERTEX
  5
106
  8
Layer_1
  10
119.79875
  20
55.775742
  0
VERTEX
  5
107
  8
Layer_1
  10
119.48589
  20
55.800369
  0
VERTEX
  5
108
  8
Layer_1
  10
83.585861
  20
55.800079
  0
VERTEX
  5
109
  8
Layer_1
  10
83.272995
  20
55.824707
  0
VERTEX
  5
10a
  8
Layer_1
  10
82.96785
  20
55.897964
  0
VERTEX
  5
10b
  8
Layer_1
  10
82.677872
  20
56.018051
  0
VERTEX
  5
10c
  8
Layer_1
  10
82.410294
  20
56.182037
  0
VERTEX
  5
10d
  8
Layer_1
  10
82.171646
  20
56.385849
  0
VERTEX
  5
10e
  8
Layer_1
  10
81.967819
  20
56.624496
  0
VERTEX
  5
10f
  8
Layer_1
  10
81.803848
  20
56.892075
  0
VERTEX
  5
110
  8
Layer_1
  10
81.683731
  20
57.182022
  0
VERTEX
  5
111
  8
Layer_1
  10
81.610489
  20
57.487198
  0
VERTEX
  5
112
  8
Layer_1
  10
81.561234
  20
58.11293
  0
VERTEX
  5
113
  8
Layer_1
  10
81.487961
  20
58.418091
  0
VERTEX
  5
114
  8
Layer_1
  10
81.367874
  20
58.708038
  0
VERTEX
  5
115
  8
Layer_1
  10
81.203873
  20
58.975632
  0
VERTEX
  5
116
  8
Layer_1
  10
81.000046
  20
59.214264
  0
VERTEX
  5
117
  8
Layer_1
  10
80.761398
  20
59.418091
  0
VERTEX
  5
118
  8
Layer_1
  10
80.49382
  20
59.582062
  0
VERTEX
  5
119
  8
Layer_1
  10
80.203873
  20
59.702164
  0
VERTEX
  5
11a
  8
Layer_1
  10
79.898697
  20
59.775421
  0
VERTEX
  5
11b
  8
Layer_1
  10
79.585831
  20
59.800049
  0
VERTEX
  5
11c
  8
Layer_1
  10
48.585846
  20
59.799805
  0
VERTEX
  5
11d
  8
Layer_1
  10
48.27298
  20
59.775177
  0
VERTEX
  5
11e
  8
Layer_1
  10
47.967804
  20
59.701904
  0
VERTEX
  5
11f
  8
Layer_1
  10
47.677856
  20
59.581802
  0
VERTEX
  5
120
  8
Layer_1
  10
47.410278
  20
59.417816
  0
VERTEX
  5
121
  8
Layer_1
  10
47.171631
  20
59.214005
  0
VERTEX
  5
122
  8
Layer_1
  10
46.967819
  20
58.975357
  0
VERTEX
  5
123
  8
Layer_1
  10
46.803833
  20
58.707764
  0
VERTEX
  5
124
  8
Layer_1
  10
46.683746
  20
58.417816
  0
VERTEX
  5
125
  8
Layer_1
  10
46.610474
  20
58.112656
  0
VERTEX
  5
126
  8
Layer_1
  10
46.561234
  20
57.486908
  0
VERTEX
  5
127
  8
Layer_1
  10
46.487976
  20
57.181747
  0
VERTEX
  5
128
  8
Layer_1
  10
46.367874
  20
56.8918
  0
VERTEX
  5
129
  8
Layer_1
  10
46.203903
  20
56.624207
  0
VERTEX
  5
12a
  8
Layer_1
  10
46.000076
  20
56.385559
  0
VERTEX
  5
12b
  8
Layer_1
  10
45.761444
  20
56.181747
  0
VERTEX
  5
12c
  8
Layer_1
  10
45.493851
  20
56.017761
  0
VERTEX
  5
12d
  8
Layer_1
  10
45.203903
  20
55.897659
  0
VERTEX
  5
12e
  8
Layer_1
  10
44.898743
  20
55.824402
  0
VERTEX
  5
12f
  8
Layer_1
  10
44.585876
  20
55.799774
  0
VERTEX
  5
130
  8
Layer_1
  10
8.6858673
  20
55.799484
  0
VERTEX
  5
131
  8
Layer_1
  10
8.3730011
  20
55.774857
  0
VERTEX
  5
132
  8
Layer_1
  10
8.0678406
  20
55.701599
  0
VERTEX
  5
133
  8
Layer_1
  10
7.7778931
  20
55.581497
  0
VERTEX
  5
134
  8
Layer_1
  10
7.5103149
  20
55.417511
  0
VERTEX
  5
135
  8
Layer_1
  10
7.2716675
  20
55.213684
  0
VERTEX
  5
136
  8
Layer_1
  10
7.0678406
  20
54.975037
  0
SEQEND
  0
POLYLINE
  5
138
  8
Layer_1
  62
0
  70
1
  66
1
  10
0
  20
0
  30
0
  0
VERTEX
  5
138
  8
Layer_1
  10
30.171875
  20
34.799652
  0
VERTEX
  5
139
  8
Layer_1
  10
30.171783
  20
46.799652
  0
VERTEX
  5
13a
  8
Layer_1
  10
30.186966
  20
46.973289
  0
VERTEX
  5
13b
  8
Layer_1
  10
30.232086
  20
47.14167
  0
VERTEX
  5
13c
  8
Layer_1
  10
30.305756
  20
47.299652
  0
VERTEX
  5
13d
  8
Layer_1
  10
30.405731
  20
47.442429
  0
VERTEX
  5
13e
  8
Layer_1
  10
30.528976
  20
47.565689
  0
VERTEX
  5
13f
  8
Layer_1
  10
30.671768
  20
47.66568
  0
VERTEX
  5
140
  8
Layer_1
  10
30.829758
  20
47.739349
  0
VERTEX
  5
141
  8
Layer_1
  10
30.998123
  20
47.784462
  0
VERTEX
  5
142
  8
Layer_1
  10
31.171768
  20
47.79966
  0
VERTEX
  5
143
  8
Layer_1
  10
98.071762
  20
47.800194
  0
VERTEX
  5
144
  8
Layer_1
  10
98.245407
  20
47.784988
  0
VERTEX
  5
145
  8
Layer_1
  10
98.413773
  20
47.739891
  0
VERTEX
  5
146
  8
Layer_1
  10
98.571762
  20
47.666222
  0
VERTEX
  5
147
  8
Layer_1
  10
98.714554
  20
47.566238
  0
VERTEX
  5
148
  8
Layer_1
  10
98.837814
  20
47.442986
  0
VERTEX
  5
149
  8
Layer_1
  10
98.93779
  20
47.300194
  0
VERTEX
  5
14a
  8
Layer_1
  10
99.011459
  20
47.14222
  0
VERTEX
  5
14b
  8
Layer_1
  10
99.056564
  20
46.973839
  0
VERTEX
  5
14c
  8
Layer_1
  10
99.071762
  20
46.800201
  0
VERTEX
  5
14d
  8
Layer_1
  10
99.071884
  20
34.800201
  0
VERTEX
  5
14e
  8
Layer_1
  10
99.056686
  20
34.626549
  0
VERTEX
  5
14f
  8
Layer_1
  10
99.011551
  20
34.458176
  0
VERTEX
  5
150
  8
Layer_1
  10
98.937912
  20
34.300201
  0
VERTEX
  5
151
  8
Layer_1
  10
98.837906
  20
34.15741
  0
VERTEX
  5
152
  8
Layer_1
  10
98.714676
  20
34.034149
  0
VERTEX
  5
153
  8
Layer_1
  10
98.571884
  20
33.934166
  0
VERTEX
  5
154
  8
Layer_1
  10
98.413895
  20
33.860489
  0
VERTEX
  5
155
  8
Layer_1
  10
98.245529
  20
33.815392
  0
VERTEX
  5
156
  8
Layer_1
  10
98.071884
  20
33.800194
  0
VERTEX
  5
157
  8
Layer_1
  10
31.171875
  20
33.79966
  0
VERTEX
  5
158
  8
Layer_1
  10
30.99823
  20
33.81485
  0
VERTEX
  5
159
  8
Layer_1
  10
30.829865
  20
33.859962
  0
VERTEX
  5
15a
  8
Layer_1
  10
30.671875
  20
33.933632
  0
VERTEX
  5
15b
  8
Layer_1
  10
30.529083
  20
34.033615
  0
VERTEX
  5
15c
  8
Layer_1
  10
30.405838
  20
34.156876
  0
VERTEX
  5
15d
  8
Layer_1
  10
30.305847
  20
34.299652
  0
VERTEX
  5
15e
  8
Layer_1
  10
30.232178
  20
34.457634
  0
VERTEX
  5
15f
  8
Layer_1
  10
30.187073
  20
34.625999
  0
VERTEX
  5
160
  8
Layer_1
  10
30.171875
  20
34.799652
  0
SEQEND
  0
POLYLINE
  5
162
  8
Layer_1
  62
0
  70
1
  66
1
  10
0
  20
0
  30
0
  0
VERTEX
  5
162
  8
Layer_1
  10
31.172012
  20
17.79966
  0
VERTEX
  5
163
  8
Layer_1
  10
30.998352
  20
17.81485
  0
VERTEX
  5
164
  8
Layer_1
  10
30.829987
  20
17.859962
  0
VERTEX
  5
165
  8
Layer_1
  10
30.672012
  20
17.933632
  0
VERTEX
  5
166
  8
Layer_1
  10
30.529221
  20
18.033607
  0
VERTEX
  5
167
  8
Layer_1
  10
30.40596
  20
18.156868
  0
VERTEX
  5
168
  8
Layer_1
  10
30.305984
  20
18.299652
  0
VERTEX
  5
169
  8
Layer_1
  10
30.232315
  20
18.457634
  0
VERTEX
  5
16a
  8
Layer_1
  10
30.187195
  20
18.626007
  0
VERTEX
  5
16b
  8
Layer_1
  10
30.171997
  20
18.799652
  0
VERTEX
  5
16c
  8
Layer_1
  10
30.171906
  20
30.799652
  0
VERTEX
  5
16d
  8
Layer_1
  10
30.187103
  20
30.973305
  0
VERTEX
  5
16e
  8
Layer_1
  10
30.232208
  20
31.14167
  0
VERTEX
  5
16f
  8
Layer_1
  10
30.305878
  20
31.299652
  0
VERTEX
  5
170
  8
Layer_1
  10
30.405853
  20
31.442444
  0
VERTEX
  5
171
  8
Layer_1
  10
30.529114
  20
31.565689
  0
VERTEX
  5
172
  8
Layer_1
  10
30.67189
  20
31.66568
  0
VERTEX
  5
173
  8
Layer_1
  10
30.82988
  20
31.739349
  0
VERTEX
  5
174
  8
Layer_1
  10
30.998245
  20
31.78447
  0
VERTEX
  5
175
  8
Layer_1
  10
31.17189
  20
31.79966
  0
VERTEX
  5
176
  8
Layer_1
  10
98.071884
  20
31.800194
  0
VERTEX
  5
177
  8
Layer_1
  10
98.245529
  20
31.785004
  0
VERTEX
  5
178
  8
Layer_1
  10
98.413925
  20
31.739891
  0
VERTEX
  5
179
  8
Layer_1
  10
98.571884
  20
31.666222
  0
VERTEX
  5
17a
  8
Layer_1
  10
98.714676
  20
31.566238
  0
VERTEX
  5
17b
  8
Layer_1
  10
98.837936
  20
31.442986
  0
VERTEX
  5
17c
  8
Layer_1
  10
98.937912
  20
31.300201
  0
VERTEX
  5
17d
  8
Layer_1
  10
99.011581
  20
31.14222
  0
VERTEX
  5
17e
  8
Layer_1
  10
99.056717
  20
30.973839
  0
VERTEX
  5
17f
  8
Layer_1
  10
99.071915
  20
30.800201
  0
VERTEX
  5
180
  8
Layer_1
  10
99.072006
  20
18.800194
  0
VERTEX
  5
181
  8
Layer_1
  10
99.056808
  20
18.626549
  0
VERTEX
  5
182
  8
Layer_1
  10
99.011703
  20
18.458176
  0
VERTEX
  5
183
  8
Layer_1
  10
98.938034
  20
18.300201
  0
VERTEX
  5
184
  8
Layer_1
  10
98.838058
  20
18.15741
  0
VERTEX
  5
185
  8
Layer_1
  10
98.714798
  20
18.034149
  0
VERTEX
  5
186
  8
Layer_1
  10
98.572006
  20
17.934166
  0
VERTEX
  5
187
  8
Layer_1
  10
98.414017
  20
17.860504
  0
VERTEX
  5
188
  8
Layer_1
  10
98.245651
  20
17.815384
  0
VERTEX
  5
189
  8
Layer_1
  10
98.072006
  20
17.800194
  0
VERTEX
  5
18a
  8
Layer_1
  10
31.172012
  20
17.79966
  0
SEQEND
  0
POLYLINE
  5
18c
  8
Layer_0
  62
1
  70
1
  66
1
  10
0
  20
0
  30
0
  0
VERTEX
  5
18c
  8
Layer_0
  10
55.088402
  20
57.128513
  0
VERTEX
  5
18d
  8
Layer_0
  10
57.221214
  20
57.128513
  0
VERTEX
  5
18e
  8
Layer_0
  10
57.221214
  20
57.886326
  0
VERTEX
  5
18f
  8
Layer_0
  10
52.115746
  20
57.886326
  0
VERTEX
  5
190
  8
Layer_0
  10
52.115746
  20
57.128513
  0
VERTEX
  5
191
  8
Layer_0
  10
54.236839
  20
57.128513
  0
VERTEX
  5
192
  8
Layer_0
  10
54.236839
  20
51.44492
  0
VERTEX
  5
193
  8
Layer_0
  10
55.088402
  20
51.44492
  0
VERTEX
  5
194
  8
Layer_0
  10
55.088402
  20
57.128513
  0
SEQEND
  0
POLYLINE
  5
196
  8
Layer_0
  62
1
  70
1
  66
1
  10
0
  20
0
  30
0
  0
VERTEX
  5
196
  8
Layer_0
  10
64.057152
  20
51.35117
  0
VERTEX
  5
197
  8
Layer_0
  10
64.386894
  20
51.420162
  0
VERTEX
  5
198
  8
Layer_0
  10
64.687576
  20
51.561966
  0
VERTEX
  5
199
  8
Layer_0
  10
64.947449
  20
51.769268
  0
VERTEX
  5
19a
  8
Layer_0
  10
65.154808
  20
52.034763
  0
VERTEX
  5
19b
  8
Layer_0
  10
65.154808
  20
51.44492
  0
VERTEX
  5
19c
  8
Layer_0
  10
65.889183
  20
51.44492
  0
VERTEX
  5
19d
  8
Layer_0
  10
65.889183
  20
57.886326
  0
VERTEX
  5
19e
  8
Layer_0
  10
65.100121
  20
57.886326
  0
VERTEX
  5
19f
  8
Layer_0
  10
65.100121
  20
55.577732
  0
VERTEX
  5
1a0
  8
Layer_0
  10
64.844467
  20
55.851707
  0
VERTEX
  5
1a1
  8
Layer_0
  10
64.535553
  20
56.054539
  0
VERTEX
  5
1a2
  8
Layer_0
  10
64.187637
  20
56.179127
  0
VERTEX
  5
1a3
  8
Layer_0
  10
63.814964
  20
56.218357
  0
VERTEX
  5
1a4
  8
Layer_0
  10
63.53714
  20
56.199295
  0
VERTEX
  5
1a5
  8
Layer_0
  10
63.264183
  20
56.144138
  0
VERTEX
  5
1a6
  8
Layer_0
  10
63.071102
  20
56.073746
  0
VERTEX
  5
1a7
  8
Layer_0
  10
62.887211
  20
55.983288
  0
VERTEX
  5
1a8
  8
Layer_0
  10
62.714073
  20
55.87365
  0
VERTEX
  5
1a9
  8
Layer_0
  10
62.553246
  20
55.745701
  0
VERTEX
  5
1aa
  8
Layer_0
  10
62.404591
  20
55.590591
  0
VERTEX
  5
1ab
  8
Layer_0
  10
62.274235
  20
55.420639
  0
VERTEX
  5
1ac
  8
Layer_0
  10
62.163265
  20
55.237434
  0
VERTEX
  5
1ad
  8
Layer_0
  10
62.072777
  20
55.042576
  0
VERTEX
  5
1ae
  8
Layer_0
  10
61.94709
  20
54.650032
  0
VERTEX
  5
1af
  8
Layer_0
  10
61.869003
  20
54.24678
  0
VERTEX
  5
1b0
  8
Layer_0
  10
61.839092
  20
53.837128
  0
VERTEX
  5
1b1
  8
Layer_0
  10
61.857933
  20
53.425388
  0
VERTEX
  5
1b2
  8
Layer_0
  10
61.900871
  20
53.115044
  0
VERTEX
  5
1b3
  8
Layer_0
  10
61.979652
  20
52.812927
  0
VERTEX
  5
1b4
  8
Layer_0
  10
62.093273
  20
52.522125
  0
VERTEX
  5
1b5
  8
Layer_0
  10
62.240746
  20
52.245701
  0
VERTEX
  5
1b6
  8
Layer_0
  10
62.449203
  20
51.967659
  0
VERTEX
  5
1b7
  8
Layer_0
  10
62.702202
  20
51.733505
  0
VERTEX
  5
1b8
  8
Layer_0
  10
62.993027
  20
51.548416
  0
VERTEX
  5
1b9
  8
Layer_0
  10
63.314964
  20
51.417576
  0
VERTEX
  5
1ba
  8
Layer_0
  10
63.497276
  20
51.372841
  0
VERTEX
  5
1bb
  8
Layer_0
  10
63.682693
  20
51.346779
  0
VERTEX
  5
1bc
  8
Layer_0
  10
63.869793
  20
51.339512
  0
VERTEX
  5
1bd
  8
Layer_0
  10
64.057152
  20
51.35117
  0
SEQEND
  0
POLYLINE
  5
1bf
  8
Layer_0
  62
1
  70
1
  66
1
  10
0
  20
0
  30
0
  0
VERTEX
  5
1bf
  8
Layer_0
  10
59.279808
  20
51.358982
  0
VERTEX
  5
1c0
  8
Layer_0
  10
59.635597
  20
51.427719
  0
VERTEX
  5
1c1
  8
Layer_0
  10
59.972397
  20
51.554413
  0
VERTEX
  5
1c2
  8
Layer_0
  10
60.283218
  20
51.735733
  0
VERTEX
  5
1c3
  8
Layer_0
  10
60.561058
  20
51.968357
  0
VERTEX
  5
1c4
  8
Layer_0
  10
60.746059
  20
52.18515
  0
VERTEX
  5
1c5
  8
Layer_0
  10
60.893089
  20
52.429295
  0
VERTEX
  5
1c6
  8
Layer_0
  10
61.014183
  20
52.710545
  0
VERTEX
  5
1c7
  8
Layer_0
  10
61.100365
  20
53.060345
  0
VERTEX
  5
1c8
  8
Layer_0
  10
61.146996
  20
53.417576
  0
VERTEX
  5
1c9
  8
Layer_0
  10
61.165546
  20
53.894718
  0
VERTEX
  5
1ca
  8
Layer_0
  10
61.127464
  20
54.370701
  0
VERTEX
  5
1cb
  8
Layer_0
  10
61.05632
  20
54.706131
  0
VERTEX
  5
1cc
  8
Layer_0
  10
60.935169
  20
55.024746
  0
VERTEX
  5
1cd
  8
Layer_0
  10
60.766609
  20
55.321026
  0
VERTEX
  5
1ce
  8
Layer_0
  10
60.553246
  20
55.589451
  0
VERTEX
  5
1cf
  8
Layer_0
  10
60.266907
  20
55.83535
  0
VERTEX
  5
1d0
  8
Layer_0
  10
59.942955
  20
56.022888
  0
VERTEX
  5
1d1
  8
Layer_0
  10
59.590164
  20
56.148003
  0
VERTEX
  5
1d2
  8
Layer_0
  10
59.217308
  20
56.206638
  0
VERTEX
  5
1d3
  8
Layer_0
  10
58.808067
  20
56.216736
  0
VERTEX
  5
1d4
  8
Layer_0
  10
58.406815
  20
56.154057
  0
VERTEX
  5
1d5
  8
Layer_0
  10
58.023106
  20
56.020988
  0
VERTEX
  5
1d6
  8
Layer_0
  10
57.666527
  20
55.81992
  0
VERTEX
  5
1d7
  8
Layer_0
  10
57.441231
  20
55.633789
  0
VERTEX
  5
1d8
  8
Layer_0
  10
57.248169
  20
55.416672
  0
VERTEX
  5
1d9
  8
Layer_0
  10
57.090454
  20
55.172661
  0
VERTEX
  5
1da
  8
Layer_0
  10
56.971214
  20
54.905857
  0
VERTEX
  5
1db
  8
Layer_0
  10
56.874588
  20
54.560257
  0
VERTEX
  5
1dc
  8
Layer_0
  10
56.814163
  20
54.207504
  0
VERTEX
  5
1dd
  8
Layer_0
  10
56.790272
  20
53.850414
  0
VERTEX
  5
1de
  8
Layer_0
  10
56.803246
  20
53.491795
  0
VERTEX
  5
1df
  8
Layer_0
  10
56.832806
  20
53.184875
  0
VERTEX
  5
1e0
  8
Layer_0
  10
56.897919
  20
52.884541
  0
VERTEX
  5
1e1
  8
Layer_0
  10
56.99773
  20
52.593887
  0
VERTEX
  5
1e2
  8
Layer_0
  10
57.131371
  20
52.316013
  0
VERTEX
  5
1e3
  8
Layer_0
  10
57.272133
  20
52.113052
  0
VERTEX
  5
1e4
  8
Layer_0
  10
57.434792
  20
51.930843
  0
VERTEX
  5
1e5
  8
Layer_0
  10
57.617035
  20
51.770767
  0
VERTEX
  5
1e6
  8
Layer_0
  10
57.816536
  20
51.634228
  0
VERTEX
  5
1e7
  8
Layer_0
  10
58.030975
  20
51.522606
  0
VERTEX
  5
1e8
  8
Layer_0
  10
58.258041
  20
51.437298
  0
VERTEX
  5
1e9
  8
Layer_0
  10
58.495403
  20
51.379688
  0
VERTEX
  5
1ea
  8
Layer_0
  10
58.740746
  20
51.35117
  0
VERTEX
  5
1eb
  8
Layer_0
  10
59.010498
  20
51.339699
  0
VERTEX
  5
1ec
  8
Layer_0
  10
59.279808
  20
51.358982
  0
SEQEND
  0
POLYLINE
  5
1ee
  8
Layer_0
  62
1
  70
1
  66
1
  10
0
  20
0
  30
0
  0
VERTEX
  5
1ee
  8
Layer_0
  10
68.721214
  20
51.35117
  0
VERTEX
  5
1ef
  8
Layer_0
  10
69.064133
  20
51.404678
  0
VERTEX
  5
1f0
  8
Layer_0
  10
69.394051
  20
51.506508
  0
VERTEX
  5
1f1
  8
Layer_0
  10
69.70591
  20
51.654694
  0
VERTEX
  5
1f2
  8
Layer_0
  10
69.994652
  20
51.847263
  0
VERTEX
  5
1f3
  8
Layer_0
  10
70.213402
  20
52.023045
  0
VERTEX
  5
1f4
  8
Layer_0
  10
70.265198
  20
51.726868
  0
VERTEX
  5
1f5
  8
Layer_0
  10
70.369652
  20
51.44492
  0
VERTEX
  5
1f6
  8
Layer_0
  10
71.197777
  20
51.44492
  0
VERTEX
  5
1f7
  8
Layer_0
  10
71.096558
  20
51.655769
  0
VERTEX
  5
1f8
  8
Layer_0
  10
71.023911
  20
51.877075
  0
VERTEX
  5
1f9
  8
Layer_0
  10
70.980568
  20
52.105942
  0
VERTEX
  5
1fa
  8
Layer_0
  10
70.967308
  20
52.339451
  0
VERTEX
  5
1fb
  8
Layer_0
  10
70.95047
  20
52.737713
  0
VERTEX
  5
1fc
  8
Layer_0
  10
70.947777
  20
53.136326
  0
VERTEX
  5
1fd
  8
Layer_0
  10
70.952118
  20
53.917603
  0
VERTEX
  5
1fe
  8
Layer_0
  10
70.943871
  20
54.698826
  0
VERTEX
  5
1ff
  8
Layer_0
  10
70.929199
  20
55.02211
  0
VERTEX
  5
200
  8
Layer_0
  10
70.865746
  20
55.339451
  0
VERTEX
  5
201
  8
Layer_0
  10
70.777435
  20
55.550316
  0
VERTEX
  5
202
  8
Layer_0
  10
70.647507
  20
55.735275
  0
VERTEX
  5
203
  8
Layer_0
  10
70.481186
  20
55.888332
  0
VERTEX
  5
204
  8
Layer_0
  10
70.283714
  20
56.003513
  0
VERTEX
  5
205
  8
Layer_0
  10
70.077667
  20
56.088051
  0
VERTEX
  5
206
  8
Layer_0
  10
69.864624
  20
56.151005
  0
VERTEX
  5
207
  8
Layer_0
  10
69.646286
  20
56.191975
  0
VERTEX
  5
208
  8
Layer_0
  10
69.424339
  20
56.210545
  0
VERTEX
  5
209
  8
Layer_0
  10
69.083832
  20
56.221642
  0
VERTEX
  5
20a
  8
Layer_0
  10
68.744705
  20
56.199104
  0
VERTEX
  5
20b
  8
Layer_0
  10
68.409462
  20
56.143227
  0
VERTEX
  5
20c
  8
Layer_0
  10
68.080589
  20
56.054295
  0
VERTEX
  5
20d
  8
Layer_0
  10
67.781914
  20
55.920113
  0
VERTEX
  5
20e
  8
Layer_0
  10
67.518089
  20
55.72617
  0
VERTEX
  5
20f
  8
Layer_0
  10
67.377007
  20
55.572357
  0
VERTEX
  5
210
  8
Layer_0
  10
67.258667
  20
55.401581
  0
VERTEX
  5
211
  8
Layer_0
  10
67.164581
  20
55.216343
  0
VERTEX
  5
212
  8
Layer_0
  10
67.096214
  20
55.019138
  0
VERTEX
  5
213
  8
Layer_0
  10
67.033714
  20
54.780857
  0
VERTEX
  5
214
  8
Layer_0
  10
67.807152
  20
54.675388
  0
VERTEX
  5
215
  8
Layer_0
  10
67.87574
  20
54.891556
  0
VERTEX
  5
216
  8
Layer_0
  10
67.971214
  20
55.097263
  0
VERTEX
  5
217
  8
Layer_0
  10
68.04245
  20
55.210251
  0
VERTEX
  5
218
  8
Layer_0
  10
68.131485
  20
55.308533
  0
VERTEX
  5
219
  8
Layer_0
  10
68.236084
  20
55.390045
  0
VERTEX
  5
21a
  8
Layer_0
  10
68.354027
  20
55.452732
  0
VERTEX
  5
21b
  8
Layer_0
  10
68.684624
  20
55.540211
  0
VERTEX
  5
21c
  8
Layer_0
  10
69.025902
  20
55.562107
  0
VERTEX
  5
21d
  8
Layer_0
  10
69.290131
  20
55.548729
  0
VERTEX
  5
21e
  8
Layer_0
  10
69.549339
  20
55.495701
  0
VERTEX
  5
21f
  8
Layer_0
  10
69.756371
  20
55.41367
  0
VERTEX
  5
220
  8
Layer_0
  10
69.928246
  20
55.296482
  0
VERTEX
  5
221
  8
Layer_0
  10
70.030006
  20
55.172798
  0
VERTEX
  5
222
  8
Layer_0
  10
70.096214
  20
55.026951
  0
VERTEX
  5
223
  8
Layer_0
  10
70.145676
  20
54.718372
  0
VERTEX
  5
224
  8
Layer_0
  10
70.146996
  20
54.405857
  0
VERTEX
  5
225
  8
Layer_0
  10
69.562286
  20
54.259754
  0
VERTEX
  5
226
  8
Layer_0
  10
68.967308
  20
54.16367
  0
VERTEX
  5
227
  8
Layer_0
  10
68.563332
  20
54.116302
  0
VERTEX
  5
228
  8
Layer_0
  10
68.162621
  20
54.046482
  0
VERTEX
  5
229
  8
Layer_0
  10
67.90358
  20
53.98037
  0
VERTEX
  5
22a
  8
Layer_0
  10
67.659393
  20
53.875431
  0
VERTEX
  5
22b
  8
Layer_0
  10
67.434387
  20
53.733948
  0
VERTEX
  5
22c
  8
Layer_0
  10
67.232933
  20
53.558201
  0
VERTEX
  5
22d
  8
Layer_0
  10
67.089005
  20
53.363522
  0
VERTEX
  5
22e
  8
Layer_0
  10
66.98362
  20
53.147747
  0
VERTEX
  5
22f
  8
Layer_0
  10
66.9189
  20
52.916496
  0
VERTEX
  5
230
  8
Layer_0
  10
66.896996
  20
52.675388
  0
VERTEX
  5
231
  8
Layer_0
  10
66.924339
  20
52.398045
  0
VERTEX
  5
232
  8
Layer_0
  10
67.002464
  20
52.144138
  0
VERTEX
  5
233
  8
Layer_0
  10
67.131371
  20
51.917576
  0
VERTEX
  5
234
  8
Layer_0
  10
67.311058
  20
51.714451
  0
VERTEX
  5
235
  8
Layer_0
  10
67.533951
  20
51.560089
  0
VERTEX
  5
236
  8
Layer_0
  10
67.777863
  20
51.446114
  0
VERTEX
  5
237
  8
Layer_0
  10
68.037399
  20
51.374512
  0
VERTEX
  5
238
  8
Layer_0
  10
68.307152
  20
51.347263
  0
VERTEX
  5
239
  8
Layer_0
  10
68.514275
  20
51.33955
  0
VERTEX
  5
23a
  8
Layer_0
  10
68.721214
  20
51.35117
  0
SEQEND
  0
POLYLINE
  5
23c
  8
Layer_0
  62
1
  70
1
  66
1
  10
0
  20
0
  30
0
  0
VERTEX
  5
23c
  8
Layer_0
  10
72.861839
  20
49.562107
  0
VERTEX
  5
23d
  8
Layer_0
  10
73.07058
  20
49.609108
  0
VERTEX
  5
23e
  8
Layer_0
  10
73.264717
  20
49.694412
  0
VERTEX
  5
23f
  8
Layer_0
  10
73.439056
  20
49.815132
  0
VERTEX
  5
240
  8
Layer_0
  10
73.588402
  20
49.968357
  0
VERTEX
  5
241
  8
Layer_0
  10
73.825592
  20
50.327641
  0
VERTEX
  5
242
  8
Layer_0
  10
74.006371
  20
50.718357
  0
VERTEX
  5
243
  8
Layer_0
  10
74.135483
  20
51.041725
  0
VERTEX
  5
244
  8
Layer_0
  10
74.260277
  20
51.366795
  0
VERTEX
  5
245
  8
Layer_0
  10
76.033714
  20
56.112888
  0
VERTEX
  5
246
  8
Layer_0
  10
75.244652
  20
56.112888
  0
VERTEX
  5
247
  8
Layer_0
  10
74.244652
  20
53.394138
  0
VERTEX
  5
248
  8
Layer_0
  10
74.068398
  20
52.865234
  0
VERTEX
  5
249
  8
Layer_0
  10
73.920433
  20
52.327732
  0
VERTEX
  5
24a
  8
Layer_0
  10
73.763313
  20
52.872765
  0
VERTEX
  5
24b
  8
Layer_0
  10
73.580589
  20
53.409763
  0
VERTEX
  5
24c
  8
Layer_0
  10
72.611839
  20
56.112888
  0
VERTEX
  5
24d
  8
Layer_0
  10
71.760277
  20
56.112888
  0
VERTEX
  5
24e
  8
Layer_0
  10
73.529808
  20
51.437107
  0
VERTEX
  5
24f
  8
Layer_0
  10
73.404144
  20
51.083992
  0
VERTEX
  5
250
  8
Layer_0
  10
73.260277
  20
50.737888
  0
VERTEX
  5
251
  8
Layer_0
  10
73.217308
  20
50.655857
  0
VERTEX
  5
252
  8
Layer_0
  10
73.102768
  20
50.517754
  0
VERTEX
  5
253
  8
Layer_0
  10
72.959496
  20
50.409763
  0
VERTEX
  5
254
  8
Layer_0
  10
72.753983
  20
50.339382
  0
VERTEX
  5
255
  8
Layer_0
  10
72.537621
  20
50.31992
  0
VERTEX
  5
256
  8
Layer_0
  10
72.309052
  20
50.342106
  0
VERTEX
  5
257
  8
Layer_0
  10
72.084496
  20
50.390232
  0
VERTEX
  5
258
  8
Layer_0
  10
72.170433
  20
49.648045
  0
VERTEX
  5
259
  8
Layer_0
  10
72.422798
  20
49.580917
  0
VERTEX
  5
25a
  8
Layer_0
  10
72.682152
  20
49.550388
  0
VERTEX
  5
25b
  8
Layer_0
  10
72.861839
  20
49.562107
  0
SEQEND
  0
POLYLINE
  5
25d
  8
Layer_0
  62
1
  70
1
  66
1
  10
0
  20
0
  30
0
  0
VERTEX
  5
25d
  8
Layer_0
  10
58.697777
  20
52.019138
  0
VERTEX
  5
25e
  8
Layer_0
  10
58.436058
  20
52.10117
  0
VERTEX
  5
25f
  8
Layer_0
  10
58.205589
  20
52.241795
  0
VERTEX
  5
260
  8
Layer_0
  10
57.994652
  20
52.437107
  0
VERTEX
  5
261
  8
Layer_0
  10
57.851765
  20
52.644714
  0
VERTEX
  5
262
  8
Layer_0
  10
57.742523
  20
52.87027
  0
VERTEX
  5
263
  8
Layer_0
  10
57.668526
  20
53.109711
  0
VERTEX
  5
264
  8
Layer_0
  10
57.631371
  20
53.358982
  0
VERTEX
  5
265
  8
Layer_0
  10
57.602028
  20
53.70356
  0
VERTEX
  5
266
  8
Layer_0
  10
57.613297
  20
54.048012
  0
VERTEX
  5
267
  8
Layer_0
  10
57.664856
  20
54.388763
  0
VERTEX
  5
268
  8
Layer_0
  10
57.756371
  20
54.722263
  0
VERTEX
  5
269
  8
Layer_0
  10
57.837036
  20
54.892132
  0
VERTEX
  5
26a
  8
Layer_0
  10
57.93988
  20
55.048485
  0
VERTEX
  5
26b
  8
Layer_0
  10
58.063274
  20
55.18919
  0
VERTEX
  5
26c
  8
Layer_0
  10
58.205589
  20
55.312107
  0
VERTEX
  5
26d
  8
Layer_0
  10
58.436058
  20
55.452732
  0
VERTEX
  5
26e
  8
Layer_0
  10
58.697777
  20
55.534763
  0
VERTEX
  5
26f
  8
Layer_0
  10
58.979027
  20
55.562107
  0
VERTEX
  5
270
  8
Layer_0
  10
59.260277
  20
55.534763
  0
VERTEX
  5
271
  8
Layer_0
  10
59.518089
  20
55.452732
  0
VERTEX
  5
272
  8
Layer_0
  10
59.748558
  20
55.312107
  0
VERTEX
  5
273
  8
Layer_0
  10
59.959496
  20
55.116795
  0
VERTEX
  5
274
  8
Layer_0
  10
60.101158
  20
54.912636
  0
VERTEX
  5
275
  8
Layer_0
  10
60.210598
  20
54.691025
  0
VERTEX
  5
276
  8
Layer_0
  10
60.286285
  20
54.455734
  0
VERTEX
  5
277
  8
Layer_0
  10
60.326683
  20
54.210545
  0
VERTEX
  5
278
  8
Layer_0
  10
60.355343
  20
53.863865
  0
VERTEX
  5
279
  8
Layer_0
  10
60.343185
  20
53.517387
  0
VERTEX
  5
27a
  8
Layer_0
  10
60.29055
  20
53.174713
  0
VERTEX
  5
27b
  8
Layer_0
  10
60.197777
  20
52.839451
  0
VERTEX
  5
27c
  8
Layer_0
  10
60.097038
  20
52.62738
  0
VERTEX
  5
27d
  8
Layer_0
  10
59.959496
  20
52.437107
  0
VERTEX
  5
27e
  8
Layer_0
  10
59.752464
  20
52.241795
  0
VERTEX
  5
27f
  8
Layer_0
  10
59.521996
  20
52.10117
  0
VERTEX
  5
280
  8
Layer_0
  10
59.264183
  20
52.019138
  0
VERTEX
  5
281
  8
Layer_0
  10
58.979027
  20
51.991795
  0
VERTEX
  5
282
  8
Layer_0
  10
58.697777
  20
52.019138
  0
SEQEND
  0
POLYLINE
  5
284
  8
Layer_0
  62
1
  70
1
  66
1
  10
0
  20
0
  30
0
  0
VERTEX
  5
284
  8
Layer_0
  10
63.674339
  20
52.019138
  0
VERTEX
  5
285
  8
Layer_0
  10
63.443871
  20
52.10117
  0
VERTEX
  5
286
  8
Layer_0
  10
63.229027
  20
52.241795
  0
VERTEX
  5
287
  8
Layer_0
  10
63.033714
  20
52.433201
  0
VERTEX
  5
288
  8
Layer_0
  10
62.894672
  20
52.642181
  0
VERTEX
  5
289
  8
Layer_0
  10
62.788124
  20
52.867973
  0
VERTEX
  5
28a
  8
Layer_0
  10
62.7155
  20
53.106846
  0
VERTEX
  5
28b
  8
Layer_0
  10
62.678246
  20
53.355076
  0
VERTEX
  5
28c
  8
Layer_0
  10
62.654385
  20
53.661911
  0
VERTEX
  5
28d
  8
Layer_0
  10
62.656906
  20
53.969093
  0
VERTEX
  5
28e
  8
Layer_0
  10
62.685722
  20
54.274933
  0
VERTEX
  5
28f
  8
Layer_0
  10
62.740746
  20
54.577732
  0
VERTEX
  5
290
  8
Layer_0
  10
62.830784
  20
54.848503
  0
VERTEX
  5
291
  8
Layer_0
  10
62.975555
  20
55.090645
  0
VERTEX
  5
292
  8
Layer_0
  10
63.168934
  20
55.296059
  0
VERTEX
  5
293
  8
Layer_0
  10
63.404808
  20
55.456638
  0
VERTEX
  5
294
  8
Layer_0
  10
63.635277
  20
55.534763
  0
VERTEX
  5
295
  8
Layer_0
  10
63.889183
  20
55.562107
  0
VERTEX
  5
296
  8
Layer_0
  10
64.146996
  20
55.534763
  0
VERTEX
  5
297
  8
Layer_0
  10
64.385277
  20
55.452732
  0
VERTEX
  5
298
  8
Layer_0
  10
64.604027
  20
55.312107
  0
VERTEX
  5
299
  8
Layer_0
  10
64.799339
  20
55.116795
  0
VERTEX
  5
29a
  8
Layer_0
  10
64.935883
  20
54.896713
  0
VERTEX
  5
29b
  8
Layer_0
  10
65.039551
  20
54.660774
  0
VERTEX
  5
29c
  8
Layer_0
  10
65.109055
  20
54.412613
  0
VERTEX
  5
29d
  8
Layer_0
  10
65.143089
  20
54.155857
  0
VERTEX
  5
29e
  8
Layer_0
  10
65.168182
  20
53.852772
  0
VERTEX
  5
29f
  8
Layer_0
  10
65.165405
  20
53.54929
  0
VERTEX
  5
2a0
  8
Layer_0
  10
65.134872
  20
53.247334
  0
VERTEX
  5
2a1
  8
Layer_0
  10
65.076683
  20
52.948826
  0
VERTEX
  5
2a2
  8
Layer_0
  10
64.953247
  20
52.629372
  0
VERTEX
  5
2a3
  8
Layer_0
  10
64.753265
  20
52.358555
  0
VERTEX
  5
2a4
  8
Layer_0
  10
64.489403
  20
52.149475
  0
VERTEX
  5
2a5
  8
Layer_0
  10
64.174339
  20
52.015232
  0
VERTEX
  5
2a6
  8
Layer_0
  10
63.924339
  20
51.991795
  0
VERTEX
  5
2a7
  8
Layer_0
  10
63.674339
  20
52.019138
  0
SEQEND
  0
POLYLINE
  5
2a9
  8
Layer_0
  62
1
  70
1
  66
1
  10
0
  20
0
  30
0
  0
VERTEX
  5
2a9
  8
Layer_0
  10
68.467308
  20
51.972263
  0
VERTEX
  5
2aa
  8
Layer_0
  10
68.286453
  20
52.008095
  0
VERTEX
  5
2ab
  8
Layer_0
  10
68.115746
  20
52.077732
  0
VERTEX
  5
2ac
  8
Layer_0
  10
67.906494
  20
52.245117
  0
VERTEX
  5
2ad
  8
Layer_0
  10
67.778458
  20
52.470654
  0
VERTEX
  5
2ae
  8
Layer_0
  10
67.740952
  20
52.727264
  0
VERTEX
  5
2af
  8
Layer_0
  10
67.803246
  20
52.987888
  0
VERTEX
  5
2b0
  8
Layer_0
  10
67.889442
  20
53.12228
  0
VERTEX
  5
2b1
  8
Layer_0
  10
68.001144
  20
53.233856
  0
VERTEX
  5
2b2
  8
Layer_0
  10
68.13401
  20
53.319122
  0
VERTEX
  5
2b3
  8
Layer_0
  10
68.283714
  20
53.374607
  0
VERTEX
  5
2b4
  8
Layer_0
  10
68.45462
  20
53.417938
  0
VERTEX
  5
2b5
  8
Layer_0
  10
68.627464
  20
53.452732
  0
VERTEX
  5
2b6
  8
Layer_0
  10
69.119308
  20
53.529526
  0
VERTEX
  5
2b7
  8
Layer_0
  10
69.607933
  20
53.624607
  0
VERTEX
  5
2b8
  8
Layer_0
  10
69.880898
  20
53.695358
  0
VERTEX
  5
2b9
  8
Layer_0
  10
70.146996
  20
53.78867
  0
VERTEX
  5
2ba
  8
Layer_0
  10
70.14814
  20
53.412971
  0
VERTEX
  5
2bb
  8
Layer_0
  10
70.115746
  20
53.03867
  0
VERTEX
  5
2bc
  8
Layer_0
  10
70.043106
  20
52.767723
  0
VERTEX
  5
2bd
  8
Layer_0
  10
69.910866
  20
52.524544
  0
VERTEX
  5
2be
  8
Layer_0
  10
69.7258
  20
52.318703
  0
VERTEX
  5
2bf
  8
Layer_0
  10
69.494652
  20
52.159763
  0
VERTEX
  5
2c0
  8
Layer_0
  10
69.25106
  20
52.053474
  0
VERTEX
  5
2c1
  8
Layer_0
  10
68.995544
  20
51.986229
  0
VERTEX
  5
2c2
  8
Layer_0
  10
68.732742
  20
51.958878
  0
VERTEX
  5
2c3
  8
Layer_0
  10
68.467308
  20
51.972263
  0
SEQEND
  0
POLYLINE
  5
2c5
  8
Layer_0
  62
1
  70
1
  66
1
  10
0
  20
0
  30
0
  0
VERTEX
  5
2c5
  8
Layer_0
  10
43.234367
  20
14.683613
  0
VERTEX
  5
2c6
  8
Layer_0
  10
45.36718
  20
14.683613
  0
VERTEX
  5
2c7
  8
Layer_0
  10
45.36718
  20
15.441425
  0
VERTEX
  5
2c8
  8
Layer_0
  10
40.261711
  20
15.441425
  0
VERTEX
  5
2c9
  8
Layer_0
  10
40.261711
  20
14.683613
  0
VERTEX
  5
2ca
  8
Layer_0
  10
42.382805
  20
14.683613
  0
VERTEX
  5
2cb
  8
Layer_0
  10
42.382805
  20
9.0000191
  0
VERTEX
  5
2cc
  8
Layer_0
  10
43.234367
  20
9.0000191
  0
VERTEX
  5
2cd
  8
Layer_0
  10
43.234367
  20
14.683613
  0
SEQEND
  0
POLYLINE
  5
2cf
  8
Layer_0
  62
1
  70
1
  66
1
  10
0
  20
0
  30
0
  0
VERTEX
  5
2cf
  8
Layer_0
  10
47.425774
  20
8.9140816
  0
VERTEX
  5
2d0
  8
Layer_0
  10
47.781563
  20
8.9828167
  0
VERTEX
  5
2d1
  8
Layer_0
  10
48.118362
  20
9.1095095
  0
VERTEX
  5
2d2
  8
Layer_0
  10
48.429184
  20
9.2908325
  0
VERTEX
  5
2d3
  8
Layer_0
  10
48.707024
  20
9.5234566
  0
VERTEX
  5
2d4
  8
Layer_0
  10
48.892025
  20
9.7402496
  0
VERTEX
  5
2d5
  8
Layer_0
  10
49.039055
  20
9.9843941
  0
VERTEX
  5
2d6
  8
Layer_0
  10
49.160149
  20
10.265644
  0
VERTEX
  5
2d7
  8
Layer_0
  10
49.24633
  20
10.615444
  0
VERTEX
  5
2d8
  8
Layer_0
  10
49.292961
  20
10.972675
  0
VERTEX
  5
2d9
  8
Layer_0
  10
49.308277
  20
11.322158
  0
VERTEX
  5
2da
  8
Layer_0
  10
49.300774
  20
11.671894
  0
VERTEX
  5
2db
  8
Layer_0
  10
49.259224
  20
12.020577
  0
VERTEX
  5
2dc
  8
Layer_0
  10
49.167973
  20
12.357765
  0
VERTEX
  5
2dd
  8
Layer_0
  10
49.028862
  20
12.678188
  0
VERTEX
  5
2de
  8
Layer_0
  10
48.843742
  20
12.976582
  0
VERTEX
  5
2df
  8
Layer_0
  10
48.542778
  20
13.289705
  0
VERTEX
  5
2e0
  8
Layer_0
  10
48.186378
  20
13.529528
  0
VERTEX
  5
2e1
  8
Layer_0
  10
47.787575
  20
13.689167
  0
VERTEX
  5
2e2
  8
Layer_0
  10
47.359367
  20
13.761738
  0
VERTEX
  5
2e3
  8
Layer_0
  10
46.951103
  20
13.77149
  0
VERTEX
  5
2e4
  8
Layer_0
  10
46.55085
  20
13.708698
  0
VERTEX
  5
2e5
  8
Layer_0
  10
46.168133
  20
13.575747
  0
VERTEX
  5
2e6
  8
Layer_0
  10
45.812492
  20
13.375019
  0
VERTEX
  5
2e7
  8
Layer_0
  10
45.587196
  20
13.18889
  0
VERTEX
  5
2e8
  8
Layer_0
  10
45.394135
  20
12.971769
  0
VERTEX
  5
2e9
  8
Layer_0
  10
45.23642
  20
12.727757
  0
VERTEX
  5
2ea
  8
Layer_0
  10
45.11718
  20
12.460957
  0
VERTEX
  5
2eb
  8
Layer_0
  10
44.984638
  20
11.924389
  0
VERTEX
  5
2ec
  8
Layer_0
  10
44.935818
  20
11.377131
  0
VERTEX
  5
2ed
  8
Layer_0
  10
44.97084
  20
10.828817
  0
VERTEX
  5
2ee
  8
Layer_0
  10
45.089836
  20
10.289082
  0
VERTEX
  5
2ef
  8
Layer_0
  10
45.191921
  20
10.031375
  0
VERTEX
  5
2f0
  8
Layer_0
  10
45.32682
  20
9.7937984
  0
VERTEX
  5
2f1
  8
Layer_0
  10
45.491581
  20
9.5788994
  0
VERTEX
  5
2f2
  8
Layer_0
  10
45.683258
  20
9.3892193
  0
VERTEX
  5
2f3
  8
Layer_0
  10
45.898903
  20
9.2273064
  0
VERTEX
  5
2f4
  8
Layer_0
  10
46.135563
  20
9.0957031
  0
VERTEX
  5
2f5
  8
Layer_0
  10
46.390297
  20
8.9969578
  0
VERTEX
  5
2f6
  8
Layer_0
  10
46.660149
  20
8.9336128
  0
VERTEX
  5
2f7
  8
Layer_0
  10
47.042244
  20
8.8957615
  0
VERTEX
  5
2f8
  8
Layer_0
  10
47.425774
  20
8.9140816
  0
SEQEND
  0
POLYLINE
  5
2fa
  8
Layer_0
  62
1
  70
1
  66
1
  10
0
  20
0
  30
0
  0
VERTEX
  5
2fa
  8
Layer_0
  10
51.062492
  20
11.421894
  0
VERTEX
  5
2fb
  8
Layer_0
  10
51.062634
  20
11.669554
  0
VERTEX
  5
2fc
  8
Layer_0
  10
51.08429
  20
11.915806
  0
VERTEX
  5
2fd
  8
Layer_0
  10
51.127274
  20
12.159243
  0
VERTEX
  5
2fe
  8
Layer_0
  10
51.191399
  20
12.398457
  0
VERTEX
  5
2ff
  8
Layer_0
  10
51.304092
  20
12.621649
  0
VERTEX
  5
300
  8
Layer_0
  10
51.464951
  20
12.808441
  0
VERTEX
  5
301
  8
Layer_0
  10
51.665791
  20
12.951374
  0
VERTEX
  5
302
  8
Layer_0
  10
51.89843
  20
13.042988
  0
VERTEX
  5
303
  8
Layer_0
  10
52.072853
  20
13.077951
  0
VERTEX
  5
304
  8
Layer_0
  10
52.249519
  20
13.086296
  0
VERTEX
  5
305
  8
Layer_0
  10
52.425453
  20
13.068103
  0
VERTEX
  5
306
  8
Layer_0
  10
52.597649
  20
13.023457
  0
VERTEX
  5
307
  8
Layer_0
  10
52.706451
  20
12.9622
  0
VERTEX
  5
308
  8
Layer_0
  10
52.800926
  20
12.882234
  0
VERTEX
  5
309
  8
Layer_0
  10
52.878727
  20
12.785965
  0
VERTEX
  5
30a
  8
Layer_0
  10
52.937492
  20
12.6758
  0
VERTEX
  5
30b
  8
Layer_0
  10
53.020672
  20
12.358371
  0
VERTEX
  5
30c
  8
Layer_0
  10
53.046867
  20
12.031269
  0
VERTEX
  5
30d
  8
Layer_0
  10
53.046867
  20
9.0000191
  0
VERTEX
  5
30e
  8
Layer_0
  10
53.83593
  20
9.0000191
  0
VERTEX
  5
30f
  8
Layer_0
  10
53.83593
  20
11.710957
  0
VERTEX
  5
310
  8
Layer_0
  10
53.839687
  20
11.933386
  0
VERTEX
  5
311
  8
Layer_0
  10
53.871925
  20
12.152566
  0
VERTEX
  5
312
  8
Layer_0
  10
53.932064
  20
12.365784
  0
VERTEX
  5
313
  8
Layer_0
  10
54.019524
  20
12.570332
  0
VERTEX
  5
314
  8
Layer_0
  10
54.084503
  20
12.669954
  0
VERTEX
  5
315
  8
Layer_0
  10
54.160149
  20
12.761738
  0
VERTEX
  5
316
  8
Layer_0
  10
54.287239
  20
12.870075
  0
VERTEX
  5
317
  8
Layer_0
  10
54.428261
  20
12.957832
  0
VERTEX
  5
318
  8
Layer_0
  10
54.580734
  20
13.023714
  0
VERTEX
  5
319
  8
Layer_0
  10
54.74218
  20
13.066425
  0
VERTEX
  5
31a
  8
Layer_0
  10
54.925354
  20
13.085371
  0
VERTEX
  5
31b
  8
Layer_0
  10
55.109367
  20
13.078144
  0
VERTEX
  5
31c
  8
Layer_0
  10
55.308708
  20
13.035398
  0
VERTEX
  5
31d
  8
Layer_0
  10
55.4851
  20
12.940935
  0
VERTEX
  5
31e
  8
Layer_0
  10
55.628902
  20
12.801796
  0
VERTEX
  5
31f
  8
Layer_0
  10
55.730461
  20
12.625019
  0
VERTEX
  5
320
  8
Layer_0
  10
55.797226
  20
12.286388
  0
VERTEX
  5
321
  8
Layer_0
  10
55.808586
  20
11.941425
  0
VERTEX
  5
322
  8
Layer_0
  10
55.808586
  20
9.0000191
  0
VERTEX
  5
323
  8
Layer_0
  10
56.597649
  20
9.0000191
  0
VERTEX
  5
324
  8
Layer_0
  10
56.597649
  20
12.203144
  0
VERTEX
  5
325
  8
Layer_0
  10
56.591118
  20
12.453873
  0
VERTEX
  5
326
  8
Layer_0
  10
56.553364
  20
12.70084
  0
VERTEX
  5
327
  8
Layer_0
  10
56.485016
  20
12.941147
  0
VERTEX
  5
328
  8
Layer_0
  10
56.386711
  20
13.171894
  0
VERTEX
  5
329
  8
Layer_0
  10
56.243145
  20
13.365664
  0
VERTEX
  5
32a
  8
Layer_0
  10
56.064854
  20
13.524384
  0
VERTEX
  5
32b
  8
Layer_0
  10
55.858036
  20
13.643579
  0
VERTEX
  5
32c
  8
Layer_0
  10
55.628899
  20
13.718769
  0
VERTEX
  5
32d
  8
Layer_0
  10
55.354462
  20
13.765742
  0
VERTEX
  5
32e
  8
Layer_0
  10
55.077629
  20
13.771471
  0
VERTEX
  5
32f
  8
Layer_0
  10
54.802994
  20
13.7362
  0
VERTEX
  5
330
  8
Layer_0
  10
54.535149
  20
13.660175
  0
VERTEX
  5
331
  8
Layer_0
  10
54.292946
  20
13.531044
  0
VERTEX
  5
332
  8
Layer_0
  10
54.073296
  20
13.368926
  0
VERTEX
  5
333
  8
Layer_0
  10
53.879494
  20
13.176651
  0
VERTEX
  5
334
  8
Layer_0
  10
53.714836
  20
12.95705
  0
VERTEX
  5
335
  8
Layer_0
  10
53.582535
  20
13.225245
  0
VERTEX
  5
336
  8
Layer_0
  10
53.38998
  20
13.448046
  0
VERTEX
  5
337
  8
Layer_0
  10
53.147942
  20
13.61578
  0
VERTEX
  5
338
  8
Layer_0
  10
52.86718
  20
13.718769
  0
VERTEX
  5
339
  8
Layer_0
  10
52.639992
  20
13.75979
  0
VERTEX
  5
33a
  8
Layer_0
  10
52.410378
  20
13.774122
  0
VERTEX
  5
33b
  8
Layer_0
  10
52.180641
  20
13.761754
  0
VERTEX
  5
33c
  8
Layer_0
  10
51.953117
  20
13.722675
  0
VERTEX
  5
33d
  8
Layer_0
  10
51.66256
  20
13.616688
  0
VERTEX
  5
33e
  8
Layer_0
  10
51.399212
  20
13.45966
  0
VERTEX
  5
33f
  8
Layer_0
  10
51.169651
  20
13.256405
  0
VERTEX
  5
340
  8
Layer_0
  10
50.980461
  20
13.011738
  0
VERTEX
  5
341
  8
Layer_0
  10
50.980461
  20
13.667988
  0
VERTEX
  5
342
  8
Layer_0
  10
50.27343
  20
13.667988
  0
VERTEX
  5
343
  8
Layer_0
  10
50.27343
  20
9.0000191
  0
VERTEX
  5
344
  8
Layer_0
  10
51.062492
  20
9.0000191
  0
VERTEX
  5
345
  8
Layer_0
  10
51.062492
  20
11.421894
  0
SEQEND
  0
POLYLINE
  5
347
  8
Layer_0
  62
1
  70
1
  66
1
  10
0
  20
0
  30
0
  0
VERTEX
  5
347
  8
Layer_0
  10
58.624992
  20
11.421894
  0
VERTEX
  5
348
  8
Layer_0
  10
58.625496
  20
11.669317
  0
VERTEX
  5
349
  8
Layer_0
  10
58.646606
  20
11.915408
  0
VERTEX
  5
34a
  8
Layer_0
  10
58.68816
  20
12.158882
  0
VERTEX
  5
34b
  8
Layer_0
  10
58.749992
  20
12.398457
  0
VERTEX
  5
34c
  8
Layer_0
  10
58.821785
  20
12.550422
  0
VERTEX
  5
34d
  8
Layer_0
  10
58.914665
  20
12.686807
  0
VERTEX
  5
34e
  8
Layer_0
  10
59.02618
  20
12.80597
  0
VERTEX
  5
34f
  8
Layer_0
  10
59.153873
  20
12.906267
  0
VERTEX
  5
350
  8
Layer_0
  10
59.295288
  20
12.986057
  0
VERTEX
  5
351
  8
Layer_0
  10
59.447975
  20
13.043697
  0
VERTEX
  5
352
  8
Layer_0
  10
59.609474
  20
13.077544
  0
VERTEX
  5
353
  8
Layer_0
  10
59.777336
  20
13.085957
  0
VERTEX
  5
354
  8
Layer_0
  10
59.96978
  20
13.072847
  0
VERTEX
  5
355
  8
Layer_0
  10
60.156242
  20
13.023457
  0
VERTEX
  5
356
  8
Layer_0
  10
60.265278
  20
12.962461
  0
VERTEX
  5
357
  8
Layer_0
  10
60.359856
  20
12.882561
  0
VERTEX
  5
358
  8
Layer_0
  10
60.437584
  20
12.786194
  0
VERTEX
  5
359
  8
Layer_0
  10
60.496086
  20
12.6758
  0
VERTEX
  5
35a
  8
Layer_0
  10
60.583397
  20
12.359071
  0
VERTEX
  5
35b
  8
Layer_0
  10
60.605461
  20
12.031269
  0
VERTEX
  5
35c
  8
Layer_0
  10
60.605461
  20
9.0000191
  0
VERTEX
  5
35d
  8
Layer_0
  10
61.394524
  20
9.0000191
  0
VERTEX
  5
35e
  8
Layer_0
  10
61.394524
  20
11.710957
  0
VERTEX
  5
35f
  8
Layer_0
  10
61.398113
  20
11.90262
  0
VERTEX
  5
360
  8
Layer_0
  10
61.420967
  20
12.092489
  0
VERTEX
  5
361
  8
Layer_0
  10
61.462822
  20
12.279093
  0
VERTEX
  5
362
  8
Layer_0
  10
61.52343
  20
12.460957
  0
VERTEX
  5
363
  8
Layer_0
  10
61.608505
  20
12.620974
  0
VERTEX
  5
364
  8
Layer_0
  10
61.722649
  20
12.761738
  0
VERTEX
  5
365
  8
Layer_0
  10
61.849586
  20
12.870338
  0
VERTEX
  5
366
  8
Layer_0
  10
61.99057
  20
12.958194
  0
VERTEX
  5
367
  8
Layer_0
  10
62.143105
  20
13.023993
  0
VERTEX
  5
368
  8
Layer_0
  10
62.30468
  20
13.066425
  0
VERTEX
  5
369
  8
Layer_0
  10
62.487858
  20
13.085332
  0
VERTEX
  5
36a
  8
Layer_0
  10
62.671867
  20
13.078144
  0
VERTEX
  5
36b
  8
Layer_0
  10
62.87019
  20
13.033492
  0
VERTEX
  5
36c
  8
Layer_0
  10
63.045921
  20
12.938629
  0
VERTEX
  5
36d
  8
Layer_0
  10
63.189899
  20
12.800243
  0
VERTEX
  5
36e
  8
Layer_0
  10
63.292961
  20
12.625019
  0
VERTEX
  5
36f
  8
Layer_0
  10
63.358574
  20
12.286257
  0
VERTEX
  5
370
  8
Layer_0
  10
63.371086
  20
11.941425
  0
VERTEX
  5
371
  8
Layer_0
  10
63.371086
  20
9.0000191
  0
VERTEX
  5
372
  8
Layer_0
  10
64.156242
  20
9.0000191
  0
VERTEX
  5
373
  8
Layer_0
  10
64.156242
  20
12.203144
  0
VERTEX
  5
374
  8
Layer_0
  10
64.149994
  20
12.453924
  0
VERTEX
  5
375
  8
Layer_0
  10
64.112335
  20
12.700924
  0
VERTEX
  5
376
  8
Layer_0
  10
64.0439
  20
12.941221
  0
VERTEX
  5
377
  8
Layer_0
  10
63.945305
  20
13.171894
  0
VERTEX
  5
378
  8
Layer_0
  10
63.802395
  20
13.365025
  0
VERTEX
  5
379
  8
Layer_0
  10
63.625046
  20
13.523489
  0
VERTEX
  5
37a
  8
Layer_0
  10
63.419353
  20
13.642877
  0
VERTEX
  5
37b
  8
Layer_0
  10
63.191399
  20
13.718769
  0
VERTEX
  5
37c
  8
Layer_0
  10
62.915989
  20
13.765699
  0
VERTEX
  5
37d
  8
Layer_0
  10
62.638199
  20
13.771416
  0
VERTEX
  5
37e
  8
Layer_0
  10
62.362595
  20
13.736159
  0
VERTEX
  5
37f
  8
Layer_0
  10
62.093742
  20
13.660175
  0
VERTEX
  5
380
  8
Layer_0
  10
61.851715
  20
13.530819
  0
VERTEX
  5
381
  8
Layer_0
  10
61.632133
  20
13.368639
  0
VERTEX
  5
382
  8
Layer_0
  10
61.438278
  20
13.176445
  0
VERTEX
  5
383
  8
Layer_0
  10
61.27343
  20
12.95705
  0
VERTEX
  5
384
  8
Layer_0
  10
61.141411
  20
13.22551
  0
VERTEX
  5
385
  8
Layer_0
  10
60.948917
  20
13.44843
  0
VERTEX
  5
386
  8
Layer_0
  10
60.706764
  20
13.616091
  0
VERTEX
  5
387
  8
Layer_0
  10
60.425774
  20
13.718769
  0
VERTEX
  5
388
  8
Layer_0
  10
60.146347
  20
13.768417
  0
VERTEX
  5
389
  8
Layer_0
  10
59.864258
  20
13.77436
  0
VERTEX
  5
38a
  8
Layer_0
  10
59.584606
  20
13.736881
  0
VERTEX
  5
38b
  8
Layer_0
  10
59.312492
  20
13.656269
  0
VERTEX
  5
38c
  8
Layer_0
  10
59.08419
  20
13.540429
  0
VERTEX
  5
38d
  8
Layer_0
  10
58.876976
  20
13.392559
  0
VERTEX
  5
38e
  8
Layer_0
  10
58.694168
  20
13.215412
  0
VERTEX
  5
38f
  8
Layer_0
  10
58.539055
  20
13.011738
  0
VERTEX
  5
390
  8
Layer_0
  10
58.539055
  20
13.667988
  0
VERTEX
  5
391
  8
Layer_0
  10
57.832024
  20
13.667988
  0
VERTEX
  5
392
  8
Layer_0
  10
57.832024
  20
9.0000191
  0
VERTEX
  5
393
  8
Layer_0
  10
58.624992
  20
9.0000191
  0
VERTEX
  5
394
  8
Layer_0
  10
58.624992
  20
11.421894
  0
SEQEND
  0
POLYLINE
  5
396
  8
Layer_0
  62
1
  70
1
  66
1
  10
0
  20
0
  30
0
  0
VERTEX
  5
396
  8
Layer_0
  10
67.58593
  20
8.9140816
  0
VERTEX
  5
397
  8
Layer_0
  10
67.941719
  20
8.9828167
  0
VERTEX
  5
398
  8
Layer_0
  10
68.278519
  20
9.1095095
  0
VERTEX
  5
399
  8
Layer_0
  10
68.58934
  20
9.2908325
  0
VERTEX
  5
39a
  8
Layer_0
  10
68.86718
  20
9.5234566
  0
VERTEX
  5
39b
  8
Layer_0
  10
69.052185
  20
9.7402496
  0
VERTEX
  5
39c
  8
Layer_0
  10
69.199211
  20
9.9843941
  0
VERTEX
  5
39d
  8
Layer_0
  10
69.32193
  20
10.28203
  0
VERTEX
  5
39e
  8
Layer_0
  10
69.402336
  20
10.593769
  0
VERTEX
  5
39f
  8
Layer_0
  10
69.44783
  20
10.925187
  0
VERTEX
  5
3a0
  8
Layer_0
  10
69.468231
  20
11.258606
  0
VERTEX
  5
3a1
  8
Layer_0
  10
69.463486
  20
11.592614
  0
VERTEX
  5
3a2
  8
Layer_0
  10
69.433586
  20
11.9258
  0
VERTEX
  5
3a3
  8
Layer_0
  10
69.376076
  20
12.207095
  0
VERTEX
  5
3a4
  8
Layer_0
  10
69.284447
  20
12.478059
  0
VERTEX
  5
3a5
  8
Layer_0
  10
69.159958
  20
12.735588
  0
VERTEX
  5
3a6
  8
Layer_0
  10
69.003899
  20
12.976582
  0
VERTEX
  5
3a7
  8
Layer_0
  10
68.702934
  20
13.289705
  0
VERTEX
  5
3a8
  8
Layer_0
  10
68.346542
  20
13.529528
  0
VERTEX
  5
3a9
  8
Layer_0
  10
67.947739
  20
13.689167
  0
VERTEX
  5
3aa
  8
Layer_0
  10
67.519524
  20
13.761738
  0
VERTEX
  5
3ab
  8
Layer_0
  10
67.111259
  20
13.77149
  0
VERTEX
  5
3ac
  8
Layer_0
  10
66.711006
  20
13.708698
  0
VERTEX
  5
3ad
  8
Layer_0
  10
66.328293
  20
13.575747
  0
VERTEX
  5
3ae
  8
Layer_0
  10
65.972649
  20
13.375019
  0
VERTEX
  5
3af
  8
Layer_0
  10
65.747345
  20
13.18889
  0
VERTEX
  5
3b0
  8
Layer_0
  10
65.554283
  20
12.971769
  0
VERTEX
  5
3b1
  8
Layer_0
  10
65.396568
  20
12.727757
  0
VERTEX
  5
3b2
  8
Layer_0
  10
65.277336
  20
12.460957
  0
VERTEX
  5
3b3
  8
Layer_0
  10
65.144798
  20
11.924389
  0
VERTEX
  5
3b4
  8
Layer_0
  10
65.095978
  20
11.377131
  0
VERTEX
  5
3b5
  8
Layer_0
  10
65.130997
  20
10.828817
  0
VERTEX
  5
3b6
  8
Layer_0
  10
65.249992
  20
10.289082
  0
VERTEX
  5
3b7
  8
Layer_0
  10
65.352074
  20
10.031375
  0
VERTEX
  5
3b8
  8
Layer_0
  10
65.486969
  20
9.7937984
  0
VERTEX
  5
3b9
  8
Layer_0
  10
65.651733
  20
9.5788994
  0
VERTEX
  5
3ba
  8
Layer_0
  10
65.843414
  20
9.3892193
  0
VERTEX
  5
3bb
  8
Layer_0
  10
66.059059
  20
9.2273064
  0
VERTEX
  5
3bc
  8
Layer_0
  10
66.295715
  20
9.0957031
  0
VERTEX
  5
3bd
  8
Layer_0
  10
66.550446
  20
8.9969578
  0
VERTEX
  5
3be
  8
Layer_0
  10
66.820305
  20
8.9336128
  0
VERTEX
  5
3bf
  8
Layer_0
  10
67.2024
  20
8.8957615
  0
VERTEX
  5
3c0
  8
Layer_0
  10
67.58593
  20
8.9140816
  0
SEQEND
  0
POLYLINE
  5
3c2
  8
Layer_0
  62
1
  70
1
  66
1
  10
0
  20
0
  30
0
  0
VERTEX
  5
3c2
  8
Layer_0
  10
71.214836
  20
11.445332
  0
VERTEX
  5
3c3
  8
Layer_0
  10
71.220535
  20
11.713999
  0
VERTEX
  5
3c4
  8
Layer_0
  10
71.253281
  20
11.980042
  0
VERTEX
  5
3c5
  8
Layer_0
  10
71.312698
  20
12.241426
  0
VERTEX
  5
3c6
  8
Layer_0
  10
71.39843
  20
12.496113
  0
VERTEX
  5
3c7
  8
Layer_0
  10
71.543709
  20
12.713573
  0
VERTEX
  5
3c8
  8
Layer_0
  10
71.746719
  20
12.867613
  0
VERTEX
  5
3c9
  8
Layer_0
  10
71.988487
  20
12.948206
  0
VERTEX
  5
3ca
  8
Layer_0
  10
72.249992
  20
12.945332
  0
VERTEX
  5
3cb
  8
Layer_0
  10
72.476486
  20
12.886412
  0
VERTEX
  5
3cc
  8
Layer_0
  10
72.687492
  20
12.785175
  0
VERTEX
  5
3cd
  8
Layer_0
  10
72.96093
  20
13.51955
  0
VERTEX
  5
3ce
  8
Layer_0
  10
72.666512
  20
13.67015
  0
VERTEX
  5
3cf
  8
Layer_0
  10
72.347649
  20
13.757832
  0
VERTEX
  5
3d0
  8
Layer_0
  10
72.112
  20
13.771545
  0
VERTEX
  5
3d1
  8
Layer_0
  10
71.878899
  20
13.734394
  0
VERTEX
  5
3d2
  8
Layer_0
  10
71.737457
  20
13.674356
  0
VERTEX
  5
3d3
  8
Layer_0
  10
71.608582
  20
13.592546
  0
VERTEX
  5
3d4
  8
Layer_0
  10
71.494743
  20
13.490841
  0
VERTEX
  5
3d5
  8
Layer_0
  10
71.39843
  20
13.371113
  0
VERTEX
  5
3d6
  8
Layer_0
  10
71.259163
  20
13.171399
  0
VERTEX
  5
3d7
  8
Layer_0
  10
71.136711
  20
12.960957
  0
VERTEX
  5
3d8
  8
Layer_0
  10
71.136711
  20
13.667988
  0
VERTEX
  5
3d9
  8
Layer_0
  10
70.421867
  20
13.667988
  0
VERTEX
  5
3da
  8
Layer_0
  10
70.421867
  20
9.0000191
  0
VERTEX
  5
3db
  8
Layer_0
  10
71.214836
  20
9.0000191
  0
VERTEX
  5
3dc
  8
Layer_0
  10
71.214836
  20
11.445332
  0
SEQEND
  0
POLYLINE
  5
3de
  8
Layer_0
  62
1
  70
1
  66
1
  10
0
  20
0
  30
0
  0
VERTEX
  5
3de
  8
Layer_0
  10
74.183586
  20
11.445332
  0
VERTEX
  5
3df
  8
Layer_0
  10
74.215988
  20
11.911169
  0
VERTEX
  5
3e0
  8
Layer_0
  10
74.316399
  20
12.367207
  0
VERTEX
  5
3e1
  8
Layer_0
  10
74.369568
  20
12.509107
  0
VERTEX
  5
3e2
  8
Layer_0
  10
74.446289
  20
12.635175
  0
VERTEX
  5
3e3
  8
Layer_0
  10
74.543373
  20
12.74338
  0
VERTEX
  5
3e4
  8
Layer_0
  10
74.657623
  20
12.831688
  0
VERTEX
  5
3e5
  8
Layer_0
  10
74.785858
  20
12.89807
  0
VERTEX
  5
3e6
  8
Layer_0
  10
74.924896
  20
12.940493
  0
VERTEX
  5
3e7
  8
Layer_0
  10
75.071556
  20
12.956924
  0
VERTEX
  5
3e8
  8
Layer_0
  10
75.222649
  20
12.945332
  0
VERTEX
  5
3e9
  8
Layer_0
  10
75.447029
  20
12.885788
  0
VERTEX
  5
3ea
  8
Layer_0
  10
75.656242
  20
12.785175
  0
VERTEX
  5
3eb
  8
Layer_0
  10
75.92968
  20
13.51955
  0
VERTEX
  5
3ec
  8
Layer_0
  10
75.635262
  20
13.67015
  0
VERTEX
  5
3ed
  8
Layer_0
  10
75.316399
  20
13.757832
  0
VERTEX
  5
3ee
  8
Layer_0
  10
75.165924
  20
13.774239
  0
VERTEX
  5
3ef
  8
Layer_0
  10
75.01564
  20
13.767111
  0
VERTEX
  5
3f0
  8
Layer_0
  10
74.868279
  20
13.736788
  0
VERTEX
  5
3f1
  8
Layer_0
  10
74.726555
  20
13.683613
  0
VERTEX
  5
3f2
  8
Layer_0
  10
74.528244
  20
13.548783
  0
VERTEX
  5
3f3
  8
Layer_0
  10
74.36718
  20
13.371113
  0
VERTEX
  5
3f4
  8
Layer_0
  10
74.227913
  20
13.171399
  0
VERTEX
  5
3f5
  8
Layer_0
  10
74.105461
  20
12.960957
  0
VERTEX
  5
3f6
  8
Layer_0
  10
74.105461
  20
13.667988
  0
VERTEX
  5
3f7
  8
Layer_0
  10
73.394524
  20
13.667988
  0
VERTEX
  5
3f8
  8
Layer_0
  10
73.394524
  20
9.0000191
  0
VERTEX
  5
3f9
  8
Layer_0
  10
74.183586
  20
9.0000191
  0
VERTEX
  5
3fa
  8
Layer_0
  10
74.183586
  20
11.445332
  0
SEQEND
  0
POLYLINE
  5
3fc
  8
Layer_0
  62
1
  70
1
  66
1
  10
0
  20
0
  30
0
  0
VERTEX
  5
3fc
  8
Layer_0
  10
78.566399
  20
8.9140816
  0
VERTEX
  5
3fd
  8
Layer_0
  10
78.92215
  20
8.9828997
  0
VERTEX
  5
3fe
  8
Layer_0
  10
79.258942
  20
9.1096172
  0
VERTEX
  5
3ff
  8
Layer_0
  10
79.569763
  20
9.2909117
  0
VERTEX
  5
400
  8
Layer_0
  10
79.847649
  20
9.5234566
  0
VERTEX
  5
401
  8
Layer_0
  10
80.032654
  20
9.7402496
  0
VERTEX
  5
402
  8
Layer_0
  10
80.17968
  20
9.9843941
  0
VERTEX
  5
403
  8
Layer_0
  10
80.302399
  20
10.28203
  0
VERTEX
  5
404
  8
Layer_0
  10
80.382805
  20
10.593769
  0
VERTEX
  5
405
  8
Layer_0
  10
80.428299
  20
10.925187
  0
VERTEX
  5
406
  8
Layer_0
  10
80.4487
  20
11.258606
  0
VERTEX
  5
407
  8
Layer_0
  10
80.443954
  20
11.592614
  0
VERTEX
  5
408
  8
Layer_0
  10
80.414055
  20
11.9258
  0
VERTEX
  5
409
  8
Layer_0
  10
80.356544
  20
12.207095
  0
VERTEX
  5
40a
  8
Layer_0
  10
80.264915
  20
12.478059
  0
VERTEX
  5
40b
  8
Layer_0
  10
80.140427
  20
12.735588
  0
VERTEX
  5
40c
  8
Layer_0
  10
79.984367
  20
12.976582
  0
VERTEX
  5
40d
  8
Layer_0
  10
79.683311
  20
13.289568
  0
VERTEX
  5
40e
  8
Layer_0
  10
79.326904
  20
13.529338
  0
VERTEX
  5
40f
  8
Layer_0
  10
78.928131
  20
13.689018
  0
VERTEX
  5
410
  8
Layer_0
  10
78.499992
  20
13.761738
  0
VERTEX
  5
411
  8
Layer_0
  10
78.091629
  20
13.772157
  0
VERTEX
  5
412
  8
Layer_0
  10
77.691254
  20
13.709567
  0
VERTEX
  5
413
  8
Layer_0
  10
77.308533
  20
13.576383
  0
VERTEX
  5
414
  8
Layer_0
  10
76.953117
  20
13.375019
  0
VERTEX
  5
415
  8
Layer_0
  10
76.727631
  20
13.189049
  0
VERTEX
  5
416
  8
Layer_0
  10
76.5345
  20
12.971967
  0
VERTEX
  5
417
  8
Layer_0
  10
76.376846
  20
12.727896
  0
VERTEX
  5
418
  8
Layer_0
  10
76.257805
  20
12.460957
  0
VERTEX
  5
419
  8
Layer_0
  10
76.174072
  20
12.186836
  0
VERTEX
  5
41a
  8
Layer_0
  10
76.11602
  20
11.906753
  0
VERTEX
  5
41b
  8
Layer_0
  10
76.083939
  20
11.622522
  0
VERTEX
  5
41c
  8
Layer_0
  10
76.078117
  20
11.335957
  0
VERTEX
  5
41d
  8
Layer_0
  10
76.086739
  20
11.012602
  0
VERTEX
  5
41e
  8
Layer_0
  10
76.128998
  20
10.69278
  0
VERTEX
  5
41f
  8
Layer_0
  10
76.204414
  20
10.379119
  0
VERTEX
  5
420
  8
Layer_0
  10
76.312492
  20
10.074238
  0
VERTEX
  5
421
  8
Layer_0
  10
76.428337
  20
9.8559418
  0
VERTEX
  5
422
  8
Layer_0
  10
76.568619
  20
9.6559238
  0
VERTEX
  5
423
  8
Layer_0
  10
76.73114
  20
9.4758635
  0
VERTEX
  5
424
  8
Layer_0
  10
76.913712
  20
9.3174362
  0
VERTEX
  5
425
  8
Layer_0
  10
77.114151
  20
9.1823206
  0
VERTEX
  5
426
  8
Layer_0
  10
77.330261
  20
9.0721931
  0
VERTEX
  5
427
  8
Layer_0
  10
77.55986
  20
8.9887314
  0
VERTEX
  5
428
  8
Layer_0
  10
77.800774
  20
8.9336128
  0
VERTEX
  5
429
  8
Layer_0
  10
78.182869
  20
8.8957615
  0
VERTEX
  5
42a
  8
Layer_0
  10
78.566399
  20
8.9140816
  0
SEQEND
  0
POLYLINE
  5
42c
  8
Layer_0
  62
1
  70
1
  66
1
  10
0
  20
0
  30
0
  0
VERTEX
  5
42c
  8
Layer_0
  10
84.042961
  20
12.589863
  0
VERTEX
  5
42d
  8
Layer_0
  10
84.226555
  20
11.796894
  0
VERTEX
  5
42e
  8
Layer_0
  10
84.968742
  20
9.0000191
  0
VERTEX
  5
42f
  8
Layer_0
  10
85.789055
  20
9.0000191
  0
VERTEX
  5
430
  8
Layer_0
  10
87.249992
  20
13.667988
  0
VERTEX
  5
431
  8
Layer_0
  10
86.480461
  20
13.667988
  0
VERTEX
  5
432
  8
Layer_0
  10
85.410149
  20
10.070332
  0
VERTEX
  5
433
  8
Layer_0
  10
84.480461
  20
13.667988
  0
VERTEX
  5
434
  8
Layer_0
  10
83.667961
  20
13.667988
  0
VERTEX
  5
435
  8
Layer_0
  10
82.925774
  20
10.933613
  0
VERTEX
  5
436
  8
Layer_0
  10
82.683586
  20
9.9726753
  0
VERTEX
  5
437
  8
Layer_0
  10
81.664055
  20
13.667988
  0
VERTEX
  5
438
  8
Layer_0
  10
80.843742
  20
13.667988
  0
VERTEX
  5
439
  8
Layer_0
  10
82.27343
  20
9.0000191
  0
VERTEX
  5
43a
  8
Layer_0
  10
83.101555
  20
9.0000191
  0
VERTEX
  5
43b
  8
Layer_0
  10
84.042961
  20
12.589863
  0
SEQEND
  0
POLYLINE
  5
43d
  8
Layer_0
  62
1
  70
1
  66
1
  10
0
  20
0
  30
0
  0
VERTEX
  5
43d
  8
Layer_0
  10
46.843742
  20
9.5742378
  0
VERTEX
  5
43e
  8
Layer_0
  10
46.582024
  20
9.6562691
  0
VERTEX
  5
43f
  8
Layer_0
  10
46.351555
  20
9.7968941
  0
VERTEX
  5
440
  8
Layer_0
  10
46.140617
  20
9.9922066
  0
VERTEX
  5
441
  8
Layer_0
  10
46.021637
  20
10.158407
  0
VERTEX
  5
442
  8
Layer_0
  10
45.925285
  20
10.337729
  0
VERTEX
  5
443
  8
Layer_0
  10
45.852615
  20
10.527884
  0
VERTEX
  5
444
  8
Layer_0
  10
45.80468
  20
10.726582
  0
VERTEX
  5
445
  8
Layer_0
  10
45.753761
  20
11.116606
  0
VERTEX
  5
446
  8
Layer_0
  10
45.753269
  20
11.508284
  0
VERTEX
  5
447
  8
Layer_0
  10
45.802895
  20
11.896806
  0
VERTEX
  5
448
  8
Layer_0
  10
45.902336
  20
12.277363
  0
VERTEX
  5
449
  8
Layer_0
  10
45.983002
  20
12.44723
  0
VERTEX
  5
44a
  8
Layer_0
  10
46.085846
  20
12.603585
  0
VERTEX
  5
44b
  8
Layer_0
  10
46.20924
  20
12.744289
  0
VERTEX
  5
44c
  8
Layer_0
  10
46.351555
  20
12.867207
  0
VERTEX
  5
44d
  8
Layer_0
  10
46.582024
  20
13.007832
  0
VERTEX
  5
44e
  8
Layer_0
  10
46.843742
  20
13.089863
  0
VERTEX
  5
44f
  8
Layer_0
  10
47.124992
  20
13.117207
  0
VERTEX
  5
450
  8
Layer_0
  10
47.406242
  20
13.089863
  0
VERTEX
  5
451
  8
Layer_0
  10
47.664055
  20
13.007832
  0
VERTEX
  5
452
  8
Layer_0
  10
47.894524
  20
12.867207
  0
VERTEX
  5
453
  8
Layer_0
  10
48.105461
  20
12.671894
  0
VERTEX
  5
454
  8
Layer_0
  10
48.247124
  20
12.467735
  0
VERTEX
  5
455
  8
Layer_0
  10
48.356564
  20
12.246122
  0
VERTEX
  5
456
  8
Layer_0
  10
48.432251
  20
12.010832
  0
VERTEX
  5
457
  8
Layer_0
  10
48.472649
  20
11.765644
  0
VERTEX
  5
458
  8
Layer_0
  10
48.501308
  20
11.418961
  0
VERTEX
  5
459
  8
Layer_0
  10
48.489151
  20
11.072485
  0
VERTEX
  5
45a
  8
Layer_0
  10
48.436516
  20
10.729816
  0
VERTEX
  5
45b
  8
Layer_0
  10
48.343742
  20
10.39455
  0
VERTEX
  5
45c
  8
Layer_0
  10
48.243004
  20
10.18248
  0
VERTEX
  5
45d
  8
Layer_0
  10
48.105461
  20
9.9922066
  0
VERTEX
  5
45e
  8
Layer_0
  10
47.89843
  20
9.7968941
  0
VERTEX
  5
45f
  8
Layer_0
  10
47.664055
  20
9.6562691
  0
VERTEX
  5
460
  8
Layer_0
  10
47.410149
  20
9.5742378
  0
VERTEX
  5
461
  8
Layer_0
  10
47.124992
  20
9.5468941
  0
VERTEX
  5
462
  8
Layer_0
  10
46.843742
  20
9.5742378
  0
SEQEND
  0
POLYLINE
  5
464
  8
Layer_0
  62
1
  70
1
  66
1
  10
0
  20
0
  30
0
  0
VERTEX
  5
464
  8
Layer_0
  10
67.003899
  20
9.5742378
  0
VERTEX
  5
465
  8
Layer_0
  10
66.74218
  20
9.6562691
  0
VERTEX
  5
466
  8
Layer_0
  10
66.511711
  20
9.7968941
  0
VERTEX
  5
467
  8
Layer_0
  10
66.300774
  20
9.9922066
  0
VERTEX
  5
468
  8
Layer_0
  10
66.181503
  20
10.158258
  0
VERTEX
  5
469
  8
Layer_0
  10
66.085052
  20
10.337547
  0
VERTEX
  5
46a
  8
Layer_0
  10
66.012482
  20
10.52776
  0
VERTEX
  5
46b
  8
Layer_0
  10
65.964836
  20
10.726582
  0
VERTEX
  5
46c
  8
Layer_0
  10
65.913925
  20
11.116606
  0
VERTEX
  5
46d
  8
Layer_0
  10
65.913429
  20
11.508284
  0
VERTEX
  5
46e
  8
Layer_0
  10
65.963051
  20
11.896806
  0
VERTEX
  5
46f
  8
Layer_0
  10
66.062492
  20
12.277363
  0
VERTEX
  5
470
  8
Layer_0
  10
66.166382
  20
12.485704
  0
VERTEX
  5
471
  8
Layer_0
  10
66.300774
  20
12.6758
  0
VERTEX
  5
472
  8
Layer_0
  10
66.511711
  20
12.867207
  0
VERTEX
  5
473
  8
Layer_0
  10
66.74218
  20
13.007832
  0
VERTEX
  5
474
  8
Layer_0
  10
67.003899
  20
13.089863
  0
VERTEX
  5
475
  8
Layer_0
  10
67.285149
  20
13.117207
  0
VERTEX
  5
476
  8
Layer_0
  10
67.566399
  20
13.089863
  0
VERTEX
  5
477
  8
Layer_0
  10
67.824211
  20
13.007832
  0
VERTEX
  5
478
  8
Layer_0
  10
68.05468
  20
12.867207
  0
VERTEX
  5
479
  8
Layer_0
  10
68.265617
  20
12.671894
  0
VERTEX
  5
47a
  8
Layer_0
  10
68.40728
  20
12.467735
  0
VERTEX
  5
47b
  8
Layer_0
  10
68.516724
  20
12.246122
  0
VERTEX
  5
47c
  8
Layer_0
  10
68.5924
  20
12.010832
  0
VERTEX
  5
47d
  8
Layer_0
  10
68.632805
  20
11.765644
  0
VERTEX
  5
47e
  8
Layer_0
  10
68.661469
  20
11.418961
  0
VERTEX
  5
47f
  8
Layer_0
  10
68.649307
  20
11.072486
  0
VERTEX
  5
480
  8
Layer_0
  10
68.596672
  20
10.729816
  0
VERTEX
  5
481
  8
Layer_0
  10
68.503899
  20
10.39455
  0
VERTEX
  5
482
  8
Layer_0
  10
68.40316
  20
10.18248
  0
VERTEX
  5
483
  8
Layer_0
  10
68.265617
  20
9.9922066
  0
VERTEX
  5
484
  8
Layer_0
  10
68.058586
  20
9.7968941
  0
VERTEX
  5
485
  8
Layer_0
  10
67.824211
  20
9.6562691
  0
VERTEX
  5
486
  8
Layer_0
  10
67.566399
  20
9.5742378
  0
VERTEX
  5
487
  8
Layer_0
  10
67.285149
  20
9.5468941
  0
VERTEX
  5
488
  8
Layer_0
  10
67.003899
  20
9.5742378
  0
SEQEND
  0
POLYLINE
  5
48a
  8
Layer_0
  62
1
  70
1
  66
1
  10
0
  20
0
  30
0
  0
VERTEX
  5
48a
  8
Layer_0
  10
77.980461
  20
9.5742378
  0
VERTEX
  5
48b
  8
Layer_0
  10
77.722649
  20
9.6562691
  0
VERTEX
  5
48c
  8
Layer_0
  10
77.488274
  20
9.7968941
  0
VERTEX
  5
48d
  8
Layer_0
  10
77.281242
  20
9.9922066
  0
VERTEX
  5
48e
  8
Layer_0
  10
77.161972
  20
10.158258
  0
VERTEX
  5
48f
  8
Layer_0
  10
77.065521
  20
10.337547
  0
VERTEX
  5
490
  8
Layer_0
  10
76.99295
  20
10.52776
  0
VERTEX
  5
491
  8
Layer_0
  10
76.945305
  20
10.726582
  0
VERTEX
  5
492
  8
Layer_0
  10
76.894394
  20
11.116606
  0
VERTEX
  5
493
  8
Layer_0
  10
76.893898
  20
11.508284
  0
VERTEX
  5
494
  8
Layer_0
  10
76.94352
  20
11.896806
  0
VERTEX
  5
495
  8
Layer_0
  10
77.042961
  20
12.277363
  0
VERTEX
  5
496
  8
Layer_0
  10
77.146851
  20
12.485704
  0
VERTEX
  5
497
  8
Layer_0
  10
77.281242
  20
12.6758
  0
VERTEX
  5
498
  8
Layer_0
  10
77.488274
  20
12.867207
  0
VERTEX
  5
499
  8
Layer_0
  10
77.722649
  20
13.007832
  0
VERTEX
  5
49a
  8
Layer_0
  10
77.980461
  20
13.089863
  0
VERTEX
  5
49b
  8
Layer_0
  10
78.265617
  20
13.117207
  0
VERTEX
  5
49c
  8
Layer_0
  10
78.546867
  20
13.089863
  0
VERTEX
  5
49d
  8
Layer_0
  10
78.80468
  20
13.007832
  0
VERTEX
  5
49e
  8
Layer_0
  10
79.035149
  20
12.867207
  0
VERTEX
  5
49f
  8
Layer_0
  10
79.24218
  20
12.671894
  0
VERTEX
  5
4a0
  8
Layer_0
  10
79.362625
  20
12.509367
  0
VERTEX
  5
4a1
  8
Layer_0
  10
79.460152
  20
12.333163
  0
VERTEX
  5
4a2
  8
Layer_0
  10
79.533661
  20
12.14566
  0
VERTEX
  5
4a3
  8
Layer_0
  10
79.582024
  20
11.949238
  0
VERTEX
  5
4a4
  8
Layer_0
  10
79.634445
  20
11.558261
  0
VERTEX
  5
4a5
  8
Layer_0
  10
79.635437
  20
11.165473
  0
VERTEX
  5
4a6
  8
Layer_0
  10
79.585312
  20
10.775896
  0
VERTEX
  5
4a7
  8
Layer_0
  10
79.484367
  20
10.39455
  0
VERTEX
  5
4a8
  8
Layer_0
  10
79.380989
  20
10.184042
  0
VERTEX
  5
4a9
  8
Layer_0
  10
79.246086
  20
9.9922066
  0
VERTEX
  5
4aa
  8
Layer_0
  10
79.039055
  20
9.7968941
  0
VERTEX
  5
4ab
  8
Layer_0
  10
78.80468
  20
9.6562691
  0
VERTEX
  5
4ac
  8
Layer_0
  10
78.546867
  20
9.5742378
  0
VERTEX
  5
4ad
  8
Layer_0
  10
78.265617
  20
9.5468941
  0
VERTEX
  5
4ae
  8
Layer_0
  10
77.980461
  20
9.5742378
  0
SEQEND
  0
ENDSEC
  0
EOF
