0
SECTION
2
HEADER
9
$INSUNITS
70
4
9
$ACADVER
1
AC1014
9
$HANDSEED
5
FFFF
0
ENDSEC
0
SECTION
2
TABLES
0
TABLE
2
VPORT
5
8
100
AcDbSymbolTable
0
ENDTAB
0
TABLE
2
LTYPE
5
5
100
AcDbSymbolTable
0
LTYPE
5
14
100
AcDbSymbolTableRecord
100
AcDbLinetypeTableRecord
2
BYBLOCK
70
0
0
LTYPE
5
15
100
AcDbSymbolTableRecord
100
AcDbLinetypeTableRecord
2
BYLAYER
70
0
0
ENDTAB
0
TABLE
2
LAYER
5
2
100
AcDbSymbolTable
70
2
0
LAYER
5
50
100
AcDbSymbolTableRecord
100
AcDbLayerTableRecord
2
0
70
0
6
CONTINUOUS
0
ENDTAB
0
TABLE
2
STYLE
5
3
100
AcDbSymbolTable
70
1
0
STYLE
5
11
100
AcDbSymbolTableRecord
100
AcDbTextStyleTableRecord
2
STANDARD
70
0
0
ENDTAB
0
TABLE
2
VIEW
5
6
100
AcDbSymbolTable
70
0
0
ENDTAB
0
TABLE
2
UCS
5
7
100
AcDbSymbolTable
70
0
0
ENDTAB
0
TABLE
2
APPID
5
9
100
AcDbSymbolTable
70
2
0
APPID
5
12
100
AcDbSymbolTableRecord
100
AcDbRegAppTableRecord
2
ACAD
70
0
0
ENDTAB
0
TABLE
2
DIMSTYLE
5
A
100
AcDbSymbolTable
70
1
0
ENDTAB
0
TABLE
2
BLOCK_RECORD
5
1
100
AcDbSymbolTable
70
1
0
BLOCK_RECORD
5
1F
100
AcDbSymbolTableRecord
100
AcDbBlockTableRecord
2
*MODEL_SPACE
0
BLOCK_RECORD
5
1B
100
AcDbSymbolTableRecord
100
AcDbBlockTableRecord
2
*PAPER_SPACE
0
ENDTAB
0
ENDSEC
0
SECTION
2
BLOCKS
0
BLOCK
5
20
100
AcDbEntity
100
AcDbBlockBegin
2
*MODEL_SPACE
0
ENDBLK
5
21
100
AcDbEntity
100
AcDbBlockEnd
0
BLOCK
5
1C
100
AcDbEntity
100
AcDbBlockBegin
2
*PAPER_SPACE
0
ENDBLK
5
1D
100
AcDbEntity
100
AcDbBlockEnd
0
ENDSEC
0
SECTION
2
ENTITIES
0
LWPOLYLINE
5
100
100
AcDbEntity
8
0
100
AcDbPolyline
90
6
70
1
43
0.0
10
48.273072242736816
20
116.4116096496582
10
46.480979919433594
20
111.2352180480957
10
45.047378540039062
20
105.94831466674805
10
44.199995994567871
20
101.92760467529297
10
44.199995994567871
20
114.57483291625977
10
49.836692810058594
20
120.21152496337891
0
LWPOLYLINE
5
101
100
AcDbEntity
8
0
100
AcDbPolyline
90
5
70
1
43
0.0
10
73.151259422302246
20
127.13756561279297
10
71.433672904968262
20
124.61244583129883
10
69.315767288208008
20
127.15817451477051
10
67.051706314086914
20
129.57483291625977
10
74.991354942321777
20
129.57483291625977
0
LWPOLYLINE
5
102
100
AcDbEntity
8
0
100
AcDbPolyline
90
5
70
1
43
0.0
10
45.039548873901367
20
69.424848556518555
10
47.100214958190918
20
62.246122360229492
10
47.631607338374131
20
60.774829864501953
10
44.199995994567871
20
60.774829864501953
10
44.199995994567871
20
73.41301441192627
0
LWPOLYLINE
5
103
100
AcDbEntity
8
0
100
AcDbPolyline
90
26
70
1
43
0.0
10
155.49069674065706
20
60.774829864501982
10
154.42679706174215
20
60.774829864501982
10
153.21776390075684
20
64.225425720214844
10
151.51883125305176
20
70.114269256591797
10
150.22021293640137
20
76.1041259765625
10
149.32780265808105
20
82.167816162109375
10
148.84564399719238
20
88.277835845947266
10
148.81881713867188
20
95.171585083007812
10
149.44483757019043
20
103.57341766357422
10
150.40350914001465
20
109.62697982788086
10
151.76754951477051
20
115.6022834777832
10
154.3145751953125
20
123.63317489624023
10
156.27192497253418
20
128.6259937286377
10
158.49205017089844
20
125.87430000305176
10
161.44763946533203
20
121.47495269775391
10
165.12796401977539
20
114.10480499267578
10
167.30182647705078
20
107.38492012023926
10
168.33398818969727
20
102.18643188476562
10
168.77292633056641
20
97.494125366210938
10
168.77674102783203
20
92.781333923339844
10
168.34535598754883
20
88.088312149047852
10
167.48250961303711
20
83.455181121826172
10
165.98291397094727
20
78.371777534484863
10
163.49493026733398
20
72.391901016235352
10
161.2034797668457
20
68.273677825927734
10
158.16515922546387
20
63.931045532226562
0
LWPOLYLINE
5
104
100
AcDbEntity
8
0
100
AcDbPolyline
90
14
70
1
43
0.0
10
150.1888076336557
20
60.774829864501967
10
135
20
60.774829864501967
10
135
20
118.96823883056641
10
145.60660362243652
20
129.57483291625977
10
152.32589721679688
20
129.57483291625977
10
150.5705738067627
20
125.10556221008301
10
148.56869697570801
20
119.02549743652344
10
146.83502197265625
20
112.03746795654297
10
145.32504081726074
20
102.55993843078613
10
144.77937698364258
20
92.978401184082031
10
145.10771751403809
20
84.185342788696289
10
145.87430000305176
20
77.83027172088623
10
147.26892471313477
20
70.766739845275879
10
149.64335441589355
20
62.293963432312012
0
LWPOLYLINE
5
105
100
AcDbEntity
8
0
100
AcDbPolyline
90
29
70
1
43
0.0
10
63.572263717651367
20
60.806007385253906
10
63.599649030475263
20
60.774829864501953
10
56.199436578661562
20
60.774829864501953
10
55.559687614440918
20
62.348251342773438
10
53.053855895996094
20
70.4266357421875
10
51.513199806213379
20
78.743233680725098
10
50.94301700592041
20
86.477756500244141
10
51.070718765258789
20
92.118740081787109
10
51.639838218688965
20
97.732410430908203
10
52.646884918212891
20
103.28424453735352
10
54.08566951751709
20
108.74015808105469
10
55.947351455688477
20
114.06661987304688
10
58.22049617767334
20
119.23090934753418
10
60.891127586364746
20
124.20129776000977
10
63.133692741394043
20
127.79112815856934
10
66.329636573791504
20
124.44465637207031
10
69.245905876159668
20
120.85185050964355
10
67.463960647583008
20
117.07486152648926
10
65.183067321777344
20
110.92427253723145
10
64.008889198303223
20
106.29796981811523
10
63.240318298339844
20
101.58729553222656
10
62.883157730102539
20
96.82769775390625
10
62.940096855163574
20
92.0550537109375
10
63.410696983337402
20
87.30534553527832
10
64.29142951965332
20
82.614326477050781
10
65.575637817382812
20
78.017368316650391
10
68.002619743347168
20
71.92293643951416
10
69.874162673950195
20
68.189539909362793
10
67.719817161560059
20
65.327653884887695
0
LWPOLYLINE
5
106
100
AcDbEntity
8
0
100
AcDbPolyline
90
14
70
1
43
0.0
10
205.79999923706043
20
60.774829864501989
10
198.17036383420867
20
60.774829864501989
10
199.31522369384766
20
64.055624008178711
10
201.03662490844727
20
70.480203628540039
10
202.09316253662109
20
76.298608779907227
10
202.71692276000977
20
82.179164886474609
10
202.87332534790039
20
88.828525543212891
10
202.36654281616211
20
96.94122314453125
10
201.29796981811523
20
103.50602149963379
10
199.30856704711914
20
111.38730049133301
10
197.3475456237793
20
116.96623802185059
10
194.63438034057617
20
123.03890228271484
10
191.47945404052734
20
128.89537811279297
10
205.79999923706055
20
114.57483291625977
0
LWPOLYLINE
5
107
100
AcDbEntity
8
0
100
AcDbPolyline
90
28
70
1
43
0.0
10
189.64044139749376
20
60.774829864501989
10
160.78801146655644
20
60.774829864501982
10
163.52890014648438
20
64.497714042663574
10
166.06674194335938
20
68.677587509155273
10
168.22319030761719
20
73.066391944885254
10
170.51206588745117
20
79.385190010070801
10
171.84164047241211
20
84.721431732177734
10
172.58434295654297
20
90.170440673828125
10
172.80017852783203
20
96.887550354003906
10
172.32269287109375
20
102.36616134643555
10
171.05161666870117
20
108.96543502807617
10
169.60906982421875
20
113.63780975341797
10
167.75712966918945
20
118.16354751586914
10
165.51042556762695
20
122.50685691833496
10
162.88673400878906
20
126.63337707519531
10
160.69454193115234
20
129.57483291625977
10
181.46852493286133
20
129.57483291625977
10
183.79915237426758
20
126.08498573303223
10
186.90029144287109
20
120.61046600341797
10
190.0714111328125
20
113.60555648803711
10
191.88261032104492
20
108.31266403198242
10
193.39859008789062
20
102.20617294311523
10
194.57075119018555
20
94.606781005859375
10
194.89303588867188
20
89.021883010864258
10
194.78063583374023
20
83.428821563720703
10
194.23429489135742
20
77.861366271972656
10
193.08197021484375
20
71.675930023193359
10
190.26466369628906
20
62.308492660522461
0
LWPOLYLINE
5
108
100
AcDbEntity
8
0
100
AcDbPolyline
90
10
70
1
43
0.0
10
115
20
60.77482986450196
10
101.86695070038471
20
60.77482986450196
10
101.69047355651855
20
63.248863220214844
10
101.6698169708252
20
71.87042236328125
10
102.19079971313477
20
78.120794296264648
10
103.31901550292969
20
85.084590911865234
10
105.38180351257324
20
93.455772399902344
10
107.70050048828125
20
100.11842727661133
10
111.56061172485352
20
108.69277954101562
10
115
20
114.85325813293457
0
LWPOLYLINE
5
109
100
AcDbEntity
8
0
100
AcDbPolyline
90
20
70
1
43
0.0
10
67.799067497253418
20
104.85713958740234
10
68.891825675964355
20
109.36009407043457
10
70.388879776000977
20
113.74523162841797
10
71.757760047912598
20
116.94060325622559
10
73.299951553344727
20
113.97823333740234
10
75.030531883239746
20
109.87685203552246
10
76.356453895568848
20
105.62734603881836
10
77.265291213989258
20
101.26956939697266
10
77.748527526855469
20
96.844310760498047
10
77.801628112792969
20
92.393083572387695
10
77.323470115661621
20
87.40997314453125
10
75.880389213562012
20
80.897293090820312
10
73.763079643249512
20
75.157914161682129
10
72.291994094848633
20
72.159600257873535
10
70.847268104553223
20
75.32139778137207
10
69.246025085449219
20
79.669580459594727
10
68.046159744262695
20
84.145183563232422
10
67.257552146911621
20
88.711223602294922
10
66.892991065979004
20
93.909473419189453
10
67.119612693786621
20
100.2735710144043
0
LWPOLYLINE
5
110
100
AcDbEntity
8
0
100
AcDbPolyline
90
3
70
1
43
0.0
10
74.911290732751766
20
60.774829864501953
10
69.088265167138985
20
60.774829864501953
10
72.151017189025879
20
64.482202529907227
0
LWPOLYLINE
5
111
100
AcDbEntity
8
0
100
AcDbPolyline
90
29
70
1
43
0.0
10
80.187228063858385
20
60.774829864501953
10
77.470240592956543
20
63.990335464477539
10
74.573030471801758
20
68.101992607116699
10
76.509356498718262
20
71.677794456481934
10
79.022965431213379
20
77.549376487731934
10
80.467433929443359
20
82.572298049926758
10
81.56041145324707
20
88.865089416503906
10
81.829004287719727
20
93.504791259765625
10
81.665534973144531
20
98.149394989013672
10
81.071405410766602
20
102.75875091552734
10
80.051755905151367
20
107.2929859161377
10
78.615403175354004
20
111.71293258666992
10
75.962424278259277
20
117.52288818359375
10
73.94134521484375
20
121.05147361755371
10
75.658364295959473
20
123.73812675476074
10
78.190293312072754
20
127.15191841125488
10
80.262908935546875
20
129.57483291625977
10
104.39340591430664
20
129.57483291625977
10
110.84718704223633
20
123.12105178833008
10
107.76336669921875
20
118.28185081481934
10
103.09741020202637
20
109.62697982788086
10
99.579496383666992
20
101.32667541503906
10
97.524480819702148
20
95.098838806152344
10
95.890645980834961
20
88.747482299804688
10
94.685335159301758
20
82.301063537597656
10
93.91392707824707
20
75.788450241088867
10
93.592996597290039
20
68.418941497802734
10
93.765783309936523
20
61.043543815612793
10
93.788117764222378
20
60.77482986450196
0
LWPOLYLINE
5
112
100
AcDbEntity
8
0
100
AcDbPolyline
90
27
70
1
43
0.0
10
188.41939926147461
20
29.77482795715332
10
210.79999923706055
20
29.77482795715332
10
210.79999923706055
20
180.22516250610352
10
194.38199996948242
20
180.11978149414062
10
137.59986877441406
20
146.16043090820312
10
136.4798641204834
20
145.98766326904297
10
135.67191123962402
20
146.2708854675293
10
133.9621639251709
20
147.97382354736328
10
131.38727188110352
20
149.8563289642334
10
129.00633811950684
20
150.92838287353516
10
126.7402172088623
20
151.44466400146484
10
124.12989616394043
20
151.50975227355957
10
120.72589874267578
20
150.81417083740234
10
117.85670280456543
20
149.42076683044434
10
115.38882255554199
20
147.27695465087891
10
114.1623592376709
20
146.16677284240723
10
113.3228588104248
20
145.95244407653809
10
112.47629165649414
20
146.13675117492676
10
55.749788284301758
20
180.09265899658203
10
39.199998378753662
20
180.22516250610352
10
39.199998378753662
20
29.77482795715332
10
62.855792045593262
20
29.77482795715332
10
63.030061721801758
20
57.774829864501953
10
82.800006866455078
20
57.774829864501953
10
82.800006866455078
20
58.060925324545522
10
83.085536956787109
20
57.774829864501953
10
188.41939926147461
20
57.774829864501953
0
ENDSEC
0
SECTION
2
OBJECTS
0
DICTIONARY
5
C
100
AcDbDictionary
3
ACAD_GROUP
350
D
3
ACAD_MLINESTYLE
350
17
0
DICTIONARY
5
D
100
AcDbDictionary
0
DICTIONARY
5
1A
330
C
100
AcDbDictionary
0
DICTIONARY
5
17
100
AcDbDictionary
0
ENDSEC
0
EOF
