<?xml version="1.0" encoding="UTF-8"?>
<svg xmlns="http://www.w3.org/2000/svg" xmlns:xlink="http://www.w3.org/1999/xlink" width="171.600mm" height="150.450mm" viewBox="10.199987 -152.698959 171.600006 150.450333">
    <path transform="matrix(1,0,0,-1,-29.00001,27.526201)" style="stroke:#0000ff;stroke-width:0.05mm;fill:none" d="M48.273071,116.411613L46.48098,111.235207L45.047379,105.948318L44.199997,101.927597L44.199997,114.574829L49.836693,120.211517L48.273071,116.411613z"/>
    <path transform="matrix(1,0,0,-1,-29.00001,27.526201)" style="stroke:#0000ff;stroke-width:0.05mm;fill:none" d="M73.15126,127.137573L71.43367,124.612442L69.315765,127.158173L67.051704,129.574829L74.991356,129.574829L73.15126,127.137573z"/>
    <path transform="matrix(1,0,0,-1,-29.00001,27.526201)" style="stroke:#0000ff;stroke-width:0.05mm;fill:none" d="M45.039551,69.42485L47.100216,62.246124L47.631607,60.77483L44.199997,60.77483L44.199997,73.413017L45.039551,69.42485z"/>
    <path transform="matrix(1,0,0,-1,-29.00001,27.526201)" style="stroke:#0000ff;stroke-width:0.05mm;fill:none" d="M155.490692,60.77483L154.426804,60.77483L153.217758,64.225426L151.518829,70.114273L150.220215,76.104126L149.327805,82.167816L148.845642,88.277832L148.818817,95.171585L149.444839,103.573418L150.403503,109.626984L151.767548,115.60228L154.314575,123.633179L156.271927,128.625992L158.49205,125.874298L161.447632,121.474953L165.12796,114.104797L167.301819,107.384918L168.333984,102.186432L168.772919,97.494125L168.776733,92.781334L168.345352,88.08831L167.482513,83.455185L165.98291,78.37178L163.494934,72.391899L161.203476,68.273682L158.165161,63.931046L155.490692,60.77483z"/>
    <path transform="matrix(1,0,0,-1,-29.00001,27.526201)" style="stroke:#0000ff;stroke-width:0.05mm;fill:none" d="M150.188812,60.77483L135,60.77483L135,118.968239L145.606598,129.574829L152.325897,129.574829L150.570572,125.10556L148.568695,119.025497L146.835022,112.037468L145.325043,102.559937L144.779373,92.978401L145.107712,84.185341L145.874298,77.830269L147.268921,70.766739L149.643356,62.293964L150.188812,60.77483z"/>
    <path transform="matrix(1,0,0,-1,-29.00001,27.526201)" style="stroke:#0000ff;stroke-width:0.05mm;fill:none" d="M63.572266,60.806007L63.599648,60.77483L56.199436,60.77483L55.559689,62.348251L53.053856,70.426636L51.513199,78.743233L50.943016,86.477753L51.070717,92.118744L51.639839,97.732407L52.646885,103.284241L54.08567,108.740158L55.94735,114.06662L58.220497,119.230911L60.891129,124.201286L63.133694,127.79113L66.329636,124.444656L69.245903,120.851852L67.463959,117.07486L65.183067,110.924271L64.008888,106.297974L63.240318,101.587303L62.883156,96.827698L62.940098,92.055054L63.410698,87.305344L64.291428,82.614326L65.575638,78.017365L68.002617,71.922935L69.874161,68.189537L67.719818,65.327652L63.572266,60.806007z"/>
    <path transform="matrix(1,0,0,-1,-29.00001,27.526201)" style="stroke:#0000ff;stroke-width:0.05mm;fill:none" d="M205.800003,60.77483L198.170364,60.77483L199.315216,64.055626L201.036621,70.480202L202.09317,76.298607L202.716919,82.179169L202.873322,88.828522L202.366547,96.941223L201.297974,103.50602L199.308563,111.387299L197.347549,116.96624L194.634384,123.038902L191.479462,128.895386L205.800003,114.574829L205.800003,60.77483z"/>
    <path transform="matrix(1,0,0,-1,-29.00001,27.526201)" style="stroke:#0000ff;stroke-width:0.05mm;fill:none" d="M189.640442,60.77483L160.78801,60.77483L163.5289,64.497711L166.066742,68.677589L168.22319,73.066391L170.51207,79.385193L171.841644,84.721436L172.584351,90.170441L172.800171,96.88755L172.322693,102.366173L171.05162,108.965439L169.60907,113.63781L167.757126,118.163544L165.510422,122.506859L162.886734,126.633377L160.69455,129.574829L181.468521,129.574829L183.799149,126.084976L186.900299,120.610474L190.071411,113.60556L191.882614,108.312668L193.39859,102.206177L194.570755,94.606781L194.893036,89.021881L194.78064,83.428818L194.234299,77.861366L193.08197,71.675934L190.264664,62.308495L189.640442,60.77483z"/>
    <path transform="matrix(1,0,0,-1,-29.00001,27.526201)" style="stroke:#0000ff;stroke-width:0.05mm;fill:none" d="M115,60.77483L101.866951,60.77483L101.690483,63.248863L101.669823,71.870422L102.190804,78.120796L103.319023,85.084595L105.381813,93.455772L107.7005,100.118423L111.560608,108.69278L115,114.853256L115,60.77483z"/>
    <path transform="matrix(1,0,0,-1,-29.00001,27.526201)" style="stroke:#0000ff;stroke-width:0.05mm;fill:none" d="M67.799065,104.85714L68.891823,109.360092L70.388878,113.745232L71.757759,116.940613L73.29995,113.978233L75.030533,109.876846L76.356453,105.62735L77.265289,101.269569L77.748528,96.844315L77.801628,92.393082L77.323471,87.409973L75.880386,80.897293L73.763077,75.157913L72.291992,72.159599L70.847267,75.321396L69.246025,79.669579L68.046158,84.145187L67.257553,88.711227L66.89299,93.90947L67.119614,100.273567L67.799065,104.85714z"/>
    <path transform="matrix(1,0,0,-1,-29.00001,27.526201)" style="stroke:#0000ff;stroke-width:0.05mm;fill:none" d="M74.911293,60.77483L69.088264,60.77483L72.151016,64.482201L74.911293,60.77483z"/>
    <path transform="matrix(1,0,0,-1,-29.00001,27.526201)" style="stroke:#0000ff;stroke-width:0.05mm;fill:none" d="M80.187225,60.77483L77.470238,63.990334L74.573029,68.10199L76.509354,71.677795L79.022964,77.549377L80.467438,82.572296L81.56041,88.865089L81.829002,93.504791L81.665535,98.149399L81.071404,102.758751L80.051758,107.292976L78.615402,111.712936L75.962425,117.522888L73.941345,121.051483L75.658363,123.738129L78.190292,127.151917L80.262909,129.574829L104.393402,129.574829L110.847183,123.121048L107.763367,118.281853L103.097412,109.626984L99.579498,101.326683L97.524483,95.098839L95.890648,88.747482L94.685333,82.301064L93.913925,75.788452L93.592995,68.418945L93.765785,61.043545L93.788116,60.77483L80.187225,60.77483z"/>
    <path transform="matrix(1,0,0,-1,-29.00001,27.526201)" style="stroke:#0000ff;stroke-width:0.05mm;fill:none" d="M188.419403,29.774828L210.800003,29.774828L210.800003,180.225159L194.382004,180.119781L137.599869,146.160431L136.479858,145.987671L135.671906,146.270889L133.962158,147.973816L131.387268,149.856323L129.006332,150.928375L126.740219,151.444672L124.129898,151.50975L120.725899,150.814178L117.856697,149.420761L115.388817,147.276947L114.162361,146.166779L113.322861,145.952438L112.476288,146.136749L55.749786,180.092651L39.199997,180.225159L39.199997,29.774828L62.855793,29.774828L63.03006,57.77483L82.800003,57.77483L82.800003,58.060925L83.085541,57.77483L188.419403,57.77483L188.419403,29.774828z"/>
    <path transform="matrix(1,0,0,-1,0,0)" style="stroke:none;fill:#000000;fill-rule:evenodd" d="M133.060425,117.593994L133.61145,118.016846L132.71936,119.169678L132.726929,119.248291L132.742065,119.454834L132.782593,119.820068C132.869858,120.693848,132.851822,121.575111,132.728882,122.44458C132.580704,123.172256,132.239075,123.846725,131.740112,124.396729C131.409195,124.82589,131.003036,125.191589,130.541626,125.47583C129.926697,125.787422,129.219101,125.858795,128.554321,125.67627C128.010101,125.450569,127.53656,125.083534,127.182259,124.612793C126.976547,124.255196,126.860023,123.853577,126.842415,123.441406C126.79026,122.849892,126.980316,122.262375,127.369026,121.813477C127.631393,121.504959,127.909668,121.210388,128.202759,120.930908L128.331909,121.066162C128.498459,121.245285,128.660217,121.428764,128.817017,121.616455L128.936646,121.750732L129.081909,121.90918L128.713501,122.301758C128.489182,122.491219,128.32605,122.743164,128.244995,123.025391C128.166748,123.335953,128.236191,123.665009,128.433228,123.91748C128.720428,124.283714,129.203918,124.436295,129.649292,124.30127C129.956131,124.236053,130.233978,124.074387,130.442261,123.839844C131.113815,123.146393,131.515762,122.236389,131.57605,121.272949C131.630325,120.409599,131.574707,119.54319,131.410522,118.693848L132.520142,117.191895L133.060425,117.593994z"/>
    <path transform="matrix(1,0,0,-1,0,0)" style="stroke:none;fill:#000000;fill-rule:evenodd" d="M59.18055,114.404053L59.489632,114.479004C60.045528,114.675499,60.545277,115.003944,60.946175,115.436279C61.247543,115.750488,61.521099,116.09021,61.763802,116.45166L64.356819,120.259521C64.757179,120.802551,65.077255,121.400581,65.307014,122.034912C65.515915,122.695419,65.48761,123.407478,65.226936,124.049316C64.964401,124.489227,64.6035,124.861908,64.172249,125.138428C63.595646,125.612595,62.816341,125.762703,62.104866,125.536621C61.553524,125.386925,61.051132,125.09581,60.647102,124.691895C60.333279,124.39505,60.037594,124.079636,59.761604,123.747314L56.796272,120.231201C56.265026,119.651787,55.86245,118.966385,55.61512,118.220215C55.365746,117.467125,55.503223,116.638954,55.982552,116.006836C56.538593,115.259407,57.321789,114.71244,58.214973,114.447754C58.530266,114.366089,58.859169,114.351204,59.18055,114.404053zM58.391487,115.83667C57.785988,115.981323,57.284927,116.402969,57.038948,116.974854C56.960491,117.385185,57.044182,117.809387,57.272591,118.15918C57.430595,118.428665,57.609875,118.685089,57.808723,118.926025C58.957497,120.390427,60.118233,121.841721,61.294319,123.28418C61.566158,123.648865,61.913628,123.950523,62.312874,124.168457C62.652691,124.339813,63.059303,124.308418,63.368782,124.086914C63.689537,123.911087,63.939022,123.628601,64.07386,123.288574C64.127548,122.899673,64.044449,122.504311,63.838753,122.169922C63.695438,121.899399,63.530857,121.640694,63.346565,121.39624L60.238655,117.081787C59.973064,116.660538,59.62442,116.297516,59.214241,116.015137C58.975182,115.847565,58.67849,115.783211,58.391487,115.83667z"/>
    <path transform="matrix(1,0,0,-1,0,0)" style="stroke:none;fill:#000000;fill-rule:evenodd" d="M68.561409,116.071045L68.709358,116.36792C68.888,116.720322,68.96225,117.116844,68.923225,117.51001C68.863159,117.793518,68.681313,118.035896,68.425911,118.172852C67.98291,118.420876,67.464081,118.497864,66.968147,118.38916C66.758408,118.356155,66.549713,118.316666,66.342415,118.270752L66.78968,119.001709L66.17054,119.384277L65.614632,119.741211L60.905647,112.458984C61.353889,112.167435,61.806435,111.882767,62.263313,111.60498L65.914192,117.571045C66.213196,117.639565,66.5224,117.651573,66.825813,117.606445C67.051041,117.567886,67.239182,117.412422,67.319466,117.198486C67.35302,116.97908,67.306931,116.754807,67.189583,116.566406L67.079475,116.36084L63.819221,110.682373C64.282104,110.414886,64.749275,110.154343,65.2201,109.901123L68.561409,116.071045z"/>
    <path transform="matrix(1,0,0,-1,0,0)" style="stroke:none;fill:#000000;fill-rule:evenodd" d="M122.370003,107.758545L123.102669,108.09375L117.997688,119.112061L117.359993,118.820068L116.803841,118.577148L121.632454,107.434814L122.370003,107.758545z"/>
    <path transform="matrix(1,0,0,-1,0,0)" style="stroke:none;fill:#000000;fill-rule:evenodd" d="M114.516487,115.025879L114.859016,115.150635C114.951797,115.78669,114.994659,116.429039,114.98719,117.071777L115.005257,117.476318C115.023582,117.790718,115.054367,118.104294,115.097542,118.41626L114.451302,118.16333L113.892708,117.955811C113.954224,117.18882,114.039566,116.423798,114.148567,115.662109L114.208626,114.916748L114.516487,115.025879z"/>
    <path transform="matrix(1,0,0,-1,0,0)" style="stroke:none;fill:#000000;fill-rule:evenodd" d="M125.881477,109.462158C126.589783,109.611206,127.228416,109.991142,127.697395,110.54248C128.011505,110.95166,128.139465,111.474159,128.049927,111.982178C127.937386,112.628784,127.696655,113.246376,127.341927,113.798584C126.861908,114.634262,126.368378,115.461761,125.861214,116.28125C125.554924,116.815018,125.135109,117.275002,124.631477,117.628662C124.24485,117.888382,123.776421,117.997482,123.314827,117.935303C122.681023,117.805374,122.112709,117.457375,121.70887,116.951904C121.480118,116.614456,121.367462,116.212357,121.387581,115.805176C121.448959,115.088585,121.658096,114.392494,122.001839,113.760742C122.410934,112.891724,122.83728,112.030991,123.280647,111.178955C123.546638,110.640808,123.929314,110.168724,124.400764,109.797119C124.820953,109.473106,125.36274,109.350548,125.881477,109.462158zM125.606087,110.74585L125.480354,110.797607C125.183746,110.995255,124.947784,111.271729,124.799202,111.595703C124.176041,112.729691,123.575516,113.876511,122.998421,115.034668C122.820251,115.342278,122.720352,115.689171,122.707649,116.044434C122.750877,116.390915,123.032074,116.658752,123.380257,116.685059C123.624542,116.70694,123.863106,116.600967,124.010628,116.405029C124.298141,116.073845,124.541451,115.706787,124.734505,115.312988C125.267967,114.387222,125.788765,113.455338,126.297737,112.515869C126.442932,112.270844,126.549194,112.004707,126.612679,111.727051C126.661491,111.534332,126.642052,111.330185,126.557747,111.150146C126.351143,110.835701,125.975845,110.676254,125.606087,110.74585z"/>
    <path transform="matrix(1,0,0,-1,0,0)" style="stroke:none;fill:#000000;fill-rule:evenodd" d="M134.91687,115.187012L135.552612,115.675781L134.54187,116.977539L133.917358,116.49707L133.295532,116.034424L134.27356,114.708008L134.91687,115.187012z"/>
    <path transform="matrix(1,0,0,-1,0,0)" style="stroke:none;fill:#000000;fill-rule:evenodd" d="M70.82386,105.275391L71.012581,105.311523C71.479897,105.443123,71.881088,105.744537,72.137581,106.156738C73.515144,108.185257,74.839684,110.249313,76.109749,112.34668L76.795296,113.437744L77.174446,114.036377L76.480598,114.287354L75.854866,114.526123C75.029488,113.134766,74.21064,111.737793,73.399788,110.337646L72.980598,109.642578C72.82502,109.387283,72.667992,109.132721,72.509651,108.87915L72.613655,109.366699C72.988716,111.053947,73.38929,112.736229,73.814827,114.411377L74.016243,115.272705L73.338997,115.565674L72.728889,115.841797L72.666389,115.542725C72.579308,115.15255,72.489815,114.764206,72.397346,114.375244L72.287971,113.893066C71.817726,111.628174,71.381447,109.357422,70.978889,107.07959L70.938118,106.945801C70.892204,106.741394,70.739868,106.577301,70.539436,106.516357C70.230011,106.501831,69.921661,106.562744,69.640999,106.693848C69.488182,106.750999,69.337303,106.81321,69.188606,106.880371L68.69178,105.770752C69.290298,105.459908,69.950211,105.285484,70.624153,105.26001L70.82386,105.275391z"/>
    <path transform="matrix(1,0,0,-1,0,0)" style="stroke:none;fill:#000000;fill-rule:evenodd" d="M117.228889,105.640381C117.821442,105.730453,118.379105,105.977341,118.844124,106.355469C119.330292,106.7967,119.562271,107.453079,119.461311,108.101807C119.388786,108.62413,119.239136,109.132721,119.01722,109.611084L118.31263,109.330078L117.625374,109.068115L117.810921,108.574463C117.961136,108.239014,118.03183,107.873375,118.017464,107.506104C117.968414,107.228401,117.761871,107.004875,117.488899,106.934082C117.314804,106.851753,117.116196,106.836876,116.93177,106.892334C116.647583,107.032333,116.428314,107.276619,116.31971,107.574219C116.171783,107.908401,116.042839,108.250648,115.933479,108.599365L115.557259,109.693604L116.367561,109.975098C117.098854,110.234573,117.823486,110.512589,118.540657,110.808838L118.283577,111.463135C118.01622,112.200325,117.658127,112.901505,117.217659,113.550293C116.980606,113.874397,116.66349,114.131699,116.297493,114.296875C115.767754,114.435005,115.206047,114.380753,114.712532,114.143799C114.342659,114.001846,114.014862,113.768311,113.759895,113.465088C113.48848,113.02076,113.376648,112.497406,113.442757,111.980957C113.499695,111.372398,113.629189,110.772881,113.828499,110.195068C114.062035,109.424873,114.306801,108.65844,114.562874,107.895508C114.727844,107.360565,114.978714,106.85585,115.30555,106.401367C115.558807,106.030388,115.937912,105.763191,116.372444,105.649414C116.654648,105.590805,116.945511,105.587738,117.228889,105.640381zM115.121223,110.961182L115.034065,111.221191C114.871086,111.622353,114.781654,112.049812,114.770149,112.482666C114.777206,112.773926,114.979713,113.024277,115.263069,113.092041C115.598557,113.239624,115.991722,113.093109,116.148811,112.761963C116.330818,112.46714,116.478424,112.15242,116.588753,111.823975L116.864632,111.090576C116.337891,110.889877,115.807594,110.698952,115.273811,110.517822L115.121223,110.961182z"/>
    <path transform="matrix(1,0,0,-1,0,0)" style="stroke:none;fill:#000000;fill-rule:evenodd" d="M112.071419,104.151855L113.019417,104.405762C112.828987,106.706268,112.588753,109.002655,112.298958,111.292725L112.164436,112.499268L112.093147,113.162109L111.414436,112.960693L110.79554,112.788086C110.96888,111.332207,111.150093,109.881416,111.340218,108.427734L111.43763,107.618652C111.508537,107.00882,111.574211,106.399529,111.634895,105.788574L111.425667,106.280518C110.598976,108.289246,109.789833,110.302612,108.996468,112.324951C108.544838,112.214417,108.091248,112.111603,107.636116,112.016602L108.107063,110.910156C108.503365,109.967194,108.909004,108.995819,109.301155,108.050781L109.692024,107.126465C110.152214,106.049271,110.627571,104.979446,111.118538,103.916016L112.071419,104.151855z"/>
    <path transform="matrix(1,0,0,-1,0,0)" style="stroke:none;fill:#000000;fill-rule:evenodd" d="M81.689583,104.344971L81.924446,104.890137C82.897591,107.221786,83.848579,109.564377,84.776009,111.914551C84.334549,112.002831,83.894531,112.098305,83.456184,112.200928L83.076057,111.237549C82.764229,110.438194,82.45771,109.643394,82.151985,108.841553L81.867073,108.104004C81.546677,107.279083,81.215622,106.457718,80.874397,105.641113L80.923714,106.17334C81.148628,108.332191,81.391914,110.492035,81.652962,112.646729C81.202881,112.763641,80.754807,112.88826,80.308968,113.020508L80.198616,111.823242C80.098274,110.785332,79.998543,109.777351,79.89344,108.739746L79.798958,107.740479C79.692902,106.574043,79.60379,105.406464,79.531624,104.237549C80.163765,104.068588,80.799026,103.911743,81.437141,103.76709L81.689583,104.344971z"/>
    <path transform="matrix(1,0,0,-1,0,0)" style="stroke:none;fill:#000000;fill-rule:evenodd" d="M88.987923,103.034912C88.991013,103.548622,89.020515,104.061836,89.076302,104.57251L89.513069,108.510742C89.603622,109.074554,89.579956,109.650833,89.443489,110.205322C89.26133,110.845955,88.731155,111.328697,88.076302,111.450195C87.605247,111.580292,87.107658,111.580292,86.636604,111.450195C86.061256,111.272079,85.599861,110.837563,85.387581,110.273926C85.240707,109.900482,85.126289,109.515152,85.04554,109.12207L85.726936,108.966553L86.45594,108.812988L86.526009,109.239258C86.55439,109.556175,86.66497,109.860229,86.846809,110.121338C87.014603,110.309219,87.272583,110.389168,87.51722,110.329102C87.683205,110.318085,87.840164,110.246078,87.952904,110.123871C88.065651,110.001671,88.124802,109.839432,88.122444,109.673096C88.142265,109.341667,88.124405,109.009048,88.069221,108.681641L87.985237,108.064697C87.901962,108.036385,87.8172,108.012672,87.731331,107.993652L87.562141,107.946289C87.392441,107.897034,87.223297,107.845322,87.055061,107.79126C86.520592,107.624939,86.002151,107.411499,85.505501,107.15332C85.135818,106.903297,84.83316,106.566086,84.624397,106.171631C84.284531,105.630074,84.137459,104.98983,84.206917,104.354248C84.278023,103.733887,84.662582,103.193634,85.225471,102.92334C85.725456,102.718323,86.293648,102.769775,86.748665,103.061279C87.075859,103.287987,87.335281,103.599396,87.499153,103.962158L87.495247,103.671143C87.49691,103.334946,87.511246,102.998932,87.538216,102.663818C88.022156,102.598709,88.507248,102.540421,88.992805,102.489014L88.987923,103.034912zM86.409798,104.104004C86.121346,104.143066,85.89212,104.365654,85.844612,104.652832C85.681717,105.484955,86.120804,106.319603,86.898811,106.656738C87.20739,106.8246,87.526398,106.972519,87.853889,107.099609L87.522835,104.668457C87.284477,104.365082,86.941963,104.161156,86.561653,104.096191L86.409798,104.104004z"/>
    <path transform="matrix(1,0,0,-1,0,0)" style="stroke:none;fill:#000000;fill-rule:evenodd" d="M100.91346,102.300781L101.712776,102.368408L101.089729,109.335205C101.288864,109.568565,101.530029,109.76252,101.800667,109.906982C102.004616,110.010086,102.248329,109.997253,102.440315,109.873291C102.597961,109.717087,102.69455,109.509529,102.712532,109.28833L102.746223,109.057617L103.512093,102.554688C104.043282,102.615707,104.573616,102.684891,105.102669,102.762207L104.109261,109.708008C104.06752,110.11734,103.93383,110.511909,103.718147,110.862305C103.516678,111.196136,103.133469,111.375061,102.748177,111.315186C102.244514,111.250443,101.781883,111.003052,101.448372,110.620117C101.299759,110.468559,101.155724,110.312553,101.016487,110.152344L100.940315,111.005859L100.214973,110.944092L99.555794,110.899414L100.113411,102.245361L100.91346,102.300781z"/>
    <path transform="matrix(1,0,0,-1,0,0)" style="stroke:none;fill:#000000;fill-rule:evenodd" d="M96.503304,102.000244C97.085899,102.015175,97.635368,102.276375,98.014778,102.71875C98.330429,103.145187,98.509903,103.657074,98.529671,104.187256C98.548943,104.51889,98.547958,104.851349,98.526741,105.182861L97.768684,105.154541L97.033333,105.138672L97.042366,104.611328C97.071152,104.244949,97.015091,103.876846,96.878548,103.535645C96.738937,103.290695,96.46946,103.149567,96.188606,103.174316C95.996887,103.155106,95.804688,103.207771,95.649544,103.322021C95.428909,103.549271,95.304451,103.852951,95.302132,104.169678C95.274506,104.534065,95.267906,104.899734,95.282356,105.264893L95.295052,106.422119L96.152718,106.415283C96.928841,106.413971,97.70475,106.43261,98.479866,106.471191C98.472626,106.794022,98.460983,107.116936,98.444954,107.439453C98.429611,108.134651,98.331924,108.8256,98.153938,109.497803C98.039368,109.88266,97.826904,110.231422,97.537483,110.509766C97.084976,110.817833,96.537651,110.955246,95.993294,110.897461C95.597206,110.887924,95.210022,110.777962,94.86805,110.577881C94.463203,110.250458,94.182121,109.795044,94.07093,109.286377C93.920349,108.694,93.841179,108.085793,93.835091,107.474609C93.795959,106.670853,93.769272,105.866592,93.755013,105.062012C93.730545,104.502731,93.797432,103.943039,93.953011,103.405273C94.067062,102.970871,94.334419,102.591949,94.705452,102.338867C95.163689,102.084106,95.683723,101.962547,96.207405,101.987793L96.503304,102.000244zM95.304817,107.293701C95.292023,107.831512,95.317314,108.369576,95.380501,108.903809C95.395508,109.179306,95.520859,109.437309,95.728157,109.619385C96.038406,109.802574,96.432182,109.759857,96.69593,109.514404C96.862465,109.260506,96.952461,108.964516,96.955452,108.660889C96.982712,108.207474,96.996147,107.753304,96.995735,107.299072L96.127327,107.28833L95.304817,107.293701z"/>
</svg>
