<?xml version="1.0" encoding="UTF-8"?>
<svg xmlns="http://www.w3.org/2000/svg" xmlns:xlink="http://www.w3.org/1999/xlink" width="159.999mm" height="159.913mm" viewBox="31.999996 -181.956848 159.999451 159.912567">
    <path transform="matrix(1.33333,0,0,-1.33333,31.492201,-182.466003)" style="stroke:#ff0000;stroke-width:0.05mm;fill:none" d="M65.255814,-60.381821C65.255814,-57.706955,63.055164,-55.506729,60.380791,-55.506729C57.706417,-55.506729,55.505764,-57.706955,55.505764,-60.381821C55.505764,-63.055969,57.706417,-65.256226,60.380791,-65.256226C63.055164,-65.256226,65.255814,-63.055969,65.255814,-60.381821z"/>
    <path transform="matrix(1.33333,0,0,-1.33333,31.492201,-182.466003)" style="stroke:#ff0000;stroke-width:0.05mm;fill:none" d="M33.907635,-114.225594C32.62516,-113.594849,31.716852,-112.389374,31.464066,-110.983002C31.240263,-109.73761,30.145956,-108.822662,28.880491,-108.822662C28.628405,-108.822662,28.37772,-108.858368,28.136066,-108.929749C26.765591,-109.335083,25.280941,-109.06485,24.141972,-108.201721C21.629517,-106.297607,19.27108,-104.198181,17.088482,-101.923737C16.098972,-100.892578,15.657669,-99.449799,15.901215,-98.04129C15.926765,-97.893585,15.939644,-97.743774,15.939644,-97.593964C15.939644,-96.214905,14.852619,-95.058441,13.476055,-94.973724C12.049648,-94.88623,10.74715,-94.123871,9.972061,-92.923294C3.711723,-83.225601,0.380848,-71.924118,0.380848,-60.381821C0.380848,-32.856155,19.321762,-8.692093,46.05022,-2.117981C47.437984,-1.777069,48.908493,-2.115875,50.006233,-3.030838C50.477921,-3.424271,51.072884,-3.639877,51.686962,-3.639877C52.566425,-3.639877,53.389538,-3.198151,53.875298,-2.464508C54.664593,-1.273041,55.975983,-0.526779,57.40337,-0.455383C58.39505,-0.406372,59.387852,-0.381882,60.380791,-0.381882C93.295807,-0.381882,120.380737,-27.466522,120.380737,-60.381821C120.380737,-66.039566,119.580437,-71.668594,118.003662,-77.102341C117.605408,-78.475113,116.57621,-79.579086,115.234917,-80.071915C114.204536,-80.450623,113.515839,-81.437698,113.515839,-82.536057C113.515839,-82.942093,113.610062,-83.342514,113.791092,-83.705826C114.4282,-84.985504,114.419243,-86.494095,113.766937,-87.766068C98.920013,-116.710052,63.099964,-128.57785,33.907635,-114.225594z"/>
    <path transform="matrix(1.33333,0,0,-1.33333,31.492201,-182.466003)" style="stroke:#ff0000;stroke-width:0.05mm;fill:none" d="M71.691742,-65.287048L72.866516,-63.662514C73.390381,-62.585129,76.094421,-59.355362,75.570557,-55.763115C75.438263,-54.853745,75.906586,-53.12178,76.700317,-52.662201L106.473877,-35.483345C106.815163,-35.285702,107.204132,-35.181458,107.598358,-35.181458C108.458252,-35.181458,109.246696,-35.674641,109.622437,-36.448013C113.247192,-43.905296,115.131042,-52.089638,115.131042,-60.381416C115.131042,-88.937088,92.789642,-112.941933,64.307251,-114.990334C64.254333,-114.994034,64.201416,-114.996147,64.148529,-114.996147C62.912903,-114.996147,61.896912,-113.980667,61.896912,-112.746658L61.891602,-97.169586L62.312286,-96.958984L62.695923,-97.226738C62.907593,-97.373055,63.18808,-97.563553,63.320374,-97.649277L63.558472,-97.808029L63.510864,-97.845863C63.434113,-97.91201,62.841461,-98.467896,62.822968,-98.494354C62.791199,-98.535362,62.859955,-98.570557,62.907593,-98.539604C62.931396,-98.523193,64.569183,-98.276077,66.545624,-97.988998C68.828979,-97.657745,70.165131,-97.451897,70.215393,-97.422531C70.292145,-97.376755,70.670471,-97.12355,72.178619,-96.119987C72.88504,-95.649025,73.104645,-95.501396,74.234436,-94.748657C74.850891,-94.338287,75.988617,-93.580788,76.377533,-93.326256C76.560089,-93.206398,76.740021,-93.099243,76.784973,-93.087334C76.835266,-93.074104,77.594635,-92.506042,78.899017,-91.509361C80.909851,-89.972397,80.933655,-89.952286,80.981293,-89.992241C81.010406,-90.015526,81.203552,-90.173477,81.415192,-90.341492C81.415192,-90.341492,83.685333,-87.555695,83.550385,-87.442986C83.418091,-87.330276,83.277863,-87.206177,83.240814,-87.166229L83.169373,-87.094788L83.555695,-85.932213C85.11145,-81.268929,85.135254,-81.200142,85.11145,-81.083725C84.89447,-79.978294,83.680023,-73.378799,83.690613,-73.36451C83.698547,-73.354454,83.687988,-73.332497,83.664154,-73.315826C83.637695,-73.296249,83.613892,-73.299957,83.595367,-73.322441C83.582153,-73.342812,83.410156,-73.390442,83.214355,-73.426956L82.862488,-73.494423L82.023743,-74.673935L81.592468,-74.349815C81.351685,-74.171227,81.010406,-73.90638,80.83313,-73.760323L80.50769,-73.49839L80.544739,-72.633209C80.565887,-72.159599,80.589691,-71.750816,80.600281,-71.727272C80.624084,-71.665359,80.587036,-71.612701,80.544739,-71.646576C80.359497,-71.792358,79.359406,-72.511238,79.335571,-72.516525C79.301178,-72.523399,78.790527,-72.120178,77.195099,-70.823982C76.800873,-70.503311,76.192322,-70.014626,75.845734,-69.736015C75.499115,-69.457153,75.067841,-69.105782,74.885284,-68.953377C74.705353,-68.800194,74.221191,-68.409393,73.811066,-68.087402C73.403625,-67.76329,73.006744,-67.448433,72.932678,-67.38308C72.858582,-67.321426,72.599274,-67.110031,72.350586,-66.916092C71.673248,-66.380051,71.74469,-66.50016,71.715576,-65.846909L71.691742,-65.287048z"/>
    <path transform="matrix(1.33333,0,0,-1.33333,31.492201,-182.466003)" style="stroke:#ff0000;stroke-width:0.05mm;fill:none" d="M11.123383,-36.478176C11.50174,-35.704006,12.287567,-35.210564,13.150116,-35.210564C13.544342,-35.210564,13.930634,-35.314278,14.274597,-35.511654L43.786163,-52.45874C43.921112,-52.535995,44.048096,-52.683105,44.16983,-52.878624C44.161896,-52.948212,44.138092,-52.976532,44.042816,-53.09639C43.812622,-53.376579,43.23056,-53.825569,42.603485,-54.206573C42.375946,-54.345474,41.664215,-54.678589,41.439331,-54.751617C40.698517,-54.99556,40.105804,-55.09848,39.420563,-55.100334C38.22464,-55.103516,36.848816,-54.71537,35.470337,-53.984055L35.19516,-53.836426L34.935883,-53.569984C34.636902,-53.263336,34.427856,-53.091621,34.189728,-52.956947C34.001892,-52.852432,33.737305,-52.746872,33.536224,-52.700035L33.406586,-52.670135L33.462128,-52.632042C33.491241,-52.611931,33.52829,-52.565361,33.541534,-52.531235C33.554779,-52.49472,33.578583,-52.460587,33.591766,-52.454498C33.634125,-52.433861,33.644714,-52.35952,33.612976,-52.301575C33.597076,-52.271416,33.586517,-52.224579,33.591766,-52.19574C33.602356,-52.135681,33.565338,-52.045723,33.517731,-52.008949C33.485962,-51.985657,33.485962,-51.983284,33.530914,-51.974815C33.581207,-51.96476,33.594421,-51.91687,33.565338,-51.853371C33.554779,-51.834053,33.560028,-51.81395,33.573273,-51.807861C33.644714,-51.774261,33.644714,-51.530052,33.575928,-51.497772C33.557373,-51.488251,33.52829,-51.491692,33.507111,-51.507294C33.480682,-51.525818,33.470093,-51.524765,33.456879,-51.495384C33.446289,-51.475815,33.422485,-51.455177,33.406586,-51.449883C33.348389,-51.434807,33.348389,-51.400932,33.409241,-51.344841C33.464783,-51.295364,33.467438,-51.285843,33.448914,-51.217049C33.438324,-51.176567,33.430389,-51.120209,33.435669,-51.090576C33.440979,-51.056183,33.433044,-51.022316,33.41452,-50.99929C33.382782,-50.962257,33.274292,-50.946648,33.253143,-50.975746C33.234589,-51.006706,33.229309,-50.971252,33.245178,-50.886314C33.255798,-50.81356,33.253143,-50.800598,33.21875,-50.773872C33.184326,-50.748215,33.179047,-50.738419,33.189636,-50.699257C33.19754,-50.676247,33.194916,-50.62941,33.186981,-50.593956C33.173737,-50.54686,33.157898,-50.529663,33.11554,-50.514053C33.083801,-50.502937,33.054688,-50.503731,33.036163,-50.517754C33.017639,-50.531776,33.004425,-50.53231,32.999115,-50.519081C32.983246,-50.48336,32.940918,-50.488647,32.932953,-50.526222C32.922394,-50.583107,32.914459,-50.577286,32.858917,-50.484154C32.792755,-50.375671,32.737183,-50.348419,32.668396,-50.391022C32.636627,-50.411125,32.610199,-50.415092,32.599579,-50.404518C32.58902,-50.395256,32.562592,-50.396309,32.538727,-50.407684C32.501709,-50.425156,32.496429,-50.421974,32.488495,-50.38546C32.46994,-50.265343,32.451447,-50.227776,32.401154,-50.208191C32.36676,-50.194435,32.348236,-50.173798,32.342957,-50.148666C32.332397,-50.099449,32.27417,-50.05526,32.239746,-50.071404C32.223907,-50.079079,32.202728,-50.112152,32.194794,-50.145752L32.178925,-50.208725L32.173615,-50.15554C32.16571,-50.068489,32.133942,-50.019547,32.06781,-49.994675C32.036041,-49.982506,31.969879,-49.95578,31.922272,-49.936203L31.834961,-49.899429L31.848175,-49.83857C31.86142,-49.762634,31.85083,-49.743057,31.779388,-49.695427C31.74765,-49.67453,31.715881,-49.640663,31.702667,-49.617905C31.678833,-49.565788,31.620636,-49.508896,31.565094,-49.485085C31.538635,-49.473709,31.498962,-49.432701,31.469849,-49.382957C31.430145,-49.313637,31.406342,-49.29274,31.358704,-49.27951C31.32431,-49.269981,31.292572,-49.271301,31.284607,-49.28083C31.279327,-49.289558,31.242279,-49.284531,31.205261,-49.266014C31.154968,-49.243782,31.11792,-49.241409,31.067688,-49.257545C30.998871,-49.279243,30.993591,-49.276596,30.956543,-49.227379C30.91684,-49.16362,30.805756,-49.116791,30.755463,-49.139542C30.736938,-49.148804,30.713104,-49.177109,30.707855,-49.200134C30.694611,-49.244049,30.691956,-49.24485,30.617859,-49.232407C30.527924,-49.218918,30.475006,-49.239288,30.445923,-49.29882C30.424713,-49.344856,30.437958,-49.451225,30.475006,-49.535095C30.48822,-49.566048,30.485565,-49.602829,30.467072,-49.644104L30.437958,-49.709457L30.527924,-49.87323C30.575562,-49.963722,30.61261,-50.040184,30.6073,-50.042564C30.60202,-50.044678,30.564972,-50.042831,30.522614,-50.040184C30.480316,-50.03595,30.432678,-50.044418,30.414154,-50.057648C30.379761,-50.080925,30.374481,-50.078285,30.334778,-50.021133C30.276581,-49.931175,30.236877,-49.914772,30.160156,-49.944138C30.107239,-49.965309,30.091339,-49.963188,30.051666,-49.927734C30.006683,-49.887253,29.98288,-49.889107,29.895569,-49.939911C29.86911,-49.953659,29.855865,-49.949959,29.842651,-49.924026C29.834717,-49.906036,29.800323,-49.880371,29.768555,-49.869797C29.691833,-49.840691,29.617767,-49.87561,29.588623,-49.95446C29.570129,-50.00235,29.55954,-50.013992,29.535736,-50.008698C29.517212,-50.00499,29.477539,-50.016106,29.44577,-50.035156C29.395477,-50.064522,29.384918,-50.081192,29.382294,-50.144432C29.376984,-50.201576,29.369049,-50.222221,29.345245,-50.225655C29.287048,-50.232796,29.226166,-50.292595,29.218231,-50.35186C29.212952,-50.392609,29.223541,-50.442612,29.257904,-50.517494C29.289673,-50.589981,29.302887,-50.641579,29.297607,-50.67598C29.287048,-50.742645,29.308197,-50.793716,29.374329,-50.844513C29.469574,-50.918335,29.649506,-51.354637,29.620422,-51.444855C29.617767,-51.458351,29.593933,-51.425545,29.567474,-51.36866C29.485474,-51.191383,29.390198,-51.127884,29.287048,-51.176567C29.197052,-51.219429,29.183838,-51.302513,29.25,-51.418396C29.257904,-51.434006,29.25528,-51.445114,29.24469,-51.444061C29.2341,-51.443802,29.220886,-51.432159,29.215607,-51.420776C29.210297,-51.409401,29.167969,-51.379234,29.12561,-51.35569C29.054199,-51.315475,29.035675,-51.314148,28.980103,-51.34008C28.93512,-51.361244,28.903381,-51.396698,28.863678,-51.464699C28.816071,-51.544868,28.802826,-51.556511,28.776367,-51.544601C28.694366,-51.505447,28.628235,-51.618683,28.657318,-51.739334C28.681122,-51.83326,28.755219,-51.894386,28.879578,-51.92746C28.94043,-51.942535,28.993317,-51.963173,28.995972,-51.971375C29.009216,-51.99572,28.958954,-52.004982,28.913971,-51.986191C28.850464,-51.958672,28.784332,-51.997299,28.744629,-52.085411C28.715515,-52.152351,28.707581,-52.16082,28.657318,-52.163727C28.580597,-52.169815,28.51178,-52.2267,28.474762,-52.31163C28.445648,-52.37619,28.437714,-52.383858,28.411255,-52.371155C28.395386,-52.364281,28.353058,-52.360847,28.313354,-52.364807C28.181061,-52.381477,28.091125,-52.538109,28.130798,-52.690254C28.154602,-52.782593,28.144012,-52.805611,28.067291,-52.827042C27.940277,-52.863022,27.895325,-53.009071,27.966766,-53.158829C28.006439,-53.245079,27.985291,-53.295883,27.905884,-53.305931C27.855621,-53.313606,27.837097,-53.324188,27.813293,-53.360703C27.78949,-53.402504,27.78418,-53.404884,27.725983,-53.390602C27.588409,-53.359642,27.46936,-53.473145,27.485199,-53.621582C27.493164,-53.67952,27.490509,-53.685081,27.434967,-53.699104C27.318512,-53.729797,27.270905,-53.877167,27.334412,-54.012367C27.352905,-54.054703,27.352905,-54.059464,27.294708,-54.077988C27.112152,-54.13858,27.093628,-54.345474,27.241791,-54.664307L27.313232,-54.812469L27.270905,-54.853218C27.212677,-54.91275,27.207397,-55.015404,27.260315,-55.125999C27.284119,-55.176537,27.321167,-55.232887,27.339661,-55.251144C27.376709,-55.278664,27.374084,-55.290573,27.347626,-55.346924C27.307922,-55.437683,27.318512,-55.545631,27.382019,-55.671043C27.440216,-55.788254,27.442871,-55.828468,27.384674,-55.748299C27.36087,-55.715492,27.329102,-55.693794,27.294708,-55.689568C27.244415,-55.681091,27.239166,-55.68586,27.191528,-55.740097C27.114777,-55.828995,27.098938,-55.882446,27.130676,-55.953087L27.157135,-56.013412L27.072479,-55.940392C26.977203,-55.857567,26.924286,-55.851486,26.895203,-55.919754C26.868744,-55.981926,26.871399,-56.171631,26.897858,-56.202858C26.916351,-56.225868,26.911041,-56.236725,26.855499,-56.268471C26.821106,-56.290169,26.784058,-56.317947,26.770844,-56.331444C26.754944,-56.351021,26.739105,-56.342552,26.696747,-56.290955C26.662354,-56.249153,26.625305,-56.221642,26.590912,-56.217407C26.522125,-56.207611,26.397766,-56.267944,26.360718,-56.329063C26.331635,-56.374832,26.328979,-56.375626,26.297241,-56.354721C26.241669,-56.312126,26.11731,-56.278526,26.067047,-56.290955C25.876556,-56.338326,25.773376,-56.54866,25.836853,-56.765617C25.852722,-56.819862,25.850098,-56.835205,25.818329,-56.849495C25.717804,-56.896065,25.670166,-57.085243,25.731018,-57.191338L25.765411,-57.249283L25.680756,-57.300873C25.540527,-57.386604,25.516724,-57.406975,25.492889,-57.471527C25.466431,-57.544029,25.487579,-57.629745,25.543182,-57.696159C25.582886,-57.742989,25.582886,-57.746964,25.543182,-57.787704C25.426758,-57.903862,25.445282,-58.089073,25.577576,-58.126373L25.643707,-58.143303L25.619873,-58.186699C25.606689,-58.21051,25.596069,-58.258667,25.598724,-58.293854C25.604034,-58.430115,25.686035,-58.52298,25.813049,-58.53833C25.879211,-58.545479,25.889771,-58.55394,25.918854,-58.617439L25.953278,-58.688881L25.879211,-58.691788C25.78656,-58.695755,25.651672,-58.760849,25.601379,-58.826195C25.543182,-58.900276,25.551117,-59.03231,25.614624,-59.133644C25.641083,-59.17598,25.683411,-59.224655,25.707214,-59.242912C25.733673,-59.26355,25.746918,-59.285774,25.744263,-59.306412C25.738953,-59.354568,25.831573,-59.537926,25.881866,-59.575233C25.908295,-59.595337,25.961212,-59.619942,26.000916,-59.631317C26.061737,-59.646667,26.085541,-59.643227,26.135834,-59.611481C26.170227,-59.590843,26.212585,-59.55883,26.231079,-59.542419C26.262848,-59.514374,26.262848,-59.515968,26.260193,-59.558563C26.260193,-59.585022,26.276093,-59.632912,26.299896,-59.669426C26.336914,-59.733185,26.336914,-59.73716,26.297241,-59.768372C26.199341,-59.83902,26.175537,-60.040894,26.249603,-60.140915C26.294586,-60.201492,26.389832,-60.230606,26.469208,-60.207581C26.52478,-60.191444,26.540649,-60.195679,26.553864,-60.225052C26.567108,-60.256004,26.561829,-60.269501,26.516815,-60.296486C26.485077,-60.31501,26.437469,-60.329033,26.408356,-60.328232C26.379272,-60.328232,26.33429,-60.337494,26.307831,-60.350464C26.278717,-60.361839,26.21521,-60.387497,26.164948,-60.404694C26.11731,-60.422165,26.061737,-60.44809,26.043243,-60.462639C25.995605,-60.501007,26.00354,-60.585678,26.067047,-60.701294C26.114685,-60.790192,26.114685,-60.799721,26.082916,-60.81031C25.99295,-60.844963,25.945343,-60.880684,25.921509,-60.93148C25.873901,-61.041283,25.950623,-61.227287,26.077637,-61.301102L26.141144,-61.34053L26.130554,-61.417526C26.119965,-61.473618,26.127899,-61.517799,26.154358,-61.573364C26.180847,-61.628662,26.20993,-61.66227,26.257538,-61.690834C26.33429,-61.736351,26.336914,-61.733971,26.188751,-61.795082C26.119965,-61.824715,26.098785,-61.845085,26.061737,-61.910179C25.987671,-62.043259,26.00885,-62.176353,26.119965,-62.287735C26.164948,-62.334045,26.167603,-62.338799,26.138489,-62.375847C26.096161,-62.433517,26.098785,-62.513962,26.146423,-62.616348C26.196686,-62.722183,26.249603,-62.772453,26.302521,-62.765053C26.336914,-62.761078,26.33429,-62.765839,26.297241,-62.813995C26.217834,-62.907661,26.249603,-63.080429,26.358093,-63.176476C26.381897,-63.197906,26.42688,-63.220924,26.453339,-63.226212C26.498322,-63.23468,26.511566,-63.245529,26.548584,-63.338921C26.580322,-63.422531,26.598877,-63.447937,26.641205,-63.468307C26.675598,-63.486031,26.691467,-63.505615,26.691467,-63.533127C26.696747,-63.596626,26.747009,-63.693466,26.797302,-63.733414C26.858154,-63.777611,26.963989,-63.792427,27.024841,-63.764114C27.067169,-63.74427,27.072479,-63.747711,27.101563,-63.808029C27.138611,-63.890846,27.217987,-63.962021,27.270905,-63.964928C27.329102,-63.968903,27.416412,-63.92366,27.445526,-63.875504C27.46405,-63.838196,27.46936,-63.838196,27.495789,-63.871002C27.514313,-63.894028,27.554016,-63.907249,27.604248,-63.909103C27.67569,-63.911751,27.688934,-63.919418,27.712738,-63.969955C27.725983,-64.000648,27.752441,-64.038483,27.770935,-64.050125C27.810638,-64.079231,27.908539,-64.068115,27.969391,-64.023933C28.009064,-63.995888,28.022308,-63.993767,28.030273,-64.013351C28.038177,-64.026314,28.051422,-64.045891,28.062012,-64.05674C28.075226,-64.069969,28.054077,-64.083199,27.972046,-64.118652C27.87149,-64.159668,27.860931,-64.166542,27.837097,-64.232689C27.794769,-64.35466,27.866211,-64.524529,27.993225,-64.58062L28.056732,-64.610512L28.043488,-64.668716C28.032928,-64.711052,28.038177,-64.751541,28.064667,-64.805252C28.09906,-64.881714,28.09906,-64.884087,28.048767,-64.919807C28.019684,-64.940712,27.987915,-64.985687,27.977325,-65.018234C27.953522,-65.090996,27.97998,-65.236252,28.027618,-65.304253L28.062012,-65.351616L27.945587,-65.409027C27.879425,-65.44104,27.813293,-65.484428,27.797424,-65.50322C27.760376,-65.55455,27.768341,-65.656151,27.818573,-65.763306C27.866211,-65.864372,27.924438,-65.918083,28.009064,-65.937927C28.054077,-65.948776,28.064667,-65.956177,28.051422,-65.976028C28.003784,-66.043762,28.077881,-66.24987,28.170471,-66.312576L28.223419,-66.346176L28.188995,-66.420792C28.144012,-66.523453,28.146667,-66.59568,28.19696,-66.704689C28.273651,-66.868202,28.392731,-66.925087,28.551483,-66.872971C28.633484,-66.844391,28.633484,-66.844391,28.662598,-66.906296C28.702271,-66.990967,28.760529,-67.028542,28.858398,-67.034363C28.932465,-67.03701,28.945709,-67.043617,28.961578,-67.091507C28.982758,-67.154739,29.059479,-67.200256,29.109741,-67.182259C29.128265,-67.173798,29.167969,-67.173264,29.194397,-67.178032C29.247345,-67.185699,29.247345,-67.187286,29.22879,-67.226181C29.215607,-67.247612,29.170593,-67.282539,29.128265,-67.302383C29.019806,-67.353447,28.980103,-67.411919,28.993317,-67.500816C29.011871,-67.629135,29.104462,-67.777573,29.189148,-67.81356C29.220886,-67.827316,29.22879,-67.84108,29.2341,-67.890289C29.242035,-67.963577,29.294952,-68.078407,29.339935,-68.122856C29.403442,-68.183975,29.472229,-68.193764,29.556885,-68.153282C29.633636,-68.117561,29.633636,-68.117561,29.638916,-68.166779C29.644226,-68.241646,29.707703,-68.366272,29.757965,-68.393257C29.784454,-68.40834,29.813568,-68.409927,29.847961,-68.394577C29.895569,-68.372627,29.895569,-68.373413,29.908813,-68.429245C29.924652,-68.514969,29.9776,-68.608635,30.027863,-68.638794C30.093994,-68.678215,30.18924,-68.676628,30.255402,-68.634293C30.300385,-68.604927,30.310974,-68.6036,30.326843,-68.630325C30.358582,-68.68351,30.400909,-68.69091,30.475006,-68.655991C30.512054,-68.638268,30.546448,-68.614456,30.546448,-68.60228C30.551727,-68.560478,30.580811,-68.56868,30.604645,-68.617363C30.617859,-68.645142,30.641693,-68.678741,30.660217,-68.691978C30.689301,-68.712875,30.689301,-68.728226,30.670807,-68.791199C30.636414,-68.881943,30.641693,-68.951263,30.684021,-69.043869C30.747498,-69.17881,30.964478,-69.358994,31.027985,-69.32988C31.041229,-69.323799,31.046478,-69.348137,31.046478,-69.402641C31.043854,-69.512711,31.091492,-69.64341,31.144379,-69.67543C31.168213,-69.690514,31.22113,-69.703735,31.260803,-69.704796C31.32431,-69.708237,31.345459,-69.701355,31.393097,-69.660881C31.443359,-69.618813,31.448669,-69.616425,31.451294,-69.645531C31.451294,-69.694473,31.490997,-69.803223,31.522766,-69.84185C31.554504,-69.882065,31.668274,-69.902443,31.721191,-69.878098C31.739685,-69.869904,31.766174,-69.842384,31.787323,-69.819626L31.819092,-69.773857L31.819092,-69.828354C31.816437,-69.859047,31.824371,-69.913025,31.832336,-69.948479C31.853485,-70.031822,31.922272,-70.060928,32.006927,-70.022034C32.05722,-69.997696,32.065155,-69.998749,32.0625,-70.033943C32.05722,-70.139244,32.186859,-70.235817,32.276794,-70.192947C32.303253,-70.180779,32.324432,-70.174171,32.327087,-70.177345C32.329742,-70.182373,32.327087,-70.239258,32.319153,-70.305931C32.313843,-70.371552,32.313843,-70.445633,32.319153,-70.470505C32.332397,-70.537704,32.411743,-70.631371,32.467285,-70.64328C32.536102,-70.661003,32.610199,-70.622643,32.612823,-70.569717C32.612823,-70.539299,32.623413,-70.526596,32.652527,-70.522621C32.845673,-70.49617,32.919769,-70.43531,32.911804,-70.313866C32.911804,-70.268623,32.901215,-70.219414,32.893311,-70.201691C32.885376,-70.18528,32.882721,-70.162796,32.890656,-70.153267C32.895935,-70.144539,32.909149,-70.148766,32.917114,-70.165176C32.925049,-70.181313,32.956818,-70.212006,32.988556,-70.231323C33.067902,-70.284767,33.147308,-70.247459,33.176392,-70.145325C33.194916,-70.072571,33.192291,-70.067802,33.112885,-69.913025L33.028229,-69.754005L33.128754,-69.835503C33.186981,-69.880219,33.253143,-69.95192,33.282227,-70.000076C33.398651,-70.189514,33.549469,-70.291374,33.644714,-70.246407C33.681763,-70.228935,33.700256,-70.20063,33.721466,-70.131836L33.74527,-70.040817L33.774353,-70.140564C33.816711,-70.289528,33.896057,-70.420227,33.959564,-70.4459C34.023041,-70.469978,34.105072,-70.453568,34.150085,-70.406471C34.176514,-70.378159,34.195038,-70.376312,34.242676,-70.393509C34.329987,-70.423935,34.419922,-70.377373,34.459625,-70.284233C34.483429,-70.220467,34.491364,-70.213333,34.509918,-70.234756C34.602509,-70.337685,34.660706,-70.344032,34.718903,-70.256981C34.758606,-70.203537,34.758606,-70.202744,34.774475,-70.233437C34.800934,-70.288994,34.877686,-70.30381,34.951752,-70.269417C35.004669,-70.244278,35.023193,-70.223907,35.041718,-70.168083C35.073456,-70.069923,35.068176,-69.974144,35.028473,-69.88974L34.99408,-69.816452L35.054932,-69.816452C35.10257,-69.818306,35.121063,-69.811691,35.139618,-69.783905C35.176666,-69.734962,35.168701,-69.588646,35.123718,-69.491806C35.09726,-69.43148,35.09198,-69.411377,35.113129,-69.418259C35.192505,-69.447624,35.229553,-69.349731,35.20047,-69.170609C35.18457,-69.072968,35.18988,-69.04731,35.213684,-69.035141C35.232208,-69.026672,35.258667,-69.00074,35.271912,-68.978783C35.29306,-68.940681,35.295715,-68.939095,35.311554,-68.974014C35.361847,-69.104729,35.446503,-69.152878,35.562927,-69.120331C35.623779,-69.103401,35.634369,-69.106041,35.668793,-69.152084C35.695221,-69.188866,35.703186,-69.226959,35.700531,-69.307129C35.700531,-69.375389,35.71109,-69.437569,35.734924,-69.489693C35.761383,-69.544991,35.766663,-69.587852,35.758728,-69.645531C35.719025,-69.887894,35.872498,-70.095322,36.055054,-70.042145C36.113251,-70.026794,36.123871,-70.029442,36.158264,-70.073624C36.203217,-70.140831,36.293182,-70.178398,36.348755,-70.156441C36.393738,-70.140038,36.396393,-70.142418,36.417542,-70.212006C36.436035,-70.276039,36.446655,-70.28688,36.512787,-70.310165C36.555115,-70.327362,36.602722,-70.329216,36.626556,-70.317841C36.676819,-70.294296,36.674164,-70.291908,36.676819,-70.379486C36.684784,-70.529243,36.756226,-70.583214,36.920258,-70.565758C37.057831,-70.550674,37.118683,-70.502518,37.118683,-70.410965C37.118683,-70.351433,37.123993,-70.345093,37.179535,-70.330536C37.28009,-70.307251,37.330353,-70.273911,37.364746,-70.212265L37.396484,-70.15432L37.422974,-70.212799C37.441467,-70.251961,37.441467,-70.273651,37.428223,-70.280533C37.391205,-70.297203,37.375336,-70.396416,37.396484,-70.471825C37.417664,-70.550407,37.49704,-70.631104,37.555267,-70.633484C37.621399,-70.637459,37.735168,-70.596176,37.764252,-70.559135C37.79071,-70.522888,37.79071,-70.524475,37.8172,-70.607292C37.848938,-70.70916,37.930939,-70.77874,38.005035,-70.771065C38.065887,-70.764717,38.158478,-70.685867,38.184967,-70.615761C38.208771,-70.557022,38.21936,-70.554634,38.240509,-70.603584C38.272278,-70.668671,38.354279,-70.73349,38.415161,-70.742233C38.465424,-70.749901,38.473358,-70.746193,38.513062,-70.698044C38.571259,-70.629517,38.571259,-70.537971,38.518311,-70.400124C38.481293,-70.30249,38.478668,-70.279999,38.502441,-70.240585C38.531555,-70.195335,38.53421,-70.194542,38.584473,-70.22258C38.613586,-70.238464,38.658539,-70.251694,38.682373,-70.24984C38.724701,-70.24614,38.732635,-70.25592,38.774994,-70.345619C38.83847,-70.482147,38.904633,-70.534531,38.994568,-70.518394C39.084534,-70.501984,39.15863,-70.447746,39.187714,-70.374458L39.211548,-70.31572L39.2565,-70.356201C39.322662,-70.416527,39.446991,-70.445366,39.510498,-70.415733C39.571381,-70.386887,39.621643,-70.301964,39.616333,-70.231056C39.613678,-70.173111,39.555481,-70.041611,39.515808,-69.998749L39.486694,-69.966736L39.552856,-69.979439C39.605774,-69.989754,39.632233,-69.985519,39.682495,-69.951653C39.78302,-69.886566,39.79361,-69.832329,39.730133,-69.697121C39.68515,-69.596321,39.67984,-69.581764,39.708954,-69.560867C39.753937,-69.5233,39.745972,-69.413757,39.693085,-69.29998C39.669281,-69.24469,39.650726,-69.199181,39.656036,-69.1968C39.658691,-69.195473,39.708954,-69.190186,39.761871,-69.188332C39.849182,-69.181717,39.870361,-69.174309,39.9021,-69.138855C39.949707,-69.086998,39.949707,-68.996246,39.899475,-68.893585C39.870361,-68.83194,39.870361,-68.818184,39.89682,-68.806015C39.941772,-68.785378,39.960327,-68.686943,39.936523,-68.606773C39.920624,-68.550949,39.923279,-68.53746,39.968262,-68.507034C40.044952,-68.450409,40.058197,-68.3713,40.010559,-68.246948C39.976166,-68.157784,39.955017,-68.131584,39.904755,-68.095596C39.867706,-68.071266,39.841217,-68.03846,39.838623,-68.018341C39.833313,-67.97892,39.851837,-67.962517,39.878265,-67.980774C39.888855,-67.986595,39.910034,-67.985535,39.928558,-67.977333C39.970917,-67.957497,39.965607,-67.887375,39.907379,-67.763809C39.854462,-67.652962,39.870361,-67.650307,39.970917,-67.750053C40.050262,-67.829956,40.100555,-67.857216,40.142853,-67.838165C40.166687,-67.826515,40.161407,-67.801651,40.105804,-67.660362C40.071442,-67.571732,40.037048,-67.485741,40.034393,-67.471977C40.029114,-67.458221,40.071442,-67.489708,40.127014,-67.541039C40.216949,-67.624641,40.238098,-67.634705,40.301636,-67.629936C40.391571,-67.624115,40.391571,-67.63549,40.267242,-67.452141C40.145508,-67.276192,40.137604,-67.252647,40.219604,-67.331223C40.30954,-67.41642,40.341309,-67.430702,40.388947,-67.400543C40.452423,-67.361382,40.40744,-67.233063,40.267242,-67.048645C40.20636,-66.970062,40.156097,-66.900475,40.153442,-66.892281C40.150818,-66.885658,40.198456,-66.900742,40.261932,-66.926414C40.404785,-66.982239,40.478882,-66.974564,40.476227,-66.899689C40.476227,-66.857887,40.449799,-66.808937,40.338654,-66.650185C40.264587,-66.540649,40.190491,-66.43428,40.174622,-66.413643C40.150818,-66.383484,40.150818,-66.381104,40.179901,-66.396187C40.227539,-66.427139,40.272491,-66.395386,40.275146,-66.327126C40.277802,-66.250137,40.253998,-66.200394,40.171967,-66.121811L40.105804,-66.055931L40.182556,-66.029739C40.243408,-66.008835,40.261932,-65.99482,40.267242,-65.963593C40.283081,-65.885277,40.190491,-65.750069,40.071442,-65.680489C40.007904,-65.642647,40.007904,-65.639473,40.037048,-65.625717C40.079376,-65.60508,40.089966,-65.48893,40.055573,-65.414055C40.031769,-65.363518,40.013214,-65.351082,39.939148,-65.329918C39.851837,-65.306633,39.851837,-65.30584,39.851837,-65.247101C39.854462,-65.204765,39.835968,-65.153702,39.78833,-65.059769C39.706329,-64.904991,39.603119,-64.810806,39.492004,-64.79599L39.417908,-64.784348L39.462891,-64.741219C39.505249,-64.697296,39.505249,-64.695709,39.460236,-64.623215C39.436432,-64.581413,39.396759,-64.534576,39.372955,-64.517914C39.341187,-64.491455,39.327942,-64.46949,39.320007,-64.421066C39.309448,-64.337196,39.330597,-64.331108,39.36499,-64.405991C39.428497,-64.542786,39.574036,-64.653381,39.624298,-64.602318C39.653381,-64.570824,39.648102,-64.427689,39.618988,-64.325554C39.603119,-64.280312,39.597839,-64.23983,39.600494,-64.232689C39.605774,-64.226601,39.656036,-64.273705,39.716888,-64.334549C39.89151,-64.516853,39.973511,-64.538017,39.99472,-64.407578C40,-64.350693,39.98941,-64.331909,39.80423,-64.057266C39.775085,-64.012291,39.775085,-64.012291,39.833313,-64.05542C39.920624,-64.118126,40.029114,-64.144051,40.068787,-64.110451C40.150818,-64.037949,40.127014,-63.944824,39.968262,-63.742943C39.833313,-63.573349,39.830658,-63.565147,39.915314,-63.586578C39.99472,-63.607742,40.021149,-63.601395,40.037048,-63.558266C40.058197,-63.498466,39.997345,-63.417503,39.796265,-63.229919C39.772461,-63.209282,39.775085,-63.206902,39.814789,-63.207687C39.883575,-63.211128,39.941772,-63.16774,39.944427,-63.109001C39.947083,-63.058464,39.910034,-62.985977,39.775085,-62.765572C39.724823,-62.683823,39.724823,-62.676674,39.753937,-62.662125C39.790985,-62.645454,39.899475,-62.456017,39.933868,-62.34198C39.952362,-62.29171,39.952362,-62.250702,39.933868,-62.211807C39.920624,-62.180054,39.910034,-62.153328,39.912659,-62.151741C39.915314,-62.150948,39.955017,-62.155975,40,-62.162857C40.09259,-62.174759,40.174622,-62.148041,40.198456,-62.094856C40.227539,-62.035858,40.219604,-61.869431,40.179901,-61.73661L40.145508,-61.613579L40.227539,-61.499809C40.415375,-61.248192,40.579437,-60.855286,40.637634,-60.532227C40.653534,-60.449677,40.669373,-60.239601,40.674683,-60.066032L40.685272,-59.749596L40.83606,-59.455376C41.023956,-59.083107,41.66687,-58.561874,41.777985,-58.377464C42.129883,-57.794052,42.553223,-57.3993,43.061218,-57.074127C43.622131,-56.716148,43.905243,-56.687042,44.725464,-56.68969C44.953003,-56.690216,45.32077,-56.721169,45.389557,-56.72303C45.455719,-57.029938,45.561554,-58.049118,45.595917,-58.229568C46.971771,-65.285995,51.874512,-71.510841,55.247925,-72.854134C56.099884,-73.194389,58.621368,-75.297821,58.621368,-76.216713L58.896515,-112.747711C58.896515,-112.747993,58.896515,-112.747993,58.896515,-112.748253C58.896515,-113.982529,57.880524,-114.99826,56.647552,-114.99826C56.594666,-114.99826,56.541748,-114.996399,56.486176,-114.992706C27.99057,-112.960709,5.630646,-88.949524,5.630646,-60.381416C5.630646,-52.101021,7.509186,-43.927521,11.123383,-36.478176z"/>
    <path transform="matrix(1.33333,0,0,-1.33333,31.492201,-182.466003)" style="stroke:#ff0000;stroke-width:0.05mm;fill:none" d="M37.250977,-56.944221C37.219238,-56.907967,37.19278,-56.877541,37.198059,-56.875954C37.198059,-56.875427,37.449432,-56.82383,37.751038,-56.763237C38.417816,-56.629097,39.240662,-56.456589,39.79892,-56.331711C40.193146,-56.244392,41.203827,-56.011559,41.217072,-56.005478C41.219727,-56.003883,41.230286,-56.0187,41.240875,-56.039871C41.280579,-56.127716,41.15094,-56.325356,40.611176,-57.003487C40.171967,-57.55011,40.127014,-57.625252,40.044952,-57.931107C40.021149,-58.0261,39.99472,-58.105736,39.98941,-58.108116C39.970917,-58.116585,39.349121,-58.080597,38.936371,-58.049118C38.732635,-58.034302,38.476013,-58.022926,38.370178,-58.023445L38.171722,-58.026367L38.113525,-57.925026C38.073822,-57.856499,38.026184,-57.799873,37.960052,-57.750931C37.870087,-57.680283,37.864807,-57.672882,37.856842,-57.604355C37.846283,-57.504333,37.758972,-57.322838,37.674316,-57.222565C37.592285,-57.127304,37.454712,-57.061165,37.417664,-57.097939L37.330353,-57.175194L37.319763,-57.092911C37.311829,-57.02121,37.303894,-57.000839,37.250977,-56.944221z"/>
    <path transform="matrix(1.33333,0,0,-1.33333,31.492201,-182.466003)" style="stroke:#ff0000;stroke-width:0.05mm;fill:none" d="M65.770386,-46.91069C59.31192,-44.704334,53.718628,-46.431534,48.596313,-50.248413C47.860748,-50.797417,44.463531,-48.876808,43.667114,-48.417496L15.772095,-32.912922C15.076263,-32.511547,14.647644,-31.767277,14.647644,-30.964001C14.647644,-30.51474,14.782562,-30.075531,15.033936,-29.703262C25.207153,-14.664091,42.222473,-5.631485,60.380829,-5.631485C78.52597,-5.631485,95.533386,-14.652449,105.709229,-29.675747C105.963226,-30.048012,106.098137,-30.487751,106.098137,-30.937542C106.098137,-31.740025,105.666901,-32.484299,104.973686,-32.88567L75.898621,-49.323158C75.739899,-49.414177,75.536163,-49.531654,75.303314,-49.656799C75.282166,-49.482971,75.208069,-49.309143,75.07843,-49.142982L75.020233,-49.06916L75.234528,-48.860939C75.353607,-48.746109,75.49646,-48.590263,75.557343,-48.513275C75.930389,-48.029617,76.147369,-47.504944,76.23465,-46.857513C76.258453,-46.680241,76.258453,-46.214577,76.232025,-45.981743C76.155273,-45.224503,75.829834,-44.170139,75.414459,-43.324265C75.284821,-43.065243,75.07843,-42.684772,74.98053,-42.537132C74.959381,-42.506176,74.97525,-42.483162,75.19223,-42.250324C75.475311,-41.942085,75.845734,-41.516106,75.848389,-41.518486C75.985962,-41.60183,76.163208,-41.558704,76.237305,-41.619293C76.721497,-42.022518,77.057495,-41.820641,77.401489,-41.891289C77.59198,-41.930706,77.703094,-41.930706,77.864502,-41.889698C78.121124,-41.824081,78.375122,-41.648663,78.573578,-41.394398C78.687347,-41.250202,79.100098,-40.668121,79.287964,-40.38607C79.36731,-40.273094,80.573822,-39.320599,80.608215,-39.306042C80.677032,-39.277996,79.37262,-37.854275,79.37262,-37.854275L78.137024,-39.040138C78.041748,-39.169521,77.851257,-39.428543,77.716309,-39.618782C77.361786,-40.109055,77.171295,-40.292675,76.882874,-40.407505C76.800873,-40.440311,76.597137,-40.484497,76.583923,-40.473122C76.581268,-40.469681,76.650085,-40.356705,76.737366,-40.220444C77.007263,-39.791027,77.269196,-39.325356,77.544342,-38.774494C77.832764,-38.199028,77.845947,-38.177597,78.142303,-37.777546C78.637054,-37.108681,79.086884,-36.364407,79.340851,-35.798729C79.743042,-34.898621,79.743042,-34.260971,79.340851,-33.996918C79.073639,-33.821503,78.777313,-33.901669,78.346039,-34.269173C78.007355,-34.555981,77.576111,-35.083828,77.203033,-35.662735L77.086609,-35.839741L77.046936,-35.811958C76.795563,-35.646328,76.385498,-35.441277,76.149994,-35.364285C75.964783,-35.303692,75.731934,-35.280678,75.628754,-35.315071C75.544098,-35.342854,75.454163,-35.423283,75.417114,-35.506893C75.369476,-35.613522,75.374756,-35.803757,75.427673,-35.960918C75.552032,-36.328423,75.903931,-36.846481,76.329895,-37.285686L76.43573,-37.395752L76.359009,-37.528309C76.306091,-37.615356,76.284943,-37.671185,76.290222,-37.692348C76.308746,-37.749763,75.853668,-38.60384,75.538818,-39.102318C75.361511,-39.382774,75.120789,-39.741814,75.107544,-39.741814C75.099579,-39.741814,75.046692,-39.702389,74.988495,-39.655029C74.692139,-39.415581,74.432861,-39.251541,74.234436,-39.184338C73.998932,-39.102318,73.739655,-39.072945,73.52533,-39.100727C73.374542,-39.120308,73.125793,-39.189362,73.086121,-39.223759C73.064972,-39.238575,73.064972,-39.235138,73.072906,-39.208942C73.189301,-38.913933,73.236938,-38.659668,73.244843,-38.307243C73.255463,-37.96302,73.221039,-37.71537,73.123169,-37.408718C73.0914,-37.310291,73.067596,-37.225098,73.067596,-37.218483C73.067596,-37.212132,73.154907,-37.166096,73.263397,-37.118473C73.369232,-37.06926,73.459198,-37.028248,73.464478,-37.02507C73.477692,-37.016872,73.408936,-36.882462,73.295135,-36.693813C73.173431,-36.492203,73.067596,-36.339802,72.914124,-36.156181C72.861237,-36.092152,72.818878,-36.034737,72.818878,-36.029972C72.818878,-36.024948,73.123169,-35.377247,73.496216,-34.590378C73.866638,-33.803509,74.186798,-33.124588,74.207947,-33.081989L74.239685,-33.004993L74.049194,-32.891754C73.112579,-32.340893,72.337341,-32.04747,71.461578,-31.919678C71.286957,-31.893482,71.133484,-31.885281,70.778961,-31.880253C70.530273,-31.878666,70.294769,-31.878666,70.257721,-31.88184C69.879364,-31.919678,69.363434,-32.003284,69.336975,-32.031063C69.331696,-32.039268,69.294647,-32.31311,69.257599,-32.642517C69.220551,-32.972187,69.13855,-33.705082,69.072418,-34.273937C68.974518,-35.129864,68.950684,-35.310043,68.92688,-35.3283C68.911011,-35.339676,68.797241,-35.415085,68.675537,-35.493664C68.551147,-35.574097,68.379211,-35.695541,68.294525,-35.764332C68.138428,-35.885513,67.752136,-36.233173,67.749481,-36.249577C67.746857,-36.254608,67.828857,-36.29879,67.929382,-36.348003C68.029938,-36.397213,68.111969,-36.439816,68.111969,-36.442989C68.111969,-36.446426,68.077576,-36.490616,68.037872,-36.541416C67.535156,-37.190701,67.344666,-38.013817,67.514008,-38.803864C67.577515,-39.089348,67.696564,-39.395737,67.844727,-39.633598C67.881775,-39.695774,67.910889,-39.748425,67.908234,-39.750015C67.905579,-39.751602,67.834137,-39.776211,67.749481,-39.803989C67.514008,-39.881248,67.365814,-39.97147,67.183289,-40.151649C67.066833,-40.268066,67.005981,-40.343475,66.947784,-40.446926C66.804901,-40.702511,66.73877,-40.984562,66.759949,-41.236973C66.765228,-41.307613,66.767853,-41.365028,66.762573,-41.365028C66.741425,-41.365028,66.183136,-41.032185,65.733368,-40.750141C64.791443,-40.159855,63.471161,-39.200741,63.299194,-38.982723C63.151031,-38.790901,63.151031,-38.835083,63.299194,-38.607281C63.50293,-38.300625,63.563782,-38.19585,63.685486,-37.946613C63.875977,-37.564556,63.952698,-37.312145,63.952698,-37.07111C63.952698,-36.94305,63.947418,-36.915272,63.89978,-36.825047C63.809845,-36.644604,63.648438,-36.587452,63.407684,-36.649628C63.174835,-36.70863,62.799103,-36.931675,62.457825,-37.215309L62.280548,-37.361092L62.055664,-37.110268C61.380951,-36.364407,60.727448,-35.864346,60.290863,-35.764332C60.068634,-35.711945,59.891357,-35.754547,59.751129,-35.895565C59.285492,-36.371021,59.679718,-37.361092,60.888824,-38.749893C61.103149,-38.995689,61.280426,-39.184338,61.661438,-39.566395C61.960419,-39.869606,61.986847,-39.892628,62.034454,-39.884422C62.079468,-39.877811,62.113861,-39.902412,62.367859,-40.114079C63.598175,-41.148602,65.06131,-42.197937,66.225494,-42.884796L66.519165,-43.058624L66.463623,-43.166843C66.204315,-43.678284,65.963562,-44.396358,65.841827,-45.021042C65.751862,-45.489883,65.736023,-45.678532,65.736023,-46.18018C65.736023,-46.18018,65.751862,-46.772053,65.751862,-46.80645C65.751862,-46.818352,65.759827,-46.857246,65.770386,-46.91069z"/>
    <path transform="matrix(1.33333,0,0,-1.33333,31.492201,-182.466003)" style="stroke:#0000ff;stroke-width:0.05mm;fill:none" d="M65.756897,-46.885513C65.756897,-46.885513,65.658997,-48.866447,67.563995,-49.698036C67.804749,-49.803604,66.778168,-50.557144,68.193695,-51.08313C69.609192,-51.60939,71.030029,-51.277069,71.471893,-50.615082C71.911102,-49.953094,71.220551,-51.408569,73.228729,-51.276543C75.234253,-51.144249,75.363892,-50.118988,75.318939,-49.656761"/>
    <path transform="matrix(1.33333,0,0,-1.33333,31.492201,-182.466003)" style="stroke:#0000ff;stroke-width:0.05mm;fill:none" d="M74.490784,-40.631821C74.490784,-40.631821,73.903412,-40.680504,73.731445,-41.040604C73.559448,-41.400436,73.699677,-41.025787,73.898132,-41.328995C74.099213,-41.63221,74.694519,-41.840965,74.990845,-42.55587"/>
    <path transform="matrix(1.33333,0,0,-1.33333,31.492201,-182.466003)" style="stroke:#0000ff;stroke-width:0.05mm;fill:none" d="M73.898132,-41.328995C73.898132,-41.328995,75.046417,-40.066406,75.136353,-39.717682"/>
    <path transform="matrix(1.33333,0,0,-1.33333,31.492201,-182.466003)" style="stroke:#0000ff;stroke-width:0.05mm;fill:none" d="M75.869263,-41.485893C75.869263,-41.485893,76.64978,-40.339722,76.779449,-40.225159"/>
    <path transform="matrix(1.33333,0,0,-1.33333,31.492201,-182.466003)" style="stroke:#0000ff;stroke-width:0.05mm;fill:none" d="M66.479187,-43.151711C66.479187,-43.151711,66.682922,-42.451096,66.93161,-42.319069C67.177704,-42.186775,66.764923,-41.921402,66.738495,-41.307304"/>
    <path transform="matrix(1.33333,0,0,-1.33333,31.492201,-182.466003)" style="stroke:#0000ff;stroke-width:0.05mm;fill:none" d="M68.175171,-36.431297C68.175171,-36.431297,69.894989,-37.801575,73.024994,-37.161018"/>
    <path transform="matrix(1.33333,0,0,-1.33333,31.492201,-182.466003)" style="stroke:#0000ff;stroke-width:0.05mm;fill:none" d="M68.894836,-35.322166C68.894836,-35.322166,70.728424,-36.556709,72.797455,-36.056648"/>
    <path transform="matrix(1.33333,0,0,-1.33333,31.492201,-182.466003)" style="stroke:#0000ff;stroke-width:0.05mm;fill:none" d="M79.610474,-38.173576C79.610474,-38.173576,79.390869,-38.140244,79.329987,-38.470177C79.27179,-38.79985,79.062805,-38.665176,78.851105,-38.792702C78.639435,-38.920235,78.806122,-38.773918,78.607697,-39.023682"/>
    <path transform="matrix(1.33333,0,0,-1.33333,31.492201,-182.466003)" style="stroke:#0000ff;stroke-width:0.05mm;fill:none" d="M79.843292,-38.449104C79.843292,-38.449104,79.623688,-38.415764,79.562805,-38.745697C79.504608,-39.075371,79.295624,-38.940697,79.083923,-39.068222C78.872253,-39.195755,79.03894,-39.049438,78.840515,-39.29921"/>
    <path transform="matrix(1.33333,0,0,-1.33333,31.492201,-182.466003)" style="stroke:#0000ff;stroke-width:0.05mm;fill:none" d="M80.147552,-38.739704C80.147552,-38.739704,79.927948,-38.706367,79.867065,-39.036301C79.808868,-39.365974,79.599884,-39.2313,79.388184,-39.358826C79.176514,-39.486359,79.343201,-39.340042,79.144775,-39.589809"/>
    <path transform="matrix(1.33333,0,0,-1.33333,31.492201,-182.466003)" style="stroke:#0000ff;stroke-width:0.05mm;fill:none" d="M80.420074,-39.022369C80.420074,-39.022369,80.20047,-38.989033,80.139587,-39.318966C80.08139,-39.64864,79.872406,-39.513966,79.660706,-39.641491C79.449036,-39.769024,79.615723,-39.622707,79.417297,-39.872475"/>
    <path transform="matrix(1.33333,0,0,-1.33333,31.492201,-182.466003)" style="stroke:#0000ff;stroke-width:0.05mm;fill:none" d="M67.937042,-39.748909C67.937042,-39.748909,68.455627,-40.28125,69.125031,-40.339989"/>
    <path transform="matrix(1.33333,0,0,-1.33333,31.492201,-182.466003)" style="stroke:#0000ff;stroke-width:0.05mm;fill:none" d="M73.054077,-39.231117C73.054077,-39.231117,72.580505,-39.838867,71.564484,-39.867172"/>
    <path transform="matrix(1.33333,0,0,-1.33333,31.492201,-182.466003)" style="stroke:#0000ff;stroke-width:0.05mm;fill:none" d="M67.093018,-42.121162C67.093018,-42.121162,68.619659,-42.838448,69.757385,-42.548996C70.892456,-42.25927,71.620056,-42.793999,73.683807,-41.16787"/>
    <path transform="matrix(1.33333,0,0,-1.33333,31.492201,-182.466003)" style="stroke:#0000ff;stroke-width:0.05mm;fill:none" d="M76.282013,-37.828033C76.282013,-37.828033,77.030792,-38.358788,77.705475,-38.295288"/>
    <ellipse transform="matrix(0.352387,0.016577,-0.016577,0.352387,123.99411,-132)" style="stroke:#0000ff;stroke-width:0.05mm;fill:none" rx="2.013" ry="1.197" cx="0" cy="0"/>
    <ellipse transform="matrix(0.352387,0.016577,-0.016577,0.352387,127.020897,-131.561737)" style="stroke:#0000ff;stroke-width:0.05mm;fill:none" rx="2.013" ry="1.197" cx="0" cy="0"/>
    <ellipse transform="matrix(0.352776,0,0,0.352776,125.083839,-124.44268)" style="stroke:#0000ff;stroke-width:0.05mm;fill:none" rx="1.967" ry="1.744" cx="0" cy="0"/>
    <ellipse transform="matrix(0.352776,0,0,0.352776,125.27784,-121.956284)" style="stroke:#0000ff;stroke-width:0.05mm;fill:none" rx="1.967" ry="1.744" cx="0" cy="0"/>
    <ellipse transform="matrix(0.352776,0,0,0.352776,125.824776,-119.370689)" style="stroke:#0000ff;stroke-width:0.05mm;fill:none" rx="1.967" ry="1.744" cx="0" cy="0"/>
    <path transform="matrix(1.33333,0,0,-1.33333,31.492201,-182.466003)" style="stroke:#0000ff;stroke-width:0.05mm;fill:none" d="M70.561676,-38.182587C70.561676,-38.182587,70.164795,-38.238678,70.146271,-38.355888C70.127747,-38.473106,69.74939,-38.332611,69.701782,-38.520462C69.656799,-38.708054,69.32605,-38.695877,69.318115,-38.837433C69.312866,-38.978989,69.040314,-38.881088,68.876282,-39.11525C68.688416,-39.385651,69.225525,-39.130852,69.378998,-39.061539C69.529785,-38.991951,69.632996,-39.058365,69.794373,-38.85463C69.95578,-38.651169,70.249451,-39.046188,70.336792,-38.88559C70.426727,-38.724983,70.421448,-38.991951,70.733673,-38.85331"/>
    <path transform="matrix(1.33333,0,0,-1.33333,31.492201,-182.466003)" style="stroke:#0000ff;stroke-width:0.05mm;fill:none" d="M62.423157,-40.305328C62.423157,-40.305328,63.81485,-39.740967,63.740753,-39.336426"/>
    <path transform="matrix(1.33333,0,0,-1.33333,31.492201,-182.466003)" style="stroke:#0000ff;stroke-width:0.05mm;fill:none" d="M63.614563,-97.843147L69.990906,-90.351372L76.627228,-91.435646L80.956696,-89.962959"/>
    <path transform="matrix(1.33333,0,0,-1.33333,31.492201,-182.466003)" style="stroke:#0000ff;stroke-width:0.05mm;fill:none" d="M80.589417,-73.552605L68.593201,-88.673012L70.043121,-89.753571"/>
    <path transform="matrix(1.33333,0,0,-1.33333,31.492201,-182.466003)" style="stroke:#0000ff;stroke-width:0.05mm;fill:none" d="M82.843658,-73.572449L83.110901,-75.398071L84.132202,-81.144554L82.473236,-86.831505L80.642334,-89.129677L76.461914,-90.484085L70.072235,-89.488716L70.016663,-90.331947"/>
    <path transform="matrix(1.33333,0,0,-1.33333,31.492201,-182.466003)" style="stroke:#0000ff;stroke-width:0.05mm;fill:none" d="M82.063171,-74.730263L83.192932,-75.533806"/>
    <path transform="matrix(1.33333,0,0,-1.33333,31.492201,-182.466003)" style="stroke:#0000ff;stroke-width:0.05mm;fill:none" d="M83.407227,-76.841637L80.639709,-74.897484L69.995514,-88.220047L72.321198,-89.823151"/>
    <path transform="matrix(1.33333,0,0,-1.33333,31.492201,-182.466003)" style="stroke:#0000ff;stroke-width:0.05mm;fill:none" d="M76.639191,-75.298325L72.157135,-71.856102L64.481567,-81.119423L69.151489,-84.696854L76.639191,-75.298325z"/>
    <path transform="matrix(1.33333,0,0,-1.33333,31.492201,-182.466003)" style="stroke:#0000ff;stroke-width:0.05mm;fill:none" d="M69.416077,-75.162064C69.416077,-75.162064,70.082825,-75.660797,70.119873,-75.877235C70.154266,-76.093666,70.141022,-76.387878,70.101349,-76.502182C70.061676,-76.616219,69.699188,-76.449791,69.55365,-77.153053C69.498108,-77.412872,68.945099,-77.421341,68.741394,-77.262062C68.540314,-77.102516,68.008484,-76.87233,68.008484,-76.87233"/>
    <path transform="matrix(1.33333,0,0,-1.33333,31.492201,-182.466003)" style="stroke:#0000ff;stroke-width:0.05mm;fill:none" d="M71.037964,-77.825096C71.037964,-77.825096,71.519531,-77.304657,70.701935,-76.948524C70.278595,-76.76358,70.029907,-76.812531,69.939941,-76.92128C69.849976,-77.030022,69.76532,-77.248566,69.781189,-77.48246C69.797089,-77.716354,70.715179,-78.496078,71.037964,-77.825096z"/>
    <path transform="matrix(1.33333,0,0,-1.33333,31.492201,-182.466003)" style="stroke:#0000ff;stroke-width:0.05mm;fill:none" d="M74.361145,-90.157059L83.563324,-77.953415"/>
    <path transform="matrix(1.33333,0,0,-1.33333,31.492201,-182.466003)" style="stroke:#0000ff;stroke-width:0.05mm;fill:none" d="M68.593201,-88.708725L60.354095,-82.716446"/>
    <path transform="matrix(-0.094785,0.12137,0.12137,0.094785,139.630203,-81.816391)" style="stroke:#0000ff;stroke-width:0.05mm;fill:none" d="M2.741615,0L2.741615,21.042969L5.526291,21.042969L5.526291,0L2.741615,0zM20.051968,5.583707L22.592627,5.253565C22.315117,3.502377,21.604593,2.131569,20.461058,1.141143C19.317522,0.150717,17.913221,-0.344496,16.248158,-0.344496C14.162042,-0.344496,12.485017,0.337319,11.217079,1.700949C9.949142,3.06458,9.315174,5.019117,9.315174,7.56456C9.315174,9.210485,9.5879,10.65067,10.133352,11.885115C10.678804,13.119559,11.508945,14.045392,12.623772,14.662615C13.738599,15.279837,14.951512,15.588448,16.262512,15.588448C17.918007,15.588448,19.272068,15.169789,20.324694,14.332473C21.377321,13.495155,22.051958,12.306166,22.34861,10.765503L19.836658,10.377944C19.597424,11.401864,19.173981,12.172194,18.56633,12.688939C17.958675,13.205683,17.22423,13.464055,16.362989,13.464055C15.061561,13.464055,14.004148,12.99755,13.190755,12.06454C12.377362,11.13153,11.970665,9.655459,11.970665,7.63633C11.970665,5.588492,12.363008,4.10046,13.147693,3.172235C13.932378,2.244009,14.956297,1.779896,16.21945,1.779896C17.233799,1.779896,18.080685,2.0909,18.760109,2.712907C19.439529,3.334913,19.87015,4.291847,20.051968,5.583707zM35.238503,4.909069L37.908348,4.578927C37.487297,3.019125,36.707397,1.808604,35.568645,0.947364C34.429897,0.086124,32.975357,-0.344496,31.205029,-0.344496C28.975374,-0.344496,27.207439,0.342104,25.901224,1.715303C24.595011,3.088503,23.941904,5.014332,23.941904,7.49279C23.941904,10.057371,24.602188,12.047793,25.922756,13.464055C27.243324,14.880317,28.956234,15.588448,31.061489,15.588448C33.099758,15.588448,34.76482,14.89467,36.056683,13.507117C37.348541,12.119564,37.994473,10.167419,37.994473,7.650684C37.994473,7.497574,37.989685,7.26791,37.980118,6.961692L26.611748,6.961692C26.707441,5.287058,27.181124,4.004767,28.032795,3.114819C28.884464,2.22487,29.946661,1.779896,31.219383,1.779896C32.166748,1.779896,32.975357,2.028699,33.64521,2.526304C34.315063,3.02391,34.846161,3.818165,35.238503,4.909069zM26.755287,9.086084L35.267212,9.086084C35.152382,10.368376,34.827023,11.330093,34.291142,11.971239C33.468178,12.96645,32.401196,13.464055,31.090197,13.464055C29.903599,13.464055,28.905996,13.066928,28.097387,12.272673C27.28878,11.478417,26.841412,10.416222,26.755287,9.086084zM64.661911,7.377958L67.446594,6.674612C66.862862,4.38754,65.812622,2.643529,64.295891,1.442577C62.779148,0.241626,60.925087,-0.35885,58.733711,-0.35885C56.465778,-0.35885,54.621288,0.10287,53.200241,1.026311C51.779198,1.949752,50.697861,3.287067,49.956238,5.038255C49.214615,6.789443,48.843803,8.669818,48.843803,10.679379C48.843803,12.870756,49.262459,14.782231,50.099777,16.413803C50.937096,18.045374,52.128479,19.284603,53.673923,20.131489C55.219372,20.978376,56.920319,21.401819,58.776772,21.401819C60.882027,21.401819,62.652355,20.865936,64.087753,19.79417C65.523155,18.722404,66.523148,17.215235,67.087738,15.272659L64.346123,14.626729C63.858089,16.157824,63.14996,17.272652,62.221733,17.971212C61.29351,18.669773,60.126049,19.019054,58.719357,19.019054C57.102142,19.019054,55.750469,18.631496,54.664352,17.85638C53.578232,17.081264,52.815075,16.040598,52.374886,14.734385C51.9347,13.42817,51.714603,12.081285,51.714603,10.693732C51.714603,8.904266,51.975365,7.342072,52.496895,6.00715C53.018425,4.672228,53.82943,3.674625,54.929901,3.014341C56.030373,2.354057,57.221756,2.023915,58.504047,2.023915C60.063847,2.023915,61.384415,2.473673,62.465752,3.373191C63.547089,4.272708,64.279144,5.607631,64.661911,7.377958zM70.514328,0L70.514328,15.243952L72.839676,15.243952L72.839676,12.932957C73.432976,14.014293,73.98082,14.727207,74.483208,15.071704C74.985603,15.4162,75.538231,15.588448,76.141098,15.588448C77.011909,15.588448,77.897064,15.310937,78.796585,14.755916L77.906639,12.358797C77.275063,12.732001,76.643486,12.918603,76.011909,12.918603C75.447327,12.918603,74.940147,12.748747,74.490387,12.409036C74.040627,12.069324,73.720055,11.598035,73.528671,10.995167C73.241592,10.07651,73.098053,9.07173,73.098053,7.980826L73.098053,0L70.514328,0zM90.766678,4.909069L93.436523,4.578927C93.015472,3.019125,92.235573,1.808604,91.096825,0.947364C89.958076,0.086124,88.503525,-0.344496,86.733208,-0.344496C84.503555,-0.344496,82.735611,0.342104,81.429398,1.715303C80.123184,3.088503,79.470078,5.014332,79.470078,7.49279C79.470078,10.057371,80.130363,12.047793,81.450928,13.464055C82.7715,14.880317,84.484406,15.588448,86.589661,15.588448C88.62793,15.588448,90.292999,14.89467,91.584854,13.507117C92.876717,12.119564,93.522644,10.167419,93.522644,7.650684C93.522644,7.497574,93.517868,7.26791,93.508293,6.961692L82.139923,6.961692C82.235619,5.287058,82.709305,4.004767,83.560966,3.114819C84.412636,2.22487,85.474831,1.779896,86.747559,1.779896C87.694923,1.779896,88.503525,2.028699,89.173386,2.526304C89.843239,3.02391,90.374336,3.818165,90.766678,4.909069zM82.283463,9.086084L90.795387,9.086084C90.680557,10.368376,90.355194,11.330093,89.819313,11.971239C88.996353,12.96645,87.929367,13.464055,86.61837,13.464055C85.43177,13.464055,84.434166,13.066928,83.625565,12.272673C82.816956,11.478417,82.369591,10.416222,82.283463,9.086084zM106.626129,1.880374C105.669197,1.066981,104.748154,0.492821,103.862984,0.157894C102.977821,-0.177033,102.028069,-0.344496,101.013718,-0.344496C99.339081,-0.344496,98.05201,0.064593,97.152489,0.882771C96.252968,1.700949,95.803215,2.746399,95.803215,4.019121C95.803215,4.765529,95.973068,5.447344,96.312782,6.064567C96.652496,6.681788,97.097466,7.177001,97.647697,7.550206C98.197937,7.92341,98.817551,8.205706,99.506546,8.397092C100.013718,8.531062,100.779266,8.660249,101.803185,8.78465C103.889297,9.033453,105.425179,9.330102,106.41082,9.674599C106.420395,10.028664,106.425171,10.253544,106.425171,10.349236C106.425171,11.401864,106.181152,12.143487,105.693123,12.574107C105.032837,13.157836,104.051979,13.449701,102.750549,13.449701C101.53524,13.449701,100.638115,13.236783,100.059174,12.810948C99.480232,12.385113,99.052002,11.631528,98.77449,10.550193L96.248184,10.894689C96.477852,11.976024,96.855835,12.849225,97.382149,13.514295C97.90847,14.179363,98.669228,14.691322,99.664436,15.050173C100.659645,15.409022,101.812759,15.588448,103.123756,15.588448C104.425186,15.588448,105.48259,15.435339,106.29599,15.12912C107.109383,14.822901,107.707458,14.437736,108.09024,13.973622C108.473015,13.509509,108.740952,12.923388,108.894066,12.215257C108.980186,11.775067,109.023247,10.980813,109.023247,9.832492L109.023247,6.387531C109.023247,3.985628,109.07827,2.466496,109.188316,1.830135C109.29837,1.193775,109.516068,0.58373,109.841431,0L107.142876,0C106.874931,0.535883,106.702682,1.162674,106.626129,1.880374zM106.41082,7.650684C105.47303,7.26791,104.066338,6.942553,102.190742,6.674612C101.128548,6.521502,100.377357,6.349254,99.937164,6.157867C99.496971,5.966481,99.157265,5.686578,98.91803,5.318158C98.678795,4.949739,98.559181,4.54065,98.559181,4.090891C98.559181,3.401899,98.819946,2.827739,99.341476,2.368411C99.862999,1.909082,100.62616,1.679418,101.630936,1.679418C102.626144,1.679418,103.511314,1.897121,104.28643,2.332525C105.061546,2.767931,105.63092,3.363621,105.994553,4.119599C106.272064,4.703328,106.41082,5.564569,106.41082,6.70332L106.41082,7.650684zM113.026291,0L113.026291,15.243952L115.337288,15.243952L115.337288,13.105206C115.81575,13.851613,116.452118,14.452089,117.246368,14.906632C118.040619,15.361176,118.944923,15.588448,119.959274,15.588448C121.088463,15.588448,122.014297,15.353998,122.736778,14.885101C123.459259,14.416204,123.968826,13.760704,124.26548,12.918603C125.471214,14.6985,127.040581,15.588448,128.973587,15.588448C130.48555,15.588448,131.648224,15.169789,132.461609,14.332473C133.275009,13.495155,133.681702,12.205688,133.681702,10.464068L133.681702,0L131.112335,0L131.112335,9.602828C131.112335,10.636316,131.02861,11.380333,130.861145,11.834876C130.69368,12.289419,130.389862,12.655446,129.949661,12.932957C129.509476,13.210468,128.992722,13.349223,128.399429,13.349223C127.32766,13.349223,126.437714,12.992765,125.729584,12.27985C125.021461,11.566935,124.667389,10.425792,124.667389,8.856421L124.667389,0L122.083672,0L122.083672,9.904263C122.083672,11.052583,121.873138,11.913823,121.452095,12.487983C121.031044,13.062143,120.342056,13.349223,119.385117,13.349223C118.657845,13.349223,117.985603,13.157836,117.368378,12.775063C116.75116,12.39229,116.303787,11.832484,116.026283,11.095645C115.748772,10.358806,115.610016,9.29661,115.610016,7.909056L115.610016,0L113.026291,0z"/>
    <path transform="matrix(1.33333,0,0,-1.33333,31.492201,-182.466003)" style="stroke:#0000ff;stroke-width:0.05mm;fill:none" d="M33.907635,-114.225594C32.62516,-113.594849,31.716852,-112.389374,31.464066,-110.983002C31.240263,-109.73761,30.145956,-108.822662,28.880491,-108.822662C28.628405,-108.822662,28.37772,-108.858368,28.136066,-108.929749C26.765591,-109.335083,25.280941,-109.06485,24.141972,-108.201721C21.629517,-106.297607,19.27108,-104.198181,17.088482,-101.923737C16.098972,-100.892578,15.657669,-99.449799,15.901215,-98.04129C15.926765,-97.893585,15.939644,-97.743774,15.939644,-97.593964C15.939644,-96.214905,14.852619,-95.058441,13.476055,-94.973724C12.049648,-94.88623,10.74715,-94.123871,9.972061,-92.923294C3.711723,-83.225601,0.380848,-71.924118,0.380848,-60.381821C0.380848,-32.856155,19.321762,-8.692093,46.05022,-2.117981C47.437984,-1.777069,48.908493,-2.115875,50.006233,-3.030838C50.477921,-3.424271,51.072884,-3.639877,51.686962,-3.639877C52.566425,-3.639877,53.389538,-3.198151,53.875298,-2.464508C54.664593,-1.273041,55.975983,-0.526779,57.40337,-0.455383C58.39505,-0.406372,59.387852,-0.381882,60.380791,-0.381882C93.295807,-0.381882,120.380737,-27.466522,120.380737,-60.381821C120.380737,-66.039566,119.580437,-71.668594,118.003662,-77.102341C117.605408,-78.475113,116.57621,-79.579086,115.234917,-80.071915C114.204536,-80.450623,113.515839,-81.437698,113.515839,-82.536057C113.515839,-82.942093,113.610062,-83.342514,113.791092,-83.705826C114.4282,-84.985504,114.419243,-86.494095,113.766937,-87.766068C98.920013,-116.710052,63.099964,-128.57785,33.907635,-114.225594z"/>
    <path transform="matrix(1.33333,0,0,-1.33333,31.492201,-182.466003)" style="stroke:#0000ff;stroke-width:0.05mm;fill:none" d="M40.150513,-61.627831C40.184906,-61.363777,40.256348,-61.338379,40.023499,-61.07856C39.79068,-60.819,40.007629,-60.714226,39.605469,-60.46843"/>
    <path transform="matrix(1.33333,0,0,-1.33333,31.492201,-182.466003)" style="stroke:#0000ff;stroke-width:0.05mm;fill:none" d="M38.727051,-58.796791C38.348724,-58.395683,39.002228,-58.408379,38.213776,-58.000664"/>
    <path transform="matrix(1.33333,0,0,-1.33333,31.492201,-182.466003)" style="stroke:#0000ff;stroke-width:0.05mm;fill:none" d="M36.919952,-56.405228C36.933167,-56.28907,37.073395,-56.182175,36.655365,-56.262352C36.237305,-56.342522,36.501892,-56.149902,36.335205,-56.186409C36.168549,-56.222923,36.525726,-55.850121,36.060059,-56.036392C35.93042,-56.087456,36.041534,-55.715981,35.663177,-55.8451C35.382721,-55.941147,35.567932,-55.69323,35.2901,-55.695076"/>
    <path transform="matrix(1.33333,0,0,-1.33333,31.492201,-182.466003)" style="stroke:#0000ff;stroke-width:0.05mm;fill:none" d="M37.245392,-56.91983C37.245392,-56.91983,37.364441,-56.454697,36.949066,-56.349922"/>
    <path transform="matrix(1.33333,0,0,-1.33333,31.492201,-182.466003)" style="stroke:#0000ff;stroke-width:0.05mm;fill:none" d="M35.276855,-55.606979C35.276855,-55.606979,35.377411,-55.032036,35.038757,-55.159828"/>
    <path transform="matrix(1.33333,0,0,-1.33333,31.492201,-182.466003)" style="stroke:#0000ff;stroke-width:0.05mm;fill:none" d="M33.647064,-54.09964C33.647064,-54.09964,33.856049,-54.005455,33.644409,-53.735046C33.435394,-53.464645,33.890442,-53.570473,33.517426,-53.19001C33.144348,-52.809273,33.636475,-53.052689,33.2211,-52.725395"/>
    <path transform="matrix(1.33333,0,0,-1.33333,31.492201,-182.466003)" style="stroke:#0000ff;stroke-width:0.05mm;fill:none" d="M45.444824,-56.740456C46.045441,-56.722198,48.818268,-56.60498,48.746826,-57.065628"/>
    <path transform="matrix(1.33333,0,0,-1.33333,31.492201,-182.466003)" style="stroke:#0000ff;stroke-width:0.05mm;fill:none" d="M35.044067,-55.138397L35.628784,-55.150307C35.628784,-55.150307,35.049347,-54.217384,33.776703,-53.960213"/>
    <path transform="matrix(1.33333,0,0,-1.33333,31.492201,-182.466003)" style="stroke:#0000ff;stroke-width:0.05mm;fill:none" d="M33.588867,-53.647476L34.155029,-53.510681C34.155029,-53.510681,34.266174,-53.220963,33.546509,-53.285522"/>
    <path transform="matrix(1.33333,0,0,-1.33333,31.492201,-182.466003)" style="stroke:#0000ff;stroke-width:0.05mm;fill:none" d="M36.97287,-56.390144L37.822205,-56.073174C37.822205,-56.073174,36.419891,-55.480499,35.303345,-55.606178"/>
    <path transform="matrix(1.33333,0,0,-1.33333,31.492201,-182.466003)" style="stroke:#0000ff;stroke-width:0.05mm;fill:none" d="M39.629272,-60.493835L39.745697,-59.0746C39.745697,-59.0746,39.57901,-58.924324,39.115967,-59.058998"/>
    <path transform="matrix(1.33333,0,0,-1.33333,31.492201,-182.466003)" style="stroke:#0000ff;stroke-width:0.05mm;fill:none" d="M39.629272,-60.493835C39.507599,-60.250679,39.666321,-60.261253,39.428192,-60.094307C39.190063,-59.927353,39.629272,-59.867561,39.36734,-59.765961C39.102753,-59.66436,39.388519,-59.574135,39.235046,-59.412476C39.078949,-59.250809,39.301208,-59.191284,39.071014,-59.076721C38.84082,-58.962418,38.811737,-58.801025,38.692657,-58.765305"/>
    <path transform="matrix(1.33333,0,0,-1.33333,31.492201,-182.466003)" style="stroke:#0000ff;stroke-width:0.05mm;fill:none" d="M35.007019,-55.190788C35.007019,-55.190788,35.067871,-54.948425,34.739777,-55.027275C34.409058,-55.105858,34.803284,-54.660034,34.467255,-54.730675C34.131226,-54.801582,34.382599,-54.14489,34.14978,-54.467941C33.914307,-54.791267,34.274109,-54.191193,33.977783,-54.331154C33.681458,-54.470856,33.996307,-54.080597,33.652344,-54.181137"/>
</svg>
