<?xml version="1.0" encoding="UTF-8"?>
<svg xmlns="http://www.w3.org/2000/svg" xmlns:xlink="http://www.w3.org/1999/xlink" width="160.000mm" height="159.913mm" viewBox="106.093353 -167.530487 159.999664 159.912979">
    <path transform="matrix(1.33333,0,0,-1.33333,120.334999,-197.595001)" style="stroke:#ff0000;stroke-width:0.05mm;fill:none" d="M88.218506,-77.495712C88.218506,-77.495712,87.883018,-78.363815,88.031715,-79.168945"/>
    <path transform="matrix(1.33333,0,0,-1.33333,120.334999,-197.595001)" style="stroke:#ff0000;stroke-width:0.05mm;fill:none" d="M85.171837,-77.516098C85.171837,-77.516098,83.829605,-79.638321,84.107147,-80.455353"/>
    <path transform="matrix(1.33333,0,0,-1.33333,120.334999,-197.595001)" style="stroke:#ff0000;stroke-width:0.05mm;fill:none" d="M85.797043,-94.929382C85.797043,-94.929382,85.035568,-93.041306,85.638031,-91.691666"/>
    <path transform="matrix(1.33333,0,0,-1.33333,120.334999,-197.595001)" style="stroke:#ff0000;stroke-width:0.05mm;fill:none" d="M82.518593,-93.502213C82.518593,-93.502213,81.623772,-90.600784,83.957924,-88.466385"/>
    <path transform="matrix(1.33333,0,0,-1.33333,120.334999,-197.595001)" style="stroke:#ff0000;stroke-width:0.05mm;fill:none" d="M80.514374,-92.064987C80.390816,-89.88324,81.008881,-88.211868,83.252281,-85.184509"/>
    <path transform="matrix(1.33333,0,0,-1.33333,120.334999,-197.595001)" style="stroke:#ff0000;stroke-width:0.05mm;fill:none" d="M78.19371,-89.392715C78.19371,-89.392715,77.815887,-86.343658,78.913643,-85.379501"/>
    <path transform="matrix(1.33333,0,0,-1.33333,120.334999,-197.595001)" style="stroke:#ff0000;stroke-width:0.05mm;fill:none" d="M83.078712,-77.885712C83.078712,-77.885712,81.897621,-80.576004,82.299782,-82.302933"/>
    <path transform="matrix(1.33333,0,0,-1.33333,120.334999,-197.595001)" style="stroke:#ff0000;stroke-width:0.05mm;fill:none" d="M79.673531,-79.243301C79.673531,-79.243301,78.088936,-81.929337,78.291611,-83.201447"/>
    <path transform="matrix(1.33333,0,0,-1.33333,120.334999,-197.595001)" style="stroke:#ff0000;stroke-width:0.05mm;fill:none" d="M76.114624,-87.520248C76.114624,-87.520248,75.491524,-86.148376,75.784683,-84.96463"/>
    <path transform="matrix(1.33333,0,0,-1.33333,120.334999,-197.595001)" style="stroke:#ff0000;stroke-width:0.05mm;fill:none" d="M76.743004,-80.155304C76.743004,-80.155304,75.583328,-82.421738,76.322845,-83.590393"/>
    <path transform="matrix(1.33333,0,0,-1.33333,120.334999,-197.595001)" style="stroke:#ff0000;stroke-width:0.05mm;fill:none" d="M72.298271,-82.769653C72.298271,-82.769653,71.969925,-84.289413,72.007759,-85.141113"/>
    <path transform="matrix(1.33333,0,0,-1.33333,120.334999,-197.595001)" style="stroke:#ff0000;stroke-width:0.05mm;fill:none" d="M74.040024,-87.107773C74.040024,-87.107773,73.37645,-84.805099,74.557281,-82.808807"/>
    <path transform="matrix(1.33333,0,0,-1.33333,120.334999,-197.595001)" style="stroke:#ff0000;stroke-width:0.05mm;fill:none" d="M71.443932,-87.460449C71.443932,-87.460449,70.867142,-85.189545,71.375931,-84.259781"/>
    <path transform="matrix(1.33333,0,0,-1.33333,120.334999,-197.595001)" style="stroke:#ff0000;stroke-width:0.05mm;fill:none" d="M90.64077,-86.397354C90.64077,-86.397354,92.607948,-81.991516,91.110405,-80.747177C89.613129,-79.503113,87.487732,-82.777328,86.555077,-85.713409"/>
    <path transform="matrix(1.33333,0,0,-1.33333,120.334999,-197.595001)" style="stroke:#ff0000;stroke-width:0.05mm;fill:none" d="M89.448296,-84.063202C89.448296,-84.063202,86.414581,-90.221115,87.280029,-91.811264C88.145218,-93.401413,89.02549,-92.554993,90.235687,-90.023209"/>
    <path transform="matrix(1.33333,0,0,-1.33333,120.334999,-197.595001)" style="stroke:#ff0000;stroke-width:0.05mm;fill:none" d="M87.062546,-78.607498C87.062546,-78.607498,83.794151,-81.540131,84.28363,-83.568161"/>
    <path transform="matrix(1.33333,0,0,-1.33333,120.334999,-197.595001)" style="stroke:#ff0000;stroke-width:0.05mm;fill:none" d="M81.173714,-79.617401C81.173714,-79.617401,79.726181,-83.917938,80.534752,-85.013321"/>
    <path transform="matrix(1.33333,0,0,-1.33333,120.334999,-197.595001)" style="stroke:#ff0000;stroke-width:0.05mm;fill:none" d="M71.275917,-82.65271C71.275917,-82.65271,68.860275,-84.021927,68.972984,-85.870834"/>
    <path transform="matrix(1.33333,0,0,-1.33333,120.334999,-197.595001)" style="stroke:#ff0000;stroke-width:0.05mm;fill:none" d="M69.531258,-88.083557C69.531258,-88.083557,67.620438,-87.340073,67.858559,-86.554779"/>
    <path transform="matrix(1.33333,0,0,-1.33333,120.334999,-197.595001)" style="stroke:#ff0000;stroke-width:0.05mm;fill:none" d="M71.275917,-82.638428C71.275917,-82.638428,70.958153,-80.918365,70.095879,-82.147095C69.233864,-83.376083,69.073532,-82.198151,68.684853,-82.486557C68.220245,-82.831299,67.611702,-83.75444,67.307434,-84.215866"/>
    <path transform="matrix(1.33333,0,0,-1.33333,120.334999,-197.595001)" style="stroke:#ff0000;stroke-width:0.05mm;fill:none" d="M68.035301,-87.349854C67.53656,-87.269165,66.539085,-87.108032,66.200417,-86.561661C65.861488,-86.015305,65.955414,-84.719635,66.002502,-84.071671"/>
    <path transform="matrix(1.33333,0,0,-1.33333,120.334999,-197.595001)" style="stroke:#ff0000;stroke-width:0.05mm;fill:none" d="M68.25544,-82.939514C68.25544,-82.939514,68.094299,-80.253479,66.915848,-82.185715"/>
    <path transform="matrix(1.33333,0,0,-1.33333,120.334999,-197.595001)" style="stroke:#ff0000;stroke-width:0.05mm;fill:none" d="M65.864922,-84.971252C65.864922,-84.971252,63.921562,-86.599762,64.566879,-84.007385"/>
    <path transform="matrix(1.33333,0,0,-1.33333,120.334999,-197.595001)" style="stroke:#ff0000;stroke-width:0.05mm;fill:none" d="M67.162437,-81.900238C67.162437,-81.900238,67.240494,-80.139709,65.541344,-81.959503C63.842186,-83.779037,64.191177,-83.106735,64.191177,-83.106735"/>
    <path transform="matrix(1.33333,0,0,-1.33333,120.334999,-197.595001)" style="stroke:#ff0000;stroke-width:0.05mm;fill:none" d="M64.3396,-84.694504C64.3396,-84.694504,61.83532,-85.640381,63.913887,-82.338913"/>
    <path transform="matrix(1.33333,0,0,-1.33333,120.334999,-197.595001)" style="stroke:#ff0000;stroke-width:0.05mm;fill:none" d="M65.258232,-81.830917C65.258232,-81.830917,65.473083,-79.550201,63.201103,-81.907913"/>
    <path transform="matrix(1.33333,0,0,-1.33333,120.334999,-197.595001)" style="stroke:#ff0000;stroke-width:0.05mm;fill:none" d="M62.11393,-83.131866C62.11393,-83.131866,60.547333,-84.160309,61.002151,-81.8423"/>
    <path transform="matrix(1.33333,0,0,-1.33333,120.334999,-197.595001)" style="stroke:#ff0000;stroke-width:0.05mm;fill:none" d="M36.695938,-62.990997L36.486122,-67.468277L36.020454,-68.46257L35.68364,-69.974396C35.68364,-69.974396,35.460068,-70.285019,35.853775,-70.260941C36.247467,-70.236862,36.538246,-70.285553,36.538246,-70.285553C36.538246,-70.285553,36.539307,-70.310425,36.412575,-70.651474C36.285835,-70.992523,36.004318,-71.941849,36.004318,-71.941849C36.004318,-71.941849,35.714073,-72.723679,36.192703,-72.83429C36.671593,-72.94487,37.026405,-72.863922,37.026405,-72.863922C37.026405,-72.863922,37.38121,-71.829666,37.745537,-71.562439C38.109871,-71.295197,37.808777,-71.079559,37.768028,-70.833511C37.727547,-70.587708,38.274704,-66.089523,38.361755,-65.689743C38.44854,-65.289688,38.718414,-63.269073,38.718414,-63.269073C38.718414,-63.269073,38.848587,-63.039688,38.906532,-63.462753C38.96447,-63.885818,39.121635,-65.623856,39.419823,-65.878922C39.717743,-66.133972,40.048737,-66.455704,40.474449,-66.340347C40.900169,-66.224731,40.894875,-66.298813,40.894875,-66.298813C40.894875,-66.298813,40.95282,-66.258331,40.87159,-66.582977C40.790627,-66.907608,40.966843,-67.407425,40.966843,-67.407425C40.966843,-67.407425,41.122147,-67.656128,41.379593,-67.59819C41.637032,-67.540237,41.900032,-67.315338,42.046867,-67.133575C42.19371,-66.952072,42.689537,-65.192581,42.545349,-64.93277C42.401146,-64.672943,42.091843,-64.62056,41.827797,-64.779312C41.563736,-64.938324,41.557121,-64.959488,41.557121,-64.959488L40.971069,-64.717133C40.971069,-64.717133,40.776871,-64.684326,40.805977,-64.3573C40.834816,-64.030548,41.181946,-61.987167,41.077698,-61.596375"/>
    <path transform="matrix(1.33333,0,0,-1.33333,120.334999,-197.595001)" style="stroke:#ff0000;stroke-width:0.05mm;fill:none" d="M37.070587,-61.060867C37.070587,-61.060867,39.892105,-61.452698,40.898842,-60.613968"/>
    <path transform="matrix(1.33333,0,0,-1.33333,120.334999,-197.595001)" style="stroke:#ff0000;stroke-width:0.05mm;fill:none" d="M33.665932,-59.157974C33.665932,-59.157974,33.908287,-59.788223,34.19986,-59.754074"/>
    <path transform="matrix(1.33333,0,0,-1.33333,120.334999,-197.595001)" style="stroke:#ff0000;stroke-width:0.05mm;fill:none" d="M45.434334,-53.896194C45.434334,-53.896194,45.68251,-54.356842,45.580376,-54.581741"/>
    <path transform="matrix(1.33333,0,0,-1.33333,120.334999,-197.595001)" style="stroke:#ff0000;stroke-width:0.05mm;fill:none" d="M37.102074,-54.344131C37.102074,-54.344131,38.197449,-55.510422,38.865784,-53.975311"/>
    <path transform="matrix(1.33333,0,0,-1.33333,120.334999,-197.595001)" style="stroke:#ff0000;stroke-width:0.05mm;fill:none" d="M59.208515,-29.408218C59.208515,-29.408218,65.756973,-31.272781,70.738342,-34.177292"/>
    <path transform="matrix(1.33333,0,0,-1.33333,120.334999,-197.595001)" style="stroke:#ff0000;stroke-width:0.05mm;fill:none" d="M62.293839,-35.039612C62.293839,-35.039612,61.960999,-31.198135,65.179924,-28.303055"/>
    <path transform="matrix(1.33333,0,0,-1.33333,120.334999,-197.595001)" style="stroke:#ff0000;stroke-width:0.05mm;fill:none" d="M61.64006,-29.146011C61.64006,-29.146011,62.862694,-29.273026,65.179924,-28.303055C65.481812,-28.17659,64.902374,-29.944534,66.465523,-30.538513"/>
    <path transform="matrix(1.33333,0,0,-1.33333,120.334999,-197.595001)" style="stroke:#ff0000;stroke-width:0.05mm;fill:none" d="M75.66906,-34.48584C75.66906,-34.48584,76.982979,-34.310684,76.84169,-35.349457C76.700142,-36.387939,75.969627,-36.328934,75.960098,-36.413345C75.950577,-36.498001,76.026779,-36.698822,76.026779,-36.698822C76.026779,-36.698822,76.655167,-37.331436,77.756889,-37.331436C78.858604,-37.331436,78.935608,-37.416367,81.491478,-37.044098C84.047615,-36.671829,84.708549,-38.283417,84.735275,-38.238434C84.761726,-38.193451,85.289314,-39.149124,85.052773,-39.937057C84.816238,-40.724976,84.682091,-40.435806,84.569382,-40.673126"/>
    <path transform="matrix(1.33333,0,0,-1.33333,120.334999,-197.595001)" style="stroke:#ff0000;stroke-width:0.05mm;fill:none" d="M82.821014,-39.15416C82.821014,-39.15416,82.507477,-40.851196,83.824844,-40.528656C85.141937,-40.206131,84.522278,-38.8311,84.294472,-38.381302C84.06694,-37.931503,83.373726,-37.189362,80.566498,-37.529877"/>
    <path transform="matrix(1.33333,0,0,-1.33333,120.334999,-197.595001)" style="stroke:#ff0000;stroke-width:0.05mm;fill:none" d="M47.417641,-52.902176L64.690704,-34.54776"/>
    <path transform="matrix(1.33333,0,0,-1.33333,120.334999,-197.595001)" style="stroke:#ff0000;stroke-width:0.05mm;fill:none" d="M64.188789,-34.557281L64.538033,-34.508331L65.439743,-34.386108"/>
    <path transform="matrix(1.33333,0,0,-1.33333,120.334999,-197.595001)" style="stroke:#ff0000;stroke-width:0.05mm;fill:none" d="M40.87027,-66.293518C40.87027,-66.293518,41.591789,-65.530991,41.541519,-64.924301"/>
    <path transform="matrix(1.33333,0,0,-1.33333,120.334999,-197.595001)" style="stroke:#ff0000;stroke-width:0.05mm;fill:none" d="M36.619476,-70.278397C36.619476,-70.278397,37.227219,-70.704391,37.79422,-70.306198"/>
    <path transform="matrix(1.33333,0,0,-1.33333,120.334999,-197.595001)" style="stroke:#ff0000;stroke-width:0.05mm;fill:none" d="M75.949783,-34.915527C75.949783,-34.915527,75.496025,-34.96553,75.612175,-35.50766C75.728058,-36.049789,75.686256,-36.183945,75.686256,-36.183945C75.686256,-36.183945,76.216484,-35.922272,76.264374,-35.76828C76.312263,-35.614288,76.6549,-35.07428,76.335281,-34.966843C76.015663,-34.859451,76.116203,-34.884033,75.949783,-34.915527z"/>
    <path transform="matrix(1.33333,0,0,-1.33333,120.334999,-197.595001)" style="stroke:#ff0000;stroke-width:0.05mm;fill:none" d="M75.79184,-136.392471C77.07431,-135.761734,77.98262,-134.556259,78.235405,-133.149887C78.459206,-131.904495,79.553513,-130.989548,80.818977,-130.989548C81.071068,-130.989548,81.321747,-131.025253,81.5634,-131.096634C82.933884,-131.501968,84.418533,-131.231735,85.557495,-130.368607C88.069954,-128.464493,90.428391,-126.365067,92.610992,-124.090622C93.600494,-123.059464,94.041801,-121.616676,93.798256,-120.208183C93.772705,-120.060471,93.759827,-119.91066,93.759827,-119.760849C93.759827,-118.38179,94.846848,-117.225327,96.223419,-117.14061C97.649826,-117.053123,98.952316,-116.290756,99.727409,-115.090179C105.987747,-105.392487,109.318619,-94.091003,109.318619,-82.548706C109.318619,-55.023041,90.377708,-30.858978,63.64925,-24.284866C62.261486,-23.943954,60.790977,-24.282761,59.693237,-25.197723C59.22155,-25.591156,58.626587,-25.806763,58.012508,-25.806763C57.133045,-25.806763,56.309933,-25.365036,55.824173,-24.631393C55.034878,-23.439926,53.723488,-22.693665,52.296101,-22.622269C51.30442,-22.573257,50.311619,-22.548767,49.31868,-22.548767C16.403664,-22.548767,-10.681263,-49.633408,-10.681263,-82.548706C-10.681263,-88.206451,-9.880974,-93.83548,-8.304195,-99.269226C-7.905941,-100.641998,-6.87674,-101.745972,-5.535458,-102.2388C-4.505066,-102.617508,-3.816364,-103.604584,-3.816364,-104.702942C-3.816364,-105.108978,-3.910591,-105.509399,-4.091621,-105.872711C-4.728729,-107.15239,-4.719772,-108.66098,-4.067467,-109.932953C10.779453,-138.876938,46.599506,-150.744736,75.79184,-136.392471z"/>
    <path transform="matrix(1.33333,0,0,-1.33333,120.334999,-197.595001)" style="stroke:#ff0000;stroke-width:0.05mm;fill:none" d="M36.87397,-87.729111L36.822029,-89.086349C36.811432,-89.360558,36.506706,-89.527481,36.273521,-89.386734C36.165394,-89.321487,36.101749,-89.20295,36.106579,-89.07576L36.158493,-87.718544C36.1689,-87.444313,36.473499,-87.277191,36.706779,-87.417725C36.815147,-87.482994,36.878868,-87.60173,36.87397,-87.729111z"/>
    <path transform="matrix(1.33333,0,0,-1.33333,120.334999,-197.595001)" style="stroke:#ff0000;stroke-width:0.05mm;fill:none" d="M32.00399,-84.232018L33.23143,-84.794945C33.479465,-84.908737,33.504478,-85.25,33.276436,-85.409279C33.170605,-85.483192,33.034504,-85.496201,32.919392,-85.443405L31.691978,-84.880447C31.443918,-84.766678,31.418934,-84.4254,31.646948,-84.266136C31.752777,-84.192223,31.88888,-84.179214,32.00399,-84.232018z"/>
    <path transform="matrix(1.33333,0,0,-1.33333,120.334999,-197.595001)" style="stroke:#ff0000;stroke-width:0.05mm;fill:none" d="M32.756527,-77.671074C34.623901,-79.953232,33.261124,-83.449707,30.303488,-83.964722C27.345879,-84.479706,25.011642,-81.626991,26.101877,-78.829849C26.350473,-78.192009,26.761894,-77.626648,27.294815,-77.190582C28.972221,-75.821114,31.415522,-76.036064,32.756527,-77.671074z"/>
    <path transform="matrix(1.33333,0,0,-1.33333,120.334999,-197.595001)" style="stroke:#ff0000;stroke-width:0.05mm;fill:none" d="M26.965843,-82.409332C28.660318,-84.480179,32.015018,-83.896042,33.004303,-81.357849C33.99361,-78.819687,31.875502,-76.23111,29.191721,-76.698425C28.57975,-76.805008,28.002998,-77.069412,27.519432,-77.465088C26.000076,-78.71109,25.752453,-80.922897,26.965843,-82.409332z"/>
    <path transform="matrix(1.33333,0,0,-1.33333,120.334999,-197.595001)" style="stroke:#ff0000;stroke-width:0.05mm;fill:none" d="M42.767616,-89.821411C44.537025,-91.983841,43.245743,-95.296883,40.443291,-95.784874C37.640823,-96.272842,35.429047,-93.569794,36.462086,-90.919373C36.69767,-90.314972,37.087502,-89.779305,37.592453,-89.366127C39.181854,-88.068497,41.496971,-88.272171,42.767616,-89.821411z"/>
    <path transform="matrix(1.33333,0,0,-1.33333,120.334999,-197.595001)" style="stroke:#ff0000;stroke-width:0.05mm;fill:none" d="M37.280735,-94.311081C38.886311,-96.273285,42.065044,-95.719795,43.002403,-93.314766C43.939808,-90.909744,41.932838,-88.456985,39.389835,-88.89978C38.809994,-89.00074,38.263489,-89.251297,37.805283,-89.626228C36.365662,-90.806854,36.131008,-92.902611,37.280735,-94.311081z"/>
    <path transform="matrix(1.33333,0,0,-1.33333,120.334999,-197.595001)" style="stroke:#ff0000;stroke-width:0.05mm;fill:none" d="M31.084614,-86.547554L32.166031,-86.923172L29.912788,-90.111206C30.970234,-91.426788,31.808704,-92.757141,32.154308,-94.120674C32.272774,-94.581535,31.984707,-95.065376,31.510864,-95.20137C31.488688,-95.207748,31.46637,-95.213242,31.44385,-95.217941C30.923109,-95.323524,30.405052,-95.126144,29.756945,-95.105141L29.035957,-92.960411L29.583668,-92.708176L28.162811,-90.777382C27.877066,-90.389091,27.975405,-89.832993,28.382425,-89.535339C28.403931,-89.519608,28.426056,-89.504799,28.448807,-89.490921L31.084614,-86.547554z"/>
    <path transform="matrix(1.33333,0,0,-1.33333,120.334999,-197.595001)" style="stroke:#ff0000;stroke-width:0.05mm;fill:none" d="M22.613258,-96.666336C22.766836,-96.73452,22.789555,-96.935486,22.788246,-97.106216L22.790003,-97.044067C23.113518,-97.073639,23.435684,-96.944778,23.718611,-96.77697C24.001265,-96.609436,24.259621,-96.401337,24.549286,-96.245743C24.838705,-96.090385,25.175001,-95.988731,25.491003,-96.059502C25.581167,-96.079697,25.665354,-96.11264,25.74402,-96.155571L25.785843,-96.975739C25.785843,-96.975739,25.913502,-97.05909,26.097031,-97.071976C25.892046,-97.184814,25.70199,-97.324219,25.532082,-97.486832C25.877527,-97.345818,26.249437,-97.286331,26.618149,-97.313095C26.737183,-97.578514,26.83423,-97.853577,26.908264,-98.135628C26.956045,-98.318253,26.989498,-98.529892,26.876841,-98.685738C26.765366,-98.840744,26.545681,-98.880455,26.361395,-98.842133C26.177135,-98.803787,26.01421,-98.703911,25.842524,-98.628265C25.67132,-98.55262,25.47419,-98.500885,25.29427,-98.563599C24.880146,-98.70752,24.802155,-99.347893,24.382423,-99.474258C24.175856,-99.536201,23.959818,-99.445862,23.770733,-99.349289C23.48233,-99.201653,23.204756,-99.034485,22.939873,-98.849022C22.70734,-98.686249,22.479692,-98.503632,22.337883,-98.258369C22.196075,-98.013115,22.154137,-97.691864,22.298073,-97.440773C22.235073,-97.274979,22.171099,-97.096527,22.21302,-96.921356C22.25469,-96.746475,22.450727,-96.594055,22.613258,-96.666336z"/>
    <path transform="matrix(1.33333,0,0,-1.33333,120.334999,-197.595001)" style="stroke:#ff0000;stroke-width:0.05mm;fill:none" d="M25.74402,-96.155571L25.6222,-93.766441L24.484398,-91.87674L24.626694,-91.872169L23.970711,-90.875816C23.673943,-90.670677,23.71912,-90.217484,24.052032,-90.060066C24.170551,-90.00399,24.305882,-89.998299,24.426353,-90.044289C24.699261,-90.146408,24.807285,-90.471458,24.652061,-90.72332L25.47184,-91.879852C25.711622,-92.10817,27.081636,-93.426414,27.084545,-93.741646C27.087723,-94.087097,27.171762,-96.226311,26.728407,-96.764008C26.50927,-97.029816,26.276434,-97.084549,26.097031,-97.071976C26.201899,-97.014221,26.310682,-96.963425,26.422628,-96.920021C26.419907,-96.914955,26.417225,-96.910378,26.414528,-96.905289"/>
    <ellipse transform="matrix(-0.03893,-0.022453,0.023471,-0.039281,155.038239,-81.343155)" style="stroke:#ff0000;stroke-width:0.05mm;fill:none" rx="11.5" ry="17.5" cx="0" cy="0"/>
    <path transform="matrix(1.33333,0,0,-1.33333,120.272003,-197.587006)" style="stroke:#000000;stroke-width:0.05mm;fill:none" d="M46.028587,-82.542435C46.028587,-80.711197,47.535187,-79.20488,49.366104,-79.20488C51.197021,-79.20488,52.703621,-80.711197,52.703621,-82.542435C52.703621,-84.373215,51.197021,-85.879532,49.366104,-85.879532C47.535187,-85.879532,46.028587,-84.373215,46.028587,-82.542435z"/>
    <path transform="matrix(1.33333,0,0,-1.33333,120.272003,-197.587006)" style="stroke:#000000;stroke-width:0.05mm;fill:none" d="M75.839264,-136.386154C77.121735,-135.755417,78.030045,-134.549942,78.282829,-133.14357C78.50663,-131.898178,79.600937,-130.983231,80.866402,-130.983231C81.118492,-130.983231,81.369171,-131.018936,81.610825,-131.090317C82.981308,-131.495651,84.465958,-131.225418,85.604919,-130.362289C88.117378,-128.458176,90.475815,-126.358749,92.658417,-124.084297C93.647919,-123.053146,94.089226,-121.610367,93.84568,-120.201859C93.820129,-120.054153,93.807251,-119.904343,93.807251,-119.754532C93.807251,-118.375473,94.894272,-117.219009,96.270844,-117.134293C97.69725,-117.046799,98.999741,-116.284439,99.774834,-115.083862C106.035172,-105.386169,109.366043,-94.084686,109.366043,-82.542389C109.366043,-55.016724,90.425133,-30.852661,63.696674,-24.278549C62.30891,-23.937637,60.838402,-24.276443,59.740662,-25.191406C59.268974,-25.584839,58.674011,-25.800446,58.059933,-25.800446C57.18047,-25.800446,56.357357,-25.358719,55.871597,-24.625076C55.082302,-23.433609,53.770912,-22.687347,52.343525,-22.615952C51.351845,-22.56694,50.359043,-22.54245,49.366104,-22.54245C16.451088,-22.54245,-10.633839,-49.62709,-10.633839,-82.542389C-10.633839,-88.200134,-9.833549,-93.829163,-8.256771,-99.262909C-7.858517,-100.635681,-6.829315,-101.739647,-5.488033,-102.232483C-4.457642,-102.611191,-3.76894,-103.598267,-3.76894,-104.696617C-3.76894,-105.102661,-3.863167,-105.503082,-4.044197,-105.866386C-4.681305,-107.146072,-4.672348,-108.654663,-4.020042,-109.926643C10.826878,-138.870621,46.646931,-150.738419,75.839264,-136.386154z"/>
    <path transform="matrix(1.33333,0,0,-1.33333,120.272003,-197.587006)" style="stroke:#000000;stroke-width:0.05mm;fill:none" d="M47.829163,-97.879669C47.996891,-98.572083,47.787086,-103.248367,47.860104,-103.131943L47.850304,-134.908417C47.850094,-136.141327,46.834332,-137.157379,45.600296,-137.157379C45.546604,-137.157379,45.492626,-137.154709,45.438938,-137.152039C16.956799,-135.104218,-5.383587,-111.098572,-5.383587,-82.542313C-5.383587,-74.25058,-3.499982,-66.066437,0.124558,-58.608917C0.500481,-57.835571,1.288168,-57.342377,2.14831,-57.342377C2.543344,-57.342377,2.931728,-57.446625,3.273838,-57.644257L29.491409,-72.229675C29.4856,-72.282043,30.277767,-74.627563,30.899265,-76.44577C29.716614,-76.117737,28.384434,-76.358185,27.345638,-77.206238C26.812767,-77.642487,26.401352,-78.207642,26.152626,-78.845581C25.370537,-80.852463,26.351089,-82.887833,28.060032,-83.687698L27.02446,-86.300964C26.750603,-86.267365,26.470654,-86.408142,26.337578,-86.66745C26.153469,-86.607666,25.898373,-86.750259,25.742542,-87.011154C25.57243,-87.295792,25.584824,-87.613617,25.770332,-87.72052C25.784893,-87.728973,25.800503,-87.735855,25.816399,-87.741364L25.747025,-87.883972C25.631935,-88.121841,25.669247,-88.390671,25.820599,-88.580093L25.030319,-89.787949C24.971024,-89.781082,24.910192,-89.785278,24.850897,-89.800903C24.776274,-89.820984,24.711731,-89.855927,24.658525,-89.901413L24.589502,-89.816788C24.509558,-89.719131,24.382288,-89.672592,24.25614,-89.694565C24.026739,-89.734467,23.901571,-89.968643,23.970104,-90.167374C23.764011,-90.366592,23.770313,-90.717957,24.021416,-90.891495L24.677568,-91.887939L24.535248,-91.892426L25.672958,-93.782104L25.680378,-93.924988L25.580624,-94.662903L25.109634,-95.630997L24.679739,-96.201736C24.664896,-96.212799,24.651947,-96.225739,24.641096,-96.240097C24.627304,-96.246948,24.613585,-96.254105,24.600073,-96.26152C24.471195,-96.330826,24.348476,-96.410492,24.22702,-96.492188C23.811335,-96.169388,23.202297,-96.230301,22.843527,-96.639053C22.810974,-96.676086,22.781572,-96.714447,22.75539,-96.75441C22.731869,-96.723755,22.701977,-96.698837,22.664106,-96.682175C22.501415,-96.609726,22.305614,-96.762131,22.263821,-96.936996C22.222029,-97.112152,22.285732,-97.290726,22.349016,-97.456635C22.205088,-97.707748,22.24688,-98.028915,22.388708,-98.2742C22.530466,-98.51944,22.758051,-98.702011,22.990606,-98.864761C23.25543,-99.050217,23.532997,-99.217453,23.821415,-99.365082C24.010567,-99.461624,24.22674,-99.551865,24.433113,-99.489975C24.852997,-99.36377,24.931053,-98.723145,25.345127,-98.579224C25.52504,-98.516571,25.722172,-98.568375,25.893333,-98.644058C26.065052,-98.719711,26.22802,-98.819473,26.412201,-98.857849C26.596386,-98.896194,26.816196,-98.856506,26.927643,-98.701508C27.040348,-98.545624,27.006748,-98.333984,26.959076,-98.151428C26.88501,-97.86937,26.787914,-97.594193,26.668839,-97.328812C26.300266,-97.302124,25.928265,-97.361633,25.583,-97.502686C25.627735,-97.459503,25.674007,-97.418274,25.721401,-97.37886C25.944153,-97.389694,26.169289,-97.336227,26.368801,-97.220856L29.208874,-95.606918C29.390606,-95.747696,30.472729,-95.652985,30.623871,-95.669907C30.93763,-95.705338,31.076519,-95.534943,31.091637,-95.26326C31.227375,-95.268021,31.360943,-95.26088,31.494583,-95.233582C31.517052,-95.229111,31.539593,-95.223572,31.561783,-95.217194C32.035362,-95.081192,32.323502,-94.597244,32.204987,-94.136398C32.195461,-94.098816,32.185665,-94.061493,32.175369,-94.023911C32.236977,-94.049866,32.30579,-94.058075,32.374603,-94.046158C32.647129,-93.998489,32.772511,-93.676529,32.600506,-93.466461L32.263996,-93.055038L33.437969,-92.094589L33.460159,-92.095627L36.704506,-94.014099C37.404831,-95.272507,38.847618,-96.087433,40.494118,-95.800613C42.091125,-95.522491,43.197399,-94.327164,43.526279,-92.949966C45.265606,-94.936203,47.726536,-97.455856,47.829163,-97.879669z"/>
    <path transform="matrix(1.33333,0,0,-1.33333,120.272003,-197.587006)" style="stroke:#000000;stroke-width:0.05mm;fill:none" d="M31.618908,-78.525177C31.6684,-78.655884,32.269527,-79.645386,33.173355,-81.018585C33.140591,-81.136887,33.101109,-81.255417,33.055115,-81.373642C32.308731,-83.288483,30.215885,-84.091217,28.505608,-83.480789L29.729282,-80.392319C29.892532,-80.434402,30.075104,-80.399475,30.217705,-80.282501C30.452919,-80.089905,30.49128,-79.747513,30.303459,-79.517899C30.115288,-79.287949,29.771915,-79.257767,29.536701,-79.450424C29.305405,-79.639297,29.264385,-79.972931,29.440865,-80.202621L28.19339,-83.351135C27.756565,-83.143997,27.353619,-82.837097,27.016479,-82.42511C25.803165,-80.938705,26.05077,-78.726791,27.570282,-77.480865C28.053661,-77.085052,28.630497,-76.820709,29.242474,-76.714081C29.886444,-76.601868,30.498142,-76.665924,31.041862,-76.862793C31.33609,-77.721588,31.568928,-78.393158,31.618908,-78.525177z"/>
    <path transform="matrix(1.33333,0,0,-1.33333,120.272003,-197.587006)" style="stroke:#000000;stroke-width:0.05mm;fill:none" d="M36.07531,-85.185242C36.908222,-86.31076,38.118176,-87.518326,39.271774,-88.604462C38.721119,-88.717926,38.18615,-88.957413,37.712009,-89.327042L36.902126,-88.336975L36.924881,-87.744812C36.929638,-87.617523,36.865864,-87.498749,36.75771,-87.433426C36.580948,-87.327011,36.363167,-87.397156,36.263412,-87.556702L35.774502,-86.959C35.945381,-86.730652,35.948811,-86.411575,35.764423,-86.185883C35.546429,-85.919724,35.149014,-85.884506,34.876205,-86.107056L33.016964,-85.581589L33.079967,-85.489273C33.165443,-85.49823,33.253506,-85.476318,33.327362,-85.424942C33.555157,-85.265671,33.530308,-84.924393,33.282139,-84.810577L32.054684,-84.247803C31.939598,-84.194885,31.80365,-84.207916,31.697803,-84.281967C31.555202,-84.381454,31.511524,-84.552124,31.559402,-84.693939C31.515999,-84.754227,31.503052,-84.835983,31.539593,-84.910904L31.682194,-85.204285L28.21138,-84.223526L28.37225,-83.817078C28.971279,-84.033813,29.644855,-84.103882,30.35421,-83.980331C31.871624,-83.716263,32.969082,-82.667465,33.426067,-81.400391C34.176655,-82.528854,35.099518,-83.866852,36.07531,-85.185242z"/>
    <path transform="matrix(1.33333,0,0,-1.33333,120.272003,-197.587006)" style="stroke:#000000;stroke-width:0.05mm;fill:none" d="M42.447517,-91.656998C42.671108,-91.94696,42.943634,-92.275543,43.245777,-92.627167C43.208252,-92.860291,43.144688,-93.09552,43.053192,-93.330444C42.115765,-95.735504,38.937084,-96.289032,37.331535,-94.326874C37.192364,-94.156494,37.07357,-93.976013,36.974934,-93.788406L36.980747,-93.778687L36.964851,-93.76915C36.721169,-93.299225,36.60181,-92.784912,36.602089,-92.270233L39.445591,-92.428238C39.463863,-92.467361,39.487106,-92.504669,39.515671,-92.539597C39.703838,-92.769501,40.047001,-92.799667,40.282211,-92.607086C40.517639,-92.414444,40.556,-92.072113,40.367897,-91.842148C40.179798,-91.612534,39.836636,-91.582077,39.601139,-91.774658C39.500057,-91.857758,39.43523,-91.968369,39.409328,-92.085831L36.619312,-91.930771C36.707169,-91.071976,37.127335,-90.239609,37.855934,-89.641922C38.314186,-89.266968,38.860847,-89.016434,39.440556,-88.915634C39.487385,-88.907425,39.534218,-88.900299,39.580772,-88.893921C40.861359,-90.087982,42.02182,-91.105286,42.447517,-91.656998z"/>
    <path transform="matrix(1.33333,0,0,-1.33333,120.272003,-197.587006)" style="stroke:#000000;stroke-width:0.05mm;fill:none" d="M35.185555,-89.078598L35.190037,-89.202713L36.207897,-89.286575C36.236176,-89.33313,36.275871,-89.373108,36.324314,-89.402435C36.557358,-89.543213,36.862156,-89.376251,36.872795,-89.102112L36.88232,-88.856323L37.450611,-89.550842C37.038635,-89.93692,36.717457,-90.410004,36.512905,-90.935181C36.385635,-91.261948,36.307652,-91.589508,36.273769,-91.911728L33.569157,-91.761429L33.563347,-91.757996L34.511623,-89.280487L34.722477,-89.251923L34.710297,-89.078873L35.185555,-89.078598z"/>
    <path transform="matrix(1.33333,0,0,-1.33333,120.272003,-197.587006)" style="stroke:#000000;stroke-width:0.05mm;fill:none" d="M34.129822,-89.331802L33.251686,-91.626541L30.962761,-90.10199C30.94981,-89.990326,30.934757,-89.877625,30.917538,-89.76387L34.129822,-89.331802z"/>
    <path transform="matrix(1.33333,0,0,-1.33333,120.272003,-197.587006)" style="stroke:#000000;stroke-width:0.05mm;fill:none" d="M29.228405,-92.910828C29.223923,-92.91217,29.219162,-92.913498,29.214684,-92.915039C29.214684,-92.915039,27.820057,-93.347382,27.053581,-93.560333C26.999607,-93.473328,26.921764,-93.369568,26.829216,-93.257141C26.504047,-92.701035,26.025917,-92.026047,25.905022,-91.856995L25.50705,-90.984879C25.497807,-90.95079,25.482967,-90.917465,25.462105,-90.885971L25.315796,-90.565552C25.480305,-90.38269,25.476875,-90.117325,25.329235,-89.945877L26.780495,-87.728699L28.85458,-89.110382L28.499519,-89.506668C28.476768,-89.520462,28.454788,-89.535233,28.433086,-89.551117C28.02615,-89.84877,27.927723,-90.404968,28.213482,-90.79306L29.30513,-92.276321L29.243523,-92.903915L29.228405,-92.910828z"/>
    <path transform="matrix(1.33333,0,0,-1.33333,120.272003,-197.587006)" style="stroke:#000000;stroke-width:0.05mm;fill:none" d="M31.455658,-92.299057C31.324749,-92.060989,31.18187,-91.823685,31.028912,-91.586853C31.038994,-91.248169,31.031853,-90.900528,31.00539,-90.543076L33.09901,-91.937714L32.051254,-92.794907L31.749397,-92.425842C31.677925,-92.338562,31.568645,-92.292206,31.455658,-92.299057z"/>
    <path transform="matrix(1.33333,0,0,-1.33333,120.272003,-197.587006)" style="stroke:#000000;stroke-width:0.05mm;fill:none" d="M28.084885,-84.542603L31.882195,-85.615692L31.937218,-85.728973L31.767387,-86.027954L31.886955,-86.084305L31.346451,-86.63649L31.13525,-86.563202L29.406773,-88.493851L28.507988,-87.89006C28.259754,-87.723099,27.934586,-87.750122,27.71022,-87.935349L26.942974,-87.424179L28.084885,-84.542603z"/>
    <path transform="matrix(1.33333,0,0,-1.33333,120.272003,-197.587006)" style="stroke:#000000;stroke-width:0.05mm;fill:none" d="M31.147991,-88.451294L32.216885,-86.938919L31.9907,-86.860306L32.402115,-86.32666L32.48304,-86.364731L32.814091,-85.879272L34.670391,-86.403946C34.604519,-86.601288,34.636791,-86.8246,34.775959,-86.994705C34.829655,-87.060364,34.894196,-87.111969,34.965111,-87.149002L34.515896,-88.323181L31.147991,-88.451294z"/>
    <path transform="matrix(1.33333,0,0,-1.33333,120.272003,-197.587006)" style="stroke:#000000;stroke-width:0.05mm;fill:none" d="M34.79948,-88.528015L35.300644,-87.218307C35.369175,-87.213531,35.437431,-87.197662,35.502743,-87.17041L35.975273,-87.748016L35.502251,-88.408371L35.160355,-88.408646L35.166443,-88.571899L34.79948,-88.528015z"/>
    <path transform="matrix(1.33333,0,0,-1.33333,120.272003,-197.587006)" style="stroke:#000000;stroke-width:0.05mm;fill:none" d="M36.167156,-88.833847L36.164776,-88.900787L36.066067,-88.882309L36.167156,-88.833847z"/>
    <path transform="matrix(1.33333,0,0,-1.33333,120.272003,-197.587006)" style="stroke:#000000;stroke-width:0.05mm;fill:none" d="M34.204445,-92.136932L36.254452,-92.250992C36.250462,-92.675339,36.322422,-93.086472,36.458439,-93.469894L34.204445,-92.136932z"/>
    <path transform="matrix(1.33333,0,0,-1.33333,120.272003,-197.587006)" style="stroke:#000000;stroke-width:0.05mm;fill:none" d="M32.64608,-85.31041L32.724907,-85.346664L32.636276,-85.451965L32.64608,-85.31041z"/>
    <path transform="matrix(1.33333,0,0,-1.33333,120.272003,-197.587006)" style="stroke:#000000;stroke-width:0.05mm;fill:none" d="M41.096199,-61.56691C41.324013,-61.519821,40.74881,-64.247131,40.98587,-64.206665C42.666245,-63.919052,46.536034,-64.107712,48.715935,-64.227036C58.261299,-64.749588,58.819832,-65.087708,60.702606,-65.989426C67.065041,-69.036102,68.218361,-69.591721,68.218361,-69.591721L93.974998,-55.073776C94.670586,-54.672668,95.100533,-53.928131,95.100533,-53.125122C95.100533,-52.675598,94.965874,-52.236389,94.713982,-51.86438C91.851196,-47.632111,88.446274,-43.875824,84.624634,-40.660599C84.139915,-40.961182,83.409142,-40.924393,82.938446,-40.565353C82.634972,-40.331726,82.503738,-39.782181,82.672005,-39.417328C82.698997,-39.356995,82.755096,-39.278702,82.818321,-39.205399C82.077492,-38.633911,81.322639,-38.082245,80.554817,-37.550171C80.425964,-37.569489,80.29129,-37.590652,80.150528,-37.613403C78.916512,-37.814499,78.076195,-37.82666,77.350449,-37.650452C76.964951,-37.560226,76.391068,-37.264954,76.059021,-36.998505C75.587524,-36.613281,75.542549,-36.600845,74.722343,-36.564072C74.132065,-36.539459,73.943413,-36.514847,73.652367,-36.428604C73.172684,-36.289169,72.898048,-36.16217,72.492172,-35.895737C72.065926,-35.616852,71.713242,-35.272644,71.319542,-34.743744C70.954681,-34.259827,70.839844,-34.185989,70.270203,-34.0672C69.364006,-33.87854,69.540482,-33.870346,67.203423,-34.165619C65.497917,-34.382843,65.432297,-34.386017,65.366684,-34.443436C65.079605,-34.693466,47.92907,-53.007904,47.92907,-53.057129C47.92907,-53.094177,47.8526,-53.049179,47.745972,-53.184402C47.700996,-53.241806,47.663948,-53.344467,47.663948,-53.414047C47.663948,-53.496063,47.635376,-53.553482,47.577965,-53.582062C47.516319,-53.619095,47.504143,-53.643707,47.536957,-53.680496C47.569763,-53.721497,47.565529,-53.750336,47.524521,-53.783142C47.491707,-53.807739,47.475304,-53.864899,47.48774,-53.905914C47.524521,-54.041367,47.368675,-54.143768,47.085838,-54.176575C46.290504,-54.258606,45.675613,-54.451202,45.470558,-54.672668C45.359962,-54.791473,45.253334,-54.836716,44.556419,-55.037521C44.125946,-55.160568,43.424797,-55.390213,42.998558,-55.545792C41.866936,-55.960129,41.584091,-56.041885,41.305229,-56.041885C41.063393,-56.041885,40.911522,-56.091095,40.850143,-56.18132C40.796959,-56.255142,40.813362,-56.997284,40.878983,-57.591812C40.911522,-57.899246,40.936134,-58.403549,40.927925,-58.706757C40.919731,-59.223495,40.927925,-59.27272,41.01815,-59.444687C41.071602,-59.547348,41.190392,-59.71138,41.276649,-59.813782C41.657921,-60.244263,41.625099,-60.367279,41.096199,-60.510696C40.989578,-60.539536,40.870781,-60.596954,40.83374,-60.637955C40.747749,-60.732147,40.784523,-60.883759,41.001747,-61.338837C41.037735,-61.414246,41.070808,-61.49469,41.096199,-61.56691z"/>
    <path transform="matrix(1.33333,0,0,-1.33333,120.272003,-197.587006)" style="stroke:#000000;stroke-width:0.05mm;fill:none" d="M36.69566,-63.062592C36.732964,-62.294785,36.76339,-61.807938,36.783234,-61.658722C36.795406,-61.556076,36.861023,-61.388062,36.92664,-61.28566C36.992252,-61.182999,37.045437,-61.080612,37.045437,-61.060226C37.045437,-61.039597,36.934841,-60.920807,36.795406,-60.79776L36.545372,-60.572342L36.504364,-60.059845C36.459385,-59.473526,36.496159,-58.522354,36.578182,-58.132889C36.606758,-57.989471,36.627392,-57.862228,36.619194,-57.858246C36.569981,-57.809052,36.45118,-57.936035,36.328152,-58.169662C36.061714,-58.673965,35.873066,-58.837997,35.335964,-59.010254C35.102337,-59.088043,34.351982,-59.563751,34.118351,-59.785217C33.95034,-59.945023,33.929703,-60.080231,34.044533,-60.272827L34.11412,-60.395874L33.917534,-60.564148C33.728886,-60.732147,33.724651,-60.740356,33.790272,-60.830582C33.880493,-60.961807,33.839485,-61.035629,33.655067,-61.068436C33.56908,-61.080612,33.437843,-61.129822,33.364025,-61.174789C33.232792,-61.256821,33.232792,-61.256821,33.08939,-61.166595C32.929317,-61.068436,32.781681,-60.879791,32.781681,-60.773163C32.781681,-60.633728,33.425411,-59.452881,33.823078,-58.870804C33.888695,-58.768417,34.060936,-58.555161,34.200375,-58.391113C34.516022,-58.030502,34.536392,-57.997681,35.147316,-56.882477C35.881271,-55.541824,35.864868,-55.574646,35.832058,-55.361374C35.799252,-55.127747,35.832058,-55.090973,36.192684,-54.951538C36.479755,-54.844925,37.008659,-54.463638,37.143864,-54.274994C37.234081,-54.147995,37.225883,-54.000366,37.127457,-53.836319C37.057869,-53.721497,37.025063,-53.701126,36.943043,-53.721497C36.84885,-53.746109,36.828213,-53.717514,36.676605,-53.418015C36.586384,-53.237839,36.512566,-53.069565,36.512566,-53.04097C36.512566,-53.016388,36.553577,-52.95076,36.602787,-52.897568L36.693008,-52.803116L36.594585,-52.53273L36.500393,-52.266022L36.61496,-51.888992C36.709419,-51.569107,36.758629,-51.478882,36.918438,-51.314835C37.021095,-51.204254,37.152061,-51.093643,37.20948,-51.060852C37.37775,-50.974579,37.943428,-50.863998,38.103241,-50.888611C38.595367,-50.958191,39.136436,-51.33548,39.136436,-51.618332C39.136436,-51.696121,39.165276,-51.794525,39.197823,-51.835541C39.230629,-51.880798,39.259468,-51.974976,39.259468,-52.04483C39.259468,-52.114426,39.28804,-52.208603,39.320854,-52.257828C39.370064,-52.327667,39.374298,-52.385086,39.345459,-52.524521C39.312645,-52.659714,39.316887,-52.712891,39.366096,-52.766342C39.439911,-52.848373,39.439911,-52.97934,39.361862,-53.246033C39.292274,-53.471451,39.214226,-53.541046,39.021606,-53.541046C38.92318,-53.541046,38.894608,-53.561676,38.882172,-53.643707C38.832954,-53.885529,38.935616,-54.033157,39.054413,-53.889511C39.124268,-53.803513,39.206024,-53.811722,39.238831,-53.905914C39.259468,-53.975754,39.28804,-53.983963,39.456314,-53.963318C39.603691,-53.946915,39.870392,-53.992157,40.550903,-54.151978C41.050964,-54.2668,41.543083,-54.360992,41.645485,-54.360992C41.747871,-54.360992,42.034943,-54.299606,42.284981,-54.221817C42.953316,-54.016769,43.252556,-53.975754,43.871689,-54.008575C44.166962,-54.020737,44.609604,-54.016769,44.855667,-53.992157C45.441986,-53.934753,45.495163,-53.922318,45.466591,-53.84848C45.445953,-53.799545,45.474792,-53.787109,45.589355,-53.787109C45.831451,-53.787109,46.183876,-53.602707,46.474915,-53.319855C46.807228,-52.995743,46.838982,-53.055542,46.937935,-52.916885C46.995087,-52.836472,47.086105,-52.627182,47.183472,-52.518433C47.294067,-52.440384,63.572548,-35.266556,63.933174,-34.893478C64.281891,-34.540787,64.220772,-34.540283,64.138748,-34.540283C64.085571,-34.540283,64.309143,-34.530472,63.780243,-34.600067C62.734612,-34.731308,62.833031,-34.694519,62.439598,-35.063354L62.271591,-35.219193L62.095108,-34.551117C61.963875,-34.046814,61.791901,-33.571106,61.394234,-32.595322C60.951317,-31.521378,60.811882,-31.226105,60.537247,-30.78743C60.250175,-30.328094,60.155983,-30.217514,59.807526,-29.914032C59.590309,-29.72142,59.37281,-29.528793,59.331802,-29.479584L59.254013,-29.3936L60.049355,-29.401794C60.789391,-29.408676,60.962959,-29.401016,61.751678,-29.213943C57.733459,-28.2789,53.580559,-27.792343,49.366287,-27.792343C31.220638,-27.792343,14.214027,-36.813309,4.037363,-51.836594C3.78495,-52.208878,3.650013,-52.648605,3.650013,-53.098404C3.650013,-53.900879,4.079697,-54.645157,4.774492,-55.046524L29.71701,-69.124207C30.160984,-69.380844,32.676109,-67.623215,36.523678,-66.220673C36.716293,-66.150284,36.471027,-63.768234,36.69566,-63.062592z"/>
    <path transform="matrix(1.33333,0,0,-1.33333,120.272003,-197.587006)" style="stroke:#000000;stroke-width:0.05mm;fill:none" d="M66.487724,-30.542419C66.592766,-30.651428,66.704422,-30.75647,66.822151,-30.85701C67.051811,-31.053864,67.433083,-31.390152,67.670937,-31.607361C68.499084,-32.361694,68.802292,-32.619934,69.208168,-32.919174C69.737068,-33.312866,69.851898,-33.370285,70.433975,-33.571106C70.700676,-33.661331,70.999924,-33.784363,71.098351,-33.841766C71.282761,-33.952362,71.323769,-33.993378,71.72541,-34.538681C72.422592,-35.489868,73.053879,-35.973526,73.882027,-36.203171C74.173073,-36.281219,74.271492,-36.289169,74.779762,-36.264832C75.095673,-36.25238,75.353905,-36.235992,75.362106,-36.23201C75.366081,-36.223816,75.337502,-36.117188,75.296494,-35.994156C75.210236,-35.744125,75.189865,-35.321854,75.255486,-35.084C75.280083,-34.998001,75.357872,-34.854324,75.431694,-34.760147C75.501808,-34.66806,75.586212,-34.593719,75.679344,-34.536835C72.748558,-32.930283,69.671715,-31.592026,66.487724,-30.542419z"/>
    <path transform="matrix(1.33333,0,0,-1.33333,120.272003,-197.587006)" style="stroke:#000000;stroke-width:0.05mm;fill:none" d="M71.261856,-82.611862C71.542053,-82.570053,71.859024,-82.593079,72.222832,-82.677216L72.434761,-82.727493L72.511749,-82.576141C72.554619,-82.494125,72.661774,-82.286682,72.748291,-82.120529C73.135376,-81.365936,73.549706,-80.907669,74.137352,-80.583023C74.771027,-80.232468,75.642563,-80.125839,76.590302,-80.280609L76.701164,-80.297287L76.784241,-80.077408C77.273453,-78.803177,78.230453,-78.321915,79.151733,-78.889435C79.2192,-78.932831,79.343285,-79.02121,79.425842,-79.089188C79.5457,-79.183929,79.584328,-79.205887,79.605232,-79.187088C79.621895,-79.174652,79.713448,-79.057724,79.811073,-78.930176C80.281502,-78.313965,80.45401,-78.131683,80.76384,-77.9216C81.277924,-77.574463,81.985947,-77.522339,82.804832,-77.775009L83.074699,-77.858353L83.119949,-77.654373C83.202499,-77.289246,83.365746,-77.046616,83.607048,-76.93576C83.959999,-76.774094,84.357933,-76.884415,84.920174,-77.305908C85.045319,-77.399567,85.162537,-77.485825,85.181313,-77.499039C85.208298,-77.517563,85.224976,-77.505127,85.258316,-77.437668C85.481087,-76.985489,85.688789,-76.738907,85.970299,-76.58783C86.538628,-76.284882,87.181038,-76.470627,87.989861,-77.173615C88.1092,-77.278122,88.211052,-77.364639,88.21582,-77.366241C88.220314,-77.367569,88.233284,-77.333954,88.246773,-77.290558C88.28064,-77.180756,88.4431,-76.875168,88.551315,-76.720917C89.091331,-75.945679,89.873703,-75.964203,90.560555,-76.767212L90.661888,-76.888931L90.818527,-76.864594C91.017494,-76.833359,91.233658,-76.869873,91.464897,-76.971481C91.671806,-77.062759,92.085617,-77.350616,92.402061,-77.618637C92.587532,-77.778717,92.636208,-77.83374,92.718765,-77.991974C93.160614,-78.827255,93.382339,-80.278229,93.332596,-82.018921C93.276772,-83.935303,92.932281,-86.090866,92.297546,-88.507294C92.182449,-88.94545,91.594551,-90.752563,91.430244,-91.170334C90.561356,-93.379333,89.654358,-94.78772,88.759544,-95.313171C88.555809,-95.433044,88.01844,-95.660309,87.834816,-95.706604C87.10907,-95.880707,86.475388,-95.649994,85.95787,-95.026886L85.791977,-94.827911L85.562584,-94.892487C85.272331,-94.973175,85.120995,-94.996735,84.847412,-95.007324C84.229347,-95.029541,83.659172,-94.838501,83.217316,-94.461731C82.985016,-94.264618,82.692642,-93.828857,82.579666,-93.515854L82.544479,-93.424835L82.254234,-93.472992C81.655487,-93.571426,81.204361,-93.462143,80.895073,-93.14624C80.68129,-92.930069,80.532066,-92.538223,80.511421,-92.146103C80.508255,-92.042404,80.502953,-91.953232,80.503487,-91.950851C80.5019,-91.947952,80.320923,-91.871994,80.101059,-91.781509C79.437485,-91.509003,79.133476,-91.340195,78.838463,-91.076126C78.392113,-90.672913,78.176743,-90.143219,78.185471,-89.459534L78.187851,-89.305023L77.820084,-89.178818C77.527451,-89.078537,77.411835,-89.027725,77.246735,-88.924286C76.826042,-88.666855,76.453514,-88.253571,76.245018,-87.815948C76.189461,-87.701111,76.147919,-87.59819,76.150833,-87.589203C76.163528,-87.547928,76.109818,-87.566452,75.879105,-87.683121C75.547577,-87.84874,75.351517,-87.878387,75.072922,-87.807465C74.764145,-87.72731,74.523384,-87.550293,74.251122,-87.19577L74.133911,-87.044159L74.078087,-87.109772C73.660835,-87.594482,73.447319,-87.77916,73.117119,-87.940292C72.528419,-88.227097,71.916969,-88.088455,71.490463,-87.570938C71.437019,-87.506912,71.390709,-87.452408,71.385956,-87.45108C71.381454,-87.449753,71.322983,-87.491821,71.258682,-87.544479C70.884827,-87.847427,70.446678,-88.022842,70.034988,-88.038467C69.899788,-88.043488,69.743683,-88.020996,69.590225,-87.978134C68.659683,-88.063599,68.186348,-86.865295,67.942398,-87.34552C65.261902,-92.61998,60.25811,-93.405792,58.315277,-94.66626C56.392021,-95.913757,51.481628,-97.193573,51.481361,-98.112457L50.850327,-134.908295C50.850327,-134.908295,50.850327,-134.908295,50.850327,-134.908295C50.850327,-136.143921,51.866066,-137.159912,53.100342,-137.159912C53.153786,-137.159912,53.20697,-137.157257,53.260414,-137.154602C81.756287,-135.12262,104.116219,-111.109039,104.116219,-82.542282C104.116219,-74.261871,102.237938,-66.088379,98.622673,-58.639038C98.246956,-57.864868,97.45903,-57.371414,96.598343,-57.371414C96.20385,-57.371414,95.815971,-57.475128,95.474129,-57.672501L68.372879,-73.297745C67.577003,-73.75705,69.346008,-74.890259,69.269814,-78.036163C69.230919,-79.633438,68.477119,-81.790314,68.92215,-82.357071C69.713783,-83.364868,70.146904,-81.566498,70.730843,-81.685028C71.076653,-81.755402,71.32325,-82.296219,71.261856,-82.611862z"/>
</svg>
